G04 #@! TF.GenerationSoftware,KiCad,Pcbnew,9.0.4*
G04 #@! TF.CreationDate,2025-10-20T14:52:43-04:00*
G04 #@! TF.ProjectId,RF_INPUT_BREAKOUT_SIMPLE,52465f49-4e50-4555-945f-425245414b4f,rev?*
G04 #@! TF.SameCoordinates,Original*
G04 #@! TF.FileFunction,Copper,L1,Top*
G04 #@! TF.FilePolarity,Positive*
%FSLAX46Y46*%
G04 Gerber Fmt 4.6, Leading zero omitted, Abs format (unit mm)*
G04 Created by KiCad (PCBNEW 9.0.4) date 2025-10-20 14:52:43*
%MOMM*%
%LPD*%
G01*
G04 APERTURE LIST*
G04 Aperture macros list*
%AMRoundRect*
0 Rectangle with rounded corners*
0 $1 Rounding radius*
0 $2 $3 $4 $5 $6 $7 $8 $9 X,Y pos of 4 corners*
0 Add a 4 corners polygon primitive as box body*
4,1,4,$2,$3,$4,$5,$6,$7,$8,$9,$2,$3,0*
0 Add four circle primitives for the rounded corners*
1,1,$1+$1,$2,$3*
1,1,$1+$1,$4,$5*
1,1,$1+$1,$6,$7*
1,1,$1+$1,$8,$9*
0 Add four rect primitives between the rounded corners*
20,1,$1+$1,$2,$3,$4,$5,0*
20,1,$1+$1,$4,$5,$6,$7,0*
20,1,$1+$1,$6,$7,$8,$9,0*
20,1,$1+$1,$8,$9,$2,$3,0*%
G04 Aperture macros list end*
G04 #@! TA.AperFunction,SMDPad,CuDef*
%ADD10RoundRect,0.250000X0.450000X-0.262500X0.450000X0.262500X-0.450000X0.262500X-0.450000X-0.262500X0*%
G04 #@! TD*
G04 #@! TA.AperFunction,SMDPad,CuDef*
%ADD11RoundRect,0.250000X-0.262500X-0.450000X0.262500X-0.450000X0.262500X0.450000X-0.262500X0.450000X0*%
G04 #@! TD*
G04 #@! TA.AperFunction,SMDPad,CuDef*
%ADD12RoundRect,0.250000X0.262500X0.450000X-0.262500X0.450000X-0.262500X-0.450000X0.262500X-0.450000X0*%
G04 #@! TD*
G04 #@! TA.AperFunction,SMDPad,CuDef*
%ADD13RoundRect,0.250000X-0.475000X0.250000X-0.475000X-0.250000X0.475000X-0.250000X0.475000X0.250000X0*%
G04 #@! TD*
G04 #@! TA.AperFunction,ComponentPad*
%ADD14R,1.700000X1.700000*%
G04 #@! TD*
G04 #@! TA.AperFunction,ComponentPad*
%ADD15C,1.700000*%
G04 #@! TD*
G04 #@! TA.AperFunction,ViaPad*
%ADD16C,0.600000*%
G04 #@! TD*
G04 #@! TA.AperFunction,Conductor*
%ADD17C,0.508000*%
G04 #@! TD*
G04 #@! TA.AperFunction,Conductor*
%ADD18C,0.406400*%
G04 #@! TD*
G04 APERTURE END LIST*
D10*
X135500000Y-108487500D03*
X135500000Y-106662500D03*
D11*
X150337500Y-60590000D03*
X152162500Y-60590000D03*
D12*
X116012500Y-63230000D03*
X114187500Y-63230000D03*
X116012500Y-66730000D03*
X114187500Y-66730000D03*
X116012500Y-70230000D03*
X114187500Y-70230000D03*
X116662500Y-73750000D03*
X114837500Y-73750000D03*
D11*
X107512500Y-84480000D03*
X109337500Y-84480000D03*
X107425000Y-81220000D03*
X109250000Y-81220000D03*
X107512500Y-78220000D03*
X109337500Y-78220000D03*
X107512500Y-74960000D03*
X109337500Y-74960000D03*
X107512500Y-71500000D03*
X109337500Y-71500000D03*
X107512500Y-68230000D03*
X109337500Y-68230000D03*
X107512500Y-64980000D03*
X109337500Y-64980000D03*
X107587500Y-61730000D03*
X109412500Y-61730000D03*
D13*
X107250000Y-151850000D03*
X107250000Y-153750000D03*
X110250000Y-151850000D03*
X110250000Y-153750000D03*
X147500000Y-60415000D03*
X147500000Y-62315000D03*
D14*
X190500000Y-57000000D03*
D15*
X190500000Y-59540000D03*
X190500000Y-62080000D03*
X190500000Y-64620000D03*
X190500000Y-67160000D03*
D14*
X121750000Y-145250000D03*
D15*
X121750000Y-147790000D03*
X121750000Y-150330000D03*
D14*
X146750000Y-77000000D03*
D15*
X146750000Y-79540000D03*
X146750000Y-82080000D03*
X146750000Y-84620000D03*
X146750000Y-87160000D03*
X146750000Y-89700000D03*
X146750000Y-92240000D03*
X146750000Y-94780000D03*
D14*
X121750000Y-59040000D03*
D15*
X121750000Y-61580000D03*
X121750000Y-64120000D03*
X121750000Y-66660000D03*
X121750000Y-69200000D03*
X121750000Y-71740000D03*
X121750000Y-74280000D03*
X121750000Y-76820000D03*
X121750000Y-79360000D03*
X121750000Y-81900000D03*
X121750000Y-84440000D03*
X121750000Y-86980000D03*
X121750000Y-89520000D03*
X121750000Y-92060000D03*
X121750000Y-94600000D03*
X121750000Y-97140000D03*
X121750000Y-99680000D03*
X121750000Y-102220000D03*
X121750000Y-104760000D03*
X121750000Y-107300000D03*
X121750000Y-109840000D03*
X121750000Y-112380000D03*
X121750000Y-114920000D03*
X121750000Y-117460000D03*
X121750000Y-120000000D03*
X121750000Y-122540000D03*
X121750000Y-125080000D03*
X121750000Y-127620000D03*
D14*
X139500000Y-142710000D03*
D15*
X139500000Y-145250000D03*
X139500000Y-147790000D03*
X139500000Y-150330000D03*
D14*
X102500000Y-63240000D03*
D15*
X102500000Y-65780000D03*
X102500000Y-68320000D03*
X102500000Y-70860000D03*
X102500000Y-73400000D03*
X102500000Y-75940000D03*
X102500000Y-78480000D03*
X102500000Y-81020000D03*
D14*
X157500000Y-54880000D03*
D15*
X157500000Y-57420000D03*
X157500000Y-59960000D03*
X157500000Y-62500000D03*
D14*
X103000000Y-118730000D03*
D15*
X103000000Y-121270000D03*
X103000000Y-123810000D03*
X103000000Y-126350000D03*
X103000000Y-128890000D03*
X103000000Y-131430000D03*
X103000000Y-133970000D03*
X103000000Y-136510000D03*
X103000000Y-139050000D03*
X103000000Y-141590000D03*
X103000000Y-144130000D03*
X103000000Y-146670000D03*
X103000000Y-149210000D03*
X103000000Y-151750000D03*
D14*
X139500000Y-59070000D03*
D15*
X139500000Y-61610000D03*
X139500000Y-64150000D03*
X139500000Y-66690000D03*
X139500000Y-69230000D03*
X139500000Y-71770000D03*
X139500000Y-74310000D03*
X139500000Y-76850000D03*
X139500000Y-79390000D03*
X139500000Y-81930000D03*
X139500000Y-84470000D03*
X139500000Y-87010000D03*
X139500000Y-89550000D03*
X139500000Y-92090000D03*
X139500000Y-94630000D03*
X139500000Y-97170000D03*
X139500000Y-99710000D03*
X139500000Y-102250000D03*
X139500000Y-104790000D03*
X139500000Y-107330000D03*
X139500000Y-109870000D03*
X139500000Y-112410000D03*
X139500000Y-114950000D03*
X139500000Y-117490000D03*
X139500000Y-120030000D03*
X139500000Y-122570000D03*
X139500000Y-125110000D03*
X139500000Y-127650000D03*
D14*
X187250000Y-131420000D03*
D15*
X187250000Y-133960000D03*
X187250000Y-136500000D03*
X187250000Y-139040000D03*
D16*
X150504096Y-104724705D03*
X179250000Y-64000000D03*
X119250000Y-63750000D03*
X119750000Y-74000000D03*
X183500000Y-59500000D03*
X154000000Y-81750000D03*
X118500000Y-74000000D03*
X116500000Y-85750000D03*
X137273934Y-129725478D03*
X149750000Y-93000000D03*
X107750000Y-156500000D03*
X117250000Y-129750000D03*
X141834897Y-128989839D03*
X148750000Y-64000000D03*
X124250000Y-87500000D03*
X118250000Y-67250000D03*
X124250000Y-127500000D03*
X124000000Y-101250000D03*
X116124608Y-131995362D03*
X113547217Y-134400927D03*
X112250000Y-154500000D03*
X124250000Y-112750000D03*
X151250000Y-86250000D03*
X160500000Y-82500000D03*
X155500000Y-52000000D03*
X160000000Y-55000000D03*
X157500000Y-85750000D03*
X105500000Y-155500000D03*
X103250000Y-84250000D03*
X114000000Y-86000000D03*
X109750000Y-156250000D03*
X142500000Y-96750000D03*
X153250000Y-62250000D03*
X150500000Y-82250000D03*
X119250000Y-128750000D03*
X124000000Y-99250000D03*
X154706330Y-53249413D03*
X117500000Y-67750000D03*
X105500000Y-61500000D03*
X123990885Y-94126312D03*
X141736811Y-127886381D03*
X147250000Y-64000000D03*
X119500000Y-126750000D03*
X136750000Y-126750000D03*
X153250000Y-59000000D03*
X118500000Y-86000000D03*
X143000000Y-79500000D03*
X118000000Y-70000000D03*
X124250000Y-109250000D03*
X148750000Y-59000000D03*
X124250000Y-115500000D03*
X118500000Y-62250000D03*
X141540641Y-131196756D03*
X109137014Y-139498434D03*
X111750000Y-156250000D03*
X154500000Y-55000000D03*
X150250000Y-78500000D03*
X152750000Y-90250000D03*
X141750000Y-126750000D03*
X144221507Y-95030840D03*
X124250000Y-84250000D03*
X106250000Y-140750000D03*
X143194289Y-78130028D03*
X170250000Y-73250000D03*
X142000000Y-73750000D03*
X160500000Y-53750000D03*
X175750000Y-67500000D03*
X143750000Y-104750000D03*
X143308840Y-65930376D03*
X124235545Y-121032521D03*
X118753614Y-127575323D03*
X124000000Y-103750000D03*
X105500000Y-154000000D03*
X136750000Y-127750000D03*
X159267293Y-52440210D03*
X149734825Y-63199329D03*
X124000000Y-91000000D03*
X124250000Y-128500000D03*
X124250000Y-123250000D03*
X124250000Y-118250000D03*
X118750000Y-70750000D03*
X106916957Y-60284190D03*
X118250000Y-73250000D03*
X105000000Y-85750000D03*
X155000000Y-59000000D03*
X146750000Y-59000000D03*
X164750000Y-78500000D03*
X117500000Y-70750000D03*
X108750000Y-60250000D03*
X124250000Y-126250000D03*
X124250000Y-107000000D03*
X105500000Y-153000000D03*
X143500000Y-71000000D03*
X155000000Y-62750000D03*
X136750000Y-128750000D03*
X117250000Y-60750000D03*
X114750000Y-60500000D03*
X155277043Y-104037400D03*
X111084376Y-137035594D03*
X124250000Y-125000000D03*
X111000000Y-63250000D03*
X112250000Y-86000000D03*
X107750000Y-86250000D03*
X117500000Y-66500000D03*
X123750000Y-96750000D03*
X142449710Y-62665681D03*
X146991207Y-104228318D03*
X151496869Y-101479101D03*
X187750000Y-58250000D03*
X112500000Y-153250000D03*
X153500000Y-101000000D03*
X144500000Y-60750000D03*
X110000000Y-86250000D03*
X112500000Y-63500000D03*
D17*
X110150000Y-151750000D02*
X110250000Y-151850000D01*
X103000000Y-151750000D02*
X110150000Y-151750000D01*
D18*
X119470000Y-72000000D02*
X121750000Y-74280000D01*
X112275000Y-68230000D02*
X116045000Y-72000000D01*
X116045000Y-72000000D02*
X119470000Y-72000000D01*
X109250000Y-68230000D02*
X112275000Y-68230000D01*
X118760000Y-68750000D02*
X121750000Y-71740000D01*
X116295000Y-68750000D02*
X118760000Y-68750000D01*
X112525000Y-64980000D02*
X116295000Y-68750000D01*
X109250000Y-64980000D02*
X112525000Y-64980000D01*
X145500000Y-62590000D02*
X145500000Y-73390000D01*
X150425000Y-60590000D02*
X147500000Y-60590000D01*
X147500000Y-60590000D02*
X145500000Y-62590000D01*
X145500000Y-73390000D02*
X139500000Y-79390000D01*
X135500000Y-106750000D02*
X135500000Y-101936293D01*
X139010790Y-98425503D02*
X143104497Y-98425503D01*
X143104497Y-98425503D02*
X146750000Y-94780000D01*
X135500000Y-101936293D02*
X139010790Y-98425503D01*
X102500000Y-75940000D02*
X104780000Y-78220000D01*
X104780000Y-78220000D02*
X107600000Y-78220000D01*
X104060000Y-74960000D02*
X107600000Y-74960000D01*
X102500000Y-73400000D02*
X104060000Y-74960000D01*
X107510000Y-68320000D02*
X107600000Y-68230000D01*
X102500000Y-68320000D02*
X107510000Y-68320000D01*
X106960000Y-70860000D02*
X107600000Y-71500000D01*
X102500000Y-70860000D02*
X106960000Y-70860000D01*
X102500000Y-63240000D02*
X106165000Y-63240000D01*
X106165000Y-63240000D02*
X107675000Y-61730000D01*
X102500000Y-65780000D02*
X106800000Y-65780000D01*
X106800000Y-65780000D02*
X107600000Y-64980000D01*
X102500000Y-78480000D02*
X105240000Y-81220000D01*
X105240000Y-81220000D02*
X107600000Y-81220000D01*
X105960000Y-84480000D02*
X107600000Y-84480000D01*
X102500000Y-81020000D02*
X105960000Y-84480000D01*
X109250000Y-74960000D02*
X111040000Y-76750000D01*
X111040000Y-76750000D02*
X119140000Y-76750000D01*
X119140000Y-76750000D02*
X121750000Y-79360000D01*
X103000000Y-146670000D02*
X104473707Y-146670000D01*
X104473707Y-146670000D02*
X123004200Y-128139507D01*
X123004200Y-108554200D02*
X121750000Y-107300000D01*
X123004200Y-128139507D02*
X123004200Y-108554200D01*
X125500000Y-141500000D02*
X125500000Y-70410000D01*
X121750000Y-145250000D02*
X125500000Y-141500000D01*
X125500000Y-70410000D02*
X121750000Y-66660000D01*
X109250000Y-84480000D02*
X119250000Y-84480000D01*
X119250000Y-84480000D02*
X121750000Y-86980000D01*
X119100000Y-79250000D02*
X121750000Y-81900000D01*
X110280000Y-79250000D02*
X119100000Y-79250000D01*
X109250000Y-78220000D02*
X110280000Y-79250000D01*
X103000000Y-144130000D02*
X98750000Y-139880000D01*
X98750000Y-139880000D02*
X98750000Y-118000000D01*
X103500000Y-113250000D02*
X113260000Y-113250000D01*
X113260000Y-113250000D02*
X121750000Y-104760000D01*
X98750000Y-118000000D02*
X103500000Y-113250000D01*
X126750000Y-145330000D02*
X126750000Y-69120000D01*
X126750000Y-69120000D02*
X121750000Y-64120000D01*
X121750000Y-150330000D02*
X126750000Y-145330000D01*
X118530000Y-81220000D02*
X121750000Y-84440000D01*
X109250000Y-81220000D02*
X118530000Y-81220000D01*
X117300000Y-64750000D02*
X121750000Y-69200000D01*
X115795000Y-64750000D02*
X117300000Y-64750000D01*
X112775000Y-61730000D02*
X114275000Y-63230000D01*
X114275000Y-63230000D02*
X115795000Y-64750000D01*
X109325000Y-61730000D02*
X112775000Y-61730000D01*
X103000000Y-141590000D02*
X118250000Y-126340000D01*
X118250000Y-126340000D02*
X118250000Y-118420000D01*
X118250000Y-118420000D02*
X121750000Y-114920000D01*
X115500000Y-124010000D02*
X115500000Y-116090000D01*
X103000000Y-136510000D02*
X115500000Y-124010000D01*
X115500000Y-116090000D02*
X121750000Y-109840000D01*
X116750000Y-125300000D02*
X116750000Y-117380000D01*
X103000000Y-139050000D02*
X116750000Y-125300000D01*
X116750000Y-117380000D02*
X121750000Y-112380000D01*
X146750000Y-89700000D02*
X144800000Y-89700000D01*
X144800000Y-89700000D02*
X142410000Y-92090000D01*
X142410000Y-92090000D02*
X139500000Y-92090000D01*
X187250000Y-133960000D02*
X161050000Y-133960000D01*
X161050000Y-133960000D02*
X139500000Y-112410000D01*
X139500000Y-112410000D02*
X135500000Y-108410000D01*
X135500000Y-108410000D02*
X135500000Y-108400000D01*
X187250000Y-136500000D02*
X161050000Y-136500000D01*
X161050000Y-136500000D02*
X139500000Y-114950000D01*
X139500000Y-102250000D02*
X146000000Y-102250000D01*
X146000000Y-102250000D02*
X186170000Y-62080000D01*
X186170000Y-62080000D02*
X190500000Y-62080000D01*
X181814794Y-132705800D02*
X158978994Y-109870000D01*
X187250000Y-139040000D02*
X188504200Y-137785800D01*
X188504200Y-137785800D02*
X188504200Y-133440493D01*
X158978994Y-109870000D02*
X139500000Y-109870000D01*
X188504200Y-133440493D02*
X187769507Y-132705800D01*
X187769507Y-132705800D02*
X181814794Y-132705800D01*
X146670000Y-82000000D02*
X146750000Y-82080000D01*
X139500000Y-81930000D02*
X139570000Y-82000000D01*
X139570000Y-82000000D02*
X146670000Y-82000000D01*
X159830000Y-107330000D02*
X139500000Y-107330000D01*
X187250000Y-131420000D02*
X183920000Y-131420000D01*
X183920000Y-131420000D02*
X159830000Y-107330000D01*
X150184200Y-90985800D02*
X184170000Y-57000000D01*
X139500000Y-97170000D02*
X145684200Y-90985800D01*
X145684200Y-90985800D02*
X150184200Y-90985800D01*
X184170000Y-57000000D02*
X190500000Y-57000000D01*
X146750000Y-87160000D02*
X144590000Y-87160000D01*
X142200000Y-89550000D02*
X139500000Y-89550000D01*
X144590000Y-87160000D02*
X142200000Y-89550000D01*
X145540000Y-99710000D02*
X185710000Y-59540000D01*
X139500000Y-99710000D02*
X145540000Y-99710000D01*
X185710000Y-59540000D02*
X190500000Y-59540000D01*
X155340000Y-60590000D02*
X152075000Y-60590000D01*
X157500000Y-62500000D02*
X157250000Y-62500000D01*
X157250000Y-62500000D02*
X155340000Y-60590000D01*
X120180000Y-75250000D02*
X121750000Y-76820000D01*
X116045000Y-75250000D02*
X120180000Y-75250000D01*
X112295000Y-71500000D02*
X114275000Y-73480000D01*
X114275000Y-73480000D02*
X116045000Y-75250000D01*
X109250000Y-71500000D02*
X112295000Y-71500000D01*
G04 #@! TA.AperFunction,Conductor*
G36*
X125965634Y-142132061D02*
G01*
X126021567Y-142173933D01*
X126045984Y-142239397D01*
X126046300Y-142248243D01*
X126046300Y-144987155D01*
X126026615Y-145054194D01*
X126009981Y-145074836D01*
X123311681Y-147773135D01*
X123250358Y-147806620D01*
X123180666Y-147801636D01*
X123124733Y-147759764D01*
X123100316Y-147694300D01*
X123100000Y-147685454D01*
X123100000Y-147683753D01*
X123066757Y-147473872D01*
X123066757Y-147473869D01*
X123001095Y-147271782D01*
X122904624Y-147082449D01*
X122865270Y-147028282D01*
X122865269Y-147028282D01*
X122232962Y-147660590D01*
X122215925Y-147597007D01*
X122150099Y-147482993D01*
X122057007Y-147389901D01*
X121942993Y-147324075D01*
X121879409Y-147307037D01*
X122549627Y-146636818D01*
X122610950Y-146603333D01*
X122637307Y-146600499D01*
X122647872Y-146600499D01*
X122707483Y-146594091D01*
X122842331Y-146543796D01*
X122957546Y-146457546D01*
X123043796Y-146342331D01*
X123094091Y-146207483D01*
X123100500Y-146147873D01*
X123100499Y-144946042D01*
X123120184Y-144879004D01*
X123136813Y-144858367D01*
X125834619Y-142160562D01*
X125895942Y-142127077D01*
X125965634Y-142132061D01*
G37*
G04 #@! TD.AperFunction*
G04 #@! TA.AperFunction,Conductor*
G36*
X120318834Y-117448861D02*
G01*
X120374767Y-117490733D01*
X120399184Y-117556197D01*
X120399500Y-117565043D01*
X120399500Y-117566287D01*
X120404055Y-117595044D01*
X120432163Y-117772517D01*
X120432754Y-117776243D01*
X120496170Y-117971417D01*
X120498444Y-117978414D01*
X120594951Y-118167820D01*
X120719890Y-118339786D01*
X120870213Y-118490109D01*
X121042182Y-118615050D01*
X121050946Y-118619516D01*
X121101742Y-118667491D01*
X121118536Y-118735312D01*
X121095998Y-118801447D01*
X121050946Y-118840484D01*
X121042182Y-118844949D01*
X120870213Y-118969890D01*
X120719890Y-119120213D01*
X120594951Y-119292179D01*
X120498444Y-119481585D01*
X120432753Y-119683760D01*
X120428002Y-119713757D01*
X120399500Y-119893713D01*
X120399500Y-120106287D01*
X120400872Y-120114949D01*
X120426486Y-120276673D01*
X120432754Y-120316243D01*
X120456788Y-120390213D01*
X120498444Y-120518414D01*
X120594951Y-120707820D01*
X120719890Y-120879786D01*
X120870213Y-121030109D01*
X121042182Y-121155050D01*
X121050946Y-121159516D01*
X121101742Y-121207491D01*
X121118536Y-121275312D01*
X121095998Y-121341447D01*
X121050946Y-121380484D01*
X121042182Y-121384949D01*
X120870213Y-121509890D01*
X120719890Y-121660213D01*
X120594951Y-121832179D01*
X120498444Y-122021585D01*
X120432753Y-122223760D01*
X120420661Y-122300109D01*
X120399500Y-122433713D01*
X120399500Y-122646287D01*
X120432754Y-122856243D01*
X120456788Y-122930213D01*
X120498444Y-123058414D01*
X120594951Y-123247820D01*
X120719890Y-123419786D01*
X120870213Y-123570109D01*
X121042182Y-123695050D01*
X121050946Y-123699516D01*
X121101742Y-123747491D01*
X121118536Y-123815312D01*
X121095998Y-123881447D01*
X121050946Y-123920484D01*
X121042182Y-123924949D01*
X120870213Y-124049890D01*
X120719890Y-124200213D01*
X120594951Y-124372179D01*
X120498444Y-124561585D01*
X120432753Y-124763760D01*
X120420661Y-124840109D01*
X120399500Y-124973713D01*
X120399500Y-125186287D01*
X120432754Y-125396243D01*
X120456788Y-125470213D01*
X120498444Y-125598414D01*
X120594951Y-125787820D01*
X120719890Y-125959786D01*
X120870213Y-126110109D01*
X121042179Y-126235048D01*
X121042181Y-126235049D01*
X121042184Y-126235051D01*
X121051493Y-126239794D01*
X121102290Y-126287766D01*
X121119087Y-126355587D01*
X121096552Y-126421722D01*
X121051505Y-126460760D01*
X121042446Y-126465376D01*
X121042440Y-126465380D01*
X120988282Y-126504727D01*
X120988282Y-126504728D01*
X121620591Y-127137037D01*
X121557007Y-127154075D01*
X121442993Y-127219901D01*
X121349901Y-127312993D01*
X121284075Y-127427007D01*
X121267037Y-127490591D01*
X120634728Y-126858282D01*
X120634727Y-126858282D01*
X120595380Y-126912439D01*
X120498904Y-127101782D01*
X120433242Y-127303869D01*
X120433242Y-127303872D01*
X120400000Y-127513753D01*
X120400000Y-127726246D01*
X120433242Y-127936127D01*
X120433242Y-127936130D01*
X120498904Y-128138217D01*
X120595375Y-128327550D01*
X120634728Y-128381716D01*
X121267037Y-127749408D01*
X121284075Y-127812993D01*
X121349901Y-127927007D01*
X121442993Y-128020099D01*
X121557007Y-128085925D01*
X121620589Y-128102962D01*
X120988282Y-128735269D01*
X120988282Y-128735270D01*
X121042449Y-128774624D01*
X121109952Y-128809019D01*
X121160748Y-128856994D01*
X121177543Y-128924815D01*
X121155006Y-128990950D01*
X121141338Y-129007185D01*
X104270880Y-145877644D01*
X104209557Y-145911129D01*
X104139865Y-145906145D01*
X104083932Y-145864273D01*
X104082881Y-145862848D01*
X104030109Y-145790214D01*
X104030105Y-145790209D01*
X103879786Y-145639890D01*
X103707820Y-145514951D01*
X103707115Y-145514591D01*
X103699054Y-145510485D01*
X103648259Y-145462512D01*
X103631463Y-145394692D01*
X103653999Y-145328556D01*
X103699054Y-145289515D01*
X103707816Y-145285051D01*
X103754748Y-145250953D01*
X103879786Y-145160109D01*
X103879788Y-145160106D01*
X103879792Y-145160104D01*
X104030104Y-145009792D01*
X104030106Y-145009788D01*
X104030109Y-145009786D01*
X104155048Y-144837820D01*
X104155047Y-144837820D01*
X104155051Y-144837816D01*
X104251557Y-144648412D01*
X104317246Y-144446243D01*
X104350500Y-144236287D01*
X104350500Y-144023713D01*
X104317246Y-143813757D01*
X104251557Y-143611588D01*
X104155051Y-143422184D01*
X104155049Y-143422181D01*
X104155048Y-143422179D01*
X104030109Y-143250213D01*
X103879786Y-143099890D01*
X103707820Y-142974951D01*
X103707115Y-142974591D01*
X103699054Y-142970485D01*
X103648259Y-142922512D01*
X103631463Y-142854692D01*
X103653999Y-142788556D01*
X103699054Y-142749515D01*
X103707816Y-142745051D01*
X103729789Y-142729086D01*
X103879786Y-142620109D01*
X103879788Y-142620106D01*
X103879792Y-142620104D01*
X104030104Y-142469792D01*
X104030106Y-142469788D01*
X104030109Y-142469786D01*
X104155048Y-142297820D01*
X104155047Y-142297820D01*
X104155051Y-142297816D01*
X104251557Y-142108412D01*
X104317246Y-141906243D01*
X104350500Y-141696287D01*
X104350500Y-141483713D01*
X104326333Y-141331131D01*
X104335287Y-141261841D01*
X104361122Y-141224058D01*
X118698579Y-126886602D01*
X118698583Y-126886600D01*
X118796600Y-126788583D01*
X118873611Y-126673327D01*
X118876546Y-126666243D01*
X118926656Y-126545264D01*
X118926657Y-126545262D01*
X118947041Y-126442788D01*
X118953701Y-126409310D01*
X118953701Y-126265581D01*
X118953700Y-126265555D01*
X118953700Y-118762843D01*
X118973385Y-118695804D01*
X118990014Y-118675167D01*
X120187819Y-117477361D01*
X120249142Y-117443877D01*
X120318834Y-117448861D01*
G37*
G04 #@! TD.AperFunction*
G04 #@! TA.AperFunction,Conductor*
G36*
X119194195Y-72723385D02*
G01*
X119214837Y-72740019D01*
X120388873Y-73914055D01*
X120422358Y-73975378D01*
X120423666Y-74021133D01*
X120419144Y-74049686D01*
X120399500Y-74173713D01*
X120399500Y-74173718D01*
X120399500Y-74386288D01*
X120402721Y-74406627D01*
X120393765Y-74475920D01*
X120348768Y-74529371D01*
X120282016Y-74550010D01*
X120277620Y-74549995D01*
X120266727Y-74549764D01*
X120249308Y-74546299D01*
X120110692Y-74546299D01*
X120110687Y-74546300D01*
X117772072Y-74546300D01*
X117705033Y-74526615D01*
X117659278Y-74473811D01*
X117649334Y-74404653D01*
X117654366Y-74383297D01*
X117664504Y-74352700D01*
X117664506Y-74352690D01*
X117674999Y-74249986D01*
X117675000Y-74249973D01*
X117675000Y-74000000D01*
X116786500Y-74000000D01*
X116719461Y-73980315D01*
X116673706Y-73927511D01*
X116662500Y-73876000D01*
X116662500Y-73624000D01*
X116682185Y-73556961D01*
X116734989Y-73511206D01*
X116786500Y-73500000D01*
X117674999Y-73500000D01*
X117674999Y-73250028D01*
X117674998Y-73250013D01*
X117664505Y-73147302D01*
X117609358Y-72980880D01*
X117609356Y-72980875D01*
X117555029Y-72892797D01*
X117536589Y-72825404D01*
X117557512Y-72758741D01*
X117611154Y-72713971D01*
X117660568Y-72703700D01*
X119127156Y-72703700D01*
X119194195Y-72723385D01*
G37*
G04 #@! TD.AperFunction*
G04 #@! TA.AperFunction,Conductor*
G36*
X118484195Y-69473385D02*
G01*
X118504837Y-69490019D01*
X120388873Y-71374056D01*
X120391196Y-71378311D01*
X120395265Y-71380952D01*
X120407779Y-71408680D01*
X120422358Y-71435379D01*
X120422528Y-71441360D01*
X120424007Y-71444636D01*
X120423850Y-71479930D01*
X120423746Y-71480626D01*
X120399500Y-71633713D01*
X120399500Y-71644101D01*
X120398158Y-71653149D01*
X120368851Y-71716575D01*
X120309905Y-71754087D01*
X120240036Y-71753777D01*
X120187819Y-71722637D01*
X120020940Y-71555758D01*
X120020920Y-71555736D01*
X119918585Y-71453401D01*
X119803323Y-71376386D01*
X119675264Y-71323343D01*
X119675256Y-71323341D01*
X119539310Y-71296299D01*
X119539308Y-71296299D01*
X119400692Y-71296299D01*
X119394578Y-71296299D01*
X119394558Y-71296300D01*
X116998232Y-71296300D01*
X116931193Y-71276615D01*
X116885438Y-71223811D01*
X116875494Y-71154653D01*
X116892693Y-71107203D01*
X116959356Y-70999124D01*
X116959358Y-70999119D01*
X117014505Y-70832697D01*
X117014506Y-70832690D01*
X117024999Y-70729986D01*
X117025000Y-70729973D01*
X117025000Y-70480000D01*
X116136500Y-70480000D01*
X116069461Y-70460315D01*
X116023706Y-70407511D01*
X116012500Y-70356000D01*
X116012500Y-70104000D01*
X116032185Y-70036961D01*
X116084989Y-69991206D01*
X116136500Y-69980000D01*
X117024999Y-69980000D01*
X117024999Y-69730028D01*
X117024998Y-69730013D01*
X117014505Y-69627300D01*
X117010994Y-69616703D01*
X117008593Y-69546874D01*
X117044325Y-69486833D01*
X117106846Y-69455641D01*
X117128700Y-69453700D01*
X118417156Y-69453700D01*
X118484195Y-69473385D01*
G37*
G04 #@! TD.AperFunction*
G04 #@! TA.AperFunction,Conductor*
G36*
X117024195Y-65473385D02*
G01*
X117044837Y-65490019D01*
X120388873Y-68834055D01*
X120391196Y-68838310D01*
X120395265Y-68840951D01*
X120407779Y-68868679D01*
X120422358Y-68895378D01*
X120422529Y-68901360D01*
X120424007Y-68904635D01*
X120423850Y-68939929D01*
X120423744Y-68940640D01*
X120399500Y-69093713D01*
X120399500Y-69104100D01*
X120398158Y-69113149D01*
X120368851Y-69176575D01*
X120309905Y-69214087D01*
X120240036Y-69213777D01*
X120187819Y-69182637D01*
X119313670Y-68308488D01*
X119313667Y-68308484D01*
X119313667Y-68308485D01*
X119306600Y-68301418D01*
X119306600Y-68301417D01*
X119208583Y-68203400D01*
X119203330Y-68199890D01*
X119093323Y-68126386D01*
X118965264Y-68073343D01*
X118965256Y-68073341D01*
X118829310Y-68046299D01*
X118829308Y-68046299D01*
X118690692Y-68046299D01*
X118684578Y-68046299D01*
X118684558Y-68046300D01*
X116736385Y-68046300D01*
X116669346Y-68026615D01*
X116623591Y-67973811D01*
X116613647Y-67904653D01*
X116642672Y-67841097D01*
X116671288Y-67816761D01*
X116743345Y-67772315D01*
X116867315Y-67648345D01*
X116959356Y-67499124D01*
X116959358Y-67499119D01*
X117014505Y-67332697D01*
X117014506Y-67332690D01*
X117024999Y-67229986D01*
X117025000Y-67229973D01*
X117025000Y-66980000D01*
X116136500Y-66980000D01*
X116069461Y-66960315D01*
X116023706Y-66907511D01*
X116012500Y-66856000D01*
X116012500Y-66604000D01*
X116032185Y-66536961D01*
X116084989Y-66491206D01*
X116136500Y-66480000D01*
X117024999Y-66480000D01*
X117024999Y-66230028D01*
X117024998Y-66230013D01*
X117014505Y-66127302D01*
X116959358Y-65960880D01*
X116959356Y-65960875D01*
X116867315Y-65811654D01*
X116743343Y-65687682D01*
X116736139Y-65683239D01*
X116689414Y-65631292D01*
X116678191Y-65562330D01*
X116706034Y-65498247D01*
X116764102Y-65459390D01*
X116801235Y-65453700D01*
X116957156Y-65453700D01*
X117024195Y-65473385D01*
G37*
G04 #@! TD.AperFunction*
G04 #@! TA.AperFunction,Conductor*
G36*
X112499195Y-62453385D02*
G01*
X112519837Y-62470019D01*
X113138181Y-63088363D01*
X113171666Y-63149686D01*
X113174500Y-63176044D01*
X113174500Y-63730001D01*
X113174501Y-63730019D01*
X113185000Y-63832796D01*
X113185001Y-63832799D01*
X113240185Y-63999331D01*
X113240187Y-63999336D01*
X113267559Y-64043713D01*
X113332288Y-64148656D01*
X113456344Y-64272712D01*
X113605666Y-64364814D01*
X113772203Y-64419999D01*
X113874991Y-64430500D01*
X114428955Y-64430499D01*
X114495994Y-64450183D01*
X114516636Y-64466818D01*
X115245274Y-65195456D01*
X115245303Y-65195487D01*
X115346414Y-65296598D01*
X115346417Y-65296600D01*
X115461673Y-65373611D01*
X115461674Y-65373611D01*
X115462594Y-65374226D01*
X115507400Y-65427838D01*
X115516107Y-65497163D01*
X115485953Y-65560191D01*
X115437193Y-65592103D01*
X115437421Y-65592592D01*
X115434036Y-65594170D01*
X115432721Y-65595031D01*
X115430884Y-65595639D01*
X115430875Y-65595643D01*
X115281657Y-65687682D01*
X115188034Y-65781305D01*
X115126710Y-65814789D01*
X115057019Y-65809805D01*
X115012672Y-65781304D01*
X114918657Y-65687289D01*
X114918656Y-65687288D01*
X114770075Y-65595643D01*
X114769336Y-65595187D01*
X114769331Y-65595185D01*
X114760030Y-65592103D01*
X114602797Y-65540001D01*
X114602795Y-65540000D01*
X114500016Y-65529500D01*
X114500009Y-65529500D01*
X114121044Y-65529500D01*
X114054005Y-65509815D01*
X114033363Y-65493181D01*
X113075940Y-64535758D01*
X113075920Y-64535736D01*
X112973585Y-64433401D01*
X112858323Y-64356386D01*
X112730264Y-64303343D01*
X112730256Y-64303341D01*
X112594310Y-64276299D01*
X112594308Y-64276299D01*
X112455692Y-64276299D01*
X112449578Y-64276299D01*
X112449558Y-64276300D01*
X110394416Y-64276300D01*
X110327377Y-64256615D01*
X110291218Y-64215200D01*
X110288605Y-64216813D01*
X110284812Y-64210663D01*
X110192712Y-64061344D01*
X110068656Y-63937288D01*
X109946143Y-63861722D01*
X109919336Y-63845187D01*
X109919331Y-63845185D01*
X109894084Y-63836819D01*
X109752797Y-63790001D01*
X109752795Y-63790000D01*
X109650010Y-63779500D01*
X109024998Y-63779500D01*
X109024980Y-63779501D01*
X108922203Y-63790000D01*
X108922200Y-63790001D01*
X108755668Y-63845185D01*
X108755663Y-63845187D01*
X108606342Y-63937289D01*
X108512681Y-64030951D01*
X108451358Y-64064436D01*
X108381666Y-64059452D01*
X108337319Y-64030951D01*
X108243657Y-63937289D01*
X108243656Y-63937288D01*
X108121143Y-63861722D01*
X108094336Y-63845187D01*
X108094331Y-63845185D01*
X108069084Y-63836819D01*
X107927797Y-63790001D01*
X107927795Y-63790000D01*
X107825010Y-63779500D01*
X107199998Y-63779500D01*
X107199980Y-63779501D01*
X107097203Y-63790000D01*
X107097200Y-63790001D01*
X106930668Y-63845185D01*
X106930659Y-63845190D01*
X106853234Y-63892945D01*
X106832955Y-63898493D01*
X106814503Y-63908571D01*
X106799931Y-63907529D01*
X106785841Y-63911385D01*
X106765780Y-63905088D01*
X106744811Y-63903590D01*
X106733116Y-63894836D01*
X106719178Y-63890462D01*
X106705706Y-63874320D01*
X106688875Y-63861722D01*
X106683768Y-63848033D01*
X106674409Y-63836819D01*
X106671803Y-63815959D01*
X106664454Y-63796259D01*
X106667558Y-63781983D01*
X106665748Y-63767488D01*
X106674835Y-63748527D01*
X106679303Y-63727985D01*
X106694251Y-63708015D01*
X106695945Y-63704481D01*
X106700433Y-63699749D01*
X106711600Y-63688583D01*
X106711602Y-63688579D01*
X107433363Y-62966818D01*
X107494686Y-62933333D01*
X107521044Y-62930499D01*
X107900002Y-62930499D01*
X107900008Y-62930499D01*
X108002797Y-62919999D01*
X108169334Y-62864814D01*
X108318656Y-62772712D01*
X108412319Y-62679049D01*
X108473642Y-62645564D01*
X108543334Y-62650548D01*
X108587681Y-62679049D01*
X108681344Y-62772712D01*
X108830666Y-62864814D01*
X108997203Y-62919999D01*
X109099991Y-62930500D01*
X109725008Y-62930499D01*
X109725016Y-62930498D01*
X109725019Y-62930498D01*
X109781302Y-62924748D01*
X109827797Y-62919999D01*
X109994334Y-62864814D01*
X110143656Y-62772712D01*
X110267712Y-62648656D01*
X110359814Y-62499334D01*
X110359814Y-62499332D01*
X110363605Y-62493187D01*
X110366263Y-62494827D01*
X110403158Y-62452886D01*
X110469416Y-62433700D01*
X112432156Y-62433700D01*
X112499195Y-62453385D01*
G37*
G04 #@! TD.AperFunction*
G04 #@! TA.AperFunction,Conductor*
G36*
X189092540Y-57723385D02*
G01*
X189138295Y-57776189D01*
X189149501Y-57827700D01*
X189149501Y-57897876D01*
X189155908Y-57957483D01*
X189206202Y-58092328D01*
X189206206Y-58092335D01*
X189292452Y-58207544D01*
X189292455Y-58207547D01*
X189407664Y-58293793D01*
X189407671Y-58293797D01*
X189539082Y-58342810D01*
X189595016Y-58384681D01*
X189619433Y-58450145D01*
X189604582Y-58518418D01*
X189583431Y-58546673D01*
X189469893Y-58660211D01*
X189379096Y-58785185D01*
X189323766Y-58827851D01*
X189278777Y-58836300D01*
X185785443Y-58836300D01*
X185785423Y-58836299D01*
X185779309Y-58836299D01*
X185640692Y-58836299D01*
X185640690Y-58836299D01*
X185504743Y-58863341D01*
X185504735Y-58863343D01*
X185376676Y-58916386D01*
X185261416Y-58993400D01*
X185233232Y-59021585D01*
X185163400Y-59091417D01*
X185163397Y-59091420D01*
X165209042Y-79045776D01*
X145284837Y-98969981D01*
X145223514Y-99003466D01*
X145197156Y-99006300D01*
X143818243Y-99006300D01*
X143751204Y-98986615D01*
X143705449Y-98933811D01*
X143695505Y-98864653D01*
X143724530Y-98801097D01*
X143730562Y-98794619D01*
X145038942Y-97486239D01*
X146384057Y-96141123D01*
X146445378Y-96107640D01*
X146491130Y-96106333D01*
X146643713Y-96130500D01*
X146643714Y-96130500D01*
X146856286Y-96130500D01*
X146856287Y-96130500D01*
X147066243Y-96097246D01*
X147268412Y-96031557D01*
X147457816Y-95935051D01*
X147531445Y-95881557D01*
X147629786Y-95810109D01*
X147629788Y-95810106D01*
X147629792Y-95810104D01*
X147780104Y-95659792D01*
X147780106Y-95659788D01*
X147780109Y-95659786D01*
X147905048Y-95487820D01*
X147905047Y-95487820D01*
X147905051Y-95487816D01*
X148001557Y-95298412D01*
X148067246Y-95096243D01*
X148100500Y-94886287D01*
X148100500Y-94673713D01*
X148067246Y-94463757D01*
X148001557Y-94261588D01*
X147905051Y-94072184D01*
X147905049Y-94072181D01*
X147905048Y-94072179D01*
X147780109Y-93900213D01*
X147629786Y-93749890D01*
X147457817Y-93624949D01*
X147448504Y-93620204D01*
X147397707Y-93572230D01*
X147380912Y-93504409D01*
X147403449Y-93438274D01*
X147448507Y-93399232D01*
X147457555Y-93394622D01*
X147511716Y-93355270D01*
X147511717Y-93355270D01*
X146879408Y-92722962D01*
X146942993Y-92705925D01*
X147057007Y-92640099D01*
X147150099Y-92547007D01*
X147215925Y-92432993D01*
X147232962Y-92369409D01*
X147865270Y-93001717D01*
X147865270Y-93001716D01*
X147904622Y-92947554D01*
X148001095Y-92758217D01*
X148066757Y-92556130D01*
X148066757Y-92556127D01*
X148100000Y-92346246D01*
X148100000Y-92133753D01*
X148066757Y-91923872D01*
X148066757Y-91923869D01*
X148043346Y-91851818D01*
X148041351Y-91781977D01*
X148077431Y-91722144D01*
X148140132Y-91691316D01*
X148161277Y-91689500D01*
X150108758Y-91689500D01*
X150108778Y-91689501D01*
X150114892Y-91689501D01*
X150253510Y-91689501D01*
X150344968Y-91671307D01*
X150389462Y-91662457D01*
X150432150Y-91644775D01*
X150517523Y-91609413D01*
X150517524Y-91609412D01*
X150517527Y-91609411D01*
X150632783Y-91532400D01*
X150730800Y-91434383D01*
X150730801Y-91434381D01*
X150737867Y-91427315D01*
X150737869Y-91427311D01*
X184425163Y-57740019D01*
X184486486Y-57706534D01*
X184512844Y-57703700D01*
X189025501Y-57703700D01*
X189092540Y-57723385D01*
G37*
G04 #@! TD.AperFunction*
G04 #@! TA.AperFunction,Conductor*
G36*
X146284075Y-92432993D02*
G01*
X146349901Y-92547007D01*
X146442993Y-92640099D01*
X146557007Y-92705925D01*
X146620590Y-92722962D01*
X145988282Y-93355269D01*
X145988282Y-93355270D01*
X146042452Y-93394626D01*
X146042451Y-93394626D01*
X146051495Y-93399234D01*
X146102292Y-93447208D01*
X146119087Y-93515029D01*
X146096550Y-93581164D01*
X146051499Y-93620202D01*
X146042182Y-93624949D01*
X145870213Y-93749890D01*
X145719890Y-93900213D01*
X145594951Y-94072179D01*
X145498444Y-94261585D01*
X145432753Y-94463760D01*
X145399500Y-94673713D01*
X145399500Y-94886287D01*
X145399499Y-94886287D01*
X145423665Y-95038865D01*
X145414710Y-95108158D01*
X145388873Y-95145943D01*
X142849334Y-97685484D01*
X142788011Y-97718969D01*
X142761653Y-97721803D01*
X140911379Y-97721803D01*
X140844340Y-97702118D01*
X140798585Y-97649314D01*
X140788641Y-97580156D01*
X140793448Y-97559485D01*
X140817246Y-97486243D01*
X140850500Y-97276287D01*
X140850500Y-97063713D01*
X140826333Y-96911131D01*
X140835287Y-96841841D01*
X140861122Y-96804058D01*
X145216835Y-92448346D01*
X145278155Y-92414864D01*
X145347847Y-92419848D01*
X145403780Y-92461720D01*
X145426986Y-92516630D01*
X145433242Y-92556130D01*
X145498904Y-92758217D01*
X145595375Y-92947550D01*
X145634728Y-93001716D01*
X146267036Y-92369407D01*
X146284075Y-92432993D01*
G37*
G04 #@! TD.AperFunction*
G04 #@! TA.AperFunction,Conductor*
G36*
X193942539Y-50020185D02*
G01*
X193988294Y-50072989D01*
X193999500Y-50124500D01*
X193999500Y-157125500D01*
X193979815Y-157192539D01*
X193927011Y-157238294D01*
X193875500Y-157249500D01*
X97624500Y-157249500D01*
X97557461Y-157229815D01*
X97511706Y-157177011D01*
X97500500Y-157125500D01*
X97500500Y-154049986D01*
X106025001Y-154049986D01*
X106035494Y-154152697D01*
X106090641Y-154319119D01*
X106090643Y-154319124D01*
X106182684Y-154468345D01*
X106306654Y-154592315D01*
X106455875Y-154684356D01*
X106455880Y-154684358D01*
X106622302Y-154739505D01*
X106622309Y-154739506D01*
X106725019Y-154749999D01*
X106999999Y-154749999D01*
X107500000Y-154749999D01*
X107774972Y-154749999D01*
X107774986Y-154749998D01*
X107877697Y-154739505D01*
X108044119Y-154684358D01*
X108044124Y-154684356D01*
X108193345Y-154592315D01*
X108317315Y-154468345D01*
X108409356Y-154319124D01*
X108409358Y-154319119D01*
X108464505Y-154152697D01*
X108464506Y-154152690D01*
X108474999Y-154049986D01*
X109025001Y-154049986D01*
X109035494Y-154152697D01*
X109090641Y-154319119D01*
X109090643Y-154319124D01*
X109182684Y-154468345D01*
X109306654Y-154592315D01*
X109455875Y-154684356D01*
X109455880Y-154684358D01*
X109622302Y-154739505D01*
X109622309Y-154739506D01*
X109725019Y-154749999D01*
X109999999Y-154749999D01*
X110500000Y-154749999D01*
X110774972Y-154749999D01*
X110774986Y-154749998D01*
X110877697Y-154739505D01*
X111044119Y-154684358D01*
X111044124Y-154684356D01*
X111193345Y-154592315D01*
X111317315Y-154468345D01*
X111409356Y-154319124D01*
X111409358Y-154319119D01*
X111464505Y-154152697D01*
X111464506Y-154152690D01*
X111474999Y-154049986D01*
X111475000Y-154049973D01*
X111475000Y-154000000D01*
X110500000Y-154000000D01*
X110500000Y-154749999D01*
X109999999Y-154749999D01*
X110000000Y-154749998D01*
X110000000Y-154000000D01*
X109025001Y-154000000D01*
X109025001Y-154049986D01*
X108474999Y-154049986D01*
X108475000Y-154049973D01*
X108475000Y-154000000D01*
X107500000Y-154000000D01*
X107500000Y-154749999D01*
X106999999Y-154749999D01*
X107000000Y-154749998D01*
X107000000Y-154000000D01*
X106025001Y-154000000D01*
X106025001Y-154049986D01*
X97500500Y-154049986D01*
X97500500Y-117930689D01*
X98046299Y-117930689D01*
X98046299Y-117930691D01*
X98046299Y-117930692D01*
X98046299Y-118069308D01*
X98046299Y-118069312D01*
X98046300Y-118075432D01*
X98046300Y-139805556D01*
X98046299Y-139805582D01*
X98046299Y-139949308D01*
X98056791Y-140002050D01*
X98056791Y-140002053D01*
X98073341Y-140085254D01*
X98073344Y-140085266D01*
X98126386Y-140213323D01*
X98203401Y-140328585D01*
X98305736Y-140430920D01*
X98305758Y-140430940D01*
X101638873Y-143764055D01*
X101672358Y-143825378D01*
X101673666Y-143871133D01*
X101668158Y-143905909D01*
X101649500Y-144023713D01*
X101649500Y-144236287D01*
X101682754Y-144446243D01*
X101713927Y-144542184D01*
X101748444Y-144648414D01*
X101844951Y-144837820D01*
X101969890Y-145009786D01*
X102120213Y-145160109D01*
X102292182Y-145285050D01*
X102300946Y-145289516D01*
X102351742Y-145337491D01*
X102368536Y-145405312D01*
X102345998Y-145471447D01*
X102300946Y-145510484D01*
X102292182Y-145514949D01*
X102120213Y-145639890D01*
X101969890Y-145790213D01*
X101844951Y-145962179D01*
X101748444Y-146151585D01*
X101682753Y-146353760D01*
X101655582Y-146525312D01*
X101649500Y-146563713D01*
X101649500Y-146776287D01*
X101682754Y-146986243D01*
X101724350Y-147114263D01*
X101748444Y-147188414D01*
X101844951Y-147377820D01*
X101969890Y-147549786D01*
X102120213Y-147700109D01*
X102292179Y-147825048D01*
X102292181Y-147825049D01*
X102292184Y-147825051D01*
X102301493Y-147829794D01*
X102352290Y-147877766D01*
X102369087Y-147945587D01*
X102346552Y-148011722D01*
X102301505Y-148050760D01*
X102292446Y-148055376D01*
X102292440Y-148055380D01*
X102238282Y-148094727D01*
X102238282Y-148094728D01*
X102870591Y-148727037D01*
X102807007Y-148744075D01*
X102692993Y-148809901D01*
X102599901Y-148902993D01*
X102534075Y-149017007D01*
X102517037Y-149080591D01*
X101884728Y-148448282D01*
X101884727Y-148448282D01*
X101845380Y-148502439D01*
X101748904Y-148691782D01*
X101683242Y-148893869D01*
X101683242Y-148893872D01*
X101650000Y-149103753D01*
X101650000Y-149316246D01*
X101683242Y-149526127D01*
X101683242Y-149526130D01*
X101748904Y-149728217D01*
X101845375Y-149917550D01*
X101884728Y-149971716D01*
X102517037Y-149339408D01*
X102534075Y-149402993D01*
X102599901Y-149517007D01*
X102692993Y-149610099D01*
X102807007Y-149675925D01*
X102870590Y-149692962D01*
X102238282Y-150325269D01*
X102238282Y-150325270D01*
X102292452Y-150364626D01*
X102292451Y-150364626D01*
X102301495Y-150369234D01*
X102352292Y-150417208D01*
X102369087Y-150485029D01*
X102346550Y-150551164D01*
X102301499Y-150590202D01*
X102292182Y-150594949D01*
X102120213Y-150719890D01*
X101969890Y-150870213D01*
X101844951Y-151042179D01*
X101748444Y-151231585D01*
X101748443Y-151231587D01*
X101748443Y-151231588D01*
X101732497Y-151280666D01*
X101682753Y-151433760D01*
X101649500Y-151643713D01*
X101649500Y-151856287D01*
X101682754Y-152066243D01*
X101743369Y-152252797D01*
X101748444Y-152268414D01*
X101844951Y-152457820D01*
X101969890Y-152629786D01*
X102120213Y-152780109D01*
X102292179Y-152905048D01*
X102292181Y-152905049D01*
X102292184Y-152905051D01*
X102481588Y-153001557D01*
X102683757Y-153067246D01*
X102893713Y-153100500D01*
X102893714Y-153100500D01*
X103106286Y-153100500D01*
X103106287Y-153100500D01*
X103316243Y-153067246D01*
X103518412Y-153001557D01*
X103707816Y-152905051D01*
X103769026Y-152860580D01*
X103879786Y-152780109D01*
X103879788Y-152780106D01*
X103879792Y-152780104D01*
X104030104Y-152629792D01*
X104083996Y-152555614D01*
X104139326Y-152512949D01*
X104184315Y-152504500D01*
X106073509Y-152504500D01*
X106140548Y-152524185D01*
X106161380Y-152541009D01*
X106171511Y-152551184D01*
X106182288Y-152568656D01*
X106306344Y-152692712D01*
X106322108Y-152702435D01*
X106332430Y-152712802D01*
X106342404Y-152731163D01*
X106356379Y-152746699D01*
X106358746Y-152761247D01*
X106365782Y-152774198D01*
X106364246Y-152795036D01*
X106367603Y-152815661D01*
X106361730Y-152829177D01*
X106360647Y-152843878D01*
X106348086Y-152860580D01*
X106339761Y-152879744D01*
X106322292Y-152894883D01*
X106318654Y-152899721D01*
X106315257Y-152900979D01*
X106309665Y-152905826D01*
X106306660Y-152907679D01*
X106306655Y-152907683D01*
X106182684Y-153031654D01*
X106090643Y-153180875D01*
X106090641Y-153180880D01*
X106035494Y-153347302D01*
X106035493Y-153347309D01*
X106025000Y-153450013D01*
X106025000Y-153500000D01*
X108474999Y-153500000D01*
X108474999Y-153450028D01*
X108474998Y-153450013D01*
X108464505Y-153347302D01*
X108409358Y-153180880D01*
X108409356Y-153180875D01*
X108317315Y-153031654D01*
X108193344Y-152907683D01*
X108193341Y-152907681D01*
X108190339Y-152905829D01*
X108188713Y-152904021D01*
X108187677Y-152903202D01*
X108187817Y-152903024D01*
X108143617Y-152853880D01*
X108132397Y-152784917D01*
X108160243Y-152720836D01*
X108167569Y-152712802D01*
X108177889Y-152702436D01*
X108193656Y-152692712D01*
X108317712Y-152568656D01*
X108328488Y-152551184D01*
X108338620Y-152541009D01*
X108357168Y-152530828D01*
X108372903Y-152516677D01*
X108390052Y-152512780D01*
X108399871Y-152507391D01*
X108410518Y-152508129D01*
X108426491Y-152504500D01*
X109073509Y-152504500D01*
X109140548Y-152524185D01*
X109179046Y-152563400D01*
X109182288Y-152568656D01*
X109306344Y-152692712D01*
X109309628Y-152694737D01*
X109309653Y-152694753D01*
X109311445Y-152696746D01*
X109312011Y-152697193D01*
X109311934Y-152697289D01*
X109356379Y-152746699D01*
X109367603Y-152815661D01*
X109339761Y-152879744D01*
X109309665Y-152905826D01*
X109306660Y-152907679D01*
X109306655Y-152907683D01*
X109182684Y-153031654D01*
X109090643Y-153180875D01*
X109090641Y-153180880D01*
X109035494Y-153347302D01*
X109035493Y-153347309D01*
X109025000Y-153450013D01*
X109025000Y-153500000D01*
X111474999Y-153500000D01*
X111474999Y-153450028D01*
X111474998Y-153450013D01*
X111464505Y-153347302D01*
X111409358Y-153180880D01*
X111409356Y-153180875D01*
X111317315Y-153031654D01*
X111193344Y-152907683D01*
X111193341Y-152907681D01*
X111190339Y-152905829D01*
X111188713Y-152904021D01*
X111187677Y-152903202D01*
X111187817Y-152903024D01*
X111143617Y-152853880D01*
X111132397Y-152784917D01*
X111160243Y-152720836D01*
X111190344Y-152694754D01*
X111193656Y-152692712D01*
X111317712Y-152568656D01*
X111409814Y-152419334D01*
X111464999Y-152252797D01*
X111475500Y-152150009D01*
X111475499Y-151549992D01*
X111464999Y-151447203D01*
X111409814Y-151280666D01*
X111317712Y-151131344D01*
X111193656Y-151007288D01*
X111044334Y-150915186D01*
X110877797Y-150860001D01*
X110877795Y-150860000D01*
X110775010Y-150849500D01*
X109724998Y-150849500D01*
X109724980Y-150849501D01*
X109622203Y-150860000D01*
X109622200Y-150860001D01*
X109455668Y-150915185D01*
X109455659Y-150915189D01*
X109355385Y-150977039D01*
X109290289Y-150995500D01*
X108209711Y-150995500D01*
X108144615Y-150977039D01*
X108044340Y-150915189D01*
X108044335Y-150915187D01*
X108044334Y-150915186D01*
X107877797Y-150860001D01*
X107877795Y-150860000D01*
X107775010Y-150849500D01*
X106724998Y-150849500D01*
X106724980Y-150849501D01*
X106622203Y-150860000D01*
X106622200Y-150860001D01*
X106455668Y-150915185D01*
X106455659Y-150915189D01*
X106355385Y-150977039D01*
X106290289Y-150995500D01*
X104184315Y-150995500D01*
X104117276Y-150975815D01*
X104083996Y-150944385D01*
X104062781Y-150915185D01*
X104030104Y-150870208D01*
X103879792Y-150719896D01*
X103879786Y-150719890D01*
X103707817Y-150594949D01*
X103698504Y-150590204D01*
X103647707Y-150542230D01*
X103630912Y-150474409D01*
X103653449Y-150408274D01*
X103698507Y-150369232D01*
X103707555Y-150364622D01*
X103761716Y-150325270D01*
X103761717Y-150325270D01*
X103129408Y-149692962D01*
X103192993Y-149675925D01*
X103307007Y-149610099D01*
X103400099Y-149517007D01*
X103465925Y-149402993D01*
X103482962Y-149339409D01*
X104115270Y-149971717D01*
X104115270Y-149971716D01*
X104154622Y-149917554D01*
X104251095Y-149728217D01*
X104316757Y-149526130D01*
X104316757Y-149526127D01*
X104350000Y-149316246D01*
X104350000Y-149103753D01*
X104316757Y-148893872D01*
X104316757Y-148893869D01*
X104251095Y-148691782D01*
X104154624Y-148502449D01*
X104115270Y-148448282D01*
X104115269Y-148448282D01*
X103482962Y-149080590D01*
X103465925Y-149017007D01*
X103400099Y-148902993D01*
X103307007Y-148809901D01*
X103192993Y-148744075D01*
X103129409Y-148727037D01*
X103761716Y-148094728D01*
X103707547Y-148055373D01*
X103707547Y-148055372D01*
X103698500Y-148050763D01*
X103647706Y-148002788D01*
X103630912Y-147934966D01*
X103653451Y-147868832D01*
X103698508Y-147829793D01*
X103707816Y-147825051D01*
X103787007Y-147767515D01*
X103879786Y-147700109D01*
X103879788Y-147700106D01*
X103879792Y-147700104D01*
X104030104Y-147549792D01*
X104122578Y-147422511D01*
X104124370Y-147420270D01*
X104150733Y-147401812D01*
X104176234Y-147382149D01*
X104179768Y-147381485D01*
X104181606Y-147380199D01*
X104187957Y-147379947D01*
X104221223Y-147373700D01*
X104398265Y-147373700D01*
X104398285Y-147373701D01*
X104404399Y-147373701D01*
X104543017Y-147373701D01*
X104634475Y-147355507D01*
X104678969Y-147346657D01*
X104807034Y-147293611D01*
X104839994Y-147271588D01*
X104922290Y-147216600D01*
X105020307Y-147118583D01*
X105024627Y-147114263D01*
X105024636Y-147114252D01*
X123550800Y-128588090D01*
X123560377Y-128573757D01*
X123627811Y-128472834D01*
X123651317Y-128416086D01*
X123680858Y-128344768D01*
X123707901Y-128208815D01*
X123707901Y-128070198D01*
X123707901Y-128065088D01*
X123707900Y-128065062D01*
X123707900Y-108629643D01*
X123707901Y-108629622D01*
X123707901Y-108484889D01*
X123707900Y-108484887D01*
X123680859Y-108348945D01*
X123680858Y-108348938D01*
X123630140Y-108226498D01*
X123628493Y-108221895D01*
X123627811Y-108220874D01*
X123627811Y-108220873D01*
X123550800Y-108105617D01*
X123550798Y-108105614D01*
X123449687Y-108004503D01*
X123449656Y-108004474D01*
X123111126Y-107665944D01*
X123077641Y-107604621D01*
X123076334Y-107558865D01*
X123095748Y-107436287D01*
X123100500Y-107406287D01*
X123100500Y-107193713D01*
X123067246Y-106983757D01*
X123001557Y-106781588D01*
X122905051Y-106592184D01*
X122905049Y-106592181D01*
X122905048Y-106592179D01*
X122780109Y-106420213D01*
X122629786Y-106269890D01*
X122457820Y-106144951D01*
X122457115Y-106144591D01*
X122449054Y-106140485D01*
X122398259Y-106092512D01*
X122381463Y-106024692D01*
X122403999Y-105958556D01*
X122449054Y-105919515D01*
X122457816Y-105915051D01*
X122479789Y-105899086D01*
X122629786Y-105790109D01*
X122629788Y-105790106D01*
X122629792Y-105790104D01*
X122780104Y-105639792D01*
X122780106Y-105639788D01*
X122780109Y-105639786D01*
X122905048Y-105467820D01*
X122905047Y-105467820D01*
X122905051Y-105467816D01*
X123001557Y-105278412D01*
X123067246Y-105076243D01*
X123100500Y-104866287D01*
X123100500Y-104653713D01*
X123067246Y-104443757D01*
X123001557Y-104241588D01*
X122905051Y-104052184D01*
X122905049Y-104052181D01*
X122905048Y-104052179D01*
X122780109Y-103880213D01*
X122629786Y-103729890D01*
X122457820Y-103604951D01*
X122457115Y-103604591D01*
X122449054Y-103600485D01*
X122398259Y-103552512D01*
X122381463Y-103484692D01*
X122403999Y-103418556D01*
X122449054Y-103379515D01*
X122457816Y-103375051D01*
X122479789Y-103359086D01*
X122629786Y-103250109D01*
X122629788Y-103250106D01*
X122629792Y-103250104D01*
X122780104Y-103099792D01*
X122780106Y-103099788D01*
X122780109Y-103099786D01*
X122905048Y-102927820D01*
X122905047Y-102927820D01*
X122905051Y-102927816D01*
X123001557Y-102738412D01*
X123067246Y-102536243D01*
X123100500Y-102326287D01*
X123100500Y-102113713D01*
X123067246Y-101903757D01*
X123001557Y-101701588D01*
X122905051Y-101512184D01*
X122905049Y-101512181D01*
X122905048Y-101512179D01*
X122780109Y-101340213D01*
X122629786Y-101189890D01*
X122457820Y-101064951D01*
X122457115Y-101064591D01*
X122449054Y-101060485D01*
X122398259Y-101012512D01*
X122381463Y-100944692D01*
X122403999Y-100878556D01*
X122449054Y-100839515D01*
X122457816Y-100835051D01*
X122479789Y-100819086D01*
X122629786Y-100710109D01*
X122629788Y-100710106D01*
X122629792Y-100710104D01*
X122780104Y-100559792D01*
X122780106Y-100559788D01*
X122780109Y-100559786D01*
X122905048Y-100387820D01*
X122905047Y-100387820D01*
X122905051Y-100387816D01*
X123001557Y-100198412D01*
X123067246Y-99996243D01*
X123100500Y-99786287D01*
X123100500Y-99573713D01*
X123067246Y-99363757D01*
X123001557Y-99161588D01*
X122905051Y-98972184D01*
X122905049Y-98972181D01*
X122905048Y-98972179D01*
X122780109Y-98800213D01*
X122629786Y-98649890D01*
X122457820Y-98524951D01*
X122457115Y-98524591D01*
X122449054Y-98520485D01*
X122398259Y-98472512D01*
X122381463Y-98404692D01*
X122403999Y-98338556D01*
X122449054Y-98299515D01*
X122457816Y-98295051D01*
X122479789Y-98279086D01*
X122629786Y-98170109D01*
X122629788Y-98170106D01*
X122629792Y-98170104D01*
X122780104Y-98019792D01*
X122780106Y-98019788D01*
X122780109Y-98019786D01*
X122905048Y-97847820D01*
X122905047Y-97847820D01*
X122905051Y-97847816D01*
X123001557Y-97658412D01*
X123067246Y-97456243D01*
X123100500Y-97246287D01*
X123100500Y-97033713D01*
X123067246Y-96823757D01*
X123001557Y-96621588D01*
X122905051Y-96432184D01*
X122905049Y-96432181D01*
X122905048Y-96432179D01*
X122780109Y-96260213D01*
X122629786Y-96109890D01*
X122457820Y-95984951D01*
X122457115Y-95984591D01*
X122449054Y-95980485D01*
X122398259Y-95932512D01*
X122381463Y-95864692D01*
X122403999Y-95798556D01*
X122449054Y-95759515D01*
X122457816Y-95755051D01*
X122479789Y-95739086D01*
X122629786Y-95630109D01*
X122629788Y-95630106D01*
X122629792Y-95630104D01*
X122780104Y-95479792D01*
X122780106Y-95479788D01*
X122780109Y-95479786D01*
X122905048Y-95307820D01*
X122905047Y-95307820D01*
X122905051Y-95307816D01*
X123001557Y-95118412D01*
X123067246Y-94916243D01*
X123100500Y-94706287D01*
X123100500Y-94493713D01*
X123067246Y-94283757D01*
X123001557Y-94081588D01*
X122905051Y-93892184D01*
X122905049Y-93892181D01*
X122905048Y-93892179D01*
X122780109Y-93720213D01*
X122629786Y-93569890D01*
X122457820Y-93444951D01*
X122457115Y-93444591D01*
X122449054Y-93440485D01*
X122398259Y-93392512D01*
X122381463Y-93324692D01*
X122403999Y-93258556D01*
X122449054Y-93219515D01*
X122457816Y-93215051D01*
X122479789Y-93199086D01*
X122629786Y-93090109D01*
X122629788Y-93090106D01*
X122629792Y-93090104D01*
X122780104Y-92939792D01*
X122780106Y-92939788D01*
X122780109Y-92939786D01*
X122905048Y-92767820D01*
X122905047Y-92767820D01*
X122905051Y-92767816D01*
X123001557Y-92578412D01*
X123067246Y-92376243D01*
X123100500Y-92166287D01*
X123100500Y-91953713D01*
X123067246Y-91743757D01*
X123001557Y-91541588D01*
X122905051Y-91352184D01*
X122905049Y-91352181D01*
X122905048Y-91352179D01*
X122780109Y-91180213D01*
X122629786Y-91029890D01*
X122457820Y-90904951D01*
X122457115Y-90904591D01*
X122449054Y-90900485D01*
X122398259Y-90852512D01*
X122381463Y-90784692D01*
X122403999Y-90718556D01*
X122449054Y-90679515D01*
X122457816Y-90675051D01*
X122479789Y-90659086D01*
X122629786Y-90550109D01*
X122629788Y-90550106D01*
X122629792Y-90550104D01*
X122780104Y-90399792D01*
X122780106Y-90399788D01*
X122780109Y-90399786D01*
X122905048Y-90227820D01*
X122905047Y-90227820D01*
X122905051Y-90227816D01*
X123001557Y-90038412D01*
X123067246Y-89836243D01*
X123100500Y-89626287D01*
X123100500Y-89413713D01*
X123067246Y-89203757D01*
X123001557Y-89001588D01*
X122905051Y-88812184D01*
X122905049Y-88812181D01*
X122905048Y-88812179D01*
X122780109Y-88640213D01*
X122629786Y-88489890D01*
X122457820Y-88364951D01*
X122457115Y-88364591D01*
X122449054Y-88360485D01*
X122398259Y-88312512D01*
X122381463Y-88244692D01*
X122403999Y-88178556D01*
X122449054Y-88139515D01*
X122457816Y-88135051D01*
X122479789Y-88119086D01*
X122629786Y-88010109D01*
X122629788Y-88010106D01*
X122629792Y-88010104D01*
X122780104Y-87859792D01*
X122780106Y-87859788D01*
X122780109Y-87859786D01*
X122905048Y-87687820D01*
X122905047Y-87687820D01*
X122905051Y-87687816D01*
X123001557Y-87498412D01*
X123067246Y-87296243D01*
X123100500Y-87086287D01*
X123100500Y-86873713D01*
X123067246Y-86663757D01*
X123001557Y-86461588D01*
X122905051Y-86272184D01*
X122905049Y-86272181D01*
X122905048Y-86272179D01*
X122780109Y-86100213D01*
X122629786Y-85949890D01*
X122457820Y-85824951D01*
X122457115Y-85824591D01*
X122449054Y-85820485D01*
X122398259Y-85772512D01*
X122381463Y-85704692D01*
X122403999Y-85638556D01*
X122449054Y-85599515D01*
X122457816Y-85595051D01*
X122557386Y-85522710D01*
X122629786Y-85470109D01*
X122629788Y-85470106D01*
X122629792Y-85470104D01*
X122780104Y-85319792D01*
X122780106Y-85319788D01*
X122780109Y-85319786D01*
X122905048Y-85147820D01*
X122905047Y-85147820D01*
X122905051Y-85147816D01*
X123001557Y-84958412D01*
X123067246Y-84756243D01*
X123100500Y-84546287D01*
X123100500Y-84333713D01*
X123067246Y-84123757D01*
X123001557Y-83921588D01*
X122905051Y-83732184D01*
X122905049Y-83732181D01*
X122905048Y-83732179D01*
X122780109Y-83560213D01*
X122629786Y-83409890D01*
X122457820Y-83284951D01*
X122457115Y-83284591D01*
X122449054Y-83280485D01*
X122398259Y-83232512D01*
X122381463Y-83164692D01*
X122403999Y-83098556D01*
X122449054Y-83059515D01*
X122457816Y-83055051D01*
X122479789Y-83039086D01*
X122629786Y-82930109D01*
X122629788Y-82930106D01*
X122629792Y-82930104D01*
X122780104Y-82779792D01*
X122780106Y-82779788D01*
X122780109Y-82779786D01*
X122905048Y-82607820D01*
X122905047Y-82607820D01*
X122905051Y-82607816D01*
X123001557Y-82418412D01*
X123067246Y-82216243D01*
X123100500Y-82006287D01*
X123100500Y-81793713D01*
X123067246Y-81583757D01*
X123001557Y-81381588D01*
X122905051Y-81192184D01*
X122905049Y-81192181D01*
X122905048Y-81192179D01*
X122780109Y-81020213D01*
X122629786Y-80869890D01*
X122457820Y-80744951D01*
X122457115Y-80744591D01*
X122449054Y-80740485D01*
X122398259Y-80692512D01*
X122381463Y-80624692D01*
X122403999Y-80558556D01*
X122449054Y-80519515D01*
X122457816Y-80515051D01*
X122506086Y-80479981D01*
X122629786Y-80390109D01*
X122629788Y-80390106D01*
X122629792Y-80390104D01*
X122780104Y-80239792D01*
X122780106Y-80239788D01*
X122780109Y-80239786D01*
X122905048Y-80067820D01*
X122905047Y-80067820D01*
X122905051Y-80067816D01*
X123001557Y-79878412D01*
X123067246Y-79676243D01*
X123100500Y-79466287D01*
X123100500Y-79253713D01*
X123067246Y-79043757D01*
X123001557Y-78841588D01*
X122905051Y-78652184D01*
X122905049Y-78652181D01*
X122905048Y-78652179D01*
X122780109Y-78480213D01*
X122629786Y-78329890D01*
X122457820Y-78204951D01*
X122457115Y-78204591D01*
X122449054Y-78200485D01*
X122398259Y-78152512D01*
X122381463Y-78084692D01*
X122403999Y-78018556D01*
X122449054Y-77979515D01*
X122457816Y-77975051D01*
X122481998Y-77957482D01*
X122629786Y-77850109D01*
X122629788Y-77850106D01*
X122629792Y-77850104D01*
X122780104Y-77699792D01*
X122780106Y-77699788D01*
X122780109Y-77699786D01*
X122905048Y-77527820D01*
X122905047Y-77527820D01*
X122905051Y-77527816D01*
X123001557Y-77338412D01*
X123067246Y-77136243D01*
X123100500Y-76926287D01*
X123100500Y-76713713D01*
X123067246Y-76503757D01*
X123001557Y-76301588D01*
X122905051Y-76112184D01*
X122905049Y-76112181D01*
X122905048Y-76112179D01*
X122780109Y-75940213D01*
X122629786Y-75789890D01*
X122457820Y-75664951D01*
X122457115Y-75664591D01*
X122449054Y-75660485D01*
X122398259Y-75612512D01*
X122381463Y-75544692D01*
X122403999Y-75478556D01*
X122449054Y-75439515D01*
X122457816Y-75435051D01*
X122479789Y-75419086D01*
X122629786Y-75310109D01*
X122629788Y-75310106D01*
X122629792Y-75310104D01*
X122780104Y-75159792D01*
X122780106Y-75159788D01*
X122780109Y-75159786D01*
X122905048Y-74987820D01*
X122905047Y-74987820D01*
X122905051Y-74987816D01*
X123001557Y-74798412D01*
X123067246Y-74596243D01*
X123100500Y-74386287D01*
X123100500Y-74173713D01*
X123067246Y-73963757D01*
X123001557Y-73761588D01*
X122905051Y-73572184D01*
X122905049Y-73572181D01*
X122905048Y-73572179D01*
X122780109Y-73400213D01*
X122629786Y-73249890D01*
X122457820Y-73124951D01*
X122457115Y-73124591D01*
X122449054Y-73120485D01*
X122398259Y-73072512D01*
X122381463Y-73004692D01*
X122403999Y-72938556D01*
X122449054Y-72899515D01*
X122457816Y-72895051D01*
X122553678Y-72825404D01*
X122629786Y-72770109D01*
X122629788Y-72770106D01*
X122629792Y-72770104D01*
X122780104Y-72619792D01*
X122780106Y-72619788D01*
X122780109Y-72619786D01*
X122905048Y-72447820D01*
X122905047Y-72447820D01*
X122905051Y-72447816D01*
X123001557Y-72258412D01*
X123067246Y-72056243D01*
X123100500Y-71846287D01*
X123100500Y-71633713D01*
X123067246Y-71423757D01*
X123001557Y-71221588D01*
X122905051Y-71032184D01*
X122905049Y-71032181D01*
X122905048Y-71032179D01*
X122780109Y-70860213D01*
X122629786Y-70709890D01*
X122457820Y-70584951D01*
X122456809Y-70584436D01*
X122449054Y-70580485D01*
X122398259Y-70532512D01*
X122381463Y-70464692D01*
X122403999Y-70398556D01*
X122449054Y-70359515D01*
X122457816Y-70355051D01*
X122479789Y-70339086D01*
X122629786Y-70230109D01*
X122629788Y-70230106D01*
X122629792Y-70230104D01*
X122780104Y-70079792D01*
X122780106Y-70079788D01*
X122780109Y-70079786D01*
X122905048Y-69907820D01*
X122905047Y-69907820D01*
X122905051Y-69907816D01*
X123001557Y-69718412D01*
X123067246Y-69516243D01*
X123100500Y-69306287D01*
X123100500Y-69305044D01*
X123100633Y-69304588D01*
X123100883Y-69301424D01*
X123101547Y-69301476D01*
X123120185Y-69238005D01*
X123172989Y-69192250D01*
X123242147Y-69182306D01*
X123305703Y-69211331D01*
X123312181Y-69217363D01*
X124759981Y-70665163D01*
X124793466Y-70726486D01*
X124796300Y-70752844D01*
X124796300Y-141157155D01*
X124776615Y-141224194D01*
X124759981Y-141244836D01*
X122141635Y-143863181D01*
X122080312Y-143896666D01*
X122053954Y-143899500D01*
X120852129Y-143899500D01*
X120852123Y-143899501D01*
X120792516Y-143905908D01*
X120657671Y-143956202D01*
X120657664Y-143956206D01*
X120542455Y-144042452D01*
X120542452Y-144042455D01*
X120456206Y-144157664D01*
X120456202Y-144157671D01*
X120405908Y-144292517D01*
X120399501Y-144352116D01*
X120399500Y-144352135D01*
X120399500Y-146147870D01*
X120399501Y-146147876D01*
X120405908Y-146207483D01*
X120456202Y-146342328D01*
X120456206Y-146342335D01*
X120542452Y-146457544D01*
X120542455Y-146457547D01*
X120657664Y-146543793D01*
X120657671Y-146543797D01*
X120702618Y-146560561D01*
X120792517Y-146594091D01*
X120852127Y-146600500D01*
X120862685Y-146600499D01*
X120929723Y-146620179D01*
X120950372Y-146636818D01*
X121620591Y-147307037D01*
X121557007Y-147324075D01*
X121442993Y-147389901D01*
X121349901Y-147482993D01*
X121284075Y-147597007D01*
X121267037Y-147660591D01*
X120634728Y-147028282D01*
X120634727Y-147028282D01*
X120595380Y-147082439D01*
X120498904Y-147271782D01*
X120433242Y-147473869D01*
X120433242Y-147473872D01*
X120400000Y-147683753D01*
X120400000Y-147896246D01*
X120433242Y-148106127D01*
X120433242Y-148106130D01*
X120498904Y-148308217D01*
X120595375Y-148497550D01*
X120634728Y-148551716D01*
X121267037Y-147919408D01*
X121284075Y-147982993D01*
X121349901Y-148097007D01*
X121442993Y-148190099D01*
X121557007Y-148255925D01*
X121620590Y-148272962D01*
X120988282Y-148905269D01*
X120988282Y-148905270D01*
X121042452Y-148944626D01*
X121042451Y-148944626D01*
X121051495Y-148949234D01*
X121102292Y-148997208D01*
X121119087Y-149065029D01*
X121096550Y-149131164D01*
X121051499Y-149170202D01*
X121042182Y-149174949D01*
X120870213Y-149299890D01*
X120719890Y-149450213D01*
X120594951Y-149622179D01*
X120498444Y-149811585D01*
X120432753Y-150013760D01*
X120423666Y-150071134D01*
X120399500Y-150223713D01*
X120399500Y-150436287D01*
X120432754Y-150646243D01*
X120456685Y-150719896D01*
X120498444Y-150848414D01*
X120594951Y-151037820D01*
X120719890Y-151209786D01*
X120870213Y-151360109D01*
X121042179Y-151485048D01*
X121042181Y-151485049D01*
X121042184Y-151485051D01*
X121231588Y-151581557D01*
X121433757Y-151647246D01*
X121643713Y-151680500D01*
X121643714Y-151680500D01*
X121856286Y-151680500D01*
X121856287Y-151680500D01*
X122066243Y-151647246D01*
X122268412Y-151581557D01*
X122457816Y-151485051D01*
X122528417Y-151433757D01*
X122629786Y-151360109D01*
X122629788Y-151360106D01*
X122629792Y-151360104D01*
X122780104Y-151209792D01*
X122780106Y-151209788D01*
X122780109Y-151209786D01*
X122905048Y-151037820D01*
X122905047Y-151037820D01*
X122905051Y-151037816D01*
X123001557Y-150848412D01*
X123067246Y-150646243D01*
X123100500Y-150436287D01*
X123100500Y-150223713D01*
X123076333Y-150071131D01*
X123085287Y-150001841D01*
X123111122Y-149964058D01*
X127198579Y-145876602D01*
X127198583Y-145876600D01*
X127296600Y-145778583D01*
X127373611Y-145663327D01*
X127383317Y-145639896D01*
X127426655Y-145535266D01*
X127426657Y-145535262D01*
X127437550Y-145480500D01*
X127453701Y-145399308D01*
X127453701Y-145260691D01*
X127453700Y-145260685D01*
X127453700Y-141812135D01*
X138149500Y-141812135D01*
X138149500Y-143607870D01*
X138149501Y-143607876D01*
X138155908Y-143667483D01*
X138206202Y-143802328D01*
X138206206Y-143802335D01*
X138292452Y-143917544D01*
X138292455Y-143917547D01*
X138407664Y-144003793D01*
X138407671Y-144003797D01*
X138539082Y-144052810D01*
X138595016Y-144094681D01*
X138619433Y-144160145D01*
X138604582Y-144228418D01*
X138583431Y-144256673D01*
X138469889Y-144370215D01*
X138344951Y-144542179D01*
X138248444Y-144731585D01*
X138182753Y-144933760D01*
X138149500Y-145143713D01*
X138149500Y-145356286D01*
X138177847Y-145535266D01*
X138182754Y-145566243D01*
X138214297Y-145663323D01*
X138248444Y-145768414D01*
X138344951Y-145957820D01*
X138469890Y-146129786D01*
X138620213Y-146280109D01*
X138792182Y-146405050D01*
X138800946Y-146409516D01*
X138851742Y-146457491D01*
X138868536Y-146525312D01*
X138845998Y-146591447D01*
X138800946Y-146630484D01*
X138792182Y-146634949D01*
X138620213Y-146759890D01*
X138469890Y-146910213D01*
X138344951Y-147082179D01*
X138248444Y-147271585D01*
X138182753Y-147473760D01*
X138149500Y-147683713D01*
X138149500Y-147896286D01*
X138182753Y-148106239D01*
X138248444Y-148308414D01*
X138344951Y-148497820D01*
X138469890Y-148669786D01*
X138620213Y-148820109D01*
X138792182Y-148945050D01*
X138800946Y-148949516D01*
X138851742Y-148997491D01*
X138868536Y-149065312D01*
X138845998Y-149131447D01*
X138800946Y-149170484D01*
X138792182Y-149174949D01*
X138620213Y-149299890D01*
X138469890Y-149450213D01*
X138344951Y-149622179D01*
X138248444Y-149811585D01*
X138182753Y-150013760D01*
X138173666Y-150071134D01*
X138149500Y-150223713D01*
X138149500Y-150436287D01*
X138182754Y-150646243D01*
X138206685Y-150719896D01*
X138248444Y-150848414D01*
X138344951Y-151037820D01*
X138469890Y-151209786D01*
X138620213Y-151360109D01*
X138792179Y-151485048D01*
X138792181Y-151485049D01*
X138792184Y-151485051D01*
X138981588Y-151581557D01*
X139183757Y-151647246D01*
X139393713Y-151680500D01*
X139393714Y-151680500D01*
X139606286Y-151680500D01*
X139606287Y-151680500D01*
X139816243Y-151647246D01*
X140018412Y-151581557D01*
X140207816Y-151485051D01*
X140278417Y-151433757D01*
X140379786Y-151360109D01*
X140379788Y-151360106D01*
X140379792Y-151360104D01*
X140530104Y-151209792D01*
X140530106Y-151209788D01*
X140530109Y-151209786D01*
X140655048Y-151037820D01*
X140655047Y-151037820D01*
X140655051Y-151037816D01*
X140751557Y-150848412D01*
X140817246Y-150646243D01*
X140850500Y-150436287D01*
X140850500Y-150223713D01*
X140817246Y-150013757D01*
X140751557Y-149811588D01*
X140655051Y-149622184D01*
X140655049Y-149622181D01*
X140655048Y-149622179D01*
X140530109Y-149450213D01*
X140379786Y-149299890D01*
X140207820Y-149174951D01*
X140207115Y-149174591D01*
X140199054Y-149170485D01*
X140148259Y-149122512D01*
X140131463Y-149054692D01*
X140153999Y-148988556D01*
X140199054Y-148949515D01*
X140207816Y-148945051D01*
X140265704Y-148902993D01*
X140379786Y-148820109D01*
X140379788Y-148820106D01*
X140379792Y-148820104D01*
X140530104Y-148669792D01*
X140530106Y-148669788D01*
X140530109Y-148669786D01*
X140655048Y-148497820D01*
X140655047Y-148497820D01*
X140655051Y-148497816D01*
X140751557Y-148308412D01*
X140817246Y-148106243D01*
X140850500Y-147896287D01*
X140850500Y-147683713D01*
X140817246Y-147473757D01*
X140751557Y-147271588D01*
X140655051Y-147082184D01*
X140655049Y-147082181D01*
X140655048Y-147082179D01*
X140530109Y-146910213D01*
X140379786Y-146759890D01*
X140207820Y-146634951D01*
X140207115Y-146634591D01*
X140199054Y-146630485D01*
X140148259Y-146582512D01*
X140131463Y-146514692D01*
X140153999Y-146448556D01*
X140199054Y-146409515D01*
X140207816Y-146405051D01*
X140294138Y-146342335D01*
X140379786Y-146280109D01*
X140379788Y-146280106D01*
X140379792Y-146280104D01*
X140530104Y-146129792D01*
X140530106Y-146129788D01*
X140530109Y-146129786D01*
X140655048Y-145957820D01*
X140655047Y-145957820D01*
X140655051Y-145957816D01*
X140751557Y-145768412D01*
X140817246Y-145566243D01*
X140850500Y-145356287D01*
X140850500Y-145143713D01*
X140817246Y-144933757D01*
X140751557Y-144731588D01*
X140655051Y-144542184D01*
X140655049Y-144542181D01*
X140655048Y-144542179D01*
X140530109Y-144370213D01*
X140416569Y-144256673D01*
X140383084Y-144195350D01*
X140388068Y-144125658D01*
X140429940Y-144069725D01*
X140460915Y-144052810D01*
X140592331Y-144003796D01*
X140707546Y-143917546D01*
X140793796Y-143802331D01*
X140844091Y-143667483D01*
X140850500Y-143607873D01*
X140850499Y-141812128D01*
X140844091Y-141752517D01*
X140823118Y-141696286D01*
X140793797Y-141617671D01*
X140793793Y-141617664D01*
X140707547Y-141502455D01*
X140707544Y-141502452D01*
X140592335Y-141416206D01*
X140592328Y-141416202D01*
X140457482Y-141365908D01*
X140457483Y-141365908D01*
X140397883Y-141359501D01*
X140397881Y-141359500D01*
X140397873Y-141359500D01*
X140397864Y-141359500D01*
X138602129Y-141359500D01*
X138602123Y-141359501D01*
X138542516Y-141365908D01*
X138407671Y-141416202D01*
X138407664Y-141416206D01*
X138292455Y-141502452D01*
X138292452Y-141502455D01*
X138206206Y-141617664D01*
X138206202Y-141617671D01*
X138155908Y-141752517D01*
X138149501Y-141812116D01*
X138149501Y-141812123D01*
X138149500Y-141812135D01*
X127453700Y-141812135D01*
X127453700Y-106349983D01*
X134299500Y-106349983D01*
X134299500Y-106975001D01*
X134299501Y-106975019D01*
X134310000Y-107077796D01*
X134310001Y-107077799D01*
X134365185Y-107244331D01*
X134365187Y-107244336D01*
X134457289Y-107393657D01*
X134550951Y-107487319D01*
X134584436Y-107548642D01*
X134579452Y-107618334D01*
X134550951Y-107662681D01*
X134457289Y-107756342D01*
X134365187Y-107905663D01*
X134365186Y-107905666D01*
X134310001Y-108072203D01*
X134310001Y-108072204D01*
X134310000Y-108072204D01*
X134299500Y-108174983D01*
X134299500Y-108800001D01*
X134299501Y-108800019D01*
X134310000Y-108902796D01*
X134310001Y-108902799D01*
X134338966Y-108990207D01*
X134365186Y-109069334D01*
X134457288Y-109218656D01*
X134581344Y-109342712D01*
X134730666Y-109434814D01*
X134897203Y-109489999D01*
X134999991Y-109500500D01*
X135543955Y-109500499D01*
X135610994Y-109520183D01*
X135631636Y-109536818D01*
X138138873Y-112044055D01*
X138172358Y-112105378D01*
X138173666Y-112151133D01*
X138149500Y-112303713D01*
X138149500Y-112303718D01*
X138149500Y-112516286D01*
X138179889Y-112708158D01*
X138182754Y-112726243D01*
X138184181Y-112730636D01*
X138248444Y-112928414D01*
X138344951Y-113117820D01*
X138469890Y-113289786D01*
X138620213Y-113440109D01*
X138792182Y-113565050D01*
X138800946Y-113569516D01*
X138851742Y-113617491D01*
X138868536Y-113685312D01*
X138845998Y-113751447D01*
X138800946Y-113790484D01*
X138792182Y-113794949D01*
X138620213Y-113919890D01*
X138469890Y-114070213D01*
X138344951Y-114242179D01*
X138248444Y-114431585D01*
X138182753Y-114633760D01*
X138149500Y-114843713D01*
X138149500Y-115056286D01*
X138179889Y-115248158D01*
X138182754Y-115266243D01*
X138196662Y-115309048D01*
X138248444Y-115468414D01*
X138344951Y-115657820D01*
X138469890Y-115829786D01*
X138620213Y-115980109D01*
X138792182Y-116105050D01*
X138800946Y-116109516D01*
X138851742Y-116157491D01*
X138868536Y-116225312D01*
X138845998Y-116291447D01*
X138800946Y-116330484D01*
X138792182Y-116334949D01*
X138620213Y-116459890D01*
X138469890Y-116610213D01*
X138344951Y-116782179D01*
X138248444Y-116971585D01*
X138182753Y-117173760D01*
X138149500Y-117383713D01*
X138149500Y-117596286D01*
X138180932Y-117794743D01*
X138182754Y-117806243D01*
X138238695Y-117978412D01*
X138248444Y-118008414D01*
X138344951Y-118197820D01*
X138469890Y-118369786D01*
X138620213Y-118520109D01*
X138792182Y-118645050D01*
X138800946Y-118649516D01*
X138851742Y-118697491D01*
X138868536Y-118765312D01*
X138845998Y-118831447D01*
X138800946Y-118870484D01*
X138792182Y-118874949D01*
X138620213Y-118999890D01*
X138469890Y-119150213D01*
X138344951Y-119322179D01*
X138248444Y-119511585D01*
X138182753Y-119713760D01*
X138149500Y-119923713D01*
X138149500Y-120136287D01*
X138182754Y-120346243D01*
X138238695Y-120518412D01*
X138248444Y-120548414D01*
X138344951Y-120737820D01*
X138469890Y-120909786D01*
X138620213Y-121060109D01*
X138792182Y-121185050D01*
X138800946Y-121189516D01*
X138851742Y-121237491D01*
X138868536Y-121305312D01*
X138845998Y-121371447D01*
X138800946Y-121410484D01*
X138792182Y-121414949D01*
X138620213Y-121539890D01*
X138469890Y-121690213D01*
X138344951Y-121862179D01*
X138248444Y-122051585D01*
X138182753Y-122253760D01*
X138149500Y-122463713D01*
X138149500Y-122676287D01*
X138182754Y-122886243D01*
X138238695Y-123058412D01*
X138248444Y-123088414D01*
X138344951Y-123277820D01*
X138469890Y-123449786D01*
X138620213Y-123600109D01*
X138792182Y-123725050D01*
X138800946Y-123729516D01*
X138851742Y-123777491D01*
X138868536Y-123845312D01*
X138845998Y-123911447D01*
X138800946Y-123950484D01*
X138792182Y-123954949D01*
X138620213Y-124079890D01*
X138469890Y-124230213D01*
X138344951Y-124402179D01*
X138248444Y-124591585D01*
X138182753Y-124793760D01*
X138149500Y-125003713D01*
X138149500Y-125216287D01*
X138182754Y-125426243D01*
X138238695Y-125598412D01*
X138248444Y-125628414D01*
X138344951Y-125817820D01*
X138469890Y-125989786D01*
X138620213Y-126140109D01*
X138792179Y-126265048D01*
X138792181Y-126265049D01*
X138792184Y-126265051D01*
X138801493Y-126269794D01*
X138852290Y-126317766D01*
X138869087Y-126385587D01*
X138846552Y-126451722D01*
X138801505Y-126490760D01*
X138792446Y-126495376D01*
X138792440Y-126495380D01*
X138738282Y-126534727D01*
X138738282Y-126534728D01*
X139370591Y-127167037D01*
X139307007Y-127184075D01*
X139192993Y-127249901D01*
X139099901Y-127342993D01*
X139034075Y-127457007D01*
X139017037Y-127520591D01*
X138384728Y-126888282D01*
X138384727Y-126888282D01*
X138345380Y-126942439D01*
X138248904Y-127131782D01*
X138183242Y-127333869D01*
X138183242Y-127333872D01*
X138150000Y-127543753D01*
X138150000Y-127756246D01*
X138183242Y-127966127D01*
X138183242Y-127966130D01*
X138248904Y-128168217D01*
X138345375Y-128357550D01*
X138384728Y-128411716D01*
X139017037Y-127779408D01*
X139034075Y-127842993D01*
X139099901Y-127957007D01*
X139192993Y-128050099D01*
X139307007Y-128115925D01*
X139370590Y-128132962D01*
X138738282Y-128765269D01*
X138738282Y-128765270D01*
X138792449Y-128804624D01*
X138981782Y-128901095D01*
X139183870Y-128966757D01*
X139393754Y-129000000D01*
X139606246Y-129000000D01*
X139816127Y-128966757D01*
X139816130Y-128966757D01*
X140018217Y-128901095D01*
X140207554Y-128804622D01*
X140261716Y-128765270D01*
X140261717Y-128765270D01*
X139629408Y-128132962D01*
X139692993Y-128115925D01*
X139807007Y-128050099D01*
X139900099Y-127957007D01*
X139965925Y-127842993D01*
X139982962Y-127779408D01*
X140615270Y-128411717D01*
X140615270Y-128411716D01*
X140654622Y-128357554D01*
X140751095Y-128168217D01*
X140816757Y-127966130D01*
X140816757Y-127966127D01*
X140850000Y-127756246D01*
X140850000Y-127543753D01*
X140816757Y-127333872D01*
X140816757Y-127333869D01*
X140751095Y-127131782D01*
X140654624Y-126942449D01*
X140615270Y-126888282D01*
X140615269Y-126888282D01*
X139982962Y-127520590D01*
X139965925Y-127457007D01*
X139900099Y-127342993D01*
X139807007Y-127249901D01*
X139692993Y-127184075D01*
X139629409Y-127167037D01*
X140261716Y-126534728D01*
X140207547Y-126495373D01*
X140207547Y-126495372D01*
X140198500Y-126490763D01*
X140147706Y-126442788D01*
X140130912Y-126374966D01*
X140153451Y-126308832D01*
X140198508Y-126269793D01*
X140207816Y-126265051D01*
X140287007Y-126207515D01*
X140379786Y-126140109D01*
X140379788Y-126140106D01*
X140379792Y-126140104D01*
X140530104Y-125989792D01*
X140530106Y-125989788D01*
X140530109Y-125989786D01*
X140655048Y-125817820D01*
X140655047Y-125817820D01*
X140655051Y-125817816D01*
X140751557Y-125628412D01*
X140817246Y-125426243D01*
X140850500Y-125216287D01*
X140850500Y-125003713D01*
X140817246Y-124793757D01*
X140751557Y-124591588D01*
X140655051Y-124402184D01*
X140655049Y-124402181D01*
X140655048Y-124402179D01*
X140530109Y-124230213D01*
X140379786Y-124079890D01*
X140207820Y-123954951D01*
X140207115Y-123954591D01*
X140199054Y-123950485D01*
X140148259Y-123902512D01*
X140131463Y-123834692D01*
X140153999Y-123768556D01*
X140199054Y-123729515D01*
X140207816Y-123725051D01*
X140287504Y-123667155D01*
X140379786Y-123600109D01*
X140379788Y-123600106D01*
X140379792Y-123600104D01*
X140530104Y-123449792D01*
X140530106Y-123449788D01*
X140530109Y-123449786D01*
X140655048Y-123277820D01*
X140655047Y-123277820D01*
X140655051Y-123277816D01*
X140751557Y-123088412D01*
X140817246Y-122886243D01*
X140850500Y-122676287D01*
X140850500Y-122463713D01*
X140817246Y-122253757D01*
X140751557Y-122051588D01*
X140655051Y-121862184D01*
X140655049Y-121862181D01*
X140655048Y-121862179D01*
X140530109Y-121690213D01*
X140379786Y-121539890D01*
X140207820Y-121414951D01*
X140207115Y-121414591D01*
X140199054Y-121410485D01*
X140148259Y-121362512D01*
X140131463Y-121294692D01*
X140153999Y-121228556D01*
X140199054Y-121189515D01*
X140207816Y-121185051D01*
X140249109Y-121155050D01*
X140379786Y-121060109D01*
X140379788Y-121060106D01*
X140379792Y-121060104D01*
X140530104Y-120909792D01*
X140530106Y-120909788D01*
X140530109Y-120909786D01*
X140655048Y-120737820D01*
X140655047Y-120737820D01*
X140655051Y-120737816D01*
X140751557Y-120548412D01*
X140817246Y-120346243D01*
X140850500Y-120136287D01*
X140850500Y-119923713D01*
X140817246Y-119713757D01*
X140751557Y-119511588D01*
X140655051Y-119322184D01*
X140655049Y-119322181D01*
X140655048Y-119322179D01*
X140530109Y-119150213D01*
X140379786Y-118999890D01*
X140207820Y-118874951D01*
X140207115Y-118874591D01*
X140199054Y-118870485D01*
X140148259Y-118822512D01*
X140131463Y-118754692D01*
X140153999Y-118688556D01*
X140199054Y-118649515D01*
X140207816Y-118645051D01*
X140249109Y-118615050D01*
X140379786Y-118520109D01*
X140379788Y-118520106D01*
X140379792Y-118520104D01*
X140530104Y-118369792D01*
X140530106Y-118369788D01*
X140530109Y-118369786D01*
X140655048Y-118197820D01*
X140655047Y-118197820D01*
X140655051Y-118197816D01*
X140751557Y-118008412D01*
X140817246Y-117806243D01*
X140850500Y-117596287D01*
X140850500Y-117595044D01*
X140850633Y-117594588D01*
X140850883Y-117591424D01*
X140851547Y-117591476D01*
X140870185Y-117528005D01*
X140922989Y-117482250D01*
X140992147Y-117472306D01*
X141055703Y-117501331D01*
X141062181Y-117507363D01*
X160500274Y-136945456D01*
X160500303Y-136945487D01*
X160601414Y-137046598D01*
X160716676Y-137123613D01*
X160844733Y-137176655D01*
X160844738Y-137176657D01*
X160844742Y-137176657D01*
X160844743Y-137176658D01*
X160980688Y-137203700D01*
X160980691Y-137203700D01*
X160980692Y-137203700D01*
X186028777Y-137203700D01*
X186095816Y-137223385D01*
X186129096Y-137254815D01*
X186219896Y-137379792D01*
X186370213Y-137530109D01*
X186542182Y-137655050D01*
X186550946Y-137659516D01*
X186601742Y-137707491D01*
X186618536Y-137775312D01*
X186595998Y-137841447D01*
X186550946Y-137880484D01*
X186542182Y-137884949D01*
X186370213Y-138009890D01*
X186219890Y-138160213D01*
X186094951Y-138332179D01*
X185998444Y-138521585D01*
X185932753Y-138723760D01*
X185899500Y-138933713D01*
X185899500Y-139146286D01*
X185917650Y-139260884D01*
X185932754Y-139356243D01*
X185991536Y-139537156D01*
X185998444Y-139558414D01*
X186094951Y-139747820D01*
X186219890Y-139919786D01*
X186370213Y-140070109D01*
X186542179Y-140195048D01*
X186542181Y-140195049D01*
X186542184Y-140195051D01*
X186731588Y-140291557D01*
X186933757Y-140357246D01*
X187143713Y-140390500D01*
X187143714Y-140390500D01*
X187356286Y-140390500D01*
X187356287Y-140390500D01*
X187566243Y-140357246D01*
X187768412Y-140291557D01*
X187957816Y-140195051D01*
X187979789Y-140179086D01*
X188129786Y-140070109D01*
X188129788Y-140070106D01*
X188129792Y-140070104D01*
X188280104Y-139919792D01*
X188280106Y-139919788D01*
X188280109Y-139919786D01*
X188405048Y-139747820D01*
X188405047Y-139747820D01*
X188405051Y-139747816D01*
X188501557Y-139558412D01*
X188567246Y-139356243D01*
X188600500Y-139146287D01*
X188600500Y-138933713D01*
X188576333Y-138781131D01*
X188585287Y-138711841D01*
X188611122Y-138674058D01*
X188952779Y-138332402D01*
X188952783Y-138332400D01*
X189050800Y-138234383D01*
X189127811Y-138119127D01*
X189144867Y-138077949D01*
X189180858Y-137991062D01*
X189207901Y-137855108D01*
X189207901Y-137716491D01*
X189207901Y-137711381D01*
X189207900Y-137711355D01*
X189207900Y-133515936D01*
X189207901Y-133515915D01*
X189207901Y-133371182D01*
X189180858Y-133235236D01*
X189180857Y-133235232D01*
X189156171Y-133175634D01*
X189130138Y-133112785D01*
X189128493Y-133108187D01*
X189050798Y-132991907D01*
X188949687Y-132890796D01*
X188949656Y-132890767D01*
X188607594Y-132548705D01*
X188574109Y-132487382D01*
X188579092Y-132417694D01*
X188594091Y-132377483D01*
X188600500Y-132317873D01*
X188600499Y-130522128D01*
X188594091Y-130462517D01*
X188543796Y-130327669D01*
X188543795Y-130327668D01*
X188543793Y-130327664D01*
X188457547Y-130212455D01*
X188457544Y-130212452D01*
X188342335Y-130126206D01*
X188342328Y-130126202D01*
X188207482Y-130075908D01*
X188207483Y-130075908D01*
X188147883Y-130069501D01*
X188147881Y-130069500D01*
X188147873Y-130069500D01*
X188147864Y-130069500D01*
X186352129Y-130069500D01*
X186352123Y-130069501D01*
X186292516Y-130075908D01*
X186157671Y-130126202D01*
X186157664Y-130126206D01*
X186042455Y-130212452D01*
X186042452Y-130212455D01*
X185956206Y-130327664D01*
X185956202Y-130327671D01*
X185905908Y-130462517D01*
X185899501Y-130522116D01*
X185899501Y-130522123D01*
X185899500Y-130522135D01*
X185899500Y-130592300D01*
X185879815Y-130659339D01*
X185827011Y-130705094D01*
X185775500Y-130716300D01*
X184262844Y-130716300D01*
X184195805Y-130696615D01*
X184175163Y-130679981D01*
X160380940Y-106885758D01*
X160380920Y-106885736D01*
X160278585Y-106783401D01*
X160163323Y-106706386D01*
X160035264Y-106653343D01*
X160035256Y-106653341D01*
X159899310Y-106626299D01*
X159899308Y-106626299D01*
X159760692Y-106626299D01*
X159754578Y-106626299D01*
X159754558Y-106626300D01*
X140721223Y-106626300D01*
X140654184Y-106606615D01*
X140620904Y-106575185D01*
X140530107Y-106450213D01*
X140530104Y-106450208D01*
X140379792Y-106299896D01*
X140379786Y-106299890D01*
X140207820Y-106174951D01*
X140207115Y-106174591D01*
X140199054Y-106170485D01*
X140148259Y-106122512D01*
X140131463Y-106054692D01*
X140153999Y-105988556D01*
X140199054Y-105949515D01*
X140207816Y-105945051D01*
X140249112Y-105915048D01*
X140379786Y-105820109D01*
X140379788Y-105820106D01*
X140379792Y-105820104D01*
X140530104Y-105669792D01*
X140530106Y-105669788D01*
X140530109Y-105669786D01*
X140655048Y-105497820D01*
X140655047Y-105497820D01*
X140655051Y-105497816D01*
X140751557Y-105308412D01*
X140817246Y-105106243D01*
X140850500Y-104896287D01*
X140850500Y-104683713D01*
X140817246Y-104473757D01*
X140751557Y-104271588D01*
X140655051Y-104082184D01*
X140655049Y-104082181D01*
X140655048Y-104082179D01*
X140530109Y-103910213D01*
X140379786Y-103759890D01*
X140207820Y-103634951D01*
X140207115Y-103634591D01*
X140199054Y-103630485D01*
X140148259Y-103582512D01*
X140131463Y-103514692D01*
X140153999Y-103448556D01*
X140199054Y-103409515D01*
X140207816Y-103405051D01*
X140249112Y-103375048D01*
X140379786Y-103280109D01*
X140379788Y-103280106D01*
X140379792Y-103280104D01*
X140530104Y-103129792D01*
X140620905Y-103004814D01*
X140676234Y-102962149D01*
X140721223Y-102953700D01*
X145924558Y-102953700D01*
X145924578Y-102953701D01*
X145930692Y-102953701D01*
X146069310Y-102953701D01*
X146199415Y-102927820D01*
X146205262Y-102926657D01*
X146333327Y-102873611D01*
X146357017Y-102857782D01*
X146448583Y-102796600D01*
X146546600Y-102698583D01*
X146546601Y-102698580D01*
X146553667Y-102691515D01*
X146553669Y-102691511D01*
X186425163Y-62820019D01*
X186486486Y-62786534D01*
X186512844Y-62783700D01*
X189278777Y-62783700D01*
X189345816Y-62803385D01*
X189379094Y-62834813D01*
X189425324Y-62898443D01*
X189469896Y-62959792D01*
X189620213Y-63110109D01*
X189792182Y-63235050D01*
X189800946Y-63239516D01*
X189851742Y-63287491D01*
X189868536Y-63355312D01*
X189845998Y-63421447D01*
X189800946Y-63460484D01*
X189792182Y-63464949D01*
X189620213Y-63589890D01*
X189469890Y-63740213D01*
X189344951Y-63912179D01*
X189248444Y-64101585D01*
X189182753Y-64303760D01*
X189149500Y-64513713D01*
X189149500Y-64726286D01*
X189177047Y-64900215D01*
X189182754Y-64936243D01*
X189228261Y-65076300D01*
X189248444Y-65138414D01*
X189344951Y-65327820D01*
X189469890Y-65499786D01*
X189620213Y-65650109D01*
X189792179Y-65775048D01*
X189792181Y-65775049D01*
X189792184Y-65775051D01*
X189801493Y-65779794D01*
X189852290Y-65827766D01*
X189869087Y-65895587D01*
X189846552Y-65961722D01*
X189801505Y-66000760D01*
X189792446Y-66005376D01*
X189792440Y-66005380D01*
X189738282Y-66044727D01*
X189738282Y-66044728D01*
X190370591Y-66677037D01*
X190307007Y-66694075D01*
X190192993Y-66759901D01*
X190099901Y-66852993D01*
X190034075Y-66967007D01*
X190017037Y-67030591D01*
X189384728Y-66398282D01*
X189384727Y-66398282D01*
X189345380Y-66452439D01*
X189248904Y-66641782D01*
X189183242Y-66843869D01*
X189183242Y-66843872D01*
X189150000Y-67053753D01*
X189150000Y-67266246D01*
X189183242Y-67476127D01*
X189183242Y-67476130D01*
X189248904Y-67678217D01*
X189345375Y-67867550D01*
X189384728Y-67921716D01*
X190017037Y-67289408D01*
X190034075Y-67352993D01*
X190099901Y-67467007D01*
X190192993Y-67560099D01*
X190307007Y-67625925D01*
X190370590Y-67642962D01*
X189738282Y-68275269D01*
X189738282Y-68275270D01*
X189792449Y-68314624D01*
X189981782Y-68411095D01*
X190183870Y-68476757D01*
X190393754Y-68510000D01*
X190606246Y-68510000D01*
X190816127Y-68476757D01*
X190816130Y-68476757D01*
X191018217Y-68411095D01*
X191207554Y-68314622D01*
X191261716Y-68275270D01*
X191261717Y-68275270D01*
X190629408Y-67642962D01*
X190692993Y-67625925D01*
X190807007Y-67560099D01*
X190900099Y-67467007D01*
X190965925Y-67352993D01*
X190982962Y-67289408D01*
X191615270Y-67921717D01*
X191615270Y-67921716D01*
X191654622Y-67867554D01*
X191751095Y-67678217D01*
X191816757Y-67476130D01*
X191816757Y-67476127D01*
X191850000Y-67266246D01*
X191850000Y-67053753D01*
X191816757Y-66843872D01*
X191816757Y-66843869D01*
X191751095Y-66641782D01*
X191654624Y-66452449D01*
X191615270Y-66398282D01*
X191615269Y-66398282D01*
X190982962Y-67030590D01*
X190965925Y-66967007D01*
X190900099Y-66852993D01*
X190807007Y-66759901D01*
X190692993Y-66694075D01*
X190629409Y-66677037D01*
X191261716Y-66044728D01*
X191207547Y-66005373D01*
X191207547Y-66005372D01*
X191198500Y-66000763D01*
X191147706Y-65952788D01*
X191130912Y-65884966D01*
X191153451Y-65818832D01*
X191198508Y-65779793D01*
X191207816Y-65775051D01*
X191287007Y-65717515D01*
X191379786Y-65650109D01*
X191379788Y-65650106D01*
X191379792Y-65650104D01*
X191530104Y-65499792D01*
X191530106Y-65499788D01*
X191530109Y-65499786D01*
X191655048Y-65327820D01*
X191655047Y-65327820D01*
X191655051Y-65327816D01*
X191751557Y-65138412D01*
X191817246Y-64936243D01*
X191850500Y-64726287D01*
X191850500Y-64513713D01*
X191817246Y-64303757D01*
X191751557Y-64101588D01*
X191655051Y-63912184D01*
X191655049Y-63912181D01*
X191655048Y-63912179D01*
X191530109Y-63740213D01*
X191379786Y-63589890D01*
X191207820Y-63464951D01*
X191207115Y-63464591D01*
X191199054Y-63460485D01*
X191148259Y-63412512D01*
X191131463Y-63344692D01*
X191153999Y-63278556D01*
X191199054Y-63239515D01*
X191207816Y-63235051D01*
X191289033Y-63176044D01*
X191379786Y-63110109D01*
X191379788Y-63110106D01*
X191379792Y-63110104D01*
X191530104Y-62959792D01*
X191530106Y-62959788D01*
X191530109Y-62959786D01*
X191655048Y-62787820D01*
X191655047Y-62787820D01*
X191655051Y-62787816D01*
X191751557Y-62598412D01*
X191817246Y-62396243D01*
X191850500Y-62186287D01*
X191850500Y-61973713D01*
X191817246Y-61763757D01*
X191751557Y-61561588D01*
X191655051Y-61372184D01*
X191655049Y-61372181D01*
X191655048Y-61372179D01*
X191530109Y-61200213D01*
X191379786Y-61049890D01*
X191207820Y-60924951D01*
X191207115Y-60924591D01*
X191199054Y-60920485D01*
X191148259Y-60872512D01*
X191131463Y-60804692D01*
X191153999Y-60738556D01*
X191199054Y-60699515D01*
X191207816Y-60695051D01*
X191315695Y-60616673D01*
X191379786Y-60570109D01*
X191379788Y-60570106D01*
X191379792Y-60570104D01*
X191530104Y-60419792D01*
X191530106Y-60419788D01*
X191530109Y-60419786D01*
X191655048Y-60247820D01*
X191655047Y-60247820D01*
X191655051Y-60247816D01*
X191751557Y-60058412D01*
X191817246Y-59856243D01*
X191850500Y-59646287D01*
X191850500Y-59433713D01*
X191817246Y-59223757D01*
X191751557Y-59021588D01*
X191655051Y-58832184D01*
X191655049Y-58832181D01*
X191655048Y-58832179D01*
X191530109Y-58660213D01*
X191416569Y-58546673D01*
X191383084Y-58485350D01*
X191388068Y-58415658D01*
X191429940Y-58359725D01*
X191460915Y-58342810D01*
X191592331Y-58293796D01*
X191707546Y-58207546D01*
X191793796Y-58092331D01*
X191844091Y-57957483D01*
X191850500Y-57897873D01*
X191850499Y-56102128D01*
X191844091Y-56042517D01*
X191793796Y-55907669D01*
X191793795Y-55907668D01*
X191793793Y-55907664D01*
X191707547Y-55792455D01*
X191707544Y-55792452D01*
X191592335Y-55706206D01*
X191592328Y-55706202D01*
X191457482Y-55655908D01*
X191457483Y-55655908D01*
X191397883Y-55649501D01*
X191397881Y-55649500D01*
X191397873Y-55649500D01*
X191397864Y-55649500D01*
X189602129Y-55649500D01*
X189602123Y-55649501D01*
X189542516Y-55655908D01*
X189407671Y-55706202D01*
X189407664Y-55706206D01*
X189292455Y-55792452D01*
X189292452Y-55792455D01*
X189206206Y-55907664D01*
X189206202Y-55907671D01*
X189155908Y-56042517D01*
X189151106Y-56087187D01*
X189149501Y-56102123D01*
X189149500Y-56102135D01*
X189149500Y-56172300D01*
X189129815Y-56239339D01*
X189077011Y-56285094D01*
X189025500Y-56296300D01*
X184100689Y-56296300D01*
X183964743Y-56323341D01*
X183964733Y-56323344D01*
X183836676Y-56376386D01*
X183721416Y-56453400D01*
X183672408Y-56502408D01*
X183623400Y-56551417D01*
X183623397Y-56551420D01*
X166774605Y-73400213D01*
X149929037Y-90245781D01*
X149867714Y-90279266D01*
X149841356Y-90282100D01*
X148151535Y-90282100D01*
X148084496Y-90262415D01*
X148038741Y-90209611D01*
X148028797Y-90140453D01*
X148033604Y-90119782D01*
X148041136Y-90096600D01*
X148067246Y-90016243D01*
X148100500Y-89806287D01*
X148100500Y-89593713D01*
X148067246Y-89383757D01*
X148001557Y-89181588D01*
X147905051Y-88992184D01*
X147905049Y-88992181D01*
X147905048Y-88992179D01*
X147780109Y-88820213D01*
X147629786Y-88669890D01*
X147457820Y-88544951D01*
X147457115Y-88544591D01*
X147449054Y-88540485D01*
X147398259Y-88492512D01*
X147381463Y-88424692D01*
X147403999Y-88358556D01*
X147449054Y-88319515D01*
X147457816Y-88315051D01*
X147531445Y-88261557D01*
X147629786Y-88190109D01*
X147629788Y-88190106D01*
X147629792Y-88190104D01*
X147780104Y-88039792D01*
X147780106Y-88039788D01*
X147780109Y-88039786D01*
X147905048Y-87867820D01*
X147905047Y-87867820D01*
X147905051Y-87867816D01*
X148001557Y-87678412D01*
X148067246Y-87476243D01*
X148100500Y-87266287D01*
X148100500Y-87053713D01*
X148067246Y-86843757D01*
X148001557Y-86641588D01*
X147905051Y-86452184D01*
X147905049Y-86452181D01*
X147905048Y-86452179D01*
X147780109Y-86280213D01*
X147629786Y-86129890D01*
X147457820Y-86004951D01*
X147457115Y-86004591D01*
X147449054Y-86000485D01*
X147398259Y-85952512D01*
X147381463Y-85884692D01*
X147403999Y-85818556D01*
X147449054Y-85779515D01*
X147457816Y-85775051D01*
X147554658Y-85704692D01*
X147629786Y-85650109D01*
X147629788Y-85650106D01*
X147629792Y-85650104D01*
X147780104Y-85499792D01*
X147780106Y-85499788D01*
X147780109Y-85499786D01*
X147905048Y-85327820D01*
X147905047Y-85327820D01*
X147905051Y-85327816D01*
X148001557Y-85138412D01*
X148067246Y-84936243D01*
X148100500Y-84726287D01*
X148100500Y-84513713D01*
X148067246Y-84303757D01*
X148001557Y-84101588D01*
X147905051Y-83912184D01*
X147905049Y-83912181D01*
X147905048Y-83912179D01*
X147780109Y-83740213D01*
X147629786Y-83589890D01*
X147457820Y-83464951D01*
X147457115Y-83464591D01*
X147449054Y-83460485D01*
X147398259Y-83412512D01*
X147381463Y-83344692D01*
X147403999Y-83278556D01*
X147449054Y-83239515D01*
X147457816Y-83235051D01*
X147554658Y-83164692D01*
X147629786Y-83110109D01*
X147629788Y-83110106D01*
X147629792Y-83110104D01*
X147780104Y-82959792D01*
X147780106Y-82959788D01*
X147780109Y-82959786D01*
X147905048Y-82787820D01*
X147905050Y-82787817D01*
X147905051Y-82787816D01*
X148001557Y-82598412D01*
X148067246Y-82396243D01*
X148100500Y-82186287D01*
X148100500Y-81973713D01*
X148067246Y-81763757D01*
X148001557Y-81561588D01*
X147905051Y-81372184D01*
X147905049Y-81372181D01*
X147905048Y-81372179D01*
X147780109Y-81200213D01*
X147629786Y-81049890D01*
X147457820Y-80924951D01*
X147457115Y-80924591D01*
X147449054Y-80920485D01*
X147398259Y-80872512D01*
X147381463Y-80804692D01*
X147403999Y-80738556D01*
X147449054Y-80699515D01*
X147457816Y-80695051D01*
X147554658Y-80624692D01*
X147629786Y-80570109D01*
X147629788Y-80570106D01*
X147629792Y-80570104D01*
X147780104Y-80419792D01*
X147780106Y-80419788D01*
X147780109Y-80419786D01*
X147905048Y-80247820D01*
X147905047Y-80247820D01*
X147905051Y-80247816D01*
X148001557Y-80058412D01*
X148067246Y-79856243D01*
X148086995Y-79731557D01*
X148100500Y-79646286D01*
X148100500Y-79433713D01*
X148091056Y-79374087D01*
X148067246Y-79223757D01*
X148001557Y-79021588D01*
X147905051Y-78832184D01*
X147905049Y-78832181D01*
X147905048Y-78832179D01*
X147780109Y-78660213D01*
X147666569Y-78546673D01*
X147633084Y-78485350D01*
X147638068Y-78415658D01*
X147679940Y-78359725D01*
X147710915Y-78342810D01*
X147842331Y-78293796D01*
X147957546Y-78207546D01*
X148043796Y-78092331D01*
X148094091Y-77957483D01*
X148100500Y-77897873D01*
X148100499Y-76102128D01*
X148094091Y-76042517D01*
X148084852Y-76017747D01*
X148043797Y-75907671D01*
X148043793Y-75907664D01*
X147957547Y-75792455D01*
X147957544Y-75792452D01*
X147842335Y-75706206D01*
X147842328Y-75706202D01*
X147707482Y-75655908D01*
X147707483Y-75655908D01*
X147647883Y-75649501D01*
X147647881Y-75649500D01*
X147647873Y-75649500D01*
X147647864Y-75649500D01*
X145852129Y-75649500D01*
X145852123Y-75649501D01*
X145792516Y-75655908D01*
X145657671Y-75706202D01*
X145657664Y-75706206D01*
X145542455Y-75792452D01*
X145542452Y-75792455D01*
X145456206Y-75907664D01*
X145456202Y-75907671D01*
X145405908Y-76042517D01*
X145400286Y-76094812D01*
X145399501Y-76102123D01*
X145399500Y-76102135D01*
X145399500Y-77897870D01*
X145399501Y-77897876D01*
X145405908Y-77957483D01*
X145456202Y-78092328D01*
X145456206Y-78092335D01*
X145542452Y-78207544D01*
X145542455Y-78207547D01*
X145657664Y-78293793D01*
X145657671Y-78293797D01*
X145789082Y-78342810D01*
X145845016Y-78384681D01*
X145869433Y-78450145D01*
X145854582Y-78518418D01*
X145833431Y-78546673D01*
X145719889Y-78660215D01*
X145594951Y-78832179D01*
X145498444Y-79021585D01*
X145498443Y-79021587D01*
X145498443Y-79021588D01*
X145485364Y-79061841D01*
X145432753Y-79223760D01*
X145399500Y-79433713D01*
X145399500Y-79646286D01*
X145413005Y-79731557D01*
X145432754Y-79856243D01*
X145489211Y-80030000D01*
X145498444Y-80058414D01*
X145594951Y-80247820D01*
X145719890Y-80419786D01*
X145870213Y-80570109D01*
X146042182Y-80695050D01*
X146050946Y-80699516D01*
X146101742Y-80747491D01*
X146118536Y-80815312D01*
X146095998Y-80881447D01*
X146050946Y-80920484D01*
X146042182Y-80924949D01*
X145870213Y-81049890D01*
X145719897Y-81200206D01*
X145719892Y-81200212D01*
X145687218Y-81245185D01*
X145631888Y-81287851D01*
X145586900Y-81296300D01*
X140768802Y-81296300D01*
X140701763Y-81276615D01*
X140658316Y-81228592D01*
X140655051Y-81222184D01*
X140655049Y-81222181D01*
X140655048Y-81222179D01*
X140530109Y-81050213D01*
X140379786Y-80899890D01*
X140207820Y-80774951D01*
X140207115Y-80774591D01*
X140199054Y-80770485D01*
X140148259Y-80722512D01*
X140131463Y-80654692D01*
X140153999Y-80588556D01*
X140199054Y-80549515D01*
X140207816Y-80545051D01*
X140297378Y-80479981D01*
X140379786Y-80420109D01*
X140379788Y-80420106D01*
X140379792Y-80420104D01*
X140530104Y-80269792D01*
X140530106Y-80269788D01*
X140530109Y-80269786D01*
X140655048Y-80097820D01*
X140655047Y-80097820D01*
X140655051Y-80097816D01*
X140751557Y-79908412D01*
X140817246Y-79706243D01*
X140850500Y-79496287D01*
X140850500Y-79283713D01*
X140826333Y-79131131D01*
X140835287Y-79061841D01*
X140861122Y-79024058D01*
X145948579Y-73936602D01*
X145948583Y-73936600D01*
X146046600Y-73838583D01*
X146123611Y-73723327D01*
X146126546Y-73716243D01*
X146176655Y-73595266D01*
X146176657Y-73595262D01*
X146203700Y-73459308D01*
X146203700Y-63099341D01*
X146223385Y-63032302D01*
X146276189Y-62986547D01*
X146345347Y-62976603D01*
X146408903Y-63005628D01*
X146427873Y-63027936D01*
X146428202Y-63027677D01*
X146432683Y-63033344D01*
X146556654Y-63157315D01*
X146705875Y-63249356D01*
X146705880Y-63249358D01*
X146872302Y-63304505D01*
X146872309Y-63304506D01*
X146975019Y-63314999D01*
X147249999Y-63314999D01*
X147750000Y-63314999D01*
X148024972Y-63314999D01*
X148024986Y-63314998D01*
X148127697Y-63304505D01*
X148294119Y-63249358D01*
X148294124Y-63249356D01*
X148443345Y-63157315D01*
X148567315Y-63033345D01*
X148659356Y-62884124D01*
X148659358Y-62884119D01*
X148714505Y-62717697D01*
X148714506Y-62717690D01*
X148724999Y-62614986D01*
X148725000Y-62614973D01*
X148725000Y-62565000D01*
X147750000Y-62565000D01*
X147750000Y-63314999D01*
X147249999Y-63314999D01*
X147250000Y-63314998D01*
X147250000Y-62439000D01*
X147269685Y-62371961D01*
X147322489Y-62326206D01*
X147374000Y-62315000D01*
X147500000Y-62315000D01*
X147500000Y-62189000D01*
X147519685Y-62121961D01*
X147572489Y-62076206D01*
X147624000Y-62065000D01*
X148724999Y-62065000D01*
X148724999Y-62015028D01*
X148724998Y-62015013D01*
X148714505Y-61912302D01*
X148659358Y-61745880D01*
X148659356Y-61745875D01*
X148567315Y-61596654D01*
X148476042Y-61505381D01*
X148442557Y-61444058D01*
X148447541Y-61374366D01*
X148489413Y-61318433D01*
X148554877Y-61294016D01*
X148563723Y-61293700D01*
X149280584Y-61293700D01*
X149347623Y-61313385D01*
X149383781Y-61354799D01*
X149386395Y-61353187D01*
X149390185Y-61359332D01*
X149390186Y-61359334D01*
X149482288Y-61508656D01*
X149606344Y-61632712D01*
X149755666Y-61724814D01*
X149922203Y-61779999D01*
X150024991Y-61790500D01*
X150650008Y-61790499D01*
X150650016Y-61790498D01*
X150650019Y-61790498D01*
X150714070Y-61783955D01*
X150752797Y-61779999D01*
X150919334Y-61724814D01*
X151068656Y-61632712D01*
X151162319Y-61539049D01*
X151223642Y-61505564D01*
X151293334Y-61510548D01*
X151337681Y-61539049D01*
X151431344Y-61632712D01*
X151580666Y-61724814D01*
X151747203Y-61779999D01*
X151849991Y-61790500D01*
X152475008Y-61790499D01*
X152475016Y-61790498D01*
X152475019Y-61790498D01*
X152539070Y-61783955D01*
X152577797Y-61779999D01*
X152744334Y-61724814D01*
X152893656Y-61632712D01*
X153017712Y-61508656D01*
X153109814Y-61359334D01*
X153109814Y-61359332D01*
X153113605Y-61353187D01*
X153116263Y-61354827D01*
X153153158Y-61312886D01*
X153219416Y-61293700D01*
X154997156Y-61293700D01*
X155064195Y-61313385D01*
X155084837Y-61330019D01*
X156113181Y-62358363D01*
X156146666Y-62419686D01*
X156149500Y-62446044D01*
X156149500Y-62606287D01*
X156154856Y-62640104D01*
X156178251Y-62787816D01*
X156182754Y-62816243D01*
X156244289Y-63005628D01*
X156248444Y-63018414D01*
X156344951Y-63207820D01*
X156469890Y-63379786D01*
X156620213Y-63530109D01*
X156792179Y-63655048D01*
X156792181Y-63655049D01*
X156792184Y-63655051D01*
X156981588Y-63751557D01*
X157183757Y-63817246D01*
X157393713Y-63850500D01*
X157393714Y-63850500D01*
X157606286Y-63850500D01*
X157606287Y-63850500D01*
X157816243Y-63817246D01*
X158018412Y-63751557D01*
X158207816Y-63655051D01*
X158297503Y-63589890D01*
X158379786Y-63530109D01*
X158379788Y-63530106D01*
X158379792Y-63530104D01*
X158530104Y-63379792D01*
X158530106Y-63379788D01*
X158530109Y-63379786D01*
X158655048Y-63207820D01*
X158655047Y-63207820D01*
X158655051Y-63207816D01*
X158751557Y-63018412D01*
X158817246Y-62816243D01*
X158850500Y-62606287D01*
X158850500Y-62393713D01*
X158817246Y-62183757D01*
X158751557Y-61981588D01*
X158655051Y-61792184D01*
X158655049Y-61792181D01*
X158655048Y-61792179D01*
X158530109Y-61620213D01*
X158379786Y-61469890D01*
X158207820Y-61344951D01*
X158207115Y-61344591D01*
X158199054Y-61340485D01*
X158148259Y-61292512D01*
X158131463Y-61224692D01*
X158153999Y-61158556D01*
X158199054Y-61119515D01*
X158207816Y-61115051D01*
X158292749Y-61053344D01*
X158379786Y-60990109D01*
X158379788Y-60990106D01*
X158379792Y-60990104D01*
X158530104Y-60839792D01*
X158530106Y-60839788D01*
X158530109Y-60839786D01*
X158655048Y-60667820D01*
X158655047Y-60667820D01*
X158655051Y-60667816D01*
X158751557Y-60478412D01*
X158817246Y-60276243D01*
X158850500Y-60066287D01*
X158850500Y-59853713D01*
X158817246Y-59643757D01*
X158751557Y-59441588D01*
X158655051Y-59252184D01*
X158655049Y-59252181D01*
X158655048Y-59252179D01*
X158530109Y-59080213D01*
X158379786Y-58929890D01*
X158207820Y-58804951D01*
X158207115Y-58804591D01*
X158199054Y-58800485D01*
X158148259Y-58752512D01*
X158131463Y-58684692D01*
X158153999Y-58618556D01*
X158199054Y-58579515D01*
X158207816Y-58575051D01*
X158246875Y-58546673D01*
X158379786Y-58450109D01*
X158379788Y-58450106D01*
X158379792Y-58450104D01*
X158530104Y-58299792D01*
X158530106Y-58299788D01*
X158530109Y-58299786D01*
X158644653Y-58142128D01*
X158655051Y-58127816D01*
X158751557Y-57938412D01*
X158817246Y-57736243D01*
X158850500Y-57526287D01*
X158850500Y-57313713D01*
X158817246Y-57103757D01*
X158751557Y-56901588D01*
X158655051Y-56712184D01*
X158655049Y-56712181D01*
X158655048Y-56712179D01*
X158530109Y-56540213D01*
X158416181Y-56426285D01*
X158382696Y-56364962D01*
X158387680Y-56295270D01*
X158429552Y-56239337D01*
X158460529Y-56222422D01*
X158592086Y-56173354D01*
X158592093Y-56173350D01*
X158707187Y-56087190D01*
X158707190Y-56087187D01*
X158793350Y-55972093D01*
X158793354Y-55972086D01*
X158843596Y-55837379D01*
X158843598Y-55837372D01*
X158849999Y-55777844D01*
X158850000Y-55777827D01*
X158850000Y-55130000D01*
X157933012Y-55130000D01*
X157965925Y-55072993D01*
X158000000Y-54945826D01*
X158000000Y-54814174D01*
X157965925Y-54687007D01*
X157933012Y-54630000D01*
X158850000Y-54630000D01*
X158850000Y-53982172D01*
X158849999Y-53982155D01*
X158843598Y-53922627D01*
X158843596Y-53922620D01*
X158793354Y-53787913D01*
X158793350Y-53787906D01*
X158707190Y-53672812D01*
X158707187Y-53672809D01*
X158592093Y-53586649D01*
X158592086Y-53586645D01*
X158457379Y-53536403D01*
X158457372Y-53536401D01*
X158397844Y-53530000D01*
X157750000Y-53530000D01*
X157750000Y-54446988D01*
X157692993Y-54414075D01*
X157565826Y-54380000D01*
X157434174Y-54380000D01*
X157307007Y-54414075D01*
X157250000Y-54446988D01*
X157250000Y-53530000D01*
X156602155Y-53530000D01*
X156542627Y-53536401D01*
X156542620Y-53536403D01*
X156407913Y-53586645D01*
X156407906Y-53586649D01*
X156292812Y-53672809D01*
X156292809Y-53672812D01*
X156206649Y-53787906D01*
X156206645Y-53787913D01*
X156156403Y-53922620D01*
X156156401Y-53922627D01*
X156150000Y-53982155D01*
X156150000Y-54630000D01*
X157066988Y-54630000D01*
X157034075Y-54687007D01*
X157000000Y-54814174D01*
X157000000Y-54945826D01*
X157034075Y-55072993D01*
X157066988Y-55130000D01*
X156150000Y-55130000D01*
X156150000Y-55777844D01*
X156156401Y-55837372D01*
X156156403Y-55837379D01*
X156206645Y-55972086D01*
X156206649Y-55972093D01*
X156292809Y-56087187D01*
X156292812Y-56087190D01*
X156407906Y-56173350D01*
X156407913Y-56173354D01*
X156539470Y-56222422D01*
X156595404Y-56264293D01*
X156619821Y-56329758D01*
X156604969Y-56398031D01*
X156583819Y-56426285D01*
X156469889Y-56540215D01*
X156344951Y-56712179D01*
X156248444Y-56901585D01*
X156182753Y-57103760D01*
X156149500Y-57313713D01*
X156149500Y-57526286D01*
X156178048Y-57706534D01*
X156182754Y-57736243D01*
X156235274Y-57897883D01*
X156248444Y-57938414D01*
X156344951Y-58127820D01*
X156469890Y-58299786D01*
X156620213Y-58450109D01*
X156792182Y-58575050D01*
X156800946Y-58579516D01*
X156851742Y-58627491D01*
X156868536Y-58695312D01*
X156845998Y-58761447D01*
X156800946Y-58800484D01*
X156792182Y-58804949D01*
X156620213Y-58929890D01*
X156469890Y-59080213D01*
X156344951Y-59252179D01*
X156248444Y-59441585D01*
X156182753Y-59643760D01*
X156149500Y-59853713D01*
X156149500Y-60066287D01*
X156149499Y-60066287D01*
X156153414Y-60091000D01*
X156149373Y-60122268D01*
X156147123Y-60153731D01*
X156144928Y-60156662D01*
X156144459Y-60160293D01*
X156124149Y-60184419D01*
X156105251Y-60209664D01*
X156101821Y-60210943D01*
X156099463Y-60213745D01*
X156069332Y-60223061D01*
X156039787Y-60234081D01*
X156036208Y-60233302D01*
X156032711Y-60234384D01*
X156002327Y-60225932D01*
X155971514Y-60219229D01*
X155967542Y-60216255D01*
X155965397Y-60215659D01*
X155943260Y-60198078D01*
X155890940Y-60145758D01*
X155890920Y-60145736D01*
X155788585Y-60043401D01*
X155673323Y-59966386D01*
X155545264Y-59913343D01*
X155545256Y-59913341D01*
X155409310Y-59886299D01*
X155409308Y-59886299D01*
X155270692Y-59886299D01*
X155264578Y-59886299D01*
X155264558Y-59886300D01*
X153219416Y-59886300D01*
X153152377Y-59866615D01*
X153116218Y-59825200D01*
X153113605Y-59826813D01*
X153109814Y-59820666D01*
X153017712Y-59671344D01*
X152893656Y-59547288D01*
X152744334Y-59455186D01*
X152577797Y-59400001D01*
X152577795Y-59400000D01*
X152475010Y-59389500D01*
X151849998Y-59389500D01*
X151849980Y-59389501D01*
X151747203Y-59400000D01*
X151747200Y-59400001D01*
X151580668Y-59455185D01*
X151580663Y-59455187D01*
X151431342Y-59547289D01*
X151337681Y-59640951D01*
X151276358Y-59674436D01*
X151206666Y-59669452D01*
X151162319Y-59640951D01*
X151068657Y-59547289D01*
X151068656Y-59547288D01*
X150919334Y-59455186D01*
X150752797Y-59400001D01*
X150752795Y-59400000D01*
X150650010Y-59389500D01*
X150024998Y-59389500D01*
X150024980Y-59389501D01*
X149922203Y-59400000D01*
X149922200Y-59400001D01*
X149755668Y-59455185D01*
X149755663Y-59455187D01*
X149606342Y-59547289D01*
X149482289Y-59671342D01*
X149386395Y-59826813D01*
X149383736Y-59825172D01*
X149346842Y-59867114D01*
X149280584Y-59886300D01*
X148754084Y-59886300D01*
X148687045Y-59866615D01*
X148648545Y-59827396D01*
X148567712Y-59696344D01*
X148443657Y-59572289D01*
X148443656Y-59572288D01*
X148294334Y-59480186D01*
X148127797Y-59425001D01*
X148127795Y-59425000D01*
X148025010Y-59414500D01*
X146974998Y-59414500D01*
X146974980Y-59414501D01*
X146872203Y-59425000D01*
X146872200Y-59425001D01*
X146705668Y-59480185D01*
X146705663Y-59480187D01*
X146556342Y-59572289D01*
X146432289Y-59696342D01*
X146340187Y-59845663D01*
X146340185Y-59845668D01*
X146326721Y-59886300D01*
X146285001Y-60012203D01*
X146285001Y-60012204D01*
X146285000Y-60012204D01*
X146274500Y-60114983D01*
X146274500Y-60715001D01*
X146274501Y-60715019D01*
X146278273Y-60751938D01*
X146265503Y-60820631D01*
X146242596Y-60852220D01*
X145638431Y-61456386D01*
X145051420Y-62043397D01*
X145051417Y-62043400D01*
X145018611Y-62076206D01*
X144953399Y-62141417D01*
X144953398Y-62141418D01*
X144908801Y-62208164D01*
X144908801Y-62208165D01*
X144892595Y-62232419D01*
X144876389Y-62256672D01*
X144876385Y-62256679D01*
X144823343Y-62384735D01*
X144823341Y-62384743D01*
X144796299Y-62520689D01*
X144796299Y-62665421D01*
X144796300Y-62665442D01*
X144796300Y-73047155D01*
X144776615Y-73114194D01*
X144759981Y-73134836D01*
X141062181Y-76832636D01*
X141000858Y-76866121D01*
X140931166Y-76861137D01*
X140875233Y-76819265D01*
X140850816Y-76753801D01*
X140850500Y-76744955D01*
X140850500Y-76743713D01*
X140817246Y-76533760D01*
X140817246Y-76533757D01*
X140751557Y-76331588D01*
X140655051Y-76142184D01*
X140655049Y-76142181D01*
X140655048Y-76142179D01*
X140530109Y-75970213D01*
X140379786Y-75819890D01*
X140207820Y-75694951D01*
X140207115Y-75694591D01*
X140199054Y-75690485D01*
X140148259Y-75642512D01*
X140131463Y-75574692D01*
X140153999Y-75508556D01*
X140199054Y-75469515D01*
X140207816Y-75465051D01*
X140267642Y-75421585D01*
X140379786Y-75340109D01*
X140379788Y-75340106D01*
X140379792Y-75340104D01*
X140530104Y-75189792D01*
X140530106Y-75189788D01*
X140530109Y-75189786D01*
X140655048Y-75017820D01*
X140655047Y-75017820D01*
X140655051Y-75017816D01*
X140751557Y-74828412D01*
X140817246Y-74626243D01*
X140850500Y-74416287D01*
X140850500Y-74203713D01*
X140817246Y-73993757D01*
X140751557Y-73791588D01*
X140655051Y-73602184D01*
X140655049Y-73602181D01*
X140655048Y-73602179D01*
X140530109Y-73430213D01*
X140379786Y-73279890D01*
X140207820Y-73154951D01*
X140207115Y-73154591D01*
X140199054Y-73150485D01*
X140148259Y-73102512D01*
X140131463Y-73034692D01*
X140153999Y-72968556D01*
X140199054Y-72929515D01*
X140207816Y-72925051D01*
X140336794Y-72831344D01*
X140379786Y-72800109D01*
X140379788Y-72800106D01*
X140379792Y-72800104D01*
X140530104Y-72649792D01*
X140530106Y-72649788D01*
X140530109Y-72649786D01*
X140655048Y-72477820D01*
X140655047Y-72477820D01*
X140655051Y-72477816D01*
X140751557Y-72288412D01*
X140817246Y-72086243D01*
X140850500Y-71876287D01*
X140850500Y-71663713D01*
X140817246Y-71453757D01*
X140751557Y-71251588D01*
X140655051Y-71062184D01*
X140655049Y-71062181D01*
X140655048Y-71062179D01*
X140530109Y-70890213D01*
X140379786Y-70739890D01*
X140207820Y-70614951D01*
X140207115Y-70614591D01*
X140199054Y-70610485D01*
X140148259Y-70562512D01*
X140131463Y-70494692D01*
X140153999Y-70428556D01*
X140199054Y-70389515D01*
X140207816Y-70385051D01*
X140267642Y-70341585D01*
X140379786Y-70260109D01*
X140379788Y-70260106D01*
X140379792Y-70260104D01*
X140530104Y-70109792D01*
X140530106Y-70109788D01*
X140530109Y-70109786D01*
X140655048Y-69937820D01*
X140655047Y-69937820D01*
X140655051Y-69937816D01*
X140751557Y-69748412D01*
X140817246Y-69546243D01*
X140850500Y-69336287D01*
X140850500Y-69123713D01*
X140817246Y-68913757D01*
X140751557Y-68711588D01*
X140655051Y-68522184D01*
X140655049Y-68522181D01*
X140655048Y-68522179D01*
X140530109Y-68350213D01*
X140379786Y-68199890D01*
X140207820Y-68074951D01*
X140204660Y-68073341D01*
X140199054Y-68070485D01*
X140148259Y-68022512D01*
X140131463Y-67954692D01*
X140153999Y-67888556D01*
X140199054Y-67849515D01*
X140207816Y-67845051D01*
X140267642Y-67801585D01*
X140379786Y-67720109D01*
X140379788Y-67720106D01*
X140379792Y-67720104D01*
X140530104Y-67569792D01*
X140530106Y-67569788D01*
X140530109Y-67569786D01*
X140655048Y-67397820D01*
X140655047Y-67397820D01*
X140655051Y-67397816D01*
X140751557Y-67208412D01*
X140817246Y-67006243D01*
X140850500Y-66796287D01*
X140850500Y-66583713D01*
X140817246Y-66373757D01*
X140751557Y-66171588D01*
X140655051Y-65982184D01*
X140655049Y-65982181D01*
X140655048Y-65982179D01*
X140530109Y-65810213D01*
X140379786Y-65659890D01*
X140207820Y-65534951D01*
X140207115Y-65534591D01*
X140199054Y-65530485D01*
X140148259Y-65482512D01*
X140131463Y-65414692D01*
X140153999Y-65348556D01*
X140199054Y-65309515D01*
X140207816Y-65305051D01*
X140354358Y-65198583D01*
X140379786Y-65180109D01*
X140379788Y-65180106D01*
X140379792Y-65180104D01*
X140530104Y-65029792D01*
X140530106Y-65029788D01*
X140530109Y-65029786D01*
X140655048Y-64857820D01*
X140655047Y-64857820D01*
X140655051Y-64857816D01*
X140751557Y-64668412D01*
X140817246Y-64466243D01*
X140850500Y-64256287D01*
X140850500Y-64043713D01*
X140817246Y-63833757D01*
X140751557Y-63631588D01*
X140655051Y-63442184D01*
X140655049Y-63442181D01*
X140655048Y-63442179D01*
X140530109Y-63270213D01*
X140379786Y-63119890D01*
X140207820Y-62994951D01*
X140207115Y-62994591D01*
X140199054Y-62990485D01*
X140148259Y-62942512D01*
X140131463Y-62874692D01*
X140153999Y-62808556D01*
X140199054Y-62769515D01*
X140207816Y-62765051D01*
X140249112Y-62735048D01*
X140379786Y-62640109D01*
X140379788Y-62640106D01*
X140379792Y-62640104D01*
X140530104Y-62489792D01*
X140530106Y-62489788D01*
X140530109Y-62489786D01*
X140655048Y-62317820D01*
X140655047Y-62317820D01*
X140655051Y-62317816D01*
X140751557Y-62128412D01*
X140817246Y-61926243D01*
X140850500Y-61716287D01*
X140850500Y-61503713D01*
X140817246Y-61293757D01*
X140751557Y-61091588D01*
X140655051Y-60902184D01*
X140655049Y-60902181D01*
X140655048Y-60902179D01*
X140530109Y-60730213D01*
X140416569Y-60616673D01*
X140383084Y-60555350D01*
X140388068Y-60485658D01*
X140429940Y-60429725D01*
X140460915Y-60412810D01*
X140592331Y-60363796D01*
X140707546Y-60277546D01*
X140793796Y-60162331D01*
X140844091Y-60027483D01*
X140850500Y-59967873D01*
X140850499Y-58172128D01*
X140844091Y-58112517D01*
X140832901Y-58082516D01*
X140793797Y-57977671D01*
X140793793Y-57977664D01*
X140707547Y-57862455D01*
X140707544Y-57862452D01*
X140592335Y-57776206D01*
X140592328Y-57776202D01*
X140457482Y-57725908D01*
X140457483Y-57725908D01*
X140397883Y-57719501D01*
X140397881Y-57719500D01*
X140397873Y-57719500D01*
X140397864Y-57719500D01*
X138602129Y-57719500D01*
X138602123Y-57719501D01*
X138542516Y-57725908D01*
X138407671Y-57776202D01*
X138407664Y-57776206D01*
X138292455Y-57862452D01*
X138292452Y-57862455D01*
X138206206Y-57977664D01*
X138206202Y-57977671D01*
X138155908Y-58112517D01*
X138149501Y-58172116D01*
X138149501Y-58172123D01*
X138149500Y-58172135D01*
X138149500Y-59967870D01*
X138149501Y-59967876D01*
X138155908Y-60027483D01*
X138206202Y-60162328D01*
X138206206Y-60162335D01*
X138292452Y-60277544D01*
X138292455Y-60277547D01*
X138407664Y-60363793D01*
X138407671Y-60363797D01*
X138539082Y-60412810D01*
X138595016Y-60454681D01*
X138619433Y-60520145D01*
X138604582Y-60588418D01*
X138583431Y-60616673D01*
X138469889Y-60730215D01*
X138344951Y-60902179D01*
X138248444Y-61091585D01*
X138182753Y-61293760D01*
X138149500Y-61503713D01*
X138149500Y-61716286D01*
X138177949Y-61895909D01*
X138182754Y-61926243D01*
X138238695Y-62098412D01*
X138248444Y-62128414D01*
X138344951Y-62317820D01*
X138469890Y-62489786D01*
X138620213Y-62640109D01*
X138792182Y-62765050D01*
X138800946Y-62769516D01*
X138851742Y-62817491D01*
X138868536Y-62885312D01*
X138845998Y-62951447D01*
X138800946Y-62990484D01*
X138792182Y-62994949D01*
X138620213Y-63119890D01*
X138469890Y-63270213D01*
X138344951Y-63442179D01*
X138248444Y-63631585D01*
X138182753Y-63833760D01*
X138152208Y-64026615D01*
X138149500Y-64043713D01*
X138149500Y-64256287D01*
X138159534Y-64319644D01*
X138179792Y-64447546D01*
X138182754Y-64466243D01*
X138238695Y-64638412D01*
X138248444Y-64668414D01*
X138344951Y-64857820D01*
X138469890Y-65029786D01*
X138620213Y-65180109D01*
X138792182Y-65305050D01*
X138800946Y-65309516D01*
X138851742Y-65357491D01*
X138868536Y-65425312D01*
X138845998Y-65491447D01*
X138800946Y-65530484D01*
X138792182Y-65534949D01*
X138620213Y-65659890D01*
X138469890Y-65810213D01*
X138344951Y-65982179D01*
X138248444Y-66171585D01*
X138182753Y-66373760D01*
X138154055Y-66554956D01*
X138149500Y-66583713D01*
X138149500Y-66796287D01*
X138151689Y-66810109D01*
X138178368Y-66978556D01*
X138182754Y-67006243D01*
X138241579Y-67187288D01*
X138248444Y-67208414D01*
X138344951Y-67397820D01*
X138469890Y-67569786D01*
X138620213Y-67720109D01*
X138792182Y-67845050D01*
X138800946Y-67849516D01*
X138851742Y-67897491D01*
X138868536Y-67965312D01*
X138845998Y-68031447D01*
X138800946Y-68070484D01*
X138792182Y-68074949D01*
X138620213Y-68199890D01*
X138469890Y-68350213D01*
X138344951Y-68522179D01*
X138248444Y-68711585D01*
X138182753Y-68913760D01*
X138154018Y-69095185D01*
X138149500Y-69123713D01*
X138149500Y-69336287D01*
X138151689Y-69350109D01*
X138178368Y-69518556D01*
X138182754Y-69546243D01*
X138238695Y-69718412D01*
X138248444Y-69748414D01*
X138344951Y-69937820D01*
X138469890Y-70109786D01*
X138620213Y-70260109D01*
X138792182Y-70385050D01*
X138800946Y-70389516D01*
X138851742Y-70437491D01*
X138868536Y-70505312D01*
X138845998Y-70571447D01*
X138800946Y-70610484D01*
X138792182Y-70614949D01*
X138620213Y-70739890D01*
X138469890Y-70890213D01*
X138344951Y-71062179D01*
X138248444Y-71251585D01*
X138182753Y-71453760D01*
X138153859Y-71636189D01*
X138149500Y-71663713D01*
X138149500Y-71876287D01*
X138151689Y-71890109D01*
X138178368Y-72058556D01*
X138182754Y-72086243D01*
X138242243Y-72269331D01*
X138248444Y-72288414D01*
X138344951Y-72477820D01*
X138469890Y-72649786D01*
X138620213Y-72800109D01*
X138792182Y-72925050D01*
X138800946Y-72929516D01*
X138851742Y-72977491D01*
X138868536Y-73045312D01*
X138845998Y-73111447D01*
X138800946Y-73150484D01*
X138792182Y-73154949D01*
X138620213Y-73279890D01*
X138469890Y-73430213D01*
X138344951Y-73602179D01*
X138248444Y-73791585D01*
X138182753Y-73993760D01*
X138154251Y-74173718D01*
X138149500Y-74203713D01*
X138149500Y-74416287D01*
X138156422Y-74459992D01*
X138174136Y-74571835D01*
X138182754Y-74626243D01*
X138238695Y-74798412D01*
X138248444Y-74828414D01*
X138344951Y-75017820D01*
X138469890Y-75189786D01*
X138620213Y-75340109D01*
X138792182Y-75465050D01*
X138800946Y-75469516D01*
X138851742Y-75517491D01*
X138868536Y-75585312D01*
X138845998Y-75651447D01*
X138800946Y-75690484D01*
X138792182Y-75694949D01*
X138620213Y-75819890D01*
X138469890Y-75970213D01*
X138344951Y-76142179D01*
X138248444Y-76331585D01*
X138182753Y-76533760D01*
X138154251Y-76713718D01*
X138149500Y-76743713D01*
X138149500Y-76956287D01*
X138151689Y-76970109D01*
X138169915Y-77085185D01*
X138182754Y-77166243D01*
X138240104Y-77342748D01*
X138248444Y-77368414D01*
X138344951Y-77557820D01*
X138469890Y-77729786D01*
X138620213Y-77880109D01*
X138792182Y-78005050D01*
X138800946Y-78009516D01*
X138851742Y-78057491D01*
X138868536Y-78125312D01*
X138845998Y-78191447D01*
X138800946Y-78230484D01*
X138792182Y-78234949D01*
X138620213Y-78359890D01*
X138469890Y-78510213D01*
X138344951Y-78682179D01*
X138248444Y-78871585D01*
X138182753Y-79073760D01*
X138152827Y-79262710D01*
X138149500Y-79283713D01*
X138149500Y-79496287D01*
X138151689Y-79510109D01*
X138181540Y-79698583D01*
X138182754Y-79706243D01*
X138241860Y-79888153D01*
X138248444Y-79908414D01*
X138344951Y-80097820D01*
X138469890Y-80269786D01*
X138620213Y-80420109D01*
X138792182Y-80545050D01*
X138800946Y-80549516D01*
X138851742Y-80597491D01*
X138868536Y-80665312D01*
X138845998Y-80731447D01*
X138800946Y-80770484D01*
X138792182Y-80774949D01*
X138620213Y-80899890D01*
X138469890Y-81050213D01*
X138344951Y-81222179D01*
X138248444Y-81411585D01*
X138182753Y-81613760D01*
X138151173Y-81813149D01*
X138149500Y-81823713D01*
X138149500Y-82036287D01*
X138151689Y-82050109D01*
X138173257Y-82186286D01*
X138182754Y-82246243D01*
X138239373Y-82420499D01*
X138248444Y-82448414D01*
X138344951Y-82637820D01*
X138469890Y-82809786D01*
X138620213Y-82960109D01*
X138792182Y-83085050D01*
X138800946Y-83089516D01*
X138851742Y-83137491D01*
X138868536Y-83205312D01*
X138845998Y-83271447D01*
X138800946Y-83310484D01*
X138792182Y-83314949D01*
X138620213Y-83439890D01*
X138469890Y-83590213D01*
X138344951Y-83762179D01*
X138248444Y-83951585D01*
X138182753Y-84153760D01*
X138149500Y-84363713D01*
X138149500Y-84576286D01*
X138173257Y-84726286D01*
X138182754Y-84786243D01*
X138238695Y-84958412D01*
X138248444Y-84988414D01*
X138344951Y-85177820D01*
X138469890Y-85349786D01*
X138620213Y-85500109D01*
X138792182Y-85625050D01*
X138800946Y-85629516D01*
X138851742Y-85677491D01*
X138868536Y-85745312D01*
X138845998Y-85811447D01*
X138800946Y-85850484D01*
X138792182Y-85854949D01*
X138620213Y-85979890D01*
X138469890Y-86130213D01*
X138344951Y-86302179D01*
X138248444Y-86491585D01*
X138182753Y-86693760D01*
X138149500Y-86903713D01*
X138149500Y-87116286D01*
X138173257Y-87266286D01*
X138182754Y-87326243D01*
X138238695Y-87498412D01*
X138248444Y-87528414D01*
X138344951Y-87717820D01*
X138469890Y-87889786D01*
X138620213Y-88040109D01*
X138792182Y-88165050D01*
X138800946Y-88169516D01*
X138851742Y-88217491D01*
X138868536Y-88285312D01*
X138845998Y-88351447D01*
X138800946Y-88390484D01*
X138792182Y-88394949D01*
X138620213Y-88519890D01*
X138469890Y-88670213D01*
X138344951Y-88842179D01*
X138248444Y-89031585D01*
X138182753Y-89233760D01*
X138149500Y-89443713D01*
X138149500Y-89656286D01*
X138173257Y-89806286D01*
X138182754Y-89866243D01*
X138238695Y-90038412D01*
X138248444Y-90068414D01*
X138344951Y-90257820D01*
X138469890Y-90429786D01*
X138620213Y-90580109D01*
X138792182Y-90705050D01*
X138800946Y-90709516D01*
X138851742Y-90757491D01*
X138868536Y-90825312D01*
X138845998Y-90891447D01*
X138800946Y-90930484D01*
X138792182Y-90934949D01*
X138620213Y-91059890D01*
X138469890Y-91210213D01*
X138344951Y-91382179D01*
X138248444Y-91571585D01*
X138182753Y-91773760D01*
X138149500Y-91983713D01*
X138149500Y-92196287D01*
X138182754Y-92406243D01*
X138243615Y-92593554D01*
X138248444Y-92608414D01*
X138344951Y-92797820D01*
X138469890Y-92969786D01*
X138620213Y-93120109D01*
X138792182Y-93245050D01*
X138800946Y-93249516D01*
X138851742Y-93297491D01*
X138868536Y-93365312D01*
X138845998Y-93431447D01*
X138800946Y-93470484D01*
X138792182Y-93474949D01*
X138620213Y-93599890D01*
X138469890Y-93750213D01*
X138344951Y-93922179D01*
X138248444Y-94111585D01*
X138182753Y-94313760D01*
X138149500Y-94523713D01*
X138149500Y-94736286D01*
X138173257Y-94886286D01*
X138182754Y-94946243D01*
X138238695Y-95118412D01*
X138248444Y-95148414D01*
X138344951Y-95337820D01*
X138469890Y-95509786D01*
X138620213Y-95660109D01*
X138792182Y-95785050D01*
X138800946Y-95789516D01*
X138851742Y-95837491D01*
X138868536Y-95905312D01*
X138845998Y-95971447D01*
X138800946Y-96010484D01*
X138792182Y-96014949D01*
X138620213Y-96139890D01*
X138469890Y-96290213D01*
X138344951Y-96462179D01*
X138248444Y-96651585D01*
X138182753Y-96853760D01*
X138149500Y-97063713D01*
X138149500Y-97276286D01*
X138182753Y-97486239D01*
X138182753Y-97486241D01*
X138182754Y-97486243D01*
X138248443Y-97688412D01*
X138344949Y-97877816D01*
X138374580Y-97918600D01*
X138398060Y-97984405D01*
X138382235Y-98052459D01*
X138361943Y-98079166D01*
X136654824Y-99786286D01*
X135051420Y-101389690D01*
X135051417Y-101389693D01*
X135002407Y-101438702D01*
X134953398Y-101487711D01*
X134890252Y-101582216D01*
X134890253Y-101582217D01*
X134876390Y-101602964D01*
X134876387Y-101602969D01*
X134823342Y-101731032D01*
X134823341Y-101731036D01*
X134796299Y-101866982D01*
X134796299Y-102011714D01*
X134796300Y-102011735D01*
X134796300Y-105605583D01*
X134776615Y-105672622D01*
X134735220Y-105708813D01*
X134736813Y-105711395D01*
X134730667Y-105715185D01*
X134730666Y-105715186D01*
X134632419Y-105775784D01*
X134581342Y-105807289D01*
X134457289Y-105931342D01*
X134365187Y-106080663D01*
X134365185Y-106080668D01*
X134343885Y-106144949D01*
X134310001Y-106247203D01*
X134310001Y-106247204D01*
X134310000Y-106247204D01*
X134299500Y-106349983D01*
X127453700Y-106349983D01*
X127453700Y-69195443D01*
X127453701Y-69195422D01*
X127453701Y-69050689D01*
X127426658Y-68914743D01*
X127426656Y-68914735D01*
X127392716Y-68832797D01*
X127373611Y-68786673D01*
X127296600Y-68671417D01*
X127296598Y-68671414D01*
X127195487Y-68570303D01*
X127195456Y-68570274D01*
X123111126Y-64485944D01*
X123077641Y-64424621D01*
X123076334Y-64378865D01*
X123095748Y-64256287D01*
X123100500Y-64226287D01*
X123100500Y-64013713D01*
X123067246Y-63803757D01*
X123001557Y-63601588D01*
X122905051Y-63412184D01*
X122905049Y-63412181D01*
X122905048Y-63412179D01*
X122780109Y-63240213D01*
X122629786Y-63089890D01*
X122457820Y-62964951D01*
X122457115Y-62964591D01*
X122449054Y-62960485D01*
X122398259Y-62912512D01*
X122381463Y-62844692D01*
X122403999Y-62778556D01*
X122449054Y-62739515D01*
X122457816Y-62735051D01*
X122534897Y-62679049D01*
X122629786Y-62610109D01*
X122629788Y-62610106D01*
X122629792Y-62610104D01*
X122780104Y-62459792D01*
X122780106Y-62459788D01*
X122780109Y-62459786D01*
X122905048Y-62287820D01*
X122905047Y-62287820D01*
X122905051Y-62287816D01*
X123001557Y-62098412D01*
X123067246Y-61896243D01*
X123100500Y-61686287D01*
X123100500Y-61473713D01*
X123067246Y-61263757D01*
X123001557Y-61061588D01*
X122905051Y-60872184D01*
X122905049Y-60872181D01*
X122905048Y-60872179D01*
X122780109Y-60700213D01*
X122666569Y-60586673D01*
X122633084Y-60525350D01*
X122638068Y-60455658D01*
X122679940Y-60399725D01*
X122710915Y-60382810D01*
X122842331Y-60333796D01*
X122957546Y-60247546D01*
X123043796Y-60132331D01*
X123094091Y-59997483D01*
X123100500Y-59937873D01*
X123100499Y-58142128D01*
X123094091Y-58082517D01*
X123054985Y-57977669D01*
X123043797Y-57947671D01*
X123043793Y-57947664D01*
X122957547Y-57832455D01*
X122957544Y-57832452D01*
X122842335Y-57746206D01*
X122842328Y-57746202D01*
X122707482Y-57695908D01*
X122707483Y-57695908D01*
X122647883Y-57689501D01*
X122647881Y-57689500D01*
X122647873Y-57689500D01*
X122647864Y-57689500D01*
X120852129Y-57689500D01*
X120852123Y-57689501D01*
X120792516Y-57695908D01*
X120657671Y-57746202D01*
X120657664Y-57746206D01*
X120542455Y-57832452D01*
X120542452Y-57832455D01*
X120456206Y-57947664D01*
X120456202Y-57947671D01*
X120405908Y-58082517D01*
X120401038Y-58127820D01*
X120399501Y-58142123D01*
X120399500Y-58142135D01*
X120399500Y-59937870D01*
X120399501Y-59937876D01*
X120405908Y-59997483D01*
X120456202Y-60132328D01*
X120456206Y-60132335D01*
X120542452Y-60247544D01*
X120542455Y-60247547D01*
X120657664Y-60333793D01*
X120657671Y-60333797D01*
X120789082Y-60382810D01*
X120845016Y-60424681D01*
X120869433Y-60490145D01*
X120854582Y-60558418D01*
X120833431Y-60586673D01*
X120719889Y-60700215D01*
X120594951Y-60872179D01*
X120498444Y-61061585D01*
X120432753Y-61263760D01*
X120399500Y-61473713D01*
X120399500Y-61686286D01*
X120428856Y-61871636D01*
X120432754Y-61896243D01*
X120497543Y-62095643D01*
X120498444Y-62098414D01*
X120594951Y-62287820D01*
X120719890Y-62459786D01*
X120870213Y-62610109D01*
X121042182Y-62735050D01*
X121050946Y-62739516D01*
X121101742Y-62787491D01*
X121118536Y-62855312D01*
X121095998Y-62921447D01*
X121050946Y-62960484D01*
X121042182Y-62964949D01*
X120870213Y-63089890D01*
X120719890Y-63240213D01*
X120594951Y-63412179D01*
X120498444Y-63601585D01*
X120432753Y-63803760D01*
X120399500Y-64013713D01*
X120399500Y-64226286D01*
X120432303Y-64433400D01*
X120432754Y-64436243D01*
X120482875Y-64590500D01*
X120498444Y-64638414D01*
X120594951Y-64827820D01*
X120719890Y-64999786D01*
X120870213Y-65150109D01*
X121042182Y-65275050D01*
X121050946Y-65279516D01*
X121101742Y-65327491D01*
X121118536Y-65395312D01*
X121095998Y-65461447D01*
X121050946Y-65500484D01*
X121042182Y-65504949D01*
X120870213Y-65629890D01*
X120719890Y-65780213D01*
X120594951Y-65952179D01*
X120498444Y-66141585D01*
X120432753Y-66343760D01*
X120399500Y-66553713D01*
X120399500Y-66554956D01*
X120399366Y-66555411D01*
X120399117Y-66558576D01*
X120398452Y-66558523D01*
X120379815Y-66621995D01*
X120327011Y-66667750D01*
X120257853Y-66677694D01*
X120194297Y-66648669D01*
X120187819Y-66642637D01*
X117850940Y-64305758D01*
X117850920Y-64305736D01*
X117748585Y-64203401D01*
X117633323Y-64126386D01*
X117505264Y-64073343D01*
X117505256Y-64073341D01*
X117369310Y-64046299D01*
X117369308Y-64046299D01*
X117230692Y-64046299D01*
X117224578Y-64046299D01*
X117224558Y-64046300D01*
X117115444Y-64046300D01*
X117048405Y-64026615D01*
X117002650Y-63973811D01*
X116992706Y-63904653D01*
X116997738Y-63883295D01*
X117014505Y-63832694D01*
X117014506Y-63832690D01*
X117024999Y-63729986D01*
X117025000Y-63729973D01*
X117025000Y-63480000D01*
X116136500Y-63480000D01*
X116069461Y-63460315D01*
X116023706Y-63407511D01*
X116012500Y-63356000D01*
X116012500Y-63230000D01*
X115886500Y-63230000D01*
X115819461Y-63210315D01*
X115773706Y-63157511D01*
X115762500Y-63106000D01*
X115762500Y-62980000D01*
X116262500Y-62980000D01*
X117024999Y-62980000D01*
X117024999Y-62730028D01*
X117024998Y-62730013D01*
X117014505Y-62627302D01*
X116959358Y-62460880D01*
X116959356Y-62460875D01*
X116867315Y-62311654D01*
X116743345Y-62187684D01*
X116594124Y-62095643D01*
X116594119Y-62095641D01*
X116427697Y-62040494D01*
X116427690Y-62040493D01*
X116324986Y-62030000D01*
X116262500Y-62030000D01*
X116262500Y-62980000D01*
X115762500Y-62980000D01*
X115762500Y-62030000D01*
X115762499Y-62029999D01*
X115700028Y-62030000D01*
X115700011Y-62030001D01*
X115597302Y-62040494D01*
X115430880Y-62095641D01*
X115430875Y-62095643D01*
X115281657Y-62187682D01*
X115188034Y-62281305D01*
X115126710Y-62314789D01*
X115057019Y-62309805D01*
X115012672Y-62281304D01*
X114918657Y-62187289D01*
X114918656Y-62187288D01*
X114825888Y-62130069D01*
X114769336Y-62095187D01*
X114769331Y-62095185D01*
X114712056Y-62076206D01*
X114602797Y-62040001D01*
X114602795Y-62040000D01*
X114500016Y-62029500D01*
X114500009Y-62029500D01*
X114121044Y-62029500D01*
X114054005Y-62009815D01*
X114033363Y-61993181D01*
X113325940Y-61285758D01*
X113325920Y-61285736D01*
X113223585Y-61183401D01*
X113108323Y-61106386D01*
X112980266Y-61053344D01*
X112980263Y-61053343D01*
X112975960Y-61052487D01*
X112962933Y-61049896D01*
X112903620Y-61038097D01*
X112844309Y-61026299D01*
X112844308Y-61026299D01*
X112705692Y-61026299D01*
X112699578Y-61026299D01*
X112699558Y-61026300D01*
X110469416Y-61026300D01*
X110402377Y-61006615D01*
X110366218Y-60965200D01*
X110363605Y-60966813D01*
X110359812Y-60960663D01*
X110267712Y-60811344D01*
X110143656Y-60687288D01*
X109994334Y-60595186D01*
X109827797Y-60540001D01*
X109827795Y-60540000D01*
X109725010Y-60529500D01*
X109099998Y-60529500D01*
X109099980Y-60529501D01*
X108997203Y-60540000D01*
X108997200Y-60540001D01*
X108830668Y-60595185D01*
X108830663Y-60595187D01*
X108681342Y-60687289D01*
X108587681Y-60780951D01*
X108526358Y-60814436D01*
X108456666Y-60809452D01*
X108412319Y-60780951D01*
X108318657Y-60687289D01*
X108318656Y-60687288D01*
X108169334Y-60595186D01*
X108002797Y-60540001D01*
X108002795Y-60540000D01*
X107900010Y-60529500D01*
X107274998Y-60529500D01*
X107274980Y-60529501D01*
X107172203Y-60540000D01*
X107172200Y-60540001D01*
X107005668Y-60595185D01*
X107005663Y-60595187D01*
X106856342Y-60687289D01*
X106732289Y-60811342D01*
X106640187Y-60960663D01*
X106640185Y-60960668D01*
X106624960Y-61006615D01*
X106585001Y-61127203D01*
X106585001Y-61127204D01*
X106585000Y-61127204D01*
X106574500Y-61229983D01*
X106574500Y-61783955D01*
X106554815Y-61850994D01*
X106538181Y-61871636D01*
X105909837Y-62499981D01*
X105848514Y-62533466D01*
X105822156Y-62536300D01*
X103974499Y-62536300D01*
X103907460Y-62516615D01*
X103861705Y-62463811D01*
X103850499Y-62412300D01*
X103850499Y-62342129D01*
X103850498Y-62342123D01*
X103850497Y-62342116D01*
X103844091Y-62282517D01*
X103834451Y-62256672D01*
X103793797Y-62147671D01*
X103793793Y-62147664D01*
X103707547Y-62032455D01*
X103707544Y-62032452D01*
X103592335Y-61946206D01*
X103592328Y-61946202D01*
X103457482Y-61895908D01*
X103457483Y-61895908D01*
X103397883Y-61889501D01*
X103397881Y-61889500D01*
X103397873Y-61889500D01*
X103397864Y-61889500D01*
X101602129Y-61889500D01*
X101602123Y-61889501D01*
X101542516Y-61895908D01*
X101407671Y-61946202D01*
X101407664Y-61946206D01*
X101292455Y-62032452D01*
X101292452Y-62032455D01*
X101206206Y-62147664D01*
X101206202Y-62147671D01*
X101155908Y-62282517D01*
X101149501Y-62342116D01*
X101149501Y-62342123D01*
X101149500Y-62342135D01*
X101149500Y-64137870D01*
X101149501Y-64137876D01*
X101155908Y-64197483D01*
X101206202Y-64332328D01*
X101206206Y-64332335D01*
X101292452Y-64447544D01*
X101292455Y-64447547D01*
X101407664Y-64533793D01*
X101407671Y-64533797D01*
X101539082Y-64582810D01*
X101595016Y-64624681D01*
X101619433Y-64690145D01*
X101604582Y-64758418D01*
X101583431Y-64786673D01*
X101469889Y-64900215D01*
X101344951Y-65072179D01*
X101248444Y-65261585D01*
X101182753Y-65463760D01*
X101149500Y-65673713D01*
X101149500Y-65886286D01*
X101174594Y-66044727D01*
X101182754Y-66096243D01*
X101211050Y-66183330D01*
X101248444Y-66298414D01*
X101344951Y-66487820D01*
X101469890Y-66659786D01*
X101620213Y-66810109D01*
X101792182Y-66935050D01*
X101800946Y-66939516D01*
X101851742Y-66987491D01*
X101868536Y-67055312D01*
X101845998Y-67121447D01*
X101800946Y-67160484D01*
X101792182Y-67164949D01*
X101620213Y-67289890D01*
X101469890Y-67440213D01*
X101344951Y-67612179D01*
X101248444Y-67801585D01*
X101182753Y-68003760D01*
X101149500Y-68213713D01*
X101149500Y-68426286D01*
X101172800Y-68573400D01*
X101182754Y-68636243D01*
X101247027Y-68834055D01*
X101248444Y-68838414D01*
X101344951Y-69027820D01*
X101469890Y-69199786D01*
X101620213Y-69350109D01*
X101792182Y-69475050D01*
X101800946Y-69479516D01*
X101851742Y-69527491D01*
X101868536Y-69595312D01*
X101845998Y-69661447D01*
X101800946Y-69700484D01*
X101792182Y-69704949D01*
X101620213Y-69829890D01*
X101469890Y-69980213D01*
X101344951Y-70152179D01*
X101248444Y-70341585D01*
X101182753Y-70543760D01*
X101153253Y-70730019D01*
X101149500Y-70753713D01*
X101149500Y-70966287D01*
X101159534Y-71029644D01*
X101178384Y-71148657D01*
X101182754Y-71176243D01*
X101248410Y-71378311D01*
X101248444Y-71378414D01*
X101344951Y-71567820D01*
X101469890Y-71739786D01*
X101620213Y-71890109D01*
X101792182Y-72015050D01*
X101800946Y-72019516D01*
X101851742Y-72067491D01*
X101868536Y-72135312D01*
X101845998Y-72201447D01*
X101800946Y-72240484D01*
X101792182Y-72244949D01*
X101620213Y-72369890D01*
X101469890Y-72520213D01*
X101344951Y-72692179D01*
X101248444Y-72881585D01*
X101182753Y-73083760D01*
X101172705Y-73147203D01*
X101149500Y-73293713D01*
X101149500Y-73506287D01*
X101182754Y-73716243D01*
X101247027Y-73914055D01*
X101248444Y-73918414D01*
X101344951Y-74107820D01*
X101469890Y-74279786D01*
X101620213Y-74430109D01*
X101792182Y-74555050D01*
X101800946Y-74559516D01*
X101851742Y-74607491D01*
X101868536Y-74675312D01*
X101845998Y-74741447D01*
X101800946Y-74780484D01*
X101792182Y-74784949D01*
X101620213Y-74909890D01*
X101469890Y-75060213D01*
X101344951Y-75232179D01*
X101248444Y-75421585D01*
X101182753Y-75623760D01*
X101149500Y-75833713D01*
X101149500Y-76046286D01*
X101167589Y-76160499D01*
X101182754Y-76256243D01*
X101247027Y-76454055D01*
X101248444Y-76458414D01*
X101344951Y-76647820D01*
X101469890Y-76819786D01*
X101620213Y-76970109D01*
X101792182Y-77095050D01*
X101800946Y-77099516D01*
X101851742Y-77147491D01*
X101868536Y-77215312D01*
X101845998Y-77281447D01*
X101800946Y-77320484D01*
X101792182Y-77324949D01*
X101620213Y-77449890D01*
X101469890Y-77600213D01*
X101344951Y-77772179D01*
X101248444Y-77961585D01*
X101182753Y-78163760D01*
X101149500Y-78373713D01*
X101149500Y-78586286D01*
X101178058Y-78766597D01*
X101182754Y-78796243D01*
X101247027Y-78994055D01*
X101248444Y-78998414D01*
X101344951Y-79187820D01*
X101469890Y-79359786D01*
X101620213Y-79510109D01*
X101792182Y-79635050D01*
X101800946Y-79639516D01*
X101851742Y-79687491D01*
X101868536Y-79755312D01*
X101845998Y-79821447D01*
X101800946Y-79860484D01*
X101792182Y-79864949D01*
X101620213Y-79989890D01*
X101469890Y-80140213D01*
X101344951Y-80312179D01*
X101248444Y-80501585D01*
X101182753Y-80703760D01*
X101149500Y-80913713D01*
X101149500Y-81126286D01*
X101176427Y-81296300D01*
X101182754Y-81336243D01*
X101247027Y-81534055D01*
X101248444Y-81538414D01*
X101344951Y-81727820D01*
X101469890Y-81899786D01*
X101620213Y-82050109D01*
X101792179Y-82175048D01*
X101792181Y-82175049D01*
X101792184Y-82175051D01*
X101981588Y-82271557D01*
X102183757Y-82337246D01*
X102393713Y-82370500D01*
X102393714Y-82370500D01*
X102606286Y-82370500D01*
X102606287Y-82370500D01*
X102705324Y-82354814D01*
X102758865Y-82346334D01*
X102828159Y-82355289D01*
X102865944Y-82381126D01*
X105410274Y-84925456D01*
X105410303Y-84925487D01*
X105511413Y-85026597D01*
X105511421Y-85026603D01*
X105612158Y-85093913D01*
X105612159Y-85093913D01*
X105612160Y-85093914D01*
X105626673Y-85103611D01*
X105754738Y-85156657D01*
X105754742Y-85156657D01*
X105754743Y-85156658D01*
X105890689Y-85183701D01*
X105890692Y-85183701D01*
X106035423Y-85183701D01*
X106035443Y-85183700D01*
X106455584Y-85183700D01*
X106522623Y-85203385D01*
X106558781Y-85244799D01*
X106561395Y-85243187D01*
X106565185Y-85249332D01*
X106565186Y-85249334D01*
X106657288Y-85398656D01*
X106781344Y-85522712D01*
X106930666Y-85614814D01*
X107097203Y-85669999D01*
X107199991Y-85680500D01*
X107825008Y-85680499D01*
X107825016Y-85680498D01*
X107825019Y-85680498D01*
X107881302Y-85674748D01*
X107927797Y-85669999D01*
X108094334Y-85614814D01*
X108243656Y-85522712D01*
X108337319Y-85429049D01*
X108398642Y-85395564D01*
X108468334Y-85400548D01*
X108512681Y-85429049D01*
X108606344Y-85522712D01*
X108755666Y-85614814D01*
X108922203Y-85669999D01*
X109024991Y-85680500D01*
X109650008Y-85680499D01*
X109650016Y-85680498D01*
X109650019Y-85680498D01*
X109706302Y-85674748D01*
X109752797Y-85669999D01*
X109919334Y-85614814D01*
X110068656Y-85522712D01*
X110192712Y-85398656D01*
X110284814Y-85249334D01*
X110284814Y-85249332D01*
X110288605Y-85243187D01*
X110291263Y-85244827D01*
X110328158Y-85202886D01*
X110394416Y-85183700D01*
X118907156Y-85183700D01*
X118974195Y-85203385D01*
X118994837Y-85220019D01*
X120388873Y-86614055D01*
X120422358Y-86675378D01*
X120423666Y-86721133D01*
X120399500Y-86873713D01*
X120399500Y-87086287D01*
X120432754Y-87296243D01*
X120442500Y-87326239D01*
X120498444Y-87498414D01*
X120594951Y-87687820D01*
X120719890Y-87859786D01*
X120870213Y-88010109D01*
X121042182Y-88135050D01*
X121050946Y-88139516D01*
X121101742Y-88187491D01*
X121118536Y-88255312D01*
X121095998Y-88321447D01*
X121050946Y-88360484D01*
X121042182Y-88364949D01*
X120870213Y-88489890D01*
X120719890Y-88640213D01*
X120594951Y-88812179D01*
X120498444Y-89001585D01*
X120432753Y-89203760D01*
X120404245Y-89383757D01*
X120399500Y-89413713D01*
X120399500Y-89626287D01*
X120432754Y-89836243D01*
X120485500Y-89998579D01*
X120498444Y-90038414D01*
X120594951Y-90227820D01*
X120719890Y-90399786D01*
X120870213Y-90550109D01*
X121042182Y-90675050D01*
X121050946Y-90679516D01*
X121101742Y-90727491D01*
X121118536Y-90795312D01*
X121095998Y-90861447D01*
X121050946Y-90900484D01*
X121042182Y-90904949D01*
X120870213Y-91029890D01*
X120719890Y-91180213D01*
X120594951Y-91352179D01*
X120498444Y-91541585D01*
X120432753Y-91743760D01*
X120404227Y-91923869D01*
X120399500Y-91953713D01*
X120399500Y-92166287D01*
X120432754Y-92376243D01*
X120485500Y-92538579D01*
X120498444Y-92578414D01*
X120594951Y-92767820D01*
X120719890Y-92939786D01*
X120870213Y-93090109D01*
X121042182Y-93215050D01*
X121050946Y-93219516D01*
X121101742Y-93267491D01*
X121118536Y-93335312D01*
X121095998Y-93401447D01*
X121050946Y-93440484D01*
X121042182Y-93444949D01*
X120870213Y-93569890D01*
X120719890Y-93720213D01*
X120594951Y-93892179D01*
X120498444Y-94081585D01*
X120432753Y-94283760D01*
X120428002Y-94313757D01*
X120399500Y-94493713D01*
X120399500Y-94706287D01*
X120432754Y-94916243D01*
X120495111Y-95108158D01*
X120498444Y-95118414D01*
X120594951Y-95307820D01*
X120719890Y-95479786D01*
X120870213Y-95630109D01*
X121042182Y-95755050D01*
X121050946Y-95759516D01*
X121101742Y-95807491D01*
X121118536Y-95875312D01*
X121095998Y-95941447D01*
X121050946Y-95980484D01*
X121042182Y-95984949D01*
X120870213Y-96109890D01*
X120719890Y-96260213D01*
X120594951Y-96432179D01*
X120498444Y-96621585D01*
X120432753Y-96823760D01*
X120399500Y-97033713D01*
X120399500Y-97246287D01*
X120432754Y-97456243D01*
X120442500Y-97486239D01*
X120498444Y-97658414D01*
X120594951Y-97847820D01*
X120719890Y-98019786D01*
X120870213Y-98170109D01*
X121042182Y-98295050D01*
X121050946Y-98299516D01*
X121101742Y-98347491D01*
X121118536Y-98415312D01*
X121095998Y-98481447D01*
X121050946Y-98520484D01*
X121042182Y-98524949D01*
X120870213Y-98649890D01*
X120719890Y-98800213D01*
X120594951Y-98972179D01*
X120498444Y-99161585D01*
X120432753Y-99363760D01*
X120399500Y-99573713D01*
X120399500Y-99786287D01*
X120432754Y-99996243D01*
X120497061Y-100194160D01*
X120498444Y-100198414D01*
X120594951Y-100387820D01*
X120719890Y-100559786D01*
X120870213Y-100710109D01*
X121042182Y-100835050D01*
X121050946Y-100839516D01*
X121101742Y-100887491D01*
X121118536Y-100955312D01*
X121095998Y-101021447D01*
X121050946Y-101060484D01*
X121042182Y-101064949D01*
X120870213Y-101189890D01*
X120719890Y-101340213D01*
X120594951Y-101512179D01*
X120498444Y-101701585D01*
X120432753Y-101903760D01*
X120415655Y-102011714D01*
X120399500Y-102113713D01*
X120399500Y-102326287D01*
X120432754Y-102536243D01*
X120485500Y-102698579D01*
X120498444Y-102738414D01*
X120594951Y-102927820D01*
X120719890Y-103099786D01*
X120870213Y-103250109D01*
X121042182Y-103375050D01*
X121050946Y-103379516D01*
X121101742Y-103427491D01*
X121118536Y-103495312D01*
X121095998Y-103561447D01*
X121050946Y-103600484D01*
X121042182Y-103604949D01*
X120870213Y-103729890D01*
X120719890Y-103880213D01*
X120594951Y-104052179D01*
X120498444Y-104241585D01*
X120432753Y-104443760D01*
X120399500Y-104653713D01*
X120399500Y-104866287D01*
X120399499Y-104866287D01*
X120423665Y-105018865D01*
X120414710Y-105088158D01*
X120388873Y-105125943D01*
X113004837Y-112509981D01*
X112943514Y-112543466D01*
X112917156Y-112546300D01*
X103430689Y-112546300D01*
X103294743Y-112573341D01*
X103294733Y-112573344D01*
X103166676Y-112626386D01*
X103051416Y-112703400D01*
X103024181Y-112730636D01*
X102953400Y-112801417D01*
X102953397Y-112801420D01*
X98301420Y-117453397D01*
X98301417Y-117453400D01*
X98272567Y-117482250D01*
X98203399Y-117551417D01*
X98203398Y-117551418D01*
X98145769Y-117637668D01*
X98126390Y-117666670D01*
X98126386Y-117666677D01*
X98073343Y-117794735D01*
X98073341Y-117794743D01*
X98046299Y-117930689D01*
X97500500Y-117930689D01*
X97500500Y-50124500D01*
X97520185Y-50057461D01*
X97572989Y-50011706D01*
X97624500Y-50000500D01*
X193875500Y-50000500D01*
X193942539Y-50020185D01*
G37*
G04 #@! TD.AperFunction*
M02*
