G04 #@! TF.GenerationSoftware,KiCad,Pcbnew,9.0.4*
G04 #@! TF.CreationDate,2025-10-20T14:52:44-04:00*
G04 #@! TF.ProjectId,RF_INPUT_BREAKOUT_SIMPLE,52465f49-4e50-4555-945f-425245414b4f,rev?*
G04 #@! TF.SameCoordinates,Original*
G04 #@! TF.FileFunction,Legend,Top*
G04 #@! TF.FilePolarity,Positive*
%FSLAX46Y46*%
G04 Gerber Fmt 4.6, Leading zero omitted, Abs format (unit mm)*
G04 Created by KiCad (PCBNEW 9.0.4) date 2025-10-20 14:52:44*
%MOMM*%
%LPD*%
G01*
G04 APERTURE LIST*
%ADD10C,0.150000*%
%ADD11C,0.120000*%
G04 APERTURE END LIST*
D10*
X134304819Y-108217857D02*
X133828628Y-108551190D01*
X134304819Y-108789285D02*
X133304819Y-108789285D01*
X133304819Y-108789285D02*
X133304819Y-108408333D01*
X133304819Y-108408333D02*
X133352438Y-108313095D01*
X133352438Y-108313095D02*
X133400057Y-108265476D01*
X133400057Y-108265476D02*
X133495295Y-108217857D01*
X133495295Y-108217857D02*
X133638152Y-108217857D01*
X133638152Y-108217857D02*
X133733390Y-108265476D01*
X133733390Y-108265476D02*
X133781009Y-108313095D01*
X133781009Y-108313095D02*
X133828628Y-108408333D01*
X133828628Y-108408333D02*
X133828628Y-108789285D01*
X134304819Y-107265476D02*
X134304819Y-107836904D01*
X134304819Y-107551190D02*
X133304819Y-107551190D01*
X133304819Y-107551190D02*
X133447676Y-107646428D01*
X133447676Y-107646428D02*
X133542914Y-107741666D01*
X133542914Y-107741666D02*
X133590533Y-107836904D01*
X133638152Y-106408333D02*
X134304819Y-106408333D01*
X133257200Y-106646428D02*
X133971485Y-106884523D01*
X133971485Y-106884523D02*
X133971485Y-106265476D01*
X150607142Y-59394819D02*
X150273809Y-58918628D01*
X150035714Y-59394819D02*
X150035714Y-58394819D01*
X150035714Y-58394819D02*
X150416666Y-58394819D01*
X150416666Y-58394819D02*
X150511904Y-58442438D01*
X150511904Y-58442438D02*
X150559523Y-58490057D01*
X150559523Y-58490057D02*
X150607142Y-58585295D01*
X150607142Y-58585295D02*
X150607142Y-58728152D01*
X150607142Y-58728152D02*
X150559523Y-58823390D01*
X150559523Y-58823390D02*
X150511904Y-58871009D01*
X150511904Y-58871009D02*
X150416666Y-58918628D01*
X150416666Y-58918628D02*
X150035714Y-58918628D01*
X151559523Y-59394819D02*
X150988095Y-59394819D01*
X151273809Y-59394819D02*
X151273809Y-58394819D01*
X151273809Y-58394819D02*
X151178571Y-58537676D01*
X151178571Y-58537676D02*
X151083333Y-58632914D01*
X151083333Y-58632914D02*
X150988095Y-58680533D01*
X151892857Y-58394819D02*
X152511904Y-58394819D01*
X152511904Y-58394819D02*
X152178571Y-58775771D01*
X152178571Y-58775771D02*
X152321428Y-58775771D01*
X152321428Y-58775771D02*
X152416666Y-58823390D01*
X152416666Y-58823390D02*
X152464285Y-58871009D01*
X152464285Y-58871009D02*
X152511904Y-58966247D01*
X152511904Y-58966247D02*
X152511904Y-59204342D01*
X152511904Y-59204342D02*
X152464285Y-59299580D01*
X152464285Y-59299580D02*
X152416666Y-59347200D01*
X152416666Y-59347200D02*
X152321428Y-59394819D01*
X152321428Y-59394819D02*
X152035714Y-59394819D01*
X152035714Y-59394819D02*
X151940476Y-59347200D01*
X151940476Y-59347200D02*
X151892857Y-59299580D01*
X114457142Y-65334819D02*
X114123809Y-64858628D01*
X113885714Y-65334819D02*
X113885714Y-64334819D01*
X113885714Y-64334819D02*
X114266666Y-64334819D01*
X114266666Y-64334819D02*
X114361904Y-64382438D01*
X114361904Y-64382438D02*
X114409523Y-64430057D01*
X114409523Y-64430057D02*
X114457142Y-64525295D01*
X114457142Y-64525295D02*
X114457142Y-64668152D01*
X114457142Y-64668152D02*
X114409523Y-64763390D01*
X114409523Y-64763390D02*
X114361904Y-64811009D01*
X114361904Y-64811009D02*
X114266666Y-64858628D01*
X114266666Y-64858628D02*
X113885714Y-64858628D01*
X115409523Y-65334819D02*
X114838095Y-65334819D01*
X115123809Y-65334819D02*
X115123809Y-64334819D01*
X115123809Y-64334819D02*
X115028571Y-64477676D01*
X115028571Y-64477676D02*
X114933333Y-64572914D01*
X114933333Y-64572914D02*
X114838095Y-64620533D01*
X115790476Y-64430057D02*
X115838095Y-64382438D01*
X115838095Y-64382438D02*
X115933333Y-64334819D01*
X115933333Y-64334819D02*
X116171428Y-64334819D01*
X116171428Y-64334819D02*
X116266666Y-64382438D01*
X116266666Y-64382438D02*
X116314285Y-64430057D01*
X116314285Y-64430057D02*
X116361904Y-64525295D01*
X116361904Y-64525295D02*
X116361904Y-64620533D01*
X116361904Y-64620533D02*
X116314285Y-64763390D01*
X116314285Y-64763390D02*
X115742857Y-65334819D01*
X115742857Y-65334819D02*
X116361904Y-65334819D01*
X114457142Y-68834819D02*
X114123809Y-68358628D01*
X113885714Y-68834819D02*
X113885714Y-67834819D01*
X113885714Y-67834819D02*
X114266666Y-67834819D01*
X114266666Y-67834819D02*
X114361904Y-67882438D01*
X114361904Y-67882438D02*
X114409523Y-67930057D01*
X114409523Y-67930057D02*
X114457142Y-68025295D01*
X114457142Y-68025295D02*
X114457142Y-68168152D01*
X114457142Y-68168152D02*
X114409523Y-68263390D01*
X114409523Y-68263390D02*
X114361904Y-68311009D01*
X114361904Y-68311009D02*
X114266666Y-68358628D01*
X114266666Y-68358628D02*
X113885714Y-68358628D01*
X115409523Y-68834819D02*
X114838095Y-68834819D01*
X115123809Y-68834819D02*
X115123809Y-67834819D01*
X115123809Y-67834819D02*
X115028571Y-67977676D01*
X115028571Y-67977676D02*
X114933333Y-68072914D01*
X114933333Y-68072914D02*
X114838095Y-68120533D01*
X116361904Y-68834819D02*
X115790476Y-68834819D01*
X116076190Y-68834819D02*
X116076190Y-67834819D01*
X116076190Y-67834819D02*
X115980952Y-67977676D01*
X115980952Y-67977676D02*
X115885714Y-68072914D01*
X115885714Y-68072914D02*
X115790476Y-68120533D01*
X114457142Y-72334819D02*
X114123809Y-71858628D01*
X113885714Y-72334819D02*
X113885714Y-71334819D01*
X113885714Y-71334819D02*
X114266666Y-71334819D01*
X114266666Y-71334819D02*
X114361904Y-71382438D01*
X114361904Y-71382438D02*
X114409523Y-71430057D01*
X114409523Y-71430057D02*
X114457142Y-71525295D01*
X114457142Y-71525295D02*
X114457142Y-71668152D01*
X114457142Y-71668152D02*
X114409523Y-71763390D01*
X114409523Y-71763390D02*
X114361904Y-71811009D01*
X114361904Y-71811009D02*
X114266666Y-71858628D01*
X114266666Y-71858628D02*
X113885714Y-71858628D01*
X115409523Y-72334819D02*
X114838095Y-72334819D01*
X115123809Y-72334819D02*
X115123809Y-71334819D01*
X115123809Y-71334819D02*
X115028571Y-71477676D01*
X115028571Y-71477676D02*
X114933333Y-71572914D01*
X114933333Y-71572914D02*
X114838095Y-71620533D01*
X116028571Y-71334819D02*
X116123809Y-71334819D01*
X116123809Y-71334819D02*
X116219047Y-71382438D01*
X116219047Y-71382438D02*
X116266666Y-71430057D01*
X116266666Y-71430057D02*
X116314285Y-71525295D01*
X116314285Y-71525295D02*
X116361904Y-71715771D01*
X116361904Y-71715771D02*
X116361904Y-71953866D01*
X116361904Y-71953866D02*
X116314285Y-72144342D01*
X116314285Y-72144342D02*
X116266666Y-72239580D01*
X116266666Y-72239580D02*
X116219047Y-72287200D01*
X116219047Y-72287200D02*
X116123809Y-72334819D01*
X116123809Y-72334819D02*
X116028571Y-72334819D01*
X116028571Y-72334819D02*
X115933333Y-72287200D01*
X115933333Y-72287200D02*
X115885714Y-72239580D01*
X115885714Y-72239580D02*
X115838095Y-72144342D01*
X115838095Y-72144342D02*
X115790476Y-71953866D01*
X115790476Y-71953866D02*
X115790476Y-71715771D01*
X115790476Y-71715771D02*
X115838095Y-71525295D01*
X115838095Y-71525295D02*
X115885714Y-71430057D01*
X115885714Y-71430057D02*
X115933333Y-71382438D01*
X115933333Y-71382438D02*
X116028571Y-71334819D01*
X115583333Y-75854819D02*
X115250000Y-75378628D01*
X115011905Y-75854819D02*
X115011905Y-74854819D01*
X115011905Y-74854819D02*
X115392857Y-74854819D01*
X115392857Y-74854819D02*
X115488095Y-74902438D01*
X115488095Y-74902438D02*
X115535714Y-74950057D01*
X115535714Y-74950057D02*
X115583333Y-75045295D01*
X115583333Y-75045295D02*
X115583333Y-75188152D01*
X115583333Y-75188152D02*
X115535714Y-75283390D01*
X115535714Y-75283390D02*
X115488095Y-75331009D01*
X115488095Y-75331009D02*
X115392857Y-75378628D01*
X115392857Y-75378628D02*
X115011905Y-75378628D01*
X116059524Y-75854819D02*
X116250000Y-75854819D01*
X116250000Y-75854819D02*
X116345238Y-75807200D01*
X116345238Y-75807200D02*
X116392857Y-75759580D01*
X116392857Y-75759580D02*
X116488095Y-75616723D01*
X116488095Y-75616723D02*
X116535714Y-75426247D01*
X116535714Y-75426247D02*
X116535714Y-75045295D01*
X116535714Y-75045295D02*
X116488095Y-74950057D01*
X116488095Y-74950057D02*
X116440476Y-74902438D01*
X116440476Y-74902438D02*
X116345238Y-74854819D01*
X116345238Y-74854819D02*
X116154762Y-74854819D01*
X116154762Y-74854819D02*
X116059524Y-74902438D01*
X116059524Y-74902438D02*
X116011905Y-74950057D01*
X116011905Y-74950057D02*
X115964286Y-75045295D01*
X115964286Y-75045295D02*
X115964286Y-75283390D01*
X115964286Y-75283390D02*
X116011905Y-75378628D01*
X116011905Y-75378628D02*
X116059524Y-75426247D01*
X116059524Y-75426247D02*
X116154762Y-75473866D01*
X116154762Y-75473866D02*
X116345238Y-75473866D01*
X116345238Y-75473866D02*
X116440476Y-75426247D01*
X116440476Y-75426247D02*
X116488095Y-75378628D01*
X116488095Y-75378628D02*
X116535714Y-75283390D01*
X108258333Y-83284819D02*
X107925000Y-82808628D01*
X107686905Y-83284819D02*
X107686905Y-82284819D01*
X107686905Y-82284819D02*
X108067857Y-82284819D01*
X108067857Y-82284819D02*
X108163095Y-82332438D01*
X108163095Y-82332438D02*
X108210714Y-82380057D01*
X108210714Y-82380057D02*
X108258333Y-82475295D01*
X108258333Y-82475295D02*
X108258333Y-82618152D01*
X108258333Y-82618152D02*
X108210714Y-82713390D01*
X108210714Y-82713390D02*
X108163095Y-82761009D01*
X108163095Y-82761009D02*
X108067857Y-82808628D01*
X108067857Y-82808628D02*
X107686905Y-82808628D01*
X108829762Y-82713390D02*
X108734524Y-82665771D01*
X108734524Y-82665771D02*
X108686905Y-82618152D01*
X108686905Y-82618152D02*
X108639286Y-82522914D01*
X108639286Y-82522914D02*
X108639286Y-82475295D01*
X108639286Y-82475295D02*
X108686905Y-82380057D01*
X108686905Y-82380057D02*
X108734524Y-82332438D01*
X108734524Y-82332438D02*
X108829762Y-82284819D01*
X108829762Y-82284819D02*
X109020238Y-82284819D01*
X109020238Y-82284819D02*
X109115476Y-82332438D01*
X109115476Y-82332438D02*
X109163095Y-82380057D01*
X109163095Y-82380057D02*
X109210714Y-82475295D01*
X109210714Y-82475295D02*
X109210714Y-82522914D01*
X109210714Y-82522914D02*
X109163095Y-82618152D01*
X109163095Y-82618152D02*
X109115476Y-82665771D01*
X109115476Y-82665771D02*
X109020238Y-82713390D01*
X109020238Y-82713390D02*
X108829762Y-82713390D01*
X108829762Y-82713390D02*
X108734524Y-82761009D01*
X108734524Y-82761009D02*
X108686905Y-82808628D01*
X108686905Y-82808628D02*
X108639286Y-82903866D01*
X108639286Y-82903866D02*
X108639286Y-83094342D01*
X108639286Y-83094342D02*
X108686905Y-83189580D01*
X108686905Y-83189580D02*
X108734524Y-83237200D01*
X108734524Y-83237200D02*
X108829762Y-83284819D01*
X108829762Y-83284819D02*
X109020238Y-83284819D01*
X109020238Y-83284819D02*
X109115476Y-83237200D01*
X109115476Y-83237200D02*
X109163095Y-83189580D01*
X109163095Y-83189580D02*
X109210714Y-83094342D01*
X109210714Y-83094342D02*
X109210714Y-82903866D01*
X109210714Y-82903866D02*
X109163095Y-82808628D01*
X109163095Y-82808628D02*
X109115476Y-82761009D01*
X109115476Y-82761009D02*
X109020238Y-82713390D01*
X108170833Y-80024819D02*
X107837500Y-79548628D01*
X107599405Y-80024819D02*
X107599405Y-79024819D01*
X107599405Y-79024819D02*
X107980357Y-79024819D01*
X107980357Y-79024819D02*
X108075595Y-79072438D01*
X108075595Y-79072438D02*
X108123214Y-79120057D01*
X108123214Y-79120057D02*
X108170833Y-79215295D01*
X108170833Y-79215295D02*
X108170833Y-79358152D01*
X108170833Y-79358152D02*
X108123214Y-79453390D01*
X108123214Y-79453390D02*
X108075595Y-79501009D01*
X108075595Y-79501009D02*
X107980357Y-79548628D01*
X107980357Y-79548628D02*
X107599405Y-79548628D01*
X108504167Y-79024819D02*
X109170833Y-79024819D01*
X109170833Y-79024819D02*
X108742262Y-80024819D01*
X108258333Y-77024819D02*
X107925000Y-76548628D01*
X107686905Y-77024819D02*
X107686905Y-76024819D01*
X107686905Y-76024819D02*
X108067857Y-76024819D01*
X108067857Y-76024819D02*
X108163095Y-76072438D01*
X108163095Y-76072438D02*
X108210714Y-76120057D01*
X108210714Y-76120057D02*
X108258333Y-76215295D01*
X108258333Y-76215295D02*
X108258333Y-76358152D01*
X108258333Y-76358152D02*
X108210714Y-76453390D01*
X108210714Y-76453390D02*
X108163095Y-76501009D01*
X108163095Y-76501009D02*
X108067857Y-76548628D01*
X108067857Y-76548628D02*
X107686905Y-76548628D01*
X109115476Y-76024819D02*
X108925000Y-76024819D01*
X108925000Y-76024819D02*
X108829762Y-76072438D01*
X108829762Y-76072438D02*
X108782143Y-76120057D01*
X108782143Y-76120057D02*
X108686905Y-76262914D01*
X108686905Y-76262914D02*
X108639286Y-76453390D01*
X108639286Y-76453390D02*
X108639286Y-76834342D01*
X108639286Y-76834342D02*
X108686905Y-76929580D01*
X108686905Y-76929580D02*
X108734524Y-76977200D01*
X108734524Y-76977200D02*
X108829762Y-77024819D01*
X108829762Y-77024819D02*
X109020238Y-77024819D01*
X109020238Y-77024819D02*
X109115476Y-76977200D01*
X109115476Y-76977200D02*
X109163095Y-76929580D01*
X109163095Y-76929580D02*
X109210714Y-76834342D01*
X109210714Y-76834342D02*
X109210714Y-76596247D01*
X109210714Y-76596247D02*
X109163095Y-76501009D01*
X109163095Y-76501009D02*
X109115476Y-76453390D01*
X109115476Y-76453390D02*
X109020238Y-76405771D01*
X109020238Y-76405771D02*
X108829762Y-76405771D01*
X108829762Y-76405771D02*
X108734524Y-76453390D01*
X108734524Y-76453390D02*
X108686905Y-76501009D01*
X108686905Y-76501009D02*
X108639286Y-76596247D01*
X108258333Y-73764819D02*
X107925000Y-73288628D01*
X107686905Y-73764819D02*
X107686905Y-72764819D01*
X107686905Y-72764819D02*
X108067857Y-72764819D01*
X108067857Y-72764819D02*
X108163095Y-72812438D01*
X108163095Y-72812438D02*
X108210714Y-72860057D01*
X108210714Y-72860057D02*
X108258333Y-72955295D01*
X108258333Y-72955295D02*
X108258333Y-73098152D01*
X108258333Y-73098152D02*
X108210714Y-73193390D01*
X108210714Y-73193390D02*
X108163095Y-73241009D01*
X108163095Y-73241009D02*
X108067857Y-73288628D01*
X108067857Y-73288628D02*
X107686905Y-73288628D01*
X109163095Y-72764819D02*
X108686905Y-72764819D01*
X108686905Y-72764819D02*
X108639286Y-73241009D01*
X108639286Y-73241009D02*
X108686905Y-73193390D01*
X108686905Y-73193390D02*
X108782143Y-73145771D01*
X108782143Y-73145771D02*
X109020238Y-73145771D01*
X109020238Y-73145771D02*
X109115476Y-73193390D01*
X109115476Y-73193390D02*
X109163095Y-73241009D01*
X109163095Y-73241009D02*
X109210714Y-73336247D01*
X109210714Y-73336247D02*
X109210714Y-73574342D01*
X109210714Y-73574342D02*
X109163095Y-73669580D01*
X109163095Y-73669580D02*
X109115476Y-73717200D01*
X109115476Y-73717200D02*
X109020238Y-73764819D01*
X109020238Y-73764819D02*
X108782143Y-73764819D01*
X108782143Y-73764819D02*
X108686905Y-73717200D01*
X108686905Y-73717200D02*
X108639286Y-73669580D01*
X108258333Y-70304819D02*
X107925000Y-69828628D01*
X107686905Y-70304819D02*
X107686905Y-69304819D01*
X107686905Y-69304819D02*
X108067857Y-69304819D01*
X108067857Y-69304819D02*
X108163095Y-69352438D01*
X108163095Y-69352438D02*
X108210714Y-69400057D01*
X108210714Y-69400057D02*
X108258333Y-69495295D01*
X108258333Y-69495295D02*
X108258333Y-69638152D01*
X108258333Y-69638152D02*
X108210714Y-69733390D01*
X108210714Y-69733390D02*
X108163095Y-69781009D01*
X108163095Y-69781009D02*
X108067857Y-69828628D01*
X108067857Y-69828628D02*
X107686905Y-69828628D01*
X109115476Y-69638152D02*
X109115476Y-70304819D01*
X108877381Y-69257200D02*
X108639286Y-69971485D01*
X108639286Y-69971485D02*
X109258333Y-69971485D01*
X108258333Y-67034819D02*
X107925000Y-66558628D01*
X107686905Y-67034819D02*
X107686905Y-66034819D01*
X107686905Y-66034819D02*
X108067857Y-66034819D01*
X108067857Y-66034819D02*
X108163095Y-66082438D01*
X108163095Y-66082438D02*
X108210714Y-66130057D01*
X108210714Y-66130057D02*
X108258333Y-66225295D01*
X108258333Y-66225295D02*
X108258333Y-66368152D01*
X108258333Y-66368152D02*
X108210714Y-66463390D01*
X108210714Y-66463390D02*
X108163095Y-66511009D01*
X108163095Y-66511009D02*
X108067857Y-66558628D01*
X108067857Y-66558628D02*
X107686905Y-66558628D01*
X108591667Y-66034819D02*
X109210714Y-66034819D01*
X109210714Y-66034819D02*
X108877381Y-66415771D01*
X108877381Y-66415771D02*
X109020238Y-66415771D01*
X109020238Y-66415771D02*
X109115476Y-66463390D01*
X109115476Y-66463390D02*
X109163095Y-66511009D01*
X109163095Y-66511009D02*
X109210714Y-66606247D01*
X109210714Y-66606247D02*
X109210714Y-66844342D01*
X109210714Y-66844342D02*
X109163095Y-66939580D01*
X109163095Y-66939580D02*
X109115476Y-66987200D01*
X109115476Y-66987200D02*
X109020238Y-67034819D01*
X109020238Y-67034819D02*
X108734524Y-67034819D01*
X108734524Y-67034819D02*
X108639286Y-66987200D01*
X108639286Y-66987200D02*
X108591667Y-66939580D01*
X108258333Y-63784819D02*
X107925000Y-63308628D01*
X107686905Y-63784819D02*
X107686905Y-62784819D01*
X107686905Y-62784819D02*
X108067857Y-62784819D01*
X108067857Y-62784819D02*
X108163095Y-62832438D01*
X108163095Y-62832438D02*
X108210714Y-62880057D01*
X108210714Y-62880057D02*
X108258333Y-62975295D01*
X108258333Y-62975295D02*
X108258333Y-63118152D01*
X108258333Y-63118152D02*
X108210714Y-63213390D01*
X108210714Y-63213390D02*
X108163095Y-63261009D01*
X108163095Y-63261009D02*
X108067857Y-63308628D01*
X108067857Y-63308628D02*
X107686905Y-63308628D01*
X108639286Y-62880057D02*
X108686905Y-62832438D01*
X108686905Y-62832438D02*
X108782143Y-62784819D01*
X108782143Y-62784819D02*
X109020238Y-62784819D01*
X109020238Y-62784819D02*
X109115476Y-62832438D01*
X109115476Y-62832438D02*
X109163095Y-62880057D01*
X109163095Y-62880057D02*
X109210714Y-62975295D01*
X109210714Y-62975295D02*
X109210714Y-63070533D01*
X109210714Y-63070533D02*
X109163095Y-63213390D01*
X109163095Y-63213390D02*
X108591667Y-63784819D01*
X108591667Y-63784819D02*
X109210714Y-63784819D01*
X108333333Y-60534819D02*
X108000000Y-60058628D01*
X107761905Y-60534819D02*
X107761905Y-59534819D01*
X107761905Y-59534819D02*
X108142857Y-59534819D01*
X108142857Y-59534819D02*
X108238095Y-59582438D01*
X108238095Y-59582438D02*
X108285714Y-59630057D01*
X108285714Y-59630057D02*
X108333333Y-59725295D01*
X108333333Y-59725295D02*
X108333333Y-59868152D01*
X108333333Y-59868152D02*
X108285714Y-59963390D01*
X108285714Y-59963390D02*
X108238095Y-60011009D01*
X108238095Y-60011009D02*
X108142857Y-60058628D01*
X108142857Y-60058628D02*
X107761905Y-60058628D01*
X109285714Y-60534819D02*
X108714286Y-60534819D01*
X109000000Y-60534819D02*
X109000000Y-59534819D01*
X109000000Y-59534819D02*
X108904762Y-59677676D01*
X108904762Y-59677676D02*
X108809524Y-59772914D01*
X108809524Y-59772914D02*
X108714286Y-59820533D01*
X109289580Y-152966666D02*
X109337200Y-153014285D01*
X109337200Y-153014285D02*
X109384819Y-153157142D01*
X109384819Y-153157142D02*
X109384819Y-153252380D01*
X109384819Y-153252380D02*
X109337200Y-153395237D01*
X109337200Y-153395237D02*
X109241961Y-153490475D01*
X109241961Y-153490475D02*
X109146723Y-153538094D01*
X109146723Y-153538094D02*
X108956247Y-153585713D01*
X108956247Y-153585713D02*
X108813390Y-153585713D01*
X108813390Y-153585713D02*
X108622914Y-153538094D01*
X108622914Y-153538094D02*
X108527676Y-153490475D01*
X108527676Y-153490475D02*
X108432438Y-153395237D01*
X108432438Y-153395237D02*
X108384819Y-153252380D01*
X108384819Y-153252380D02*
X108384819Y-153157142D01*
X108384819Y-153157142D02*
X108432438Y-153014285D01*
X108432438Y-153014285D02*
X108480057Y-152966666D01*
X108384819Y-152633332D02*
X108384819Y-152014285D01*
X108384819Y-152014285D02*
X108765771Y-152347618D01*
X108765771Y-152347618D02*
X108765771Y-152204761D01*
X108765771Y-152204761D02*
X108813390Y-152109523D01*
X108813390Y-152109523D02*
X108861009Y-152061904D01*
X108861009Y-152061904D02*
X108956247Y-152014285D01*
X108956247Y-152014285D02*
X109194342Y-152014285D01*
X109194342Y-152014285D02*
X109289580Y-152061904D01*
X109289580Y-152061904D02*
X109337200Y-152109523D01*
X109337200Y-152109523D02*
X109384819Y-152204761D01*
X109384819Y-152204761D02*
X109384819Y-152490475D01*
X109384819Y-152490475D02*
X109337200Y-152585713D01*
X109337200Y-152585713D02*
X109289580Y-152633332D01*
X112289580Y-152966666D02*
X112337200Y-153014285D01*
X112337200Y-153014285D02*
X112384819Y-153157142D01*
X112384819Y-153157142D02*
X112384819Y-153252380D01*
X112384819Y-153252380D02*
X112337200Y-153395237D01*
X112337200Y-153395237D02*
X112241961Y-153490475D01*
X112241961Y-153490475D02*
X112146723Y-153538094D01*
X112146723Y-153538094D02*
X111956247Y-153585713D01*
X111956247Y-153585713D02*
X111813390Y-153585713D01*
X111813390Y-153585713D02*
X111622914Y-153538094D01*
X111622914Y-153538094D02*
X111527676Y-153490475D01*
X111527676Y-153490475D02*
X111432438Y-153395237D01*
X111432438Y-153395237D02*
X111384819Y-153252380D01*
X111384819Y-153252380D02*
X111384819Y-153157142D01*
X111384819Y-153157142D02*
X111432438Y-153014285D01*
X111432438Y-153014285D02*
X111480057Y-152966666D01*
X111480057Y-152585713D02*
X111432438Y-152538094D01*
X111432438Y-152538094D02*
X111384819Y-152442856D01*
X111384819Y-152442856D02*
X111384819Y-152204761D01*
X111384819Y-152204761D02*
X111432438Y-152109523D01*
X111432438Y-152109523D02*
X111480057Y-152061904D01*
X111480057Y-152061904D02*
X111575295Y-152014285D01*
X111575295Y-152014285D02*
X111670533Y-152014285D01*
X111670533Y-152014285D02*
X111813390Y-152061904D01*
X111813390Y-152061904D02*
X112384819Y-152633332D01*
X112384819Y-152633332D02*
X112384819Y-152014285D01*
X149539580Y-61531666D02*
X149587200Y-61579285D01*
X149587200Y-61579285D02*
X149634819Y-61722142D01*
X149634819Y-61722142D02*
X149634819Y-61817380D01*
X149634819Y-61817380D02*
X149587200Y-61960237D01*
X149587200Y-61960237D02*
X149491961Y-62055475D01*
X149491961Y-62055475D02*
X149396723Y-62103094D01*
X149396723Y-62103094D02*
X149206247Y-62150713D01*
X149206247Y-62150713D02*
X149063390Y-62150713D01*
X149063390Y-62150713D02*
X148872914Y-62103094D01*
X148872914Y-62103094D02*
X148777676Y-62055475D01*
X148777676Y-62055475D02*
X148682438Y-61960237D01*
X148682438Y-61960237D02*
X148634819Y-61817380D01*
X148634819Y-61817380D02*
X148634819Y-61722142D01*
X148634819Y-61722142D02*
X148682438Y-61579285D01*
X148682438Y-61579285D02*
X148730057Y-61531666D01*
X149634819Y-60579285D02*
X149634819Y-61150713D01*
X149634819Y-60864999D02*
X148634819Y-60864999D01*
X148634819Y-60864999D02*
X148777676Y-60960237D01*
X148777676Y-60960237D02*
X148872914Y-61055475D01*
X148872914Y-61055475D02*
X148920533Y-61150713D01*
X189690476Y-54074819D02*
X189690476Y-54789104D01*
X189690476Y-54789104D02*
X189642857Y-54931961D01*
X189642857Y-54931961D02*
X189547619Y-55027200D01*
X189547619Y-55027200D02*
X189404762Y-55074819D01*
X189404762Y-55074819D02*
X189309524Y-55074819D01*
X190690476Y-55074819D02*
X190119048Y-55074819D01*
X190404762Y-55074819D02*
X190404762Y-54074819D01*
X190404762Y-54074819D02*
X190309524Y-54217676D01*
X190309524Y-54217676D02*
X190214286Y-54312914D01*
X190214286Y-54312914D02*
X190119048Y-54360533D01*
X191309524Y-54074819D02*
X191404762Y-54074819D01*
X191404762Y-54074819D02*
X191500000Y-54122438D01*
X191500000Y-54122438D02*
X191547619Y-54170057D01*
X191547619Y-54170057D02*
X191595238Y-54265295D01*
X191595238Y-54265295D02*
X191642857Y-54455771D01*
X191642857Y-54455771D02*
X191642857Y-54693866D01*
X191642857Y-54693866D02*
X191595238Y-54884342D01*
X191595238Y-54884342D02*
X191547619Y-54979580D01*
X191547619Y-54979580D02*
X191500000Y-55027200D01*
X191500000Y-55027200D02*
X191404762Y-55074819D01*
X191404762Y-55074819D02*
X191309524Y-55074819D01*
X191309524Y-55074819D02*
X191214286Y-55027200D01*
X191214286Y-55027200D02*
X191166667Y-54979580D01*
X191166667Y-54979580D02*
X191119048Y-54884342D01*
X191119048Y-54884342D02*
X191071429Y-54693866D01*
X191071429Y-54693866D02*
X191071429Y-54455771D01*
X191071429Y-54455771D02*
X191119048Y-54265295D01*
X191119048Y-54265295D02*
X191166667Y-54170057D01*
X191166667Y-54170057D02*
X191214286Y-54122438D01*
X191214286Y-54122438D02*
X191309524Y-54074819D01*
X121416666Y-142324819D02*
X121416666Y-143039104D01*
X121416666Y-143039104D02*
X121369047Y-143181961D01*
X121369047Y-143181961D02*
X121273809Y-143277200D01*
X121273809Y-143277200D02*
X121130952Y-143324819D01*
X121130952Y-143324819D02*
X121035714Y-143324819D01*
X121797619Y-142324819D02*
X122464285Y-142324819D01*
X122464285Y-142324819D02*
X122035714Y-143324819D01*
X146416666Y-74074819D02*
X146416666Y-74789104D01*
X146416666Y-74789104D02*
X146369047Y-74931961D01*
X146369047Y-74931961D02*
X146273809Y-75027200D01*
X146273809Y-75027200D02*
X146130952Y-75074819D01*
X146130952Y-75074819D02*
X146035714Y-75074819D01*
X146940476Y-75074819D02*
X147130952Y-75074819D01*
X147130952Y-75074819D02*
X147226190Y-75027200D01*
X147226190Y-75027200D02*
X147273809Y-74979580D01*
X147273809Y-74979580D02*
X147369047Y-74836723D01*
X147369047Y-74836723D02*
X147416666Y-74646247D01*
X147416666Y-74646247D02*
X147416666Y-74265295D01*
X147416666Y-74265295D02*
X147369047Y-74170057D01*
X147369047Y-74170057D02*
X147321428Y-74122438D01*
X147321428Y-74122438D02*
X147226190Y-74074819D01*
X147226190Y-74074819D02*
X147035714Y-74074819D01*
X147035714Y-74074819D02*
X146940476Y-74122438D01*
X146940476Y-74122438D02*
X146892857Y-74170057D01*
X146892857Y-74170057D02*
X146845238Y-74265295D01*
X146845238Y-74265295D02*
X146845238Y-74503390D01*
X146845238Y-74503390D02*
X146892857Y-74598628D01*
X146892857Y-74598628D02*
X146940476Y-74646247D01*
X146940476Y-74646247D02*
X147035714Y-74693866D01*
X147035714Y-74693866D02*
X147226190Y-74693866D01*
X147226190Y-74693866D02*
X147321428Y-74646247D01*
X147321428Y-74646247D02*
X147369047Y-74598628D01*
X147369047Y-74598628D02*
X147416666Y-74503390D01*
X121416666Y-56114819D02*
X121416666Y-56829104D01*
X121416666Y-56829104D02*
X121369047Y-56971961D01*
X121369047Y-56971961D02*
X121273809Y-57067200D01*
X121273809Y-57067200D02*
X121130952Y-57114819D01*
X121130952Y-57114819D02*
X121035714Y-57114819D01*
X121845238Y-56210057D02*
X121892857Y-56162438D01*
X121892857Y-56162438D02*
X121988095Y-56114819D01*
X121988095Y-56114819D02*
X122226190Y-56114819D01*
X122226190Y-56114819D02*
X122321428Y-56162438D01*
X122321428Y-56162438D02*
X122369047Y-56210057D01*
X122369047Y-56210057D02*
X122416666Y-56305295D01*
X122416666Y-56305295D02*
X122416666Y-56400533D01*
X122416666Y-56400533D02*
X122369047Y-56543390D01*
X122369047Y-56543390D02*
X121797619Y-57114819D01*
X121797619Y-57114819D02*
X122416666Y-57114819D01*
X139166666Y-139784819D02*
X139166666Y-140499104D01*
X139166666Y-140499104D02*
X139119047Y-140641961D01*
X139119047Y-140641961D02*
X139023809Y-140737200D01*
X139023809Y-140737200D02*
X138880952Y-140784819D01*
X138880952Y-140784819D02*
X138785714Y-140784819D01*
X139547619Y-139784819D02*
X140166666Y-139784819D01*
X140166666Y-139784819D02*
X139833333Y-140165771D01*
X139833333Y-140165771D02*
X139976190Y-140165771D01*
X139976190Y-140165771D02*
X140071428Y-140213390D01*
X140071428Y-140213390D02*
X140119047Y-140261009D01*
X140119047Y-140261009D02*
X140166666Y-140356247D01*
X140166666Y-140356247D02*
X140166666Y-140594342D01*
X140166666Y-140594342D02*
X140119047Y-140689580D01*
X140119047Y-140689580D02*
X140071428Y-140737200D01*
X140071428Y-140737200D02*
X139976190Y-140784819D01*
X139976190Y-140784819D02*
X139690476Y-140784819D01*
X139690476Y-140784819D02*
X139595238Y-140737200D01*
X139595238Y-140737200D02*
X139547619Y-140689580D01*
X102166666Y-60314819D02*
X102166666Y-61029104D01*
X102166666Y-61029104D02*
X102119047Y-61171961D01*
X102119047Y-61171961D02*
X102023809Y-61267200D01*
X102023809Y-61267200D02*
X101880952Y-61314819D01*
X101880952Y-61314819D02*
X101785714Y-61314819D01*
X103166666Y-61314819D02*
X102595238Y-61314819D01*
X102880952Y-61314819D02*
X102880952Y-60314819D01*
X102880952Y-60314819D02*
X102785714Y-60457676D01*
X102785714Y-60457676D02*
X102690476Y-60552914D01*
X102690476Y-60552914D02*
X102595238Y-60600533D01*
X157166666Y-51954819D02*
X157166666Y-52669104D01*
X157166666Y-52669104D02*
X157119047Y-52811961D01*
X157119047Y-52811961D02*
X157023809Y-52907200D01*
X157023809Y-52907200D02*
X156880952Y-52954819D01*
X156880952Y-52954819D02*
X156785714Y-52954819D01*
X158071428Y-51954819D02*
X157880952Y-51954819D01*
X157880952Y-51954819D02*
X157785714Y-52002438D01*
X157785714Y-52002438D02*
X157738095Y-52050057D01*
X157738095Y-52050057D02*
X157642857Y-52192914D01*
X157642857Y-52192914D02*
X157595238Y-52383390D01*
X157595238Y-52383390D02*
X157595238Y-52764342D01*
X157595238Y-52764342D02*
X157642857Y-52859580D01*
X157642857Y-52859580D02*
X157690476Y-52907200D01*
X157690476Y-52907200D02*
X157785714Y-52954819D01*
X157785714Y-52954819D02*
X157976190Y-52954819D01*
X157976190Y-52954819D02*
X158071428Y-52907200D01*
X158071428Y-52907200D02*
X158119047Y-52859580D01*
X158119047Y-52859580D02*
X158166666Y-52764342D01*
X158166666Y-52764342D02*
X158166666Y-52526247D01*
X158166666Y-52526247D02*
X158119047Y-52431009D01*
X158119047Y-52431009D02*
X158071428Y-52383390D01*
X158071428Y-52383390D02*
X157976190Y-52335771D01*
X157976190Y-52335771D02*
X157785714Y-52335771D01*
X157785714Y-52335771D02*
X157690476Y-52383390D01*
X157690476Y-52383390D02*
X157642857Y-52431009D01*
X157642857Y-52431009D02*
X157595238Y-52526247D01*
X102666666Y-115804819D02*
X102666666Y-116519104D01*
X102666666Y-116519104D02*
X102619047Y-116661961D01*
X102619047Y-116661961D02*
X102523809Y-116757200D01*
X102523809Y-116757200D02*
X102380952Y-116804819D01*
X102380952Y-116804819D02*
X102285714Y-116804819D01*
X103619047Y-115804819D02*
X103142857Y-115804819D01*
X103142857Y-115804819D02*
X103095238Y-116281009D01*
X103095238Y-116281009D02*
X103142857Y-116233390D01*
X103142857Y-116233390D02*
X103238095Y-116185771D01*
X103238095Y-116185771D02*
X103476190Y-116185771D01*
X103476190Y-116185771D02*
X103571428Y-116233390D01*
X103571428Y-116233390D02*
X103619047Y-116281009D01*
X103619047Y-116281009D02*
X103666666Y-116376247D01*
X103666666Y-116376247D02*
X103666666Y-116614342D01*
X103666666Y-116614342D02*
X103619047Y-116709580D01*
X103619047Y-116709580D02*
X103571428Y-116757200D01*
X103571428Y-116757200D02*
X103476190Y-116804819D01*
X103476190Y-116804819D02*
X103238095Y-116804819D01*
X103238095Y-116804819D02*
X103142857Y-116757200D01*
X103142857Y-116757200D02*
X103095238Y-116709580D01*
X139166666Y-56144819D02*
X139166666Y-56859104D01*
X139166666Y-56859104D02*
X139119047Y-57001961D01*
X139119047Y-57001961D02*
X139023809Y-57097200D01*
X139023809Y-57097200D02*
X138880952Y-57144819D01*
X138880952Y-57144819D02*
X138785714Y-57144819D01*
X140071428Y-56478152D02*
X140071428Y-57144819D01*
X139833333Y-56097200D02*
X139595238Y-56811485D01*
X139595238Y-56811485D02*
X140214285Y-56811485D01*
X186916666Y-128494819D02*
X186916666Y-129209104D01*
X186916666Y-129209104D02*
X186869047Y-129351961D01*
X186869047Y-129351961D02*
X186773809Y-129447200D01*
X186773809Y-129447200D02*
X186630952Y-129494819D01*
X186630952Y-129494819D02*
X186535714Y-129494819D01*
X187535714Y-128923390D02*
X187440476Y-128875771D01*
X187440476Y-128875771D02*
X187392857Y-128828152D01*
X187392857Y-128828152D02*
X187345238Y-128732914D01*
X187345238Y-128732914D02*
X187345238Y-128685295D01*
X187345238Y-128685295D02*
X187392857Y-128590057D01*
X187392857Y-128590057D02*
X187440476Y-128542438D01*
X187440476Y-128542438D02*
X187535714Y-128494819D01*
X187535714Y-128494819D02*
X187726190Y-128494819D01*
X187726190Y-128494819D02*
X187821428Y-128542438D01*
X187821428Y-128542438D02*
X187869047Y-128590057D01*
X187869047Y-128590057D02*
X187916666Y-128685295D01*
X187916666Y-128685295D02*
X187916666Y-128732914D01*
X187916666Y-128732914D02*
X187869047Y-128828152D01*
X187869047Y-128828152D02*
X187821428Y-128875771D01*
X187821428Y-128875771D02*
X187726190Y-128923390D01*
X187726190Y-128923390D02*
X187535714Y-128923390D01*
X187535714Y-128923390D02*
X187440476Y-128971009D01*
X187440476Y-128971009D02*
X187392857Y-129018628D01*
X187392857Y-129018628D02*
X187345238Y-129113866D01*
X187345238Y-129113866D02*
X187345238Y-129304342D01*
X187345238Y-129304342D02*
X187392857Y-129399580D01*
X187392857Y-129399580D02*
X187440476Y-129447200D01*
X187440476Y-129447200D02*
X187535714Y-129494819D01*
X187535714Y-129494819D02*
X187726190Y-129494819D01*
X187726190Y-129494819D02*
X187821428Y-129447200D01*
X187821428Y-129447200D02*
X187869047Y-129399580D01*
X187869047Y-129399580D02*
X187916666Y-129304342D01*
X187916666Y-129304342D02*
X187916666Y-129113866D01*
X187916666Y-129113866D02*
X187869047Y-129018628D01*
X187869047Y-129018628D02*
X187821428Y-128971009D01*
X187821428Y-128971009D02*
X187726190Y-128923390D01*
D11*
X134765000Y-107802064D02*
X134765000Y-107347936D01*
X136235000Y-107802064D02*
X136235000Y-107347936D01*
X151022936Y-59855000D02*
X151477064Y-59855000D01*
X151022936Y-61325000D02*
X151477064Y-61325000D01*
X115327064Y-63965000D02*
X114872936Y-63965000D01*
X115327064Y-62495000D02*
X114872936Y-62495000D01*
X115327064Y-67465000D02*
X114872936Y-67465000D01*
X115327064Y-65995000D02*
X114872936Y-65995000D01*
X115327064Y-70965000D02*
X114872936Y-70965000D01*
X115327064Y-69495000D02*
X114872936Y-69495000D01*
X115977064Y-74485000D02*
X115522936Y-74485000D01*
X115977064Y-73015000D02*
X115522936Y-73015000D01*
X108197936Y-83745000D02*
X108652064Y-83745000D01*
X108197936Y-85215000D02*
X108652064Y-85215000D01*
X108110436Y-80485000D02*
X108564564Y-80485000D01*
X108110436Y-81955000D02*
X108564564Y-81955000D01*
X108197936Y-77485000D02*
X108652064Y-77485000D01*
X108197936Y-78955000D02*
X108652064Y-78955000D01*
X108197936Y-74225000D02*
X108652064Y-74225000D01*
X108197936Y-75695000D02*
X108652064Y-75695000D01*
X108197936Y-70765000D02*
X108652064Y-70765000D01*
X108197936Y-72235000D02*
X108652064Y-72235000D01*
X108197936Y-67495000D02*
X108652064Y-67495000D01*
X108197936Y-68965000D02*
X108652064Y-68965000D01*
X108197936Y-64245000D02*
X108652064Y-64245000D01*
X108197936Y-65715000D02*
X108652064Y-65715000D01*
X108272936Y-60995000D02*
X108727064Y-60995000D01*
X108272936Y-62465000D02*
X108727064Y-62465000D01*
X107985000Y-152538748D02*
X107985000Y-153061252D01*
X106515000Y-152538748D02*
X106515000Y-153061252D01*
X110985000Y-152538748D02*
X110985000Y-153061252D01*
X109515000Y-152538748D02*
X109515000Y-153061252D01*
X148235000Y-61103748D02*
X148235000Y-61626252D01*
X146765000Y-61103748D02*
X146765000Y-61626252D01*
X189120000Y-55620000D02*
X190500000Y-55620000D01*
X189120000Y-57000000D02*
X189120000Y-55620000D01*
X189120000Y-58270000D02*
X189120000Y-68540000D01*
X189120000Y-58270000D02*
X191880000Y-58270000D01*
X189120000Y-68540000D02*
X191880000Y-68540000D01*
X191880000Y-58270000D02*
X191880000Y-68540000D01*
X120370000Y-143870000D02*
X121750000Y-143870000D01*
X120370000Y-145250000D02*
X120370000Y-143870000D01*
X120370000Y-146520000D02*
X120370000Y-151710000D01*
X120370000Y-146520000D02*
X123130000Y-146520000D01*
X120370000Y-151710000D02*
X123130000Y-151710000D01*
X123130000Y-146520000D02*
X123130000Y-151710000D01*
X145370000Y-75620000D02*
X146750000Y-75620000D01*
X145370000Y-77000000D02*
X145370000Y-75620000D01*
X145370000Y-78270000D02*
X145370000Y-96160000D01*
X145370000Y-78270000D02*
X148130000Y-78270000D01*
X145370000Y-96160000D02*
X148130000Y-96160000D01*
X148130000Y-78270000D02*
X148130000Y-96160000D01*
X120370000Y-57660000D02*
X121750000Y-57660000D01*
X120370000Y-59040000D02*
X120370000Y-57660000D01*
X120370000Y-60310000D02*
X120370000Y-129000000D01*
X120370000Y-60310000D02*
X123130000Y-60310000D01*
X120370000Y-129000000D02*
X123130000Y-129000000D01*
X123130000Y-60310000D02*
X123130000Y-129000000D01*
X138120000Y-141330000D02*
X139500000Y-141330000D01*
X138120000Y-142710000D02*
X138120000Y-141330000D01*
X138120000Y-143980000D02*
X138120000Y-151710000D01*
X138120000Y-143980000D02*
X140880000Y-143980000D01*
X138120000Y-151710000D02*
X140880000Y-151710000D01*
X140880000Y-143980000D02*
X140880000Y-151710000D01*
X101120000Y-61860000D02*
X102500000Y-61860000D01*
X101120000Y-63240000D02*
X101120000Y-61860000D01*
X101120000Y-64510000D02*
X101120000Y-82400000D01*
X101120000Y-64510000D02*
X103880000Y-64510000D01*
X101120000Y-82400000D02*
X103880000Y-82400000D01*
X103880000Y-64510000D02*
X103880000Y-82400000D01*
X156120000Y-53500000D02*
X157500000Y-53500000D01*
X156120000Y-54880000D02*
X156120000Y-53500000D01*
X156120000Y-56150000D02*
X156120000Y-63880000D01*
X156120000Y-56150000D02*
X158880000Y-56150000D01*
X156120000Y-63880000D02*
X158880000Y-63880000D01*
X158880000Y-56150000D02*
X158880000Y-63880000D01*
X101620000Y-117350000D02*
X103000000Y-117350000D01*
X101620000Y-118730000D02*
X101620000Y-117350000D01*
X101620000Y-120000000D02*
X101620000Y-153130000D01*
X101620000Y-120000000D02*
X104380000Y-120000000D01*
X101620000Y-153130000D02*
X104380000Y-153130000D01*
X104380000Y-120000000D02*
X104380000Y-153130000D01*
X138120000Y-57690000D02*
X139500000Y-57690000D01*
X138120000Y-59070000D02*
X138120000Y-57690000D01*
X138120000Y-60340000D02*
X138120000Y-129030000D01*
X138120000Y-60340000D02*
X140880000Y-60340000D01*
X138120000Y-129030000D02*
X140880000Y-129030000D01*
X140880000Y-60340000D02*
X140880000Y-129030000D01*
X185870000Y-130040000D02*
X187250000Y-130040000D01*
X185870000Y-131420000D02*
X185870000Y-130040000D01*
X185870000Y-132690000D02*
X185870000Y-140420000D01*
X185870000Y-132690000D02*
X188630000Y-132690000D01*
X185870000Y-140420000D02*
X188630000Y-140420000D01*
X188630000Y-132690000D02*
X188630000Y-140420000D01*
M02*
