M48
; DRILL file {KiCad 9.0.4} date 2025-10-20T14:52:41-0400
; FORMAT={-:-/ absolute / metric / decimal}
; #@! TF.CreationDate,2025-10-20T14:52:41-04:00
; #@! TF.GenerationSoftware,Kicad,Pcbnew,9.0.4
; #@! TF.FileFunction,Plated,1,2,PTH
FMAT,2
METRIC
; #@! TA.AperFunction,Plated,PTH,ViaDrill
T1C0.300
; #@! TA.AperFunction,Plated,PTH,ComponentDrill
T2C1.000
%
G90
G05
T1
X103.25Y-84.25
X105.0Y-85.75
X105.5Y-61.5
X105.5Y-153.0
X105.5Y-154.0
X105.5Y-155.5
X106.25Y-140.75
X106.917Y-60.284
X107.75Y-86.25
X107.75Y-156.5
X108.75Y-60.25
X109.137Y-139.498
X109.75Y-156.25
X110.0Y-86.25
X111.0Y-63.25
X111.084Y-137.036
X111.75Y-156.25
X112.25Y-86.0
X112.25Y-154.5
X112.5Y-63.5
X112.5Y-153.25
X113.547Y-134.401
X114.0Y-86.0
X114.75Y-60.5
X116.125Y-131.995
X116.5Y-85.75
X117.25Y-60.75
X117.25Y-129.75
X117.5Y-66.5
X117.5Y-67.75
X117.5Y-70.75
X118.0Y-70.0
X118.25Y-67.25
X118.25Y-73.25
X118.5Y-62.25
X118.5Y-74.0
X118.5Y-86.0
X118.75Y-70.75
X118.754Y-127.575
X119.25Y-63.75
X119.25Y-128.75
X119.5Y-126.75
X119.75Y-74.0
X123.75Y-96.75
X123.991Y-94.126
X124.0Y-91.0
X124.0Y-99.25
X124.0Y-101.25
X124.0Y-103.75
X124.236Y-121.033
X124.25Y-84.25
X124.25Y-87.5
X124.25Y-107.0
X124.25Y-109.25
X124.25Y-112.75
X124.25Y-115.5
X124.25Y-118.25
X124.25Y-123.25
X124.25Y-125.0
X124.25Y-126.25
X124.25Y-127.5
X124.25Y-128.5
X136.75Y-126.75
X136.75Y-127.75
X136.75Y-128.75
X137.274Y-129.725
X141.541Y-131.197
X141.737Y-127.886
X141.75Y-126.75
X141.835Y-128.99
X142.0Y-73.75
X142.45Y-62.666
X142.5Y-96.75
X143.0Y-79.5
X143.194Y-78.13
X143.309Y-65.93
X143.5Y-71.0
X143.75Y-104.75
X144.222Y-95.031
X144.5Y-60.75
X146.75Y-59.0
X146.991Y-104.228
X147.25Y-64.0
X148.75Y-59.0
X148.75Y-64.0
X149.735Y-63.199
X149.75Y-93.0
X150.25Y-78.5
X150.5Y-82.25
X150.504Y-104.725
X151.25Y-86.25
X151.497Y-101.479
X152.75Y-90.25
X153.25Y-59.0
X153.25Y-62.25
X153.5Y-101.0
X154.0Y-81.75
X154.5Y-55.0
X154.706Y-53.249
X155.0Y-59.0
X155.0Y-62.75
X155.277Y-104.037
X155.5Y-52.0
X157.5Y-85.75
X159.267Y-52.44
X160.0Y-55.0
X160.5Y-53.75
X160.5Y-82.5
X164.75Y-78.5
X170.25Y-73.25
X175.75Y-67.5
X179.25Y-64.0
X183.5Y-59.5
X187.75Y-58.25
T2
X102.5Y-63.24
X102.5Y-65.78
X102.5Y-68.32
X102.5Y-70.86
X102.5Y-73.4
X102.5Y-75.94
X102.5Y-78.48
X102.5Y-81.02
X103.0Y-118.73
X103.0Y-121.27
X103.0Y-123.81
X103.0Y-126.35
X103.0Y-128.89
X103.0Y-131.43
X103.0Y-133.97
X103.0Y-136.51
X103.0Y-139.05
X103.0Y-141.59
X103.0Y-144.13
X103.0Y-146.67
X103.0Y-149.21
X103.0Y-151.75
X121.75Y-59.04
X121.75Y-61.58
X121.75Y-64.12
X121.75Y-66.66
X121.75Y-69.2
X121.75Y-71.74
X121.75Y-74.28
X121.75Y-76.82
X121.75Y-79.36
X121.75Y-81.9
X121.75Y-84.44
X121.75Y-86.98
X121.75Y-89.52
X121.75Y-92.06
X121.75Y-94.6
X121.75Y-97.14
X121.75Y-99.68
X121.75Y-102.22
X121.75Y-104.76
X121.75Y-107.3
X121.75Y-109.84
X121.75Y-112.38
X121.75Y-114.92
X121.75Y-117.46
X121.75Y-120.0
X121.75Y-122.54
X121.75Y-125.08
X121.75Y-127.62
X121.75Y-145.25
X121.75Y-147.79
X121.75Y-150.33
X139.5Y-59.07
X139.5Y-61.61
X139.5Y-64.15
X139.5Y-66.69
X139.5Y-69.23
X139.5Y-71.77
X139.5Y-74.31
X139.5Y-76.85
X139.5Y-79.39
X139.5Y-81.93
X139.5Y-84.47
X139.5Y-87.01
X139.5Y-89.55
X139.5Y-92.09
X139.5Y-94.63
X139.5Y-97.17
X139.5Y-99.71
X139.5Y-102.25
X139.5Y-104.79
X139.5Y-107.33
X139.5Y-109.87
X139.5Y-112.41
X139.5Y-114.95
X139.5Y-117.49
X139.5Y-120.03
X139.5Y-122.57
X139.5Y-125.11
X139.5Y-127.65
X139.5Y-142.71
X139.5Y-145.25
X139.5Y-147.79
X139.5Y-150.33
X146.75Y-77.0
X146.75Y-79.54
X146.75Y-82.08
X146.75Y-84.62
X146.75Y-87.16
X146.75Y-89.7
X146.75Y-92.24
X146.75Y-94.78
X157.5Y-54.88
X157.5Y-57.42
X157.5Y-59.96
X157.5Y-62.5
X187.25Y-131.42
X187.25Y-133.96
X187.25Y-136.5
X187.25Y-139.04
X190.5Y-57.0
X190.5Y-59.54
X190.5Y-62.08
X190.5Y-64.62
X190.5Y-67.16
M30
