G04 #@! TF.GenerationSoftware,KiCad,Pcbnew,9.0.4*
G04 #@! TF.CreationDate,2025-10-20T14:52:44-04:00*
G04 #@! TF.ProjectId,RF_INPUT_BREAKOUT_SIMPLE,52465f49-4e50-4555-945f-425245414b4f,rev?*
G04 #@! TF.SameCoordinates,Original*
G04 #@! TF.FileFunction,Soldermask,Top*
G04 #@! TF.FilePolarity,Negative*
%FSLAX46Y46*%
G04 Gerber Fmt 4.6, Leading zero omitted, Abs format (unit mm)*
G04 Created by KiCad (PCBNEW 9.0.4) date 2025-10-20 14:52:44*
%MOMM*%
%LPD*%
G01*
G04 APERTURE LIST*
G04 Aperture macros list*
%AMRoundRect*
0 Rectangle with rounded corners*
0 $1 Rounding radius*
0 $2 $3 $4 $5 $6 $7 $8 $9 X,Y pos of 4 corners*
0 Add a 4 corners polygon primitive as box body*
4,1,4,$2,$3,$4,$5,$6,$7,$8,$9,$2,$3,0*
0 Add four circle primitives for the rounded corners*
1,1,$1+$1,$2,$3*
1,1,$1+$1,$4,$5*
1,1,$1+$1,$6,$7*
1,1,$1+$1,$8,$9*
0 Add four rect primitives between the rounded corners*
20,1,$1+$1,$2,$3,$4,$5,0*
20,1,$1+$1,$4,$5,$6,$7,0*
20,1,$1+$1,$6,$7,$8,$9,0*
20,1,$1+$1,$8,$9,$2,$3,0*%
G04 Aperture macros list end*
%ADD10RoundRect,0.250000X0.450000X-0.262500X0.450000X0.262500X-0.450000X0.262500X-0.450000X-0.262500X0*%
%ADD11RoundRect,0.250000X-0.262500X-0.450000X0.262500X-0.450000X0.262500X0.450000X-0.262500X0.450000X0*%
%ADD12RoundRect,0.250000X0.262500X0.450000X-0.262500X0.450000X-0.262500X-0.450000X0.262500X-0.450000X0*%
%ADD13RoundRect,0.250000X-0.475000X0.250000X-0.475000X-0.250000X0.475000X-0.250000X0.475000X0.250000X0*%
%ADD14R,1.700000X1.700000*%
%ADD15C,1.700000*%
G04 APERTURE END LIST*
D10*
X135500000Y-108487500D03*
X135500000Y-106662500D03*
D11*
X150337500Y-60590000D03*
X152162500Y-60590000D03*
D12*
X116012500Y-63230000D03*
X114187500Y-63230000D03*
X116012500Y-66730000D03*
X114187500Y-66730000D03*
X116012500Y-70230000D03*
X114187500Y-70230000D03*
X116662500Y-73750000D03*
X114837500Y-73750000D03*
D11*
X107512500Y-84480000D03*
X109337500Y-84480000D03*
X107425000Y-81220000D03*
X109250000Y-81220000D03*
X107512500Y-78220000D03*
X109337500Y-78220000D03*
X107512500Y-74960000D03*
X109337500Y-74960000D03*
X107512500Y-71500000D03*
X109337500Y-71500000D03*
X107512500Y-68230000D03*
X109337500Y-68230000D03*
X107512500Y-64980000D03*
X109337500Y-64980000D03*
X107587500Y-61730000D03*
X109412500Y-61730000D03*
D13*
X107250000Y-151850000D03*
X107250000Y-153750000D03*
X110250000Y-151850000D03*
X110250000Y-153750000D03*
X147500000Y-60415000D03*
X147500000Y-62315000D03*
D14*
X190500000Y-57000000D03*
D15*
X190500000Y-59540000D03*
X190500000Y-62080000D03*
X190500000Y-64620000D03*
X190500000Y-67160000D03*
D14*
X121750000Y-145250000D03*
D15*
X121750000Y-147790000D03*
X121750000Y-150330000D03*
D14*
X146750000Y-77000000D03*
D15*
X146750000Y-79540000D03*
X146750000Y-82080000D03*
X146750000Y-84620000D03*
X146750000Y-87160000D03*
X146750000Y-89700000D03*
X146750000Y-92240000D03*
X146750000Y-94780000D03*
D14*
X121750000Y-59040000D03*
D15*
X121750000Y-61580000D03*
X121750000Y-64120000D03*
X121750000Y-66660000D03*
X121750000Y-69200000D03*
X121750000Y-71740000D03*
X121750000Y-74280000D03*
X121750000Y-76820000D03*
X121750000Y-79360000D03*
X121750000Y-81900000D03*
X121750000Y-84440000D03*
X121750000Y-86980000D03*
X121750000Y-89520000D03*
X121750000Y-92060000D03*
X121750000Y-94600000D03*
X121750000Y-97140000D03*
X121750000Y-99680000D03*
X121750000Y-102220000D03*
X121750000Y-104760000D03*
X121750000Y-107300000D03*
X121750000Y-109840000D03*
X121750000Y-112380000D03*
X121750000Y-114920000D03*
X121750000Y-117460000D03*
X121750000Y-120000000D03*
X121750000Y-122540000D03*
X121750000Y-125080000D03*
X121750000Y-127620000D03*
D14*
X139500000Y-142710000D03*
D15*
X139500000Y-145250000D03*
X139500000Y-147790000D03*
X139500000Y-150330000D03*
D14*
X102500000Y-63240000D03*
D15*
X102500000Y-65780000D03*
X102500000Y-68320000D03*
X102500000Y-70860000D03*
X102500000Y-73400000D03*
X102500000Y-75940000D03*
X102500000Y-78480000D03*
X102500000Y-81020000D03*
D14*
X157500000Y-54880000D03*
D15*
X157500000Y-57420000D03*
X157500000Y-59960000D03*
X157500000Y-62500000D03*
D14*
X103000000Y-118730000D03*
D15*
X103000000Y-121270000D03*
X103000000Y-123810000D03*
X103000000Y-126350000D03*
X103000000Y-128890000D03*
X103000000Y-131430000D03*
X103000000Y-133970000D03*
X103000000Y-136510000D03*
X103000000Y-139050000D03*
X103000000Y-141590000D03*
X103000000Y-144130000D03*
X103000000Y-146670000D03*
X103000000Y-149210000D03*
X103000000Y-151750000D03*
D14*
X139500000Y-59070000D03*
D15*
X139500000Y-61610000D03*
X139500000Y-64150000D03*
X139500000Y-66690000D03*
X139500000Y-69230000D03*
X139500000Y-71770000D03*
X139500000Y-74310000D03*
X139500000Y-76850000D03*
X139500000Y-79390000D03*
X139500000Y-81930000D03*
X139500000Y-84470000D03*
X139500000Y-87010000D03*
X139500000Y-89550000D03*
X139500000Y-92090000D03*
X139500000Y-94630000D03*
X139500000Y-97170000D03*
X139500000Y-99710000D03*
X139500000Y-102250000D03*
X139500000Y-104790000D03*
X139500000Y-107330000D03*
X139500000Y-109870000D03*
X139500000Y-112410000D03*
X139500000Y-114950000D03*
X139500000Y-117490000D03*
X139500000Y-120030000D03*
X139500000Y-122570000D03*
X139500000Y-125110000D03*
X139500000Y-127650000D03*
D14*
X187250000Y-131420000D03*
D15*
X187250000Y-133960000D03*
X187250000Y-136500000D03*
X187250000Y-139040000D03*
M02*
