G04 #@! TF.GenerationSoftware,KiCad,Pcbnew,9.0.6*
G04 #@! TF.CreationDate,2025-11-20T09:59:51-05:00*
G04 #@! TF.ProjectId,Proton,50726f74-6f6e-42e6-9b69-6361645f7063,REV3*
G04 #@! TF.SameCoordinates,PX71ba2a9PY5a7fc3b*
G04 #@! TF.FileFunction,Legend,Bot*
G04 #@! TF.FilePolarity,Positive*
%FSLAX46Y46*%
G04 Gerber Fmt 4.6, Leading zero omitted, Abs format (unit mm)*
G04 Created by KiCad (PCBNEW 9.0.6) date 2025-11-20 09:59:51*
%MOMM*%
%LPD*%
G01*
G04 APERTURE LIST*
%ADD10C,0.069850*%
%ADD11C,0.127000*%
%ADD12C,0.400000*%
%ADD13C,0.120000*%
G04 APERTURE END LIST*
D10*
X74689186Y54725661D02*
X74888758Y54725661D01*
X74888758Y54725661D02*
X74928672Y54738966D01*
X74928672Y54738966D02*
X74955282Y54765575D01*
X74955282Y54765575D02*
X74968586Y54805490D01*
X74968586Y54805490D02*
X74968586Y54832099D01*
X74689186Y54472871D02*
X74689186Y54526090D01*
X74689186Y54526090D02*
X74702491Y54552699D01*
X74702491Y54552699D02*
X74715796Y54566004D01*
X74715796Y54566004D02*
X74755710Y54592614D01*
X74755710Y54592614D02*
X74808929Y54605918D01*
X74808929Y54605918D02*
X74915367Y54605918D01*
X74915367Y54605918D02*
X74941977Y54592614D01*
X74941977Y54592614D02*
X74955282Y54579309D01*
X74955282Y54579309D02*
X74968586Y54552699D01*
X74968586Y54552699D02*
X74968586Y54499480D01*
X74968586Y54499480D02*
X74955282Y54472871D01*
X74955282Y54472871D02*
X74941977Y54459566D01*
X74941977Y54459566D02*
X74915367Y54446261D01*
X74915367Y54446261D02*
X74848843Y54446261D01*
X74848843Y54446261D02*
X74822234Y54459566D01*
X74822234Y54459566D02*
X74808929Y54472871D01*
X74808929Y54472871D02*
X74795624Y54499480D01*
X74795624Y54499480D02*
X74795624Y54552699D01*
X74795624Y54552699D02*
X74808929Y54579309D01*
X74808929Y54579309D02*
X74822234Y54592614D01*
X74822234Y54592614D02*
X74848843Y54605918D01*
X26211251Y26498941D02*
X26211251Y26272760D01*
X26211251Y26272760D02*
X26197946Y26246150D01*
X26197946Y26246150D02*
X26184641Y26232845D01*
X26184641Y26232845D02*
X26158032Y26219541D01*
X26158032Y26219541D02*
X26104813Y26219541D01*
X26104813Y26219541D02*
X26078203Y26232845D01*
X26078203Y26232845D02*
X26064898Y26246150D01*
X26064898Y26246150D02*
X26051594Y26272760D01*
X26051594Y26272760D02*
X26051594Y26498941D01*
X25785498Y26498941D02*
X25918546Y26498941D01*
X25918546Y26498941D02*
X25931850Y26365893D01*
X25931850Y26365893D02*
X25918546Y26379198D01*
X25918546Y26379198D02*
X25891936Y26392503D01*
X25891936Y26392503D02*
X25825412Y26392503D01*
X25825412Y26392503D02*
X25798803Y26379198D01*
X25798803Y26379198D02*
X25785498Y26365893D01*
X25785498Y26365893D02*
X25772193Y26339284D01*
X25772193Y26339284D02*
X25772193Y26272760D01*
X25772193Y26272760D02*
X25785498Y26246150D01*
X25785498Y26246150D02*
X25798803Y26232845D01*
X25798803Y26232845D02*
X25825412Y26219541D01*
X25825412Y26219541D02*
X25891936Y26219541D01*
X25891936Y26219541D02*
X25918546Y26232845D01*
X25918546Y26232845D02*
X25931850Y26246150D01*
X24545097Y29941054D02*
X24558402Y29954358D01*
X24558402Y29954358D02*
X24571706Y29994273D01*
X24571706Y29994273D02*
X24571706Y30020882D01*
X24571706Y30020882D02*
X24558402Y30060796D01*
X24558402Y30060796D02*
X24531792Y30087406D01*
X24531792Y30087406D02*
X24505182Y30100711D01*
X24505182Y30100711D02*
X24451963Y30114015D01*
X24451963Y30114015D02*
X24412049Y30114015D01*
X24412049Y30114015D02*
X24358830Y30100711D01*
X24358830Y30100711D02*
X24332221Y30087406D01*
X24332221Y30087406D02*
X24305611Y30060796D01*
X24305611Y30060796D02*
X24292306Y30020882D01*
X24292306Y30020882D02*
X24292306Y29994273D01*
X24292306Y29994273D02*
X24305611Y29954358D01*
X24305611Y29954358D02*
X24318916Y29941054D01*
X24318916Y29834615D02*
X24305611Y29821311D01*
X24305611Y29821311D02*
X24292306Y29794701D01*
X24292306Y29794701D02*
X24292306Y29728177D01*
X24292306Y29728177D02*
X24305611Y29701568D01*
X24305611Y29701568D02*
X24318916Y29688263D01*
X24318916Y29688263D02*
X24345525Y29674958D01*
X24345525Y29674958D02*
X24372135Y29674958D01*
X24372135Y29674958D02*
X24412049Y29688263D01*
X24412049Y29688263D02*
X24571706Y29847920D01*
X24571706Y29847920D02*
X24571706Y29674958D01*
X24571706Y29408863D02*
X24571706Y29568520D01*
X24571706Y29488692D02*
X24292306Y29488692D01*
X24292306Y29488692D02*
X24332221Y29515301D01*
X24332221Y29515301D02*
X24358830Y29541911D01*
X24358830Y29541911D02*
X24372135Y29568520D01*
X50873997Y52941730D02*
X50740950Y53034863D01*
X50873997Y53101387D02*
X50594597Y53101387D01*
X50594597Y53101387D02*
X50594597Y52994949D01*
X50594597Y52994949D02*
X50607902Y52968339D01*
X50607902Y52968339D02*
X50621207Y52955034D01*
X50621207Y52955034D02*
X50647816Y52941730D01*
X50647816Y52941730D02*
X50687731Y52941730D01*
X50687731Y52941730D02*
X50714340Y52955034D01*
X50714340Y52955034D02*
X50727645Y52968339D01*
X50727645Y52968339D02*
X50740950Y52994949D01*
X50740950Y52994949D02*
X50740950Y53101387D01*
X50621207Y52835291D02*
X50607902Y52821987D01*
X50607902Y52821987D02*
X50594597Y52795377D01*
X50594597Y52795377D02*
X50594597Y52728853D01*
X50594597Y52728853D02*
X50607902Y52702244D01*
X50607902Y52702244D02*
X50621207Y52688939D01*
X50621207Y52688939D02*
X50647816Y52675634D01*
X50647816Y52675634D02*
X50674426Y52675634D01*
X50674426Y52675634D02*
X50714340Y52688939D01*
X50714340Y52688939D02*
X50873997Y52848596D01*
X50873997Y52848596D02*
X50873997Y52675634D01*
X29847388Y29574778D02*
X29860693Y29588082D01*
X29860693Y29588082D02*
X29873997Y29627997D01*
X29873997Y29627997D02*
X29873997Y29654606D01*
X29873997Y29654606D02*
X29860693Y29694520D01*
X29860693Y29694520D02*
X29834083Y29721130D01*
X29834083Y29721130D02*
X29807473Y29734435D01*
X29807473Y29734435D02*
X29754254Y29747739D01*
X29754254Y29747739D02*
X29714340Y29747739D01*
X29714340Y29747739D02*
X29661121Y29734435D01*
X29661121Y29734435D02*
X29634512Y29721130D01*
X29634512Y29721130D02*
X29607902Y29694520D01*
X29607902Y29694520D02*
X29594597Y29654606D01*
X29594597Y29654606D02*
X29594597Y29627997D01*
X29594597Y29627997D02*
X29607902Y29588082D01*
X29607902Y29588082D02*
X29621207Y29574778D01*
X29873997Y29308682D02*
X29873997Y29468339D01*
X29873997Y29388511D02*
X29594597Y29388511D01*
X29594597Y29388511D02*
X29634512Y29415120D01*
X29634512Y29415120D02*
X29661121Y29441730D01*
X29661121Y29441730D02*
X29674426Y29468339D01*
X29873997Y29042587D02*
X29873997Y29202244D01*
X29873997Y29122416D02*
X29594597Y29122416D01*
X29594597Y29122416D02*
X29634512Y29149025D01*
X29634512Y29149025D02*
X29661121Y29175635D01*
X29661121Y29175635D02*
X29674426Y29202244D01*
X25447388Y23574778D02*
X25460693Y23588082D01*
X25460693Y23588082D02*
X25473997Y23627997D01*
X25473997Y23627997D02*
X25473997Y23654606D01*
X25473997Y23654606D02*
X25460693Y23694520D01*
X25460693Y23694520D02*
X25434083Y23721130D01*
X25434083Y23721130D02*
X25407473Y23734435D01*
X25407473Y23734435D02*
X25354254Y23747739D01*
X25354254Y23747739D02*
X25314340Y23747739D01*
X25314340Y23747739D02*
X25261121Y23734435D01*
X25261121Y23734435D02*
X25234512Y23721130D01*
X25234512Y23721130D02*
X25207902Y23694520D01*
X25207902Y23694520D02*
X25194597Y23654606D01*
X25194597Y23654606D02*
X25194597Y23627997D01*
X25194597Y23627997D02*
X25207902Y23588082D01*
X25207902Y23588082D02*
X25221207Y23574778D01*
X25473997Y23308682D02*
X25473997Y23468339D01*
X25473997Y23388511D02*
X25194597Y23388511D01*
X25194597Y23388511D02*
X25234512Y23415120D01*
X25234512Y23415120D02*
X25261121Y23441730D01*
X25261121Y23441730D02*
X25274426Y23468339D01*
X25473997Y23175635D02*
X25473997Y23122416D01*
X25473997Y23122416D02*
X25460693Y23095806D01*
X25460693Y23095806D02*
X25447388Y23082502D01*
X25447388Y23082502D02*
X25407473Y23055892D01*
X25407473Y23055892D02*
X25354254Y23042587D01*
X25354254Y23042587D02*
X25247816Y23042587D01*
X25247816Y23042587D02*
X25221207Y23055892D01*
X25221207Y23055892D02*
X25207902Y23069197D01*
X25207902Y23069197D02*
X25194597Y23095806D01*
X25194597Y23095806D02*
X25194597Y23149025D01*
X25194597Y23149025D02*
X25207902Y23175635D01*
X25207902Y23175635D02*
X25221207Y23188940D01*
X25221207Y23188940D02*
X25247816Y23202244D01*
X25247816Y23202244D02*
X25314340Y23202244D01*
X25314340Y23202244D02*
X25340950Y23188940D01*
X25340950Y23188940D02*
X25354254Y23175635D01*
X25354254Y23175635D02*
X25367559Y23149025D01*
X25367559Y23149025D02*
X25367559Y23095806D01*
X25367559Y23095806D02*
X25354254Y23069197D01*
X25354254Y23069197D02*
X25340950Y23055892D01*
X25340950Y23055892D02*
X25314340Y23042587D01*
X48373997Y52941730D02*
X48240950Y53034863D01*
X48373997Y53101387D02*
X48094597Y53101387D01*
X48094597Y53101387D02*
X48094597Y52994949D01*
X48094597Y52994949D02*
X48107902Y52968339D01*
X48107902Y52968339D02*
X48121207Y52955034D01*
X48121207Y52955034D02*
X48147816Y52941730D01*
X48147816Y52941730D02*
X48187731Y52941730D01*
X48187731Y52941730D02*
X48214340Y52955034D01*
X48214340Y52955034D02*
X48227645Y52968339D01*
X48227645Y52968339D02*
X48240950Y52994949D01*
X48240950Y52994949D02*
X48240950Y53101387D01*
X48373997Y52675634D02*
X48373997Y52835291D01*
X48373997Y52755463D02*
X48094597Y52755463D01*
X48094597Y52755463D02*
X48134512Y52782072D01*
X48134512Y52782072D02*
X48161121Y52808682D01*
X48161121Y52808682D02*
X48174426Y52835291D01*
X32128487Y31269541D02*
X32221620Y31402588D01*
X32288144Y31269541D02*
X32288144Y31548941D01*
X32288144Y31548941D02*
X32181706Y31548941D01*
X32181706Y31548941D02*
X32155096Y31535636D01*
X32155096Y31535636D02*
X32141791Y31522331D01*
X32141791Y31522331D02*
X32128487Y31495722D01*
X32128487Y31495722D02*
X32128487Y31455807D01*
X32128487Y31455807D02*
X32141791Y31429198D01*
X32141791Y31429198D02*
X32155096Y31415893D01*
X32155096Y31415893D02*
X32181706Y31402588D01*
X32181706Y31402588D02*
X32288144Y31402588D01*
X31875696Y31548941D02*
X32008744Y31548941D01*
X32008744Y31548941D02*
X32022048Y31415893D01*
X32022048Y31415893D02*
X32008744Y31429198D01*
X32008744Y31429198D02*
X31982134Y31442503D01*
X31982134Y31442503D02*
X31915610Y31442503D01*
X31915610Y31442503D02*
X31889001Y31429198D01*
X31889001Y31429198D02*
X31875696Y31415893D01*
X31875696Y31415893D02*
X31862391Y31389284D01*
X31862391Y31389284D02*
X31862391Y31322760D01*
X31862391Y31322760D02*
X31875696Y31296150D01*
X31875696Y31296150D02*
X31889001Y31282845D01*
X31889001Y31282845D02*
X31915610Y31269541D01*
X31915610Y31269541D02*
X31982134Y31269541D01*
X31982134Y31269541D02*
X32008744Y31282845D01*
X32008744Y31282845D02*
X32022048Y31296150D01*
X22688760Y28196150D02*
X22675456Y28182845D01*
X22675456Y28182845D02*
X22635541Y28169541D01*
X22635541Y28169541D02*
X22608932Y28169541D01*
X22608932Y28169541D02*
X22569018Y28182845D01*
X22569018Y28182845D02*
X22542408Y28209455D01*
X22542408Y28209455D02*
X22529103Y28236065D01*
X22529103Y28236065D02*
X22515799Y28289284D01*
X22515799Y28289284D02*
X22515799Y28329198D01*
X22515799Y28329198D02*
X22529103Y28382417D01*
X22529103Y28382417D02*
X22542408Y28409026D01*
X22542408Y28409026D02*
X22569018Y28435636D01*
X22569018Y28435636D02*
X22608932Y28448941D01*
X22608932Y28448941D02*
X22635541Y28448941D01*
X22635541Y28448941D02*
X22675456Y28435636D01*
X22675456Y28435636D02*
X22688760Y28422331D01*
X22795199Y28422331D02*
X22808503Y28435636D01*
X22808503Y28435636D02*
X22835113Y28448941D01*
X22835113Y28448941D02*
X22901637Y28448941D01*
X22901637Y28448941D02*
X22928246Y28435636D01*
X22928246Y28435636D02*
X22941551Y28422331D01*
X22941551Y28422331D02*
X22954856Y28395722D01*
X22954856Y28395722D02*
X22954856Y28369112D01*
X22954856Y28369112D02*
X22941551Y28329198D01*
X22941551Y28329198D02*
X22781894Y28169541D01*
X22781894Y28169541D02*
X22954856Y28169541D01*
X23047989Y28448941D02*
X23220951Y28448941D01*
X23220951Y28448941D02*
X23127817Y28342503D01*
X23127817Y28342503D02*
X23167732Y28342503D01*
X23167732Y28342503D02*
X23194341Y28329198D01*
X23194341Y28329198D02*
X23207646Y28315893D01*
X23207646Y28315893D02*
X23220951Y28289284D01*
X23220951Y28289284D02*
X23220951Y28222760D01*
X23220951Y28222760D02*
X23207646Y28196150D01*
X23207646Y28196150D02*
X23194341Y28182845D01*
X23194341Y28182845D02*
X23167732Y28169541D01*
X23167732Y28169541D02*
X23087903Y28169541D01*
X23087903Y28169541D02*
X23061294Y28182845D01*
X23061294Y28182845D02*
X23047989Y28196150D01*
X26197388Y29574778D02*
X26210693Y29588082D01*
X26210693Y29588082D02*
X26223997Y29627997D01*
X26223997Y29627997D02*
X26223997Y29654606D01*
X26223997Y29654606D02*
X26210693Y29694520D01*
X26210693Y29694520D02*
X26184083Y29721130D01*
X26184083Y29721130D02*
X26157473Y29734435D01*
X26157473Y29734435D02*
X26104254Y29747739D01*
X26104254Y29747739D02*
X26064340Y29747739D01*
X26064340Y29747739D02*
X26011121Y29734435D01*
X26011121Y29734435D02*
X25984512Y29721130D01*
X25984512Y29721130D02*
X25957902Y29694520D01*
X25957902Y29694520D02*
X25944597Y29654606D01*
X25944597Y29654606D02*
X25944597Y29627997D01*
X25944597Y29627997D02*
X25957902Y29588082D01*
X25957902Y29588082D02*
X25971207Y29574778D01*
X26223997Y29308682D02*
X26223997Y29468339D01*
X26223997Y29388511D02*
X25944597Y29388511D01*
X25944597Y29388511D02*
X25984512Y29415120D01*
X25984512Y29415120D02*
X26011121Y29441730D01*
X26011121Y29441730D02*
X26024426Y29468339D01*
X25944597Y29215549D02*
X25944597Y29029283D01*
X25944597Y29029283D02*
X26223997Y29149025D01*
X34373997Y54441730D02*
X34240950Y54534863D01*
X34373997Y54601387D02*
X34094597Y54601387D01*
X34094597Y54601387D02*
X34094597Y54494949D01*
X34094597Y54494949D02*
X34107902Y54468339D01*
X34107902Y54468339D02*
X34121207Y54455034D01*
X34121207Y54455034D02*
X34147816Y54441730D01*
X34147816Y54441730D02*
X34187731Y54441730D01*
X34187731Y54441730D02*
X34214340Y54455034D01*
X34214340Y54455034D02*
X34227645Y54468339D01*
X34227645Y54468339D02*
X34240950Y54494949D01*
X34240950Y54494949D02*
X34240950Y54601387D01*
X34187731Y54202244D02*
X34373997Y54202244D01*
X34081293Y54268768D02*
X34280864Y54335291D01*
X34280864Y54335291D02*
X34280864Y54162330D01*
X29127989Y26796150D02*
X29141293Y26782845D01*
X29141293Y26782845D02*
X29181208Y26769541D01*
X29181208Y26769541D02*
X29207817Y26769541D01*
X29207817Y26769541D02*
X29247731Y26782845D01*
X29247731Y26782845D02*
X29274341Y26809455D01*
X29274341Y26809455D02*
X29287646Y26836065D01*
X29287646Y26836065D02*
X29300950Y26889284D01*
X29300950Y26889284D02*
X29300950Y26929198D01*
X29300950Y26929198D02*
X29287646Y26982417D01*
X29287646Y26982417D02*
X29274341Y27009026D01*
X29274341Y27009026D02*
X29247731Y27035636D01*
X29247731Y27035636D02*
X29207817Y27048941D01*
X29207817Y27048941D02*
X29181208Y27048941D01*
X29181208Y27048941D02*
X29141293Y27035636D01*
X29141293Y27035636D02*
X29127989Y27022331D01*
X28861893Y26769541D02*
X29021550Y26769541D01*
X28941722Y26769541D02*
X28941722Y27048941D01*
X28941722Y27048941D02*
X28968331Y27009026D01*
X28968331Y27009026D02*
X28994941Y26982417D01*
X28994941Y26982417D02*
X29021550Y26969112D01*
X28755455Y27022331D02*
X28742151Y27035636D01*
X28742151Y27035636D02*
X28715541Y27048941D01*
X28715541Y27048941D02*
X28649017Y27048941D01*
X28649017Y27048941D02*
X28622408Y27035636D01*
X28622408Y27035636D02*
X28609103Y27022331D01*
X28609103Y27022331D02*
X28595798Y26995722D01*
X28595798Y26995722D02*
X28595798Y26969112D01*
X28595798Y26969112D02*
X28609103Y26929198D01*
X28609103Y26929198D02*
X28768760Y26769541D01*
X28768760Y26769541D02*
X28595798Y26769541D01*
X23127989Y25296150D02*
X23141293Y25282845D01*
X23141293Y25282845D02*
X23181208Y25269541D01*
X23181208Y25269541D02*
X23207817Y25269541D01*
X23207817Y25269541D02*
X23247731Y25282845D01*
X23247731Y25282845D02*
X23274341Y25309455D01*
X23274341Y25309455D02*
X23287646Y25336065D01*
X23287646Y25336065D02*
X23300950Y25389284D01*
X23300950Y25389284D02*
X23300950Y25429198D01*
X23300950Y25429198D02*
X23287646Y25482417D01*
X23287646Y25482417D02*
X23274341Y25509026D01*
X23274341Y25509026D02*
X23247731Y25535636D01*
X23247731Y25535636D02*
X23207817Y25548941D01*
X23207817Y25548941D02*
X23181208Y25548941D01*
X23181208Y25548941D02*
X23141293Y25535636D01*
X23141293Y25535636D02*
X23127989Y25522331D01*
X23021550Y25522331D02*
X23008246Y25535636D01*
X23008246Y25535636D02*
X22981636Y25548941D01*
X22981636Y25548941D02*
X22915112Y25548941D01*
X22915112Y25548941D02*
X22888503Y25535636D01*
X22888503Y25535636D02*
X22875198Y25522331D01*
X22875198Y25522331D02*
X22861893Y25495722D01*
X22861893Y25495722D02*
X22861893Y25469112D01*
X22861893Y25469112D02*
X22875198Y25429198D01*
X22875198Y25429198D02*
X23034855Y25269541D01*
X23034855Y25269541D02*
X22861893Y25269541D01*
X22755455Y25522331D02*
X22742151Y25535636D01*
X22742151Y25535636D02*
X22715541Y25548941D01*
X22715541Y25548941D02*
X22649017Y25548941D01*
X22649017Y25548941D02*
X22622408Y25535636D01*
X22622408Y25535636D02*
X22609103Y25522331D01*
X22609103Y25522331D02*
X22595798Y25495722D01*
X22595798Y25495722D02*
X22595798Y25469112D01*
X22595798Y25469112D02*
X22609103Y25429198D01*
X22609103Y25429198D02*
X22768760Y25269541D01*
X22768760Y25269541D02*
X22595798Y25269541D01*
X22668760Y27196150D02*
X22655456Y27182845D01*
X22655456Y27182845D02*
X22615541Y27169541D01*
X22615541Y27169541D02*
X22588932Y27169541D01*
X22588932Y27169541D02*
X22549018Y27182845D01*
X22549018Y27182845D02*
X22522408Y27209455D01*
X22522408Y27209455D02*
X22509103Y27236065D01*
X22509103Y27236065D02*
X22495799Y27289284D01*
X22495799Y27289284D02*
X22495799Y27329198D01*
X22495799Y27329198D02*
X22509103Y27382417D01*
X22509103Y27382417D02*
X22522408Y27409026D01*
X22522408Y27409026D02*
X22549018Y27435636D01*
X22549018Y27435636D02*
X22588932Y27448941D01*
X22588932Y27448941D02*
X22615541Y27448941D01*
X22615541Y27448941D02*
X22655456Y27435636D01*
X22655456Y27435636D02*
X22668760Y27422331D01*
X22934856Y27169541D02*
X22775199Y27169541D01*
X22855027Y27169541D02*
X22855027Y27448941D01*
X22855027Y27448941D02*
X22828418Y27409026D01*
X22828418Y27409026D02*
X22801808Y27382417D01*
X22801808Y27382417D02*
X22775199Y27369112D01*
X23027989Y27448941D02*
X23200951Y27448941D01*
X23200951Y27448941D02*
X23107817Y27342503D01*
X23107817Y27342503D02*
X23147732Y27342503D01*
X23147732Y27342503D02*
X23174341Y27329198D01*
X23174341Y27329198D02*
X23187646Y27315893D01*
X23187646Y27315893D02*
X23200951Y27289284D01*
X23200951Y27289284D02*
X23200951Y27222760D01*
X23200951Y27222760D02*
X23187646Y27196150D01*
X23187646Y27196150D02*
X23174341Y27182845D01*
X23174341Y27182845D02*
X23147732Y27169541D01*
X23147732Y27169541D02*
X23067903Y27169541D01*
X23067903Y27169541D02*
X23041294Y27182845D01*
X23041294Y27182845D02*
X23027989Y27196150D01*
X29527989Y22446150D02*
X29541293Y22432845D01*
X29541293Y22432845D02*
X29581208Y22419541D01*
X29581208Y22419541D02*
X29607817Y22419541D01*
X29607817Y22419541D02*
X29647731Y22432845D01*
X29647731Y22432845D02*
X29674341Y22459455D01*
X29674341Y22459455D02*
X29687646Y22486065D01*
X29687646Y22486065D02*
X29700950Y22539284D01*
X29700950Y22539284D02*
X29700950Y22579198D01*
X29700950Y22579198D02*
X29687646Y22632417D01*
X29687646Y22632417D02*
X29674341Y22659026D01*
X29674341Y22659026D02*
X29647731Y22685636D01*
X29647731Y22685636D02*
X29607817Y22698941D01*
X29607817Y22698941D02*
X29581208Y22698941D01*
X29581208Y22698941D02*
X29541293Y22685636D01*
X29541293Y22685636D02*
X29527989Y22672331D01*
X29421550Y22672331D02*
X29408246Y22685636D01*
X29408246Y22685636D02*
X29381636Y22698941D01*
X29381636Y22698941D02*
X29315112Y22698941D01*
X29315112Y22698941D02*
X29288503Y22685636D01*
X29288503Y22685636D02*
X29275198Y22672331D01*
X29275198Y22672331D02*
X29261893Y22645722D01*
X29261893Y22645722D02*
X29261893Y22619112D01*
X29261893Y22619112D02*
X29275198Y22579198D01*
X29275198Y22579198D02*
X29434855Y22419541D01*
X29434855Y22419541D02*
X29261893Y22419541D01*
X29088932Y22698941D02*
X29062322Y22698941D01*
X29062322Y22698941D02*
X29035713Y22685636D01*
X29035713Y22685636D02*
X29022408Y22672331D01*
X29022408Y22672331D02*
X29009103Y22645722D01*
X29009103Y22645722D02*
X28995798Y22592503D01*
X28995798Y22592503D02*
X28995798Y22525979D01*
X28995798Y22525979D02*
X29009103Y22472760D01*
X29009103Y22472760D02*
X29022408Y22446150D01*
X29022408Y22446150D02*
X29035713Y22432845D01*
X29035713Y22432845D02*
X29062322Y22419541D01*
X29062322Y22419541D02*
X29088932Y22419541D01*
X29088932Y22419541D02*
X29115541Y22432845D01*
X29115541Y22432845D02*
X29128846Y22446150D01*
X29128846Y22446150D02*
X29142151Y22472760D01*
X29142151Y22472760D02*
X29155455Y22525979D01*
X29155455Y22525979D02*
X29155455Y22592503D01*
X29155455Y22592503D02*
X29142151Y22645722D01*
X29142151Y22645722D02*
X29128846Y22672331D01*
X29128846Y22672331D02*
X29115541Y22685636D01*
X29115541Y22685636D02*
X29088932Y22698941D01*
X23127989Y23296150D02*
X23141293Y23282845D01*
X23141293Y23282845D02*
X23181208Y23269541D01*
X23181208Y23269541D02*
X23207817Y23269541D01*
X23207817Y23269541D02*
X23247731Y23282845D01*
X23247731Y23282845D02*
X23274341Y23309455D01*
X23274341Y23309455D02*
X23287646Y23336065D01*
X23287646Y23336065D02*
X23300950Y23389284D01*
X23300950Y23389284D02*
X23300950Y23429198D01*
X23300950Y23429198D02*
X23287646Y23482417D01*
X23287646Y23482417D02*
X23274341Y23509026D01*
X23274341Y23509026D02*
X23247731Y23535636D01*
X23247731Y23535636D02*
X23207817Y23548941D01*
X23207817Y23548941D02*
X23181208Y23548941D01*
X23181208Y23548941D02*
X23141293Y23535636D01*
X23141293Y23535636D02*
X23127989Y23522331D01*
X22861893Y23269541D02*
X23021550Y23269541D01*
X22941722Y23269541D02*
X22941722Y23548941D01*
X22941722Y23548941D02*
X22968331Y23509026D01*
X22968331Y23509026D02*
X22994941Y23482417D01*
X22994941Y23482417D02*
X23021550Y23469112D01*
X22609103Y23548941D02*
X22742151Y23548941D01*
X22742151Y23548941D02*
X22755455Y23415893D01*
X22755455Y23415893D02*
X22742151Y23429198D01*
X22742151Y23429198D02*
X22715541Y23442503D01*
X22715541Y23442503D02*
X22649017Y23442503D01*
X22649017Y23442503D02*
X22622408Y23429198D01*
X22622408Y23429198D02*
X22609103Y23415893D01*
X22609103Y23415893D02*
X22595798Y23389284D01*
X22595798Y23389284D02*
X22595798Y23322760D01*
X22595798Y23322760D02*
X22609103Y23296150D01*
X22609103Y23296150D02*
X22622408Y23282845D01*
X22622408Y23282845D02*
X22649017Y23269541D01*
X22649017Y23269541D02*
X22715541Y23269541D01*
X22715541Y23269541D02*
X22742151Y23282845D01*
X22742151Y23282845D02*
X22755455Y23296150D01*
X28047388Y29574778D02*
X28060693Y29588082D01*
X28060693Y29588082D02*
X28073997Y29627997D01*
X28073997Y29627997D02*
X28073997Y29654606D01*
X28073997Y29654606D02*
X28060693Y29694520D01*
X28060693Y29694520D02*
X28034083Y29721130D01*
X28034083Y29721130D02*
X28007473Y29734435D01*
X28007473Y29734435D02*
X27954254Y29747739D01*
X27954254Y29747739D02*
X27914340Y29747739D01*
X27914340Y29747739D02*
X27861121Y29734435D01*
X27861121Y29734435D02*
X27834512Y29721130D01*
X27834512Y29721130D02*
X27807902Y29694520D01*
X27807902Y29694520D02*
X27794597Y29654606D01*
X27794597Y29654606D02*
X27794597Y29627997D01*
X27794597Y29627997D02*
X27807902Y29588082D01*
X27807902Y29588082D02*
X27821207Y29574778D01*
X28073997Y29308682D02*
X28073997Y29468339D01*
X28073997Y29388511D02*
X27794597Y29388511D01*
X27794597Y29388511D02*
X27834512Y29415120D01*
X27834512Y29415120D02*
X27861121Y29441730D01*
X27861121Y29441730D02*
X27874426Y29468339D01*
X27794597Y29069197D02*
X27794597Y29122416D01*
X27794597Y29122416D02*
X27807902Y29149025D01*
X27807902Y29149025D02*
X27821207Y29162330D01*
X27821207Y29162330D02*
X27861121Y29188940D01*
X27861121Y29188940D02*
X27914340Y29202244D01*
X27914340Y29202244D02*
X28020778Y29202244D01*
X28020778Y29202244D02*
X28047388Y29188940D01*
X28047388Y29188940D02*
X28060693Y29175635D01*
X28060693Y29175635D02*
X28073997Y29149025D01*
X28073997Y29149025D02*
X28073997Y29095806D01*
X28073997Y29095806D02*
X28060693Y29069197D01*
X28060693Y29069197D02*
X28047388Y29055892D01*
X28047388Y29055892D02*
X28020778Y29042587D01*
X28020778Y29042587D02*
X27954254Y29042587D01*
X27954254Y29042587D02*
X27927645Y29055892D01*
X27927645Y29055892D02*
X27914340Y29069197D01*
X27914340Y29069197D02*
X27901035Y29095806D01*
X27901035Y29095806D02*
X27901035Y29149025D01*
X27901035Y29149025D02*
X27914340Y29175635D01*
X27914340Y29175635D02*
X27927645Y29188940D01*
X27927645Y29188940D02*
X27954254Y29202244D01*
X33410934Y29074778D02*
X33424239Y29088082D01*
X33424239Y29088082D02*
X33437543Y29127997D01*
X33437543Y29127997D02*
X33437543Y29154606D01*
X33437543Y29154606D02*
X33424239Y29194520D01*
X33424239Y29194520D02*
X33397629Y29221130D01*
X33397629Y29221130D02*
X33371019Y29234435D01*
X33371019Y29234435D02*
X33317800Y29247739D01*
X33317800Y29247739D02*
X33277886Y29247739D01*
X33277886Y29247739D02*
X33224667Y29234435D01*
X33224667Y29234435D02*
X33198058Y29221130D01*
X33198058Y29221130D02*
X33171448Y29194520D01*
X33171448Y29194520D02*
X33158143Y29154606D01*
X33158143Y29154606D02*
X33158143Y29127997D01*
X33158143Y29127997D02*
X33171448Y29088082D01*
X33171448Y29088082D02*
X33184753Y29074778D01*
X33437543Y28808682D02*
X33437543Y28968339D01*
X33437543Y28888511D02*
X33158143Y28888511D01*
X33158143Y28888511D02*
X33198058Y28915120D01*
X33198058Y28915120D02*
X33224667Y28941730D01*
X33224667Y28941730D02*
X33237972Y28968339D01*
X33251277Y28569197D02*
X33437543Y28569197D01*
X33144839Y28635721D02*
X33344410Y28702244D01*
X33344410Y28702244D02*
X33344410Y28529283D01*
X29127989Y25296150D02*
X29141293Y25282845D01*
X29141293Y25282845D02*
X29181208Y25269541D01*
X29181208Y25269541D02*
X29207817Y25269541D01*
X29207817Y25269541D02*
X29247731Y25282845D01*
X29247731Y25282845D02*
X29274341Y25309455D01*
X29274341Y25309455D02*
X29287646Y25336065D01*
X29287646Y25336065D02*
X29300950Y25389284D01*
X29300950Y25389284D02*
X29300950Y25429198D01*
X29300950Y25429198D02*
X29287646Y25482417D01*
X29287646Y25482417D02*
X29274341Y25509026D01*
X29274341Y25509026D02*
X29247731Y25535636D01*
X29247731Y25535636D02*
X29207817Y25548941D01*
X29207817Y25548941D02*
X29181208Y25548941D01*
X29181208Y25548941D02*
X29141293Y25535636D01*
X29141293Y25535636D02*
X29127989Y25522331D01*
X28861893Y25269541D02*
X29021550Y25269541D01*
X28941722Y25269541D02*
X28941722Y25548941D01*
X28941722Y25548941D02*
X28968331Y25509026D01*
X28968331Y25509026D02*
X28994941Y25482417D01*
X28994941Y25482417D02*
X29021550Y25469112D01*
X28702236Y25429198D02*
X28728846Y25442503D01*
X28728846Y25442503D02*
X28742151Y25455807D01*
X28742151Y25455807D02*
X28755455Y25482417D01*
X28755455Y25482417D02*
X28755455Y25495722D01*
X28755455Y25495722D02*
X28742151Y25522331D01*
X28742151Y25522331D02*
X28728846Y25535636D01*
X28728846Y25535636D02*
X28702236Y25548941D01*
X28702236Y25548941D02*
X28649017Y25548941D01*
X28649017Y25548941D02*
X28622408Y25535636D01*
X28622408Y25535636D02*
X28609103Y25522331D01*
X28609103Y25522331D02*
X28595798Y25495722D01*
X28595798Y25495722D02*
X28595798Y25482417D01*
X28595798Y25482417D02*
X28609103Y25455807D01*
X28609103Y25455807D02*
X28622408Y25442503D01*
X28622408Y25442503D02*
X28649017Y25429198D01*
X28649017Y25429198D02*
X28702236Y25429198D01*
X28702236Y25429198D02*
X28728846Y25415893D01*
X28728846Y25415893D02*
X28742151Y25402588D01*
X28742151Y25402588D02*
X28755455Y25375979D01*
X28755455Y25375979D02*
X28755455Y25322760D01*
X28755455Y25322760D02*
X28742151Y25296150D01*
X28742151Y25296150D02*
X28728846Y25282845D01*
X28728846Y25282845D02*
X28702236Y25269541D01*
X28702236Y25269541D02*
X28649017Y25269541D01*
X28649017Y25269541D02*
X28622408Y25282845D01*
X28622408Y25282845D02*
X28609103Y25296150D01*
X28609103Y25296150D02*
X28595798Y25322760D01*
X28595798Y25322760D02*
X28595798Y25375979D01*
X28595798Y25375979D02*
X28609103Y25402588D01*
X28609103Y25402588D02*
X28622408Y25415893D01*
X28622408Y25415893D02*
X28649017Y25429198D01*
X39620907Y53282845D02*
X39580993Y53269541D01*
X39580993Y53269541D02*
X39514469Y53269541D01*
X39514469Y53269541D02*
X39487860Y53282845D01*
X39487860Y53282845D02*
X39474555Y53296150D01*
X39474555Y53296150D02*
X39461250Y53322760D01*
X39461250Y53322760D02*
X39461250Y53349369D01*
X39461250Y53349369D02*
X39474555Y53375979D01*
X39474555Y53375979D02*
X39487860Y53389284D01*
X39487860Y53389284D02*
X39514469Y53402588D01*
X39514469Y53402588D02*
X39567688Y53415893D01*
X39567688Y53415893D02*
X39594298Y53429198D01*
X39594298Y53429198D02*
X39607603Y53442503D01*
X39607603Y53442503D02*
X39620907Y53469112D01*
X39620907Y53469112D02*
X39620907Y53495722D01*
X39620907Y53495722D02*
X39607603Y53522331D01*
X39607603Y53522331D02*
X39594298Y53535636D01*
X39594298Y53535636D02*
X39567688Y53548941D01*
X39567688Y53548941D02*
X39501165Y53548941D01*
X39501165Y53548941D02*
X39461250Y53535636D01*
X39368117Y53548941D02*
X39301593Y53269541D01*
X39301593Y53269541D02*
X39248374Y53469112D01*
X39248374Y53469112D02*
X39195155Y53269541D01*
X39195155Y53269541D02*
X39128632Y53548941D01*
X39035498Y53522331D02*
X39022194Y53535636D01*
X39022194Y53535636D02*
X38995584Y53548941D01*
X38995584Y53548941D02*
X38929060Y53548941D01*
X38929060Y53548941D02*
X38902451Y53535636D01*
X38902451Y53535636D02*
X38889146Y53522331D01*
X38889146Y53522331D02*
X38875841Y53495722D01*
X38875841Y53495722D02*
X38875841Y53469112D01*
X38875841Y53469112D02*
X38889146Y53429198D01*
X38889146Y53429198D02*
X39048803Y53269541D01*
X39048803Y53269541D02*
X38875841Y53269541D01*
X27197388Y23204778D02*
X27210693Y23218082D01*
X27210693Y23218082D02*
X27223997Y23257997D01*
X27223997Y23257997D02*
X27223997Y23284606D01*
X27223997Y23284606D02*
X27210693Y23324520D01*
X27210693Y23324520D02*
X27184083Y23351130D01*
X27184083Y23351130D02*
X27157473Y23364435D01*
X27157473Y23364435D02*
X27104254Y23377739D01*
X27104254Y23377739D02*
X27064340Y23377739D01*
X27064340Y23377739D02*
X27011121Y23364435D01*
X27011121Y23364435D02*
X26984512Y23351130D01*
X26984512Y23351130D02*
X26957902Y23324520D01*
X26957902Y23324520D02*
X26944597Y23284606D01*
X26944597Y23284606D02*
X26944597Y23257997D01*
X26944597Y23257997D02*
X26957902Y23218082D01*
X26957902Y23218082D02*
X26971207Y23204778D01*
X27223997Y22938682D02*
X27223997Y23098339D01*
X27223997Y23018511D02*
X26944597Y23018511D01*
X26944597Y23018511D02*
X26984512Y23045120D01*
X26984512Y23045120D02*
X27011121Y23071730D01*
X27011121Y23071730D02*
X27024426Y23098339D01*
X26944597Y22765721D02*
X26944597Y22739111D01*
X26944597Y22739111D02*
X26957902Y22712502D01*
X26957902Y22712502D02*
X26971207Y22699197D01*
X26971207Y22699197D02*
X26997816Y22685892D01*
X26997816Y22685892D02*
X27051035Y22672587D01*
X27051035Y22672587D02*
X27117559Y22672587D01*
X27117559Y22672587D02*
X27170778Y22685892D01*
X27170778Y22685892D02*
X27197388Y22699197D01*
X27197388Y22699197D02*
X27210693Y22712502D01*
X27210693Y22712502D02*
X27223997Y22739111D01*
X27223997Y22739111D02*
X27223997Y22765721D01*
X27223997Y22765721D02*
X27210693Y22792330D01*
X27210693Y22792330D02*
X27197388Y22805635D01*
X27197388Y22805635D02*
X27170778Y22818940D01*
X27170778Y22818940D02*
X27117559Y22832244D01*
X27117559Y22832244D02*
X27051035Y22832244D01*
X27051035Y22832244D02*
X26997816Y22818940D01*
X26997816Y22818940D02*
X26971207Y22805635D01*
X26971207Y22805635D02*
X26957902Y22792330D01*
X26957902Y22792330D02*
X26944597Y22765721D01*
D11*
X78656234Y60152825D02*
X78656234Y57152825D01*
X84656234Y60152825D02*
X78656234Y60152825D01*
X76956234Y57152825D02*
X78656234Y57152825D01*
X78656234Y57152825D02*
X79406234Y57152825D01*
X79406234Y57152825D02*
X79406234Y55852825D01*
X83906234Y57152825D02*
X84656234Y57152825D01*
X84656234Y57152825D02*
X84656234Y60152825D01*
X84656234Y57152825D02*
X85956234Y57152825D01*
X85956234Y57152825D02*
X85956234Y55402825D01*
X79406234Y55852825D02*
X83906234Y55852825D01*
X83906234Y55852825D02*
X83906234Y57152825D01*
X76956234Y55452825D02*
X76956234Y57152825D01*
X76956234Y53052825D02*
X76956234Y46152825D01*
X85956234Y50152825D02*
X85956234Y53202825D01*
X76956234Y46152825D02*
X78956234Y46152825D01*
X81306234Y46152825D02*
X85956234Y46152825D01*
X85956234Y46152825D02*
X85956234Y48252825D01*
D12*
X76356234Y55652825D02*
G75*
G02*
X75956234Y55652825I-200000J0D01*
G01*
X75956234Y55652825D02*
G75*
G02*
X76356234Y55652825I200000J0D01*
G01*
D13*
X28168375Y33218804D02*
X28168375Y32911522D01*
X28928375Y33218804D02*
X28928375Y32911522D01*
X55263375Y38656415D02*
X55263375Y38133911D01*
X56733375Y38656415D02*
X56733375Y38133911D01*
X23886084Y29869275D02*
X23886084Y29653603D01*
X24606084Y29869275D02*
X24606084Y29653603D01*
X56288375Y56517663D02*
X58208375Y56517663D01*
X56288375Y53832663D02*
X56288375Y56517663D01*
X58208375Y56517663D02*
X58208375Y53832663D01*
X47868375Y52741522D02*
X47868375Y53048804D01*
X48628375Y52741522D02*
X48628375Y53048804D01*
X29388375Y29502999D02*
X29388375Y29287327D01*
X30108375Y29502999D02*
X30108375Y29287327D01*
X59594734Y52712663D02*
X59902016Y52712663D01*
X59594734Y51952663D02*
X59902016Y51952663D01*
X24788375Y23287327D02*
X24788375Y23502999D01*
X25508375Y23287327D02*
X25508375Y23502999D01*
X50368375Y52741522D02*
X50368375Y53048804D01*
X51128375Y52741522D02*
X51128375Y53048804D01*
X32402016Y31775163D02*
X32094734Y31775163D01*
X32402016Y31015163D02*
X32094734Y31015163D01*
X62509627Y39640163D02*
X61987123Y39640163D01*
X62509627Y38170163D02*
X61987123Y38170163D01*
X57094734Y52712663D02*
X57402016Y52712663D01*
X57094734Y51952663D02*
X57402016Y51952663D01*
X22560539Y28655163D02*
X22776211Y28655163D01*
X22560539Y27935163D02*
X22776211Y27935163D01*
X57588375Y47555163D02*
X57588375Y46295163D01*
X57588375Y40735163D02*
X57588375Y41995163D01*
X61348375Y47555163D02*
X57588375Y47555163D01*
X61348375Y40735163D02*
X57588375Y40735163D01*
X62628375Y47455163D02*
X62388375Y47785163D01*
X62868375Y47785163D01*
X62628375Y47455163D01*
G36*
X62628375Y47455163D02*
G01*
X62388375Y47785163D01*
X62868375Y47785163D01*
X62628375Y47455163D01*
G37*
X25538375Y29502999D02*
X25538375Y29287327D01*
X26258375Y29502999D02*
X26258375Y29287327D01*
X33868375Y54548804D02*
X33868375Y54241522D01*
X34628375Y54548804D02*
X34628375Y54241522D01*
X58788375Y56517663D02*
X60708375Y56517663D01*
X58788375Y53832663D02*
X58788375Y56517663D01*
X60708375Y56517663D02*
X60708375Y53832663D01*
X28856211Y27255163D02*
X28640539Y27255163D01*
X28856211Y26535163D02*
X28640539Y26535163D01*
X22640539Y25755163D02*
X22856211Y25755163D01*
X22640539Y25035163D02*
X22856211Y25035163D01*
X26868375Y35048804D02*
X26868375Y34741522D01*
X27628375Y35048804D02*
X27628375Y34741522D01*
X22540539Y27655163D02*
X22756211Y27655163D01*
X22540539Y26935163D02*
X22756211Y26935163D01*
X29256211Y22905163D02*
X29040539Y22905163D01*
X29256211Y22185163D02*
X29040539Y22185163D01*
X36840275Y50236641D02*
X36840275Y50186641D01*
X36840275Y48536641D02*
X36840275Y47036641D01*
X36840275Y45336641D02*
X36840275Y45386641D01*
X41740275Y50236641D02*
X36840275Y50236641D01*
X41740275Y50236641D02*
X41740275Y50186641D01*
X41740275Y48536641D02*
X41740275Y47036641D01*
X41740275Y45336641D02*
X36840275Y45336641D01*
X41740275Y45336641D02*
X41740275Y45386641D01*
X22640539Y23755163D02*
X22856211Y23755163D01*
X22640539Y23035163D02*
X22856211Y23035163D01*
X27388375Y29502999D02*
X27388375Y29287327D01*
X28108375Y29502999D02*
X28108375Y29287327D01*
X32743375Y29156415D02*
X32743375Y28633911D01*
X34213375Y29156415D02*
X34213375Y28633911D01*
X28856211Y25755163D02*
X28640539Y25755163D01*
X28856211Y25035163D02*
X28640539Y25035163D01*
X36798375Y55835163D02*
X36798375Y55785163D01*
X36798375Y54135163D02*
X36798375Y52635163D01*
X36798375Y50935163D02*
X36798375Y50985163D01*
X41698375Y55835163D02*
X36798375Y55835163D01*
X41698375Y55835163D02*
X41698375Y55785163D01*
X41698375Y54135163D02*
X41698375Y52635163D01*
X41698375Y50935163D02*
X36798375Y50935163D01*
X41698375Y50935163D02*
X41698375Y50985163D01*
X26538375Y22917327D02*
X26538375Y23132999D01*
X27258375Y22917327D02*
X27258375Y23132999D01*
M02*
