G04 #@! TF.GenerationSoftware,KiCad,Pcbnew,9.0.6*
G04 #@! TF.CreationDate,2025-11-14T16:52:17-05:00*
G04 #@! TF.ProjectId,Proton,50726f74-6f6e-42e6-9b69-6361645f7063,REV3*
G04 #@! TF.SameCoordinates,PX71ba2a9PY5a7fc3b*
G04 #@! TF.FileFunction,Legend,Top*
G04 #@! TF.FilePolarity,Positive*
%FSLAX46Y46*%
G04 Gerber Fmt 4.6, Leading zero omitted, Abs format (unit mm)*
G04 Created by KiCad (PCBNEW 9.0.6) date 2025-11-14 16:52:17*
%MOMM*%
%LPD*%
G01*
G04 APERTURE LIST*
%ADD10C,0.076200*%
%ADD11C,0.889000*%
%ADD12C,0.150000*%
%ADD13C,0.069850*%
%ADD14C,0.120000*%
%ADD15C,0.191421*%
%ADD16C,0.152400*%
G04 APERTURE END LIST*
D10*
X70145267Y6735486D02*
X70217839Y6711296D01*
X70217839Y6711296D02*
X70338791Y6711296D01*
X70338791Y6711296D02*
X70387172Y6735486D01*
X70387172Y6735486D02*
X70411363Y6759677D01*
X70411363Y6759677D02*
X70435553Y6808058D01*
X70435553Y6808058D02*
X70435553Y6856439D01*
X70435553Y6856439D02*
X70411363Y6904820D01*
X70411363Y6904820D02*
X70387172Y6929010D01*
X70387172Y6929010D02*
X70338791Y6953201D01*
X70338791Y6953201D02*
X70242029Y6977391D01*
X70242029Y6977391D02*
X70193648Y7001582D01*
X70193648Y7001582D02*
X70169458Y7025772D01*
X70169458Y7025772D02*
X70145267Y7074153D01*
X70145267Y7074153D02*
X70145267Y7122534D01*
X70145267Y7122534D02*
X70169458Y7170915D01*
X70169458Y7170915D02*
X70193648Y7195106D01*
X70193648Y7195106D02*
X70242029Y7219296D01*
X70242029Y7219296D02*
X70362982Y7219296D01*
X70362982Y7219296D02*
X70435553Y7195106D01*
X70653268Y6711296D02*
X70653268Y7049963D01*
X70653268Y7219296D02*
X70629077Y7195106D01*
X70629077Y7195106D02*
X70653268Y7170915D01*
X70653268Y7170915D02*
X70677458Y7195106D01*
X70677458Y7195106D02*
X70653268Y7219296D01*
X70653268Y7219296D02*
X70653268Y7170915D01*
X71112887Y7049963D02*
X71112887Y6711296D01*
X70991935Y7243486D02*
X70870982Y6880629D01*
X70870982Y6880629D02*
X71185459Y6880629D01*
X71330602Y7219296D02*
X71669269Y7219296D01*
X71669269Y7219296D02*
X71451554Y6711296D01*
X71959555Y7219296D02*
X72007936Y7219296D01*
X72007936Y7219296D02*
X72056317Y7195106D01*
X72056317Y7195106D02*
X72080507Y7170915D01*
X72080507Y7170915D02*
X72104698Y7122534D01*
X72104698Y7122534D02*
X72128888Y7025772D01*
X72128888Y7025772D02*
X72128888Y6904820D01*
X72128888Y6904820D02*
X72104698Y6808058D01*
X72104698Y6808058D02*
X72080507Y6759677D01*
X72080507Y6759677D02*
X72056317Y6735486D01*
X72056317Y6735486D02*
X72007936Y6711296D01*
X72007936Y6711296D02*
X71959555Y6711296D01*
X71959555Y6711296D02*
X71911174Y6735486D01*
X71911174Y6735486D02*
X71886983Y6759677D01*
X71886983Y6759677D02*
X71862793Y6808058D01*
X71862793Y6808058D02*
X71838602Y6904820D01*
X71838602Y6904820D02*
X71838602Y7025772D01*
X71838602Y7025772D02*
X71862793Y7122534D01*
X71862793Y7122534D02*
X71886983Y7170915D01*
X71886983Y7170915D02*
X71911174Y7195106D01*
X71911174Y7195106D02*
X71959555Y7219296D01*
X72298222Y7219296D02*
X72612698Y7219296D01*
X72612698Y7219296D02*
X72443365Y7025772D01*
X72443365Y7025772D02*
X72515936Y7025772D01*
X72515936Y7025772D02*
X72564317Y7001582D01*
X72564317Y7001582D02*
X72588508Y6977391D01*
X72588508Y6977391D02*
X72612698Y6929010D01*
X72612698Y6929010D02*
X72612698Y6808058D01*
X72612698Y6808058D02*
X72588508Y6759677D01*
X72588508Y6759677D02*
X72564317Y6735486D01*
X72564317Y6735486D02*
X72515936Y6711296D01*
X72515936Y6711296D02*
X72370793Y6711296D01*
X72370793Y6711296D02*
X72322412Y6735486D01*
X72322412Y6735486D02*
X72298222Y6759677D01*
X9209744Y53211296D02*
X9040410Y53453201D01*
X8919458Y53211296D02*
X8919458Y53719296D01*
X8919458Y53719296D02*
X9112982Y53719296D01*
X9112982Y53719296D02*
X9161363Y53695106D01*
X9161363Y53695106D02*
X9185553Y53670915D01*
X9185553Y53670915D02*
X9209744Y53622534D01*
X9209744Y53622534D02*
X9209744Y53549963D01*
X9209744Y53549963D02*
X9185553Y53501582D01*
X9185553Y53501582D02*
X9161363Y53477391D01*
X9161363Y53477391D02*
X9112982Y53453201D01*
X9112982Y53453201D02*
X8919458Y53453201D01*
X9379077Y53719296D02*
X9717744Y53211296D01*
X9717744Y53719296D02*
X9379077Y53211296D01*
X20459744Y51461296D02*
X20290410Y51703201D01*
X20169458Y51461296D02*
X20169458Y51969296D01*
X20169458Y51969296D02*
X20362982Y51969296D01*
X20362982Y51969296D02*
X20411363Y51945106D01*
X20411363Y51945106D02*
X20435553Y51920915D01*
X20435553Y51920915D02*
X20459744Y51872534D01*
X20459744Y51872534D02*
X20459744Y51799963D01*
X20459744Y51799963D02*
X20435553Y51751582D01*
X20435553Y51751582D02*
X20411363Y51727391D01*
X20411363Y51727391D02*
X20362982Y51703201D01*
X20362982Y51703201D02*
X20169458Y51703201D01*
X20774220Y51969296D02*
X20870982Y51969296D01*
X20870982Y51969296D02*
X20919363Y51945106D01*
X20919363Y51945106D02*
X20967744Y51896725D01*
X20967744Y51896725D02*
X20991934Y51799963D01*
X20991934Y51799963D02*
X20991934Y51630629D01*
X20991934Y51630629D02*
X20967744Y51533867D01*
X20967744Y51533867D02*
X20919363Y51485486D01*
X20919363Y51485486D02*
X20870982Y51461296D01*
X20870982Y51461296D02*
X20774220Y51461296D01*
X20774220Y51461296D02*
X20725839Y51485486D01*
X20725839Y51485486D02*
X20677458Y51533867D01*
X20677458Y51533867D02*
X20653267Y51630629D01*
X20653267Y51630629D02*
X20653267Y51799963D01*
X20653267Y51799963D02*
X20677458Y51896725D01*
X20677458Y51896725D02*
X20725839Y51945106D01*
X20725839Y51945106D02*
X20774220Y51969296D01*
X21137076Y51969296D02*
X21427362Y51969296D01*
X21282219Y51461296D02*
X21282219Y51969296D01*
X21572505Y51606439D02*
X21814410Y51606439D01*
X21524124Y51461296D02*
X21693458Y51969296D01*
X21693458Y51969296D02*
X21862791Y51461296D01*
X22322411Y51461296D02*
X22153077Y51703201D01*
X22032125Y51461296D02*
X22032125Y51969296D01*
X22032125Y51969296D02*
X22225649Y51969296D01*
X22225649Y51969296D02*
X22274030Y51945106D01*
X22274030Y51945106D02*
X22298220Y51920915D01*
X22298220Y51920915D02*
X22322411Y51872534D01*
X22322411Y51872534D02*
X22322411Y51799963D01*
X22322411Y51799963D02*
X22298220Y51751582D01*
X22298220Y51751582D02*
X22274030Y51727391D01*
X22274030Y51727391D02*
X22225649Y51703201D01*
X22225649Y51703201D02*
X22032125Y51703201D01*
X22636887Y51703201D02*
X22636887Y51461296D01*
X22467553Y51969296D02*
X22636887Y51703201D01*
X22636887Y51703201D02*
X22806220Y51969296D01*
X23362602Y51727391D02*
X23531935Y51727391D01*
X23604507Y51461296D02*
X23362602Y51461296D01*
X23362602Y51461296D02*
X23362602Y51969296D01*
X23362602Y51969296D02*
X23604507Y51969296D01*
X23822221Y51461296D02*
X23822221Y51969296D01*
X23822221Y51969296D02*
X24112507Y51461296D01*
X24112507Y51461296D02*
X24112507Y51969296D01*
X24644697Y51509677D02*
X24620506Y51485486D01*
X24620506Y51485486D02*
X24547935Y51461296D01*
X24547935Y51461296D02*
X24499554Y51461296D01*
X24499554Y51461296D02*
X24426982Y51485486D01*
X24426982Y51485486D02*
X24378601Y51533867D01*
X24378601Y51533867D02*
X24354411Y51582248D01*
X24354411Y51582248D02*
X24330220Y51679010D01*
X24330220Y51679010D02*
X24330220Y51751582D01*
X24330220Y51751582D02*
X24354411Y51848344D01*
X24354411Y51848344D02*
X24378601Y51896725D01*
X24378601Y51896725D02*
X24426982Y51945106D01*
X24426982Y51945106D02*
X24499554Y51969296D01*
X24499554Y51969296D02*
X24547935Y51969296D01*
X24547935Y51969296D02*
X24620506Y51945106D01*
X24620506Y51945106D02*
X24644697Y51920915D01*
X24959173Y51969296D02*
X25055935Y51969296D01*
X25055935Y51969296D02*
X25104316Y51945106D01*
X25104316Y51945106D02*
X25152697Y51896725D01*
X25152697Y51896725D02*
X25176887Y51799963D01*
X25176887Y51799963D02*
X25176887Y51630629D01*
X25176887Y51630629D02*
X25152697Y51533867D01*
X25152697Y51533867D02*
X25104316Y51485486D01*
X25104316Y51485486D02*
X25055935Y51461296D01*
X25055935Y51461296D02*
X24959173Y51461296D01*
X24959173Y51461296D02*
X24910792Y51485486D01*
X24910792Y51485486D02*
X24862411Y51533867D01*
X24862411Y51533867D02*
X24838220Y51630629D01*
X24838220Y51630629D02*
X24838220Y51799963D01*
X24838220Y51799963D02*
X24862411Y51896725D01*
X24862411Y51896725D02*
X24910792Y51945106D01*
X24910792Y51945106D02*
X24959173Y51969296D01*
X25394601Y51461296D02*
X25394601Y51969296D01*
X25394601Y51969296D02*
X25515553Y51969296D01*
X25515553Y51969296D02*
X25588125Y51945106D01*
X25588125Y51945106D02*
X25636506Y51896725D01*
X25636506Y51896725D02*
X25660696Y51848344D01*
X25660696Y51848344D02*
X25684887Y51751582D01*
X25684887Y51751582D02*
X25684887Y51679010D01*
X25684887Y51679010D02*
X25660696Y51582248D01*
X25660696Y51582248D02*
X25636506Y51533867D01*
X25636506Y51533867D02*
X25588125Y51485486D01*
X25588125Y51485486D02*
X25515553Y51461296D01*
X25515553Y51461296D02*
X25394601Y51461296D01*
X25902601Y51727391D02*
X26071934Y51727391D01*
X26144506Y51461296D02*
X25902601Y51461296D01*
X25902601Y51461296D02*
X25902601Y51969296D01*
X25902601Y51969296D02*
X26144506Y51969296D01*
X26652506Y51461296D02*
X26483172Y51703201D01*
X26362220Y51461296D02*
X26362220Y51969296D01*
X26362220Y51969296D02*
X26555744Y51969296D01*
X26555744Y51969296D02*
X26604125Y51945106D01*
X26604125Y51945106D02*
X26628315Y51920915D01*
X26628315Y51920915D02*
X26652506Y51872534D01*
X26652506Y51872534D02*
X26652506Y51799963D01*
X26652506Y51799963D02*
X26628315Y51751582D01*
X26628315Y51751582D02*
X26604125Y51727391D01*
X26604125Y51727391D02*
X26555744Y51703201D01*
X26555744Y51703201D02*
X26362220Y51703201D01*
X1738718Y10566247D02*
X1738718Y10953294D01*
X1932242Y10759771D02*
X1545194Y10759771D01*
X1424242Y11146818D02*
X1424242Y11461294D01*
X1424242Y11461294D02*
X1617766Y11291961D01*
X1617766Y11291961D02*
X1617766Y11364532D01*
X1617766Y11364532D02*
X1641956Y11412913D01*
X1641956Y11412913D02*
X1666147Y11437104D01*
X1666147Y11437104D02*
X1714528Y11461294D01*
X1714528Y11461294D02*
X1835480Y11461294D01*
X1835480Y11461294D02*
X1883861Y11437104D01*
X1883861Y11437104D02*
X1908052Y11412913D01*
X1908052Y11412913D02*
X1932242Y11364532D01*
X1932242Y11364532D02*
X1932242Y11219389D01*
X1932242Y11219389D02*
X1908052Y11171008D01*
X1908052Y11171008D02*
X1883861Y11146818D01*
X1883861Y11679009D02*
X1908052Y11703199D01*
X1908052Y11703199D02*
X1932242Y11679009D01*
X1932242Y11679009D02*
X1908052Y11654818D01*
X1908052Y11654818D02*
X1883861Y11679009D01*
X1883861Y11679009D02*
X1932242Y11679009D01*
X1424242Y11872533D02*
X1424242Y12187009D01*
X1424242Y12187009D02*
X1617766Y12017676D01*
X1617766Y12017676D02*
X1617766Y12090247D01*
X1617766Y12090247D02*
X1641956Y12138628D01*
X1641956Y12138628D02*
X1666147Y12162819D01*
X1666147Y12162819D02*
X1714528Y12187009D01*
X1714528Y12187009D02*
X1835480Y12187009D01*
X1835480Y12187009D02*
X1883861Y12162819D01*
X1883861Y12162819D02*
X1908052Y12138628D01*
X1908052Y12138628D02*
X1932242Y12090247D01*
X1932242Y12090247D02*
X1932242Y11945104D01*
X1932242Y11945104D02*
X1908052Y11896723D01*
X1908052Y11896723D02*
X1883861Y11872533D01*
X1424242Y12332152D02*
X1932242Y12501486D01*
X1932242Y12501486D02*
X1424242Y12670819D01*
X38435553Y13445106D02*
X38387172Y13469296D01*
X38387172Y13469296D02*
X38314601Y13469296D01*
X38314601Y13469296D02*
X38242029Y13445106D01*
X38242029Y13445106D02*
X38193648Y13396725D01*
X38193648Y13396725D02*
X38169458Y13348344D01*
X38169458Y13348344D02*
X38145267Y13251582D01*
X38145267Y13251582D02*
X38145267Y13179010D01*
X38145267Y13179010D02*
X38169458Y13082248D01*
X38169458Y13082248D02*
X38193648Y13033867D01*
X38193648Y13033867D02*
X38242029Y12985486D01*
X38242029Y12985486D02*
X38314601Y12961296D01*
X38314601Y12961296D02*
X38362982Y12961296D01*
X38362982Y12961296D02*
X38435553Y12985486D01*
X38435553Y12985486D02*
X38459744Y13009677D01*
X38459744Y13009677D02*
X38459744Y13179010D01*
X38459744Y13179010D02*
X38362982Y13179010D01*
X38677458Y12961296D02*
X38677458Y13469296D01*
X38677458Y13469296D02*
X38967744Y12961296D01*
X38967744Y12961296D02*
X38967744Y13469296D01*
X39209648Y12961296D02*
X39209648Y13469296D01*
X39209648Y13469296D02*
X39330600Y13469296D01*
X39330600Y13469296D02*
X39403172Y13445106D01*
X39403172Y13445106D02*
X39451553Y13396725D01*
X39451553Y13396725D02*
X39475743Y13348344D01*
X39475743Y13348344D02*
X39499934Y13251582D01*
X39499934Y13251582D02*
X39499934Y13179010D01*
X39499934Y13179010D02*
X39475743Y13082248D01*
X39475743Y13082248D02*
X39451553Y13033867D01*
X39451553Y13033867D02*
X39403172Y12985486D01*
X39403172Y12985486D02*
X39330600Y12961296D01*
X39330600Y12961296D02*
X39209648Y12961296D01*
X62698432Y51582342D02*
X62674242Y51533961D01*
X62674242Y51533961D02*
X62674242Y51461390D01*
X62674242Y51461390D02*
X62698432Y51388818D01*
X62698432Y51388818D02*
X62746813Y51340437D01*
X62746813Y51340437D02*
X62795194Y51316247D01*
X62795194Y51316247D02*
X62891956Y51292056D01*
X62891956Y51292056D02*
X62964528Y51292056D01*
X62964528Y51292056D02*
X63061290Y51316247D01*
X63061290Y51316247D02*
X63109671Y51340437D01*
X63109671Y51340437D02*
X63158052Y51388818D01*
X63158052Y51388818D02*
X63182242Y51461390D01*
X63182242Y51461390D02*
X63182242Y51509771D01*
X63182242Y51509771D02*
X63158052Y51582342D01*
X63158052Y51582342D02*
X63133861Y51606533D01*
X63133861Y51606533D02*
X62964528Y51606533D01*
X62964528Y51606533D02*
X62964528Y51509771D01*
X63182242Y51824247D02*
X62674242Y51824247D01*
X62674242Y51824247D02*
X63182242Y52114533D01*
X63182242Y52114533D02*
X62674242Y52114533D01*
X63182242Y52356437D02*
X62674242Y52356437D01*
X62674242Y52356437D02*
X62674242Y52477389D01*
X62674242Y52477389D02*
X62698432Y52549961D01*
X62698432Y52549961D02*
X62746813Y52598342D01*
X62746813Y52598342D02*
X62795194Y52622532D01*
X62795194Y52622532D02*
X62891956Y52646723D01*
X62891956Y52646723D02*
X62964528Y52646723D01*
X62964528Y52646723D02*
X63061290Y52622532D01*
X63061290Y52622532D02*
X63109671Y52598342D01*
X63109671Y52598342D02*
X63158052Y52549961D01*
X63158052Y52549961D02*
X63182242Y52477389D01*
X63182242Y52477389D02*
X63182242Y52356437D01*
X7088791Y32227391D02*
X6919458Y32227391D01*
X6919458Y31961296D02*
X6919458Y32469296D01*
X6919458Y32469296D02*
X7161363Y32469296D01*
X7524220Y32227391D02*
X7596792Y32203201D01*
X7596792Y32203201D02*
X7620982Y32179010D01*
X7620982Y32179010D02*
X7645173Y32130629D01*
X7645173Y32130629D02*
X7645173Y32058058D01*
X7645173Y32058058D02*
X7620982Y32009677D01*
X7620982Y32009677D02*
X7596792Y31985486D01*
X7596792Y31985486D02*
X7548411Y31961296D01*
X7548411Y31961296D02*
X7354887Y31961296D01*
X7354887Y31961296D02*
X7354887Y32469296D01*
X7354887Y32469296D02*
X7524220Y32469296D01*
X7524220Y32469296D02*
X7572601Y32445106D01*
X7572601Y32445106D02*
X7596792Y32420915D01*
X7596792Y32420915D02*
X7620982Y32372534D01*
X7620982Y32372534D02*
X7620982Y32324153D01*
X7620982Y32324153D02*
X7596792Y32275772D01*
X7596792Y32275772D02*
X7572601Y32251582D01*
X7572601Y32251582D02*
X7524220Y32227391D01*
X7524220Y32227391D02*
X7354887Y32227391D01*
X7741935Y31912915D02*
X8128982Y31912915D01*
X8225744Y32420915D02*
X8249935Y32445106D01*
X8249935Y32445106D02*
X8298316Y32469296D01*
X8298316Y32469296D02*
X8419268Y32469296D01*
X8419268Y32469296D02*
X8467649Y32445106D01*
X8467649Y32445106D02*
X8491840Y32420915D01*
X8491840Y32420915D02*
X8516030Y32372534D01*
X8516030Y32372534D02*
X8516030Y32324153D01*
X8516030Y32324153D02*
X8491840Y32251582D01*
X8491840Y32251582D02*
X8201554Y31961296D01*
X8201554Y31961296D02*
X8516030Y31961296D01*
D11*
X58558957Y19467663D02*
X58558957Y18741949D01*
X60010385Y19467663D02*
X60010385Y18741949D01*
X61461814Y15839091D02*
X62006100Y15657663D01*
X62006100Y15657663D02*
X62913242Y15657663D01*
X62913242Y15657663D02*
X63276100Y15839091D01*
X63276100Y15839091D02*
X63457528Y16020520D01*
X63457528Y16020520D02*
X63638957Y16383377D01*
X63638957Y16383377D02*
X63638957Y16746234D01*
X63638957Y16746234D02*
X63457528Y17109091D01*
X63457528Y17109091D02*
X63276100Y17290520D01*
X63276100Y17290520D02*
X62913242Y17471949D01*
X62913242Y17471949D02*
X62187528Y17653377D01*
X62187528Y17653377D02*
X61824671Y17834806D01*
X61824671Y17834806D02*
X61643242Y18016234D01*
X61643242Y18016234D02*
X61461814Y18379091D01*
X61461814Y18379091D02*
X61461814Y18741949D01*
X61461814Y18741949D02*
X61643242Y19104806D01*
X61643242Y19104806D02*
X61824671Y19286234D01*
X61824671Y19286234D02*
X62187528Y19467663D01*
X62187528Y19467663D02*
X63094671Y19467663D01*
X63094671Y19467663D02*
X63638957Y19286234D01*
X65271813Y15657663D02*
X65271813Y19467663D01*
X65271813Y17653377D02*
X67448956Y17653377D01*
X67448956Y15657663D02*
X67448956Y19467663D01*
X69081814Y16746234D02*
X70896100Y16746234D01*
X68718957Y15657663D02*
X69988957Y19467663D01*
X69988957Y19467663D02*
X71258957Y15657663D01*
X73798956Y17653377D02*
X74343242Y17471949D01*
X74343242Y17471949D02*
X74524671Y17290520D01*
X74524671Y17290520D02*
X74706099Y16927663D01*
X74706099Y16927663D02*
X74706099Y16383377D01*
X74706099Y16383377D02*
X74524671Y16020520D01*
X74524671Y16020520D02*
X74343242Y15839091D01*
X74343242Y15839091D02*
X73980385Y15657663D01*
X73980385Y15657663D02*
X72528956Y15657663D01*
X72528956Y15657663D02*
X72528956Y19467663D01*
X72528956Y19467663D02*
X73798956Y19467663D01*
X73798956Y19467663D02*
X74161814Y19286234D01*
X74161814Y19286234D02*
X74343242Y19104806D01*
X74343242Y19104806D02*
X74524671Y18741949D01*
X74524671Y18741949D02*
X74524671Y18379091D01*
X74524671Y18379091D02*
X74343242Y18016234D01*
X74343242Y18016234D02*
X74161814Y17834806D01*
X74161814Y17834806D02*
X73798956Y17653377D01*
X73798956Y17653377D02*
X72528956Y17653377D01*
X76157528Y16746234D02*
X77971814Y16746234D01*
X75794671Y15657663D02*
X77064671Y19467663D01*
X77064671Y19467663D02*
X78334671Y15657663D01*
X79604670Y15657663D02*
X79604670Y19467663D01*
X79604670Y19467663D02*
X81781813Y15657663D01*
X81781813Y15657663D02*
X81781813Y19467663D01*
X85591814Y19286234D02*
X85228957Y19467663D01*
X85228957Y19467663D02*
X84684671Y19467663D01*
X84684671Y19467663D02*
X84140385Y19286234D01*
X84140385Y19286234D02*
X83777528Y18923377D01*
X83777528Y18923377D02*
X83596099Y18560520D01*
X83596099Y18560520D02*
X83414671Y17834806D01*
X83414671Y17834806D02*
X83414671Y17290520D01*
X83414671Y17290520D02*
X83596099Y16564806D01*
X83596099Y16564806D02*
X83777528Y16201949D01*
X83777528Y16201949D02*
X84140385Y15839091D01*
X84140385Y15839091D02*
X84684671Y15657663D01*
X84684671Y15657663D02*
X85047528Y15657663D01*
X85047528Y15657663D02*
X85591814Y15839091D01*
X85591814Y15839091D02*
X85773242Y16020520D01*
X85773242Y16020520D02*
X85773242Y17290520D01*
X85773242Y17290520D02*
X85047528Y17290520D01*
X87406099Y16020520D02*
X87587528Y15839091D01*
X87587528Y15839091D02*
X87406099Y15657663D01*
X87406099Y15657663D02*
X87224671Y15839091D01*
X87224671Y15839091D02*
X87406099Y16020520D01*
X87406099Y16020520D02*
X87406099Y15657663D01*
X87406099Y17109091D02*
X87224671Y19286234D01*
X87224671Y19286234D02*
X87406099Y19467663D01*
X87406099Y19467663D02*
X87587528Y19286234D01*
X87587528Y19286234D02*
X87406099Y17109091D01*
X87406099Y17109091D02*
X87406099Y19467663D01*
X89038957Y19467663D02*
X89038957Y18741949D01*
X90490385Y19467663D02*
X90490385Y18741949D01*
D10*
X27669458Y52404820D02*
X28056506Y52404820D01*
X27862982Y52211296D02*
X27862982Y52598344D01*
X28250029Y52719296D02*
X28564505Y52719296D01*
X28564505Y52719296D02*
X28395172Y52525772D01*
X28395172Y52525772D02*
X28467743Y52525772D01*
X28467743Y52525772D02*
X28516124Y52501582D01*
X28516124Y52501582D02*
X28540315Y52477391D01*
X28540315Y52477391D02*
X28564505Y52429010D01*
X28564505Y52429010D02*
X28564505Y52308058D01*
X28564505Y52308058D02*
X28540315Y52259677D01*
X28540315Y52259677D02*
X28516124Y52235486D01*
X28516124Y52235486D02*
X28467743Y52211296D01*
X28467743Y52211296D02*
X28322600Y52211296D01*
X28322600Y52211296D02*
X28274219Y52235486D01*
X28274219Y52235486D02*
X28250029Y52259677D01*
X28782220Y52259677D02*
X28806410Y52235486D01*
X28806410Y52235486D02*
X28782220Y52211296D01*
X28782220Y52211296D02*
X28758029Y52235486D01*
X28758029Y52235486D02*
X28782220Y52259677D01*
X28782220Y52259677D02*
X28782220Y52211296D01*
X28975744Y52719296D02*
X29290220Y52719296D01*
X29290220Y52719296D02*
X29120887Y52525772D01*
X29120887Y52525772D02*
X29193458Y52525772D01*
X29193458Y52525772D02*
X29241839Y52501582D01*
X29241839Y52501582D02*
X29266030Y52477391D01*
X29266030Y52477391D02*
X29290220Y52429010D01*
X29290220Y52429010D02*
X29290220Y52308058D01*
X29290220Y52308058D02*
X29266030Y52259677D01*
X29266030Y52259677D02*
X29241839Y52235486D01*
X29241839Y52235486D02*
X29193458Y52211296D01*
X29193458Y52211296D02*
X29048315Y52211296D01*
X29048315Y52211296D02*
X28999934Y52235486D01*
X28999934Y52235486D02*
X28975744Y52259677D01*
X29435363Y52719296D02*
X29604697Y52211296D01*
X29604697Y52211296D02*
X29774030Y52719296D01*
X11338791Y32227391D02*
X11169458Y32227391D01*
X11169458Y31961296D02*
X11169458Y32469296D01*
X11169458Y32469296D02*
X11411363Y32469296D01*
X11774220Y32227391D02*
X11846792Y32203201D01*
X11846792Y32203201D02*
X11870982Y32179010D01*
X11870982Y32179010D02*
X11895173Y32130629D01*
X11895173Y32130629D02*
X11895173Y32058058D01*
X11895173Y32058058D02*
X11870982Y32009677D01*
X11870982Y32009677D02*
X11846792Y31985486D01*
X11846792Y31985486D02*
X11798411Y31961296D01*
X11798411Y31961296D02*
X11604887Y31961296D01*
X11604887Y31961296D02*
X11604887Y32469296D01*
X11604887Y32469296D02*
X11774220Y32469296D01*
X11774220Y32469296D02*
X11822601Y32445106D01*
X11822601Y32445106D02*
X11846792Y32420915D01*
X11846792Y32420915D02*
X11870982Y32372534D01*
X11870982Y32372534D02*
X11870982Y32324153D01*
X11870982Y32324153D02*
X11846792Y32275772D01*
X11846792Y32275772D02*
X11822601Y32251582D01*
X11822601Y32251582D02*
X11774220Y32227391D01*
X11774220Y32227391D02*
X11604887Y32227391D01*
X11991935Y31912915D02*
X12378982Y31912915D01*
X12766030Y31961296D02*
X12475744Y31961296D01*
X12620887Y31961296D02*
X12620887Y32469296D01*
X12620887Y32469296D02*
X12572506Y32396725D01*
X12572506Y32396725D02*
X12524125Y32348344D01*
X12524125Y32348344D02*
X12475744Y32324153D01*
X7185553Y25695106D02*
X7137172Y25719296D01*
X7137172Y25719296D02*
X7064601Y25719296D01*
X7064601Y25719296D02*
X6992029Y25695106D01*
X6992029Y25695106D02*
X6943648Y25646725D01*
X6943648Y25646725D02*
X6919458Y25598344D01*
X6919458Y25598344D02*
X6895267Y25501582D01*
X6895267Y25501582D02*
X6895267Y25429010D01*
X6895267Y25429010D02*
X6919458Y25332248D01*
X6919458Y25332248D02*
X6943648Y25283867D01*
X6943648Y25283867D02*
X6992029Y25235486D01*
X6992029Y25235486D02*
X7064601Y25211296D01*
X7064601Y25211296D02*
X7112982Y25211296D01*
X7112982Y25211296D02*
X7185553Y25235486D01*
X7185553Y25235486D02*
X7209744Y25259677D01*
X7209744Y25259677D02*
X7209744Y25429010D01*
X7209744Y25429010D02*
X7112982Y25429010D01*
X7427458Y25211296D02*
X7427458Y25719296D01*
X7427458Y25719296D02*
X7717744Y25211296D01*
X7717744Y25211296D02*
X7717744Y25719296D01*
X7959648Y25211296D02*
X7959648Y25719296D01*
X7959648Y25719296D02*
X8080600Y25719296D01*
X8080600Y25719296D02*
X8153172Y25695106D01*
X8153172Y25695106D02*
X8201553Y25646725D01*
X8201553Y25646725D02*
X8225743Y25598344D01*
X8225743Y25598344D02*
X8249934Y25501582D01*
X8249934Y25501582D02*
X8249934Y25429010D01*
X8249934Y25429010D02*
X8225743Y25332248D01*
X8225743Y25332248D02*
X8201553Y25283867D01*
X8201553Y25283867D02*
X8153172Y25235486D01*
X8153172Y25235486D02*
X8080600Y25211296D01*
X8080600Y25211296D02*
X7959648Y25211296D01*
X30935553Y52695106D02*
X30887172Y52719296D01*
X30887172Y52719296D02*
X30814601Y52719296D01*
X30814601Y52719296D02*
X30742029Y52695106D01*
X30742029Y52695106D02*
X30693648Y52646725D01*
X30693648Y52646725D02*
X30669458Y52598344D01*
X30669458Y52598344D02*
X30645267Y52501582D01*
X30645267Y52501582D02*
X30645267Y52429010D01*
X30645267Y52429010D02*
X30669458Y52332248D01*
X30669458Y52332248D02*
X30693648Y52283867D01*
X30693648Y52283867D02*
X30742029Y52235486D01*
X30742029Y52235486D02*
X30814601Y52211296D01*
X30814601Y52211296D02*
X30862982Y52211296D01*
X30862982Y52211296D02*
X30935553Y52235486D01*
X30935553Y52235486D02*
X30959744Y52259677D01*
X30959744Y52259677D02*
X30959744Y52429010D01*
X30959744Y52429010D02*
X30862982Y52429010D01*
X31177458Y52211296D02*
X31177458Y52719296D01*
X31177458Y52719296D02*
X31467744Y52211296D01*
X31467744Y52211296D02*
X31467744Y52719296D01*
X31709648Y52211296D02*
X31709648Y52719296D01*
X31709648Y52719296D02*
X31830600Y52719296D01*
X31830600Y52719296D02*
X31903172Y52695106D01*
X31903172Y52695106D02*
X31951553Y52646725D01*
X31951553Y52646725D02*
X31975743Y52598344D01*
X31975743Y52598344D02*
X31999934Y52501582D01*
X31999934Y52501582D02*
X31999934Y52429010D01*
X31999934Y52429010D02*
X31975743Y52332248D01*
X31975743Y52332248D02*
X31951553Y52283867D01*
X31951553Y52283867D02*
X31903172Y52235486D01*
X31903172Y52235486D02*
X31830600Y52211296D01*
X31830600Y52211296D02*
X31709648Y52211296D01*
X31395267Y12985486D02*
X31467839Y12961296D01*
X31467839Y12961296D02*
X31588791Y12961296D01*
X31588791Y12961296D02*
X31637172Y12985486D01*
X31637172Y12985486D02*
X31661363Y13009677D01*
X31661363Y13009677D02*
X31685553Y13058058D01*
X31685553Y13058058D02*
X31685553Y13106439D01*
X31685553Y13106439D02*
X31661363Y13154820D01*
X31661363Y13154820D02*
X31637172Y13179010D01*
X31637172Y13179010D02*
X31588791Y13203201D01*
X31588791Y13203201D02*
X31492029Y13227391D01*
X31492029Y13227391D02*
X31443648Y13251582D01*
X31443648Y13251582D02*
X31419458Y13275772D01*
X31419458Y13275772D02*
X31395267Y13324153D01*
X31395267Y13324153D02*
X31395267Y13372534D01*
X31395267Y13372534D02*
X31419458Y13420915D01*
X31419458Y13420915D02*
X31443648Y13445106D01*
X31443648Y13445106D02*
X31492029Y13469296D01*
X31492029Y13469296D02*
X31612982Y13469296D01*
X31612982Y13469296D02*
X31685553Y13445106D01*
X31854887Y13469296D02*
X31975839Y12961296D01*
X31975839Y12961296D02*
X32072601Y13324153D01*
X32072601Y13324153D02*
X32169363Y12961296D01*
X32169363Y12961296D02*
X32290316Y13469296D01*
X32774125Y13009677D02*
X32749934Y12985486D01*
X32749934Y12985486D02*
X32677363Y12961296D01*
X32677363Y12961296D02*
X32628982Y12961296D01*
X32628982Y12961296D02*
X32556410Y12985486D01*
X32556410Y12985486D02*
X32508029Y13033867D01*
X32508029Y13033867D02*
X32483839Y13082248D01*
X32483839Y13082248D02*
X32459648Y13179010D01*
X32459648Y13179010D02*
X32459648Y13251582D01*
X32459648Y13251582D02*
X32483839Y13348344D01*
X32483839Y13348344D02*
X32508029Y13396725D01*
X32508029Y13396725D02*
X32556410Y13445106D01*
X32556410Y13445106D02*
X32628982Y13469296D01*
X32628982Y13469296D02*
X32677363Y13469296D01*
X32677363Y13469296D02*
X32749934Y13445106D01*
X32749934Y13445106D02*
X32774125Y13420915D01*
X33233744Y12961296D02*
X32991839Y12961296D01*
X32991839Y12961296D02*
X32991839Y13469296D01*
X33403077Y12961296D02*
X33403077Y13469296D01*
X33693363Y12961296D02*
X33475648Y13251582D01*
X33693363Y13469296D02*
X33403077Y13179010D01*
X11185553Y25695106D02*
X11137172Y25719296D01*
X11137172Y25719296D02*
X11064601Y25719296D01*
X11064601Y25719296D02*
X10992029Y25695106D01*
X10992029Y25695106D02*
X10943648Y25646725D01*
X10943648Y25646725D02*
X10919458Y25598344D01*
X10919458Y25598344D02*
X10895267Y25501582D01*
X10895267Y25501582D02*
X10895267Y25429010D01*
X10895267Y25429010D02*
X10919458Y25332248D01*
X10919458Y25332248D02*
X10943648Y25283867D01*
X10943648Y25283867D02*
X10992029Y25235486D01*
X10992029Y25235486D02*
X11064601Y25211296D01*
X11064601Y25211296D02*
X11112982Y25211296D01*
X11112982Y25211296D02*
X11185553Y25235486D01*
X11185553Y25235486D02*
X11209744Y25259677D01*
X11209744Y25259677D02*
X11209744Y25429010D01*
X11209744Y25429010D02*
X11112982Y25429010D01*
X11427458Y25211296D02*
X11427458Y25719296D01*
X11427458Y25719296D02*
X11717744Y25211296D01*
X11717744Y25211296D02*
X11717744Y25719296D01*
X11959648Y25211296D02*
X11959648Y25719296D01*
X11959648Y25719296D02*
X12080600Y25719296D01*
X12080600Y25719296D02*
X12153172Y25695106D01*
X12153172Y25695106D02*
X12201553Y25646725D01*
X12201553Y25646725D02*
X12225743Y25598344D01*
X12225743Y25598344D02*
X12249934Y25501582D01*
X12249934Y25501582D02*
X12249934Y25429010D01*
X12249934Y25429010D02*
X12225743Y25332248D01*
X12225743Y25332248D02*
X12201553Y25283867D01*
X12201553Y25283867D02*
X12153172Y25235486D01*
X12153172Y25235486D02*
X12080600Y25211296D01*
X12080600Y25211296D02*
X11959648Y25211296D01*
X35145267Y12985486D02*
X35217839Y12961296D01*
X35217839Y12961296D02*
X35338791Y12961296D01*
X35338791Y12961296D02*
X35387172Y12985486D01*
X35387172Y12985486D02*
X35411363Y13009677D01*
X35411363Y13009677D02*
X35435553Y13058058D01*
X35435553Y13058058D02*
X35435553Y13106439D01*
X35435553Y13106439D02*
X35411363Y13154820D01*
X35411363Y13154820D02*
X35387172Y13179010D01*
X35387172Y13179010D02*
X35338791Y13203201D01*
X35338791Y13203201D02*
X35242029Y13227391D01*
X35242029Y13227391D02*
X35193648Y13251582D01*
X35193648Y13251582D02*
X35169458Y13275772D01*
X35169458Y13275772D02*
X35145267Y13324153D01*
X35145267Y13324153D02*
X35145267Y13372534D01*
X35145267Y13372534D02*
X35169458Y13420915D01*
X35169458Y13420915D02*
X35193648Y13445106D01*
X35193648Y13445106D02*
X35242029Y13469296D01*
X35242029Y13469296D02*
X35362982Y13469296D01*
X35362982Y13469296D02*
X35435553Y13445106D01*
X35604887Y13469296D02*
X35725839Y12961296D01*
X35725839Y12961296D02*
X35822601Y13324153D01*
X35822601Y13324153D02*
X35919363Y12961296D01*
X35919363Y12961296D02*
X36040316Y13469296D01*
X36233839Y12961296D02*
X36233839Y13469296D01*
X36233839Y13469296D02*
X36354791Y13469296D01*
X36354791Y13469296D02*
X36427363Y13445106D01*
X36427363Y13445106D02*
X36475744Y13396725D01*
X36475744Y13396725D02*
X36499934Y13348344D01*
X36499934Y13348344D02*
X36524125Y13251582D01*
X36524125Y13251582D02*
X36524125Y13179010D01*
X36524125Y13179010D02*
X36499934Y13082248D01*
X36499934Y13082248D02*
X36475744Y13033867D01*
X36475744Y13033867D02*
X36427363Y12985486D01*
X36427363Y12985486D02*
X36354791Y12961296D01*
X36354791Y12961296D02*
X36233839Y12961296D01*
X58685553Y2695106D02*
X58637172Y2719296D01*
X58637172Y2719296D02*
X58564601Y2719296D01*
X58564601Y2719296D02*
X58492029Y2695106D01*
X58492029Y2695106D02*
X58443648Y2646725D01*
X58443648Y2646725D02*
X58419458Y2598344D01*
X58419458Y2598344D02*
X58395267Y2501582D01*
X58395267Y2501582D02*
X58395267Y2429010D01*
X58395267Y2429010D02*
X58419458Y2332248D01*
X58419458Y2332248D02*
X58443648Y2283867D01*
X58443648Y2283867D02*
X58492029Y2235486D01*
X58492029Y2235486D02*
X58564601Y2211296D01*
X58564601Y2211296D02*
X58612982Y2211296D01*
X58612982Y2211296D02*
X58685553Y2235486D01*
X58685553Y2235486D02*
X58709744Y2259677D01*
X58709744Y2259677D02*
X58709744Y2429010D01*
X58709744Y2429010D02*
X58612982Y2429010D01*
X58927458Y2211296D02*
X58927458Y2719296D01*
X58927458Y2719296D02*
X59217744Y2211296D01*
X59217744Y2211296D02*
X59217744Y2719296D01*
X59459648Y2211296D02*
X59459648Y2719296D01*
X59459648Y2719296D02*
X59580600Y2719296D01*
X59580600Y2719296D02*
X59653172Y2695106D01*
X59653172Y2695106D02*
X59701553Y2646725D01*
X59701553Y2646725D02*
X59725743Y2598344D01*
X59725743Y2598344D02*
X59749934Y2501582D01*
X59749934Y2501582D02*
X59749934Y2429010D01*
X59749934Y2429010D02*
X59725743Y2332248D01*
X59725743Y2332248D02*
X59701553Y2283867D01*
X59701553Y2283867D02*
X59653172Y2235486D01*
X59653172Y2235486D02*
X59580600Y2211296D01*
X59580600Y2211296D02*
X59459648Y2211296D01*
D12*
X72085154Y12656297D02*
X72847059Y12656297D01*
X73942297Y13275344D02*
X74513725Y13275344D01*
X74228011Y12275344D02*
X74228011Y13275344D01*
X74847059Y12799154D02*
X75180392Y12799154D01*
X75323249Y12275344D02*
X74847059Y12275344D01*
X74847059Y12275344D02*
X74847059Y13275344D01*
X74847059Y13275344D02*
X75323249Y13275344D01*
X75704202Y12561059D02*
X76180392Y12561059D01*
X75608964Y12275344D02*
X75942297Y13275344D01*
X75942297Y13275344D02*
X76275630Y12275344D01*
X76608964Y12275344D02*
X76608964Y13275344D01*
X76608964Y13275344D02*
X76942297Y12561059D01*
X76942297Y12561059D02*
X77275630Y13275344D01*
X77275630Y13275344D02*
X77275630Y12275344D01*
X78847059Y12799154D02*
X78513726Y12799154D01*
X78513726Y12275344D02*
X78513726Y13275344D01*
X78513726Y13275344D02*
X78989916Y13275344D01*
X79847059Y12275344D02*
X79370869Y12275344D01*
X79370869Y12275344D02*
X79370869Y13275344D01*
X80370869Y12751535D02*
X80370869Y12275344D01*
X80037536Y13275344D02*
X80370869Y12751535D01*
X80370869Y12751535D02*
X80704202Y13275344D01*
X81037536Y12275344D02*
X81037536Y13275344D01*
X81513726Y12275344D02*
X81513726Y13275344D01*
X81513726Y13275344D02*
X82085154Y12275344D01*
X82085154Y12275344D02*
X82085154Y13275344D01*
X83085154Y13227725D02*
X82989916Y13275344D01*
X82989916Y13275344D02*
X82847059Y13275344D01*
X82847059Y13275344D02*
X82704202Y13227725D01*
X82704202Y13227725D02*
X82608964Y13132487D01*
X82608964Y13132487D02*
X82561345Y13037249D01*
X82561345Y13037249D02*
X82513726Y12846773D01*
X82513726Y12846773D02*
X82513726Y12703916D01*
X82513726Y12703916D02*
X82561345Y12513440D01*
X82561345Y12513440D02*
X82608964Y12418202D01*
X82608964Y12418202D02*
X82704202Y12322963D01*
X82704202Y12322963D02*
X82847059Y12275344D01*
X82847059Y12275344D02*
X82942297Y12275344D01*
X82942297Y12275344D02*
X83085154Y12322963D01*
X83085154Y12322963D02*
X83132773Y12370583D01*
X83132773Y12370583D02*
X83132773Y12703916D01*
X83132773Y12703916D02*
X82942297Y12703916D01*
X84323250Y12275344D02*
X84323250Y13275344D01*
X84323250Y13275344D02*
X84656583Y12561059D01*
X84656583Y12561059D02*
X84989916Y13275344D01*
X84989916Y13275344D02*
X84989916Y12275344D01*
X85418488Y12561059D02*
X85894678Y12561059D01*
X85323250Y12275344D02*
X85656583Y13275344D01*
X85656583Y13275344D02*
X85989916Y12275344D01*
X86894678Y12370583D02*
X86847059Y12322963D01*
X86847059Y12322963D02*
X86704202Y12275344D01*
X86704202Y12275344D02*
X86608964Y12275344D01*
X86608964Y12275344D02*
X86466107Y12322963D01*
X86466107Y12322963D02*
X86370869Y12418202D01*
X86370869Y12418202D02*
X86323250Y12513440D01*
X86323250Y12513440D02*
X86275631Y12703916D01*
X86275631Y12703916D02*
X86275631Y12846773D01*
X86275631Y12846773D02*
X86323250Y13037249D01*
X86323250Y13037249D02*
X86370869Y13132487D01*
X86370869Y13132487D02*
X86466107Y13227725D01*
X86466107Y13227725D02*
X86608964Y13275344D01*
X86608964Y13275344D02*
X86704202Y13275344D01*
X86704202Y13275344D02*
X86847059Y13227725D01*
X86847059Y13227725D02*
X86894678Y13180106D01*
X87323250Y12275344D02*
X87323250Y13275344D01*
X87323250Y12799154D02*
X87894678Y12799154D01*
X87894678Y12275344D02*
X87894678Y13275344D01*
X88370869Y12275344D02*
X88370869Y13275344D01*
X88847059Y12275344D02*
X88847059Y13275344D01*
X88847059Y13275344D02*
X89418487Y12275344D01*
X89418487Y12275344D02*
X89418487Y13275344D01*
X89894678Y12799154D02*
X90228011Y12799154D01*
X90370868Y12275344D02*
X89894678Y12275344D01*
X89894678Y12275344D02*
X89894678Y13275344D01*
X89894678Y13275344D02*
X90370868Y13275344D01*
D10*
X8846886Y51219296D02*
X9137172Y51219296D01*
X8992029Y50711296D02*
X8992029Y51219296D01*
X9258125Y51219296D02*
X9596792Y50711296D01*
X9596792Y51219296D02*
X9258125Y50711296D01*
X9185553Y48445106D02*
X9137172Y48469296D01*
X9137172Y48469296D02*
X9064601Y48469296D01*
X9064601Y48469296D02*
X8992029Y48445106D01*
X8992029Y48445106D02*
X8943648Y48396725D01*
X8943648Y48396725D02*
X8919458Y48348344D01*
X8919458Y48348344D02*
X8895267Y48251582D01*
X8895267Y48251582D02*
X8895267Y48179010D01*
X8895267Y48179010D02*
X8919458Y48082248D01*
X8919458Y48082248D02*
X8943648Y48033867D01*
X8943648Y48033867D02*
X8992029Y47985486D01*
X8992029Y47985486D02*
X9064601Y47961296D01*
X9064601Y47961296D02*
X9112982Y47961296D01*
X9112982Y47961296D02*
X9185553Y47985486D01*
X9185553Y47985486D02*
X9209744Y48009677D01*
X9209744Y48009677D02*
X9209744Y48179010D01*
X9209744Y48179010D02*
X9112982Y48179010D01*
X9427458Y47961296D02*
X9427458Y48469296D01*
X9427458Y48469296D02*
X9717744Y47961296D01*
X9717744Y47961296D02*
X9717744Y48469296D01*
X9959648Y47961296D02*
X9959648Y48469296D01*
X9959648Y48469296D02*
X10080600Y48469296D01*
X10080600Y48469296D02*
X10153172Y48445106D01*
X10153172Y48445106D02*
X10201553Y48396725D01*
X10201553Y48396725D02*
X10225743Y48348344D01*
X10225743Y48348344D02*
X10249934Y48251582D01*
X10249934Y48251582D02*
X10249934Y48179010D01*
X10249934Y48179010D02*
X10225743Y48082248D01*
X10225743Y48082248D02*
X10201553Y48033867D01*
X10201553Y48033867D02*
X10153172Y47985486D01*
X10153172Y47985486D02*
X10080600Y47961296D01*
X10080600Y47961296D02*
X9959648Y47961296D01*
X62908052Y54042056D02*
X62932242Y54114628D01*
X62932242Y54114628D02*
X62932242Y54235580D01*
X62932242Y54235580D02*
X62908052Y54283961D01*
X62908052Y54283961D02*
X62883861Y54308152D01*
X62883861Y54308152D02*
X62835480Y54332342D01*
X62835480Y54332342D02*
X62787099Y54332342D01*
X62787099Y54332342D02*
X62738718Y54308152D01*
X62738718Y54308152D02*
X62714528Y54283961D01*
X62714528Y54283961D02*
X62690337Y54235580D01*
X62690337Y54235580D02*
X62666147Y54138818D01*
X62666147Y54138818D02*
X62641956Y54090437D01*
X62641956Y54090437D02*
X62617766Y54066247D01*
X62617766Y54066247D02*
X62569385Y54042056D01*
X62569385Y54042056D02*
X62521004Y54042056D01*
X62521004Y54042056D02*
X62472623Y54066247D01*
X62472623Y54066247D02*
X62448432Y54090437D01*
X62448432Y54090437D02*
X62424242Y54138818D01*
X62424242Y54138818D02*
X62424242Y54259771D01*
X62424242Y54259771D02*
X62448432Y54332342D01*
X62932242Y54550057D02*
X62424242Y54550057D01*
X62424242Y54550057D02*
X62424242Y54743581D01*
X62424242Y54743581D02*
X62448432Y54791962D01*
X62448432Y54791962D02*
X62472623Y54816152D01*
X62472623Y54816152D02*
X62521004Y54840343D01*
X62521004Y54840343D02*
X62593575Y54840343D01*
X62593575Y54840343D02*
X62641956Y54816152D01*
X62641956Y54816152D02*
X62666147Y54791962D01*
X62666147Y54791962D02*
X62690337Y54743581D01*
X62690337Y54743581D02*
X62690337Y54550057D01*
X62932242Y55058057D02*
X62424242Y55058057D01*
X62932242Y55348343D02*
X62641956Y55130628D01*
X62424242Y55348343D02*
X62714528Y55058057D01*
X62932242Y55856343D02*
X62690337Y55687009D01*
X62932242Y55566057D02*
X62424242Y55566057D01*
X62424242Y55566057D02*
X62424242Y55759581D01*
X62424242Y55759581D02*
X62448432Y55807962D01*
X62448432Y55807962D02*
X62472623Y55832152D01*
X62472623Y55832152D02*
X62521004Y55856343D01*
X62521004Y55856343D02*
X62593575Y55856343D01*
X62593575Y55856343D02*
X62641956Y55832152D01*
X62641956Y55832152D02*
X62666147Y55807962D01*
X62666147Y55807962D02*
X62690337Y55759581D01*
X62690337Y55759581D02*
X62690337Y55566057D01*
X1448432Y13832342D02*
X1424242Y13783961D01*
X1424242Y13783961D02*
X1424242Y13711390D01*
X1424242Y13711390D02*
X1448432Y13638818D01*
X1448432Y13638818D02*
X1496813Y13590437D01*
X1496813Y13590437D02*
X1545194Y13566247D01*
X1545194Y13566247D02*
X1641956Y13542056D01*
X1641956Y13542056D02*
X1714528Y13542056D01*
X1714528Y13542056D02*
X1811290Y13566247D01*
X1811290Y13566247D02*
X1859671Y13590437D01*
X1859671Y13590437D02*
X1908052Y13638818D01*
X1908052Y13638818D02*
X1932242Y13711390D01*
X1932242Y13711390D02*
X1932242Y13759771D01*
X1932242Y13759771D02*
X1908052Y13832342D01*
X1908052Y13832342D02*
X1883861Y13856533D01*
X1883861Y13856533D02*
X1714528Y13856533D01*
X1714528Y13856533D02*
X1714528Y13759771D01*
X1932242Y14074247D02*
X1424242Y14074247D01*
X1424242Y14074247D02*
X1932242Y14364533D01*
X1932242Y14364533D02*
X1424242Y14364533D01*
X1932242Y14606437D02*
X1424242Y14606437D01*
X1424242Y14606437D02*
X1424242Y14727389D01*
X1424242Y14727389D02*
X1448432Y14799961D01*
X1448432Y14799961D02*
X1496813Y14848342D01*
X1496813Y14848342D02*
X1545194Y14872532D01*
X1545194Y14872532D02*
X1641956Y14896723D01*
X1641956Y14896723D02*
X1714528Y14896723D01*
X1714528Y14896723D02*
X1811290Y14872532D01*
X1811290Y14872532D02*
X1859671Y14848342D01*
X1859671Y14848342D02*
X1908052Y14799961D01*
X1908052Y14799961D02*
X1932242Y14727389D01*
X1932242Y14727389D02*
X1932242Y14606437D01*
X74698432Y54082342D02*
X74674242Y54033961D01*
X74674242Y54033961D02*
X74674242Y53961390D01*
X74674242Y53961390D02*
X74698432Y53888818D01*
X74698432Y53888818D02*
X74746813Y53840437D01*
X74746813Y53840437D02*
X74795194Y53816247D01*
X74795194Y53816247D02*
X74891956Y53792056D01*
X74891956Y53792056D02*
X74964528Y53792056D01*
X74964528Y53792056D02*
X75061290Y53816247D01*
X75061290Y53816247D02*
X75109671Y53840437D01*
X75109671Y53840437D02*
X75158052Y53888818D01*
X75158052Y53888818D02*
X75182242Y53961390D01*
X75182242Y53961390D02*
X75182242Y54009771D01*
X75182242Y54009771D02*
X75158052Y54082342D01*
X75158052Y54082342D02*
X75133861Y54106533D01*
X75133861Y54106533D02*
X74964528Y54106533D01*
X74964528Y54106533D02*
X74964528Y54009771D01*
X75182242Y54324247D02*
X74674242Y54324247D01*
X74674242Y54324247D02*
X75182242Y54614533D01*
X75182242Y54614533D02*
X74674242Y54614533D01*
X75182242Y54856437D02*
X74674242Y54856437D01*
X74674242Y54856437D02*
X74674242Y54977389D01*
X74674242Y54977389D02*
X74698432Y55049961D01*
X74698432Y55049961D02*
X74746813Y55098342D01*
X74746813Y55098342D02*
X74795194Y55122532D01*
X74795194Y55122532D02*
X74891956Y55146723D01*
X74891956Y55146723D02*
X74964528Y55146723D01*
X74964528Y55146723D02*
X75061290Y55122532D01*
X75061290Y55122532D02*
X75109671Y55098342D01*
X75109671Y55098342D02*
X75158052Y55049961D01*
X75158052Y55049961D02*
X75182242Y54977389D01*
X75182242Y54977389D02*
X75182242Y54856437D01*
X55169458Y2404820D02*
X55556506Y2404820D01*
X55362982Y2211296D02*
X55362982Y2598344D01*
X55750029Y2719296D02*
X56064505Y2719296D01*
X56064505Y2719296D02*
X55895172Y2525772D01*
X55895172Y2525772D02*
X55967743Y2525772D01*
X55967743Y2525772D02*
X56016124Y2501582D01*
X56016124Y2501582D02*
X56040315Y2477391D01*
X56040315Y2477391D02*
X56064505Y2429010D01*
X56064505Y2429010D02*
X56064505Y2308058D01*
X56064505Y2308058D02*
X56040315Y2259677D01*
X56040315Y2259677D02*
X56016124Y2235486D01*
X56016124Y2235486D02*
X55967743Y2211296D01*
X55967743Y2211296D02*
X55822600Y2211296D01*
X55822600Y2211296D02*
X55774219Y2235486D01*
X55774219Y2235486D02*
X55750029Y2259677D01*
X56282220Y2259677D02*
X56306410Y2235486D01*
X56306410Y2235486D02*
X56282220Y2211296D01*
X56282220Y2211296D02*
X56258029Y2235486D01*
X56258029Y2235486D02*
X56282220Y2259677D01*
X56282220Y2259677D02*
X56282220Y2211296D01*
X56475744Y2719296D02*
X56790220Y2719296D01*
X56790220Y2719296D02*
X56620887Y2525772D01*
X56620887Y2525772D02*
X56693458Y2525772D01*
X56693458Y2525772D02*
X56741839Y2501582D01*
X56741839Y2501582D02*
X56766030Y2477391D01*
X56766030Y2477391D02*
X56790220Y2429010D01*
X56790220Y2429010D02*
X56790220Y2308058D01*
X56790220Y2308058D02*
X56766030Y2259677D01*
X56766030Y2259677D02*
X56741839Y2235486D01*
X56741839Y2235486D02*
X56693458Y2211296D01*
X56693458Y2211296D02*
X56548315Y2211296D01*
X56548315Y2211296D02*
X56499934Y2235486D01*
X56499934Y2235486D02*
X56475744Y2259677D01*
X56935363Y2719296D02*
X57104697Y2211296D01*
X57104697Y2211296D02*
X57274030Y2719296D01*
D13*
X69373997Y34725549D02*
X69240950Y34632416D01*
X69373997Y34565892D02*
X69094597Y34565892D01*
X69094597Y34565892D02*
X69094597Y34672330D01*
X69094597Y34672330D02*
X69107902Y34698940D01*
X69107902Y34698940D02*
X69121207Y34712245D01*
X69121207Y34712245D02*
X69147816Y34725549D01*
X69147816Y34725549D02*
X69187731Y34725549D01*
X69187731Y34725549D02*
X69214340Y34712245D01*
X69214340Y34712245D02*
X69227645Y34698940D01*
X69227645Y34698940D02*
X69240950Y34672330D01*
X69240950Y34672330D02*
X69240950Y34565892D01*
X69121207Y34831988D02*
X69107902Y34845292D01*
X69107902Y34845292D02*
X69094597Y34871902D01*
X69094597Y34871902D02*
X69094597Y34938426D01*
X69094597Y34938426D02*
X69107902Y34965035D01*
X69107902Y34965035D02*
X69121207Y34978340D01*
X69121207Y34978340D02*
X69147816Y34991645D01*
X69147816Y34991645D02*
X69174426Y34991645D01*
X69174426Y34991645D02*
X69214340Y34978340D01*
X69214340Y34978340D02*
X69373997Y34818683D01*
X69373997Y34818683D02*
X69373997Y34991645D01*
X69094597Y35231130D02*
X69094597Y35177911D01*
X69094597Y35177911D02*
X69107902Y35151302D01*
X69107902Y35151302D02*
X69121207Y35137997D01*
X69121207Y35137997D02*
X69161121Y35111387D01*
X69161121Y35111387D02*
X69214340Y35098083D01*
X69214340Y35098083D02*
X69320778Y35098083D01*
X69320778Y35098083D02*
X69347388Y35111387D01*
X69347388Y35111387D02*
X69360693Y35124692D01*
X69360693Y35124692D02*
X69373997Y35151302D01*
X69373997Y35151302D02*
X69373997Y35204521D01*
X69373997Y35204521D02*
X69360693Y35231130D01*
X69360693Y35231130D02*
X69347388Y35244435D01*
X69347388Y35244435D02*
X69320778Y35257740D01*
X69320778Y35257740D02*
X69254254Y35257740D01*
X69254254Y35257740D02*
X69227645Y35244435D01*
X69227645Y35244435D02*
X69214340Y35231130D01*
X69214340Y35231130D02*
X69201035Y35204521D01*
X69201035Y35204521D02*
X69201035Y35151302D01*
X69201035Y35151302D02*
X69214340Y35124692D01*
X69214340Y35124692D02*
X69227645Y35111387D01*
X69227645Y35111387D02*
X69254254Y35098083D01*
D12*
X88581294Y39653784D02*
X88105103Y39320451D01*
X88581294Y39082356D02*
X87581294Y39082356D01*
X87581294Y39082356D02*
X87581294Y39463308D01*
X87581294Y39463308D02*
X87628913Y39558546D01*
X87628913Y39558546D02*
X87676532Y39606165D01*
X87676532Y39606165D02*
X87771770Y39653784D01*
X87771770Y39653784D02*
X87914627Y39653784D01*
X87914627Y39653784D02*
X88009865Y39606165D01*
X88009865Y39606165D02*
X88057484Y39558546D01*
X88057484Y39558546D02*
X88105103Y39463308D01*
X88105103Y39463308D02*
X88105103Y39082356D01*
X87581294Y39987118D02*
X87581294Y40606165D01*
X87581294Y40606165D02*
X87962246Y40272832D01*
X87962246Y40272832D02*
X87962246Y40415689D01*
X87962246Y40415689D02*
X88009865Y40510927D01*
X88009865Y40510927D02*
X88057484Y40558546D01*
X88057484Y40558546D02*
X88152722Y40606165D01*
X88152722Y40606165D02*
X88390817Y40606165D01*
X88390817Y40606165D02*
X88486055Y40558546D01*
X88486055Y40558546D02*
X88533675Y40510927D01*
X88533675Y40510927D02*
X88581294Y40415689D01*
X88581294Y40415689D02*
X88581294Y40129975D01*
X88581294Y40129975D02*
X88533675Y40034737D01*
X88533675Y40034737D02*
X88486055Y39987118D01*
X87914627Y41463308D02*
X88581294Y41463308D01*
X87533675Y41225213D02*
X88247960Y40987118D01*
X88247960Y40987118D02*
X88247960Y41606165D01*
X70831294Y29153784D02*
X70355103Y28820451D01*
X70831294Y28582356D02*
X69831294Y28582356D01*
X69831294Y28582356D02*
X69831294Y28963308D01*
X69831294Y28963308D02*
X69878913Y29058546D01*
X69878913Y29058546D02*
X69926532Y29106165D01*
X69926532Y29106165D02*
X70021770Y29153784D01*
X70021770Y29153784D02*
X70164627Y29153784D01*
X70164627Y29153784D02*
X70259865Y29106165D01*
X70259865Y29106165D02*
X70307484Y29058546D01*
X70307484Y29058546D02*
X70355103Y28963308D01*
X70355103Y28963308D02*
X70355103Y28582356D01*
X69831294Y29487118D02*
X69831294Y30106165D01*
X69831294Y30106165D02*
X70212246Y29772832D01*
X70212246Y29772832D02*
X70212246Y29915689D01*
X70212246Y29915689D02*
X70259865Y30010927D01*
X70259865Y30010927D02*
X70307484Y30058546D01*
X70307484Y30058546D02*
X70402722Y30106165D01*
X70402722Y30106165D02*
X70640817Y30106165D01*
X70640817Y30106165D02*
X70736055Y30058546D01*
X70736055Y30058546D02*
X70783675Y30010927D01*
X70783675Y30010927D02*
X70831294Y29915689D01*
X70831294Y29915689D02*
X70831294Y29629975D01*
X70831294Y29629975D02*
X70783675Y29534737D01*
X70783675Y29534737D02*
X70736055Y29487118D01*
X69831294Y30439499D02*
X69831294Y31058546D01*
X69831294Y31058546D02*
X70212246Y30725213D01*
X70212246Y30725213D02*
X70212246Y30868070D01*
X70212246Y30868070D02*
X70259865Y30963308D01*
X70259865Y30963308D02*
X70307484Y31010927D01*
X70307484Y31010927D02*
X70402722Y31058546D01*
X70402722Y31058546D02*
X70640817Y31058546D01*
X70640817Y31058546D02*
X70736055Y31010927D01*
X70736055Y31010927D02*
X70783675Y30963308D01*
X70783675Y30963308D02*
X70831294Y30868070D01*
X70831294Y30868070D02*
X70831294Y30582356D01*
X70831294Y30582356D02*
X70783675Y30487118D01*
X70783675Y30487118D02*
X70736055Y30439499D01*
X86726055Y44153784D02*
X86773675Y44106165D01*
X86773675Y44106165D02*
X86821294Y43963308D01*
X86821294Y43963308D02*
X86821294Y43868070D01*
X86821294Y43868070D02*
X86773675Y43725213D01*
X86773675Y43725213D02*
X86678436Y43629975D01*
X86678436Y43629975D02*
X86583198Y43582356D01*
X86583198Y43582356D02*
X86392722Y43534737D01*
X86392722Y43534737D02*
X86249865Y43534737D01*
X86249865Y43534737D02*
X86059389Y43582356D01*
X86059389Y43582356D02*
X85964151Y43629975D01*
X85964151Y43629975D02*
X85868913Y43725213D01*
X85868913Y43725213D02*
X85821294Y43868070D01*
X85821294Y43868070D02*
X85821294Y43963308D01*
X85821294Y43963308D02*
X85868913Y44106165D01*
X85868913Y44106165D02*
X85916532Y44153784D01*
X85916532Y44534737D02*
X85868913Y44582356D01*
X85868913Y44582356D02*
X85821294Y44677594D01*
X85821294Y44677594D02*
X85821294Y44915689D01*
X85821294Y44915689D02*
X85868913Y45010927D01*
X85868913Y45010927D02*
X85916532Y45058546D01*
X85916532Y45058546D02*
X86011770Y45106165D01*
X86011770Y45106165D02*
X86107008Y45106165D01*
X86107008Y45106165D02*
X86249865Y45058546D01*
X86249865Y45058546D02*
X86821294Y44487118D01*
X86821294Y44487118D02*
X86821294Y45106165D01*
X85821294Y45439499D02*
X85821294Y46106165D01*
X85821294Y46106165D02*
X86821294Y45677594D01*
D13*
X64594597Y53322031D02*
X64794169Y53322031D01*
X64794169Y53322031D02*
X64834083Y53308726D01*
X64834083Y53308726D02*
X64860693Y53282117D01*
X64860693Y53282117D02*
X64873997Y53242202D01*
X64873997Y53242202D02*
X64873997Y53215593D01*
X64687731Y53574821D02*
X64873997Y53574821D01*
X64581293Y53508297D02*
X64780864Y53441774D01*
X64780864Y53441774D02*
X64780864Y53614735D01*
X71847388Y32195549D02*
X71860693Y32182245D01*
X71860693Y32182245D02*
X71873997Y32142330D01*
X71873997Y32142330D02*
X71873997Y32115721D01*
X71873997Y32115721D02*
X71860693Y32075807D01*
X71860693Y32075807D02*
X71834083Y32049197D01*
X71834083Y32049197D02*
X71807473Y32035892D01*
X71807473Y32035892D02*
X71754254Y32022588D01*
X71754254Y32022588D02*
X71714340Y32022588D01*
X71714340Y32022588D02*
X71661121Y32035892D01*
X71661121Y32035892D02*
X71634512Y32049197D01*
X71634512Y32049197D02*
X71607902Y32075807D01*
X71607902Y32075807D02*
X71594597Y32115721D01*
X71594597Y32115721D02*
X71594597Y32142330D01*
X71594597Y32142330D02*
X71607902Y32182245D01*
X71607902Y32182245D02*
X71621207Y32195549D01*
X71594597Y32288683D02*
X71594597Y32461645D01*
X71594597Y32461645D02*
X71701035Y32368511D01*
X71701035Y32368511D02*
X71701035Y32408426D01*
X71701035Y32408426D02*
X71714340Y32435035D01*
X71714340Y32435035D02*
X71727645Y32448340D01*
X71727645Y32448340D02*
X71754254Y32461645D01*
X71754254Y32461645D02*
X71820778Y32461645D01*
X71820778Y32461645D02*
X71847388Y32448340D01*
X71847388Y32448340D02*
X71860693Y32435035D01*
X71860693Y32435035D02*
X71873997Y32408426D01*
X71873997Y32408426D02*
X71873997Y32328597D01*
X71873997Y32328597D02*
X71860693Y32301988D01*
X71860693Y32301988D02*
X71847388Y32288683D01*
X71594597Y32634606D02*
X71594597Y32661216D01*
X71594597Y32661216D02*
X71607902Y32687825D01*
X71607902Y32687825D02*
X71621207Y32701130D01*
X71621207Y32701130D02*
X71647816Y32714435D01*
X71647816Y32714435D02*
X71701035Y32727740D01*
X71701035Y32727740D02*
X71767559Y32727740D01*
X71767559Y32727740D02*
X71820778Y32714435D01*
X71820778Y32714435D02*
X71847388Y32701130D01*
X71847388Y32701130D02*
X71860693Y32687825D01*
X71860693Y32687825D02*
X71873997Y32661216D01*
X71873997Y32661216D02*
X71873997Y32634606D01*
X71873997Y32634606D02*
X71860693Y32607997D01*
X71860693Y32607997D02*
X71847388Y32594692D01*
X71847388Y32594692D02*
X71820778Y32581387D01*
X71820778Y32581387D02*
X71767559Y32568083D01*
X71767559Y32568083D02*
X71701035Y32568083D01*
X71701035Y32568083D02*
X71647816Y32581387D01*
X71647816Y32581387D02*
X71621207Y32594692D01*
X71621207Y32594692D02*
X71607902Y32607997D01*
X71607902Y32607997D02*
X71594597Y32634606D01*
X29451808Y43269541D02*
X29358675Y43402588D01*
X29292151Y43269541D02*
X29292151Y43548941D01*
X29292151Y43548941D02*
X29398589Y43548941D01*
X29398589Y43548941D02*
X29425199Y43535636D01*
X29425199Y43535636D02*
X29438504Y43522331D01*
X29438504Y43522331D02*
X29451808Y43495722D01*
X29451808Y43495722D02*
X29451808Y43455807D01*
X29451808Y43455807D02*
X29438504Y43429198D01*
X29438504Y43429198D02*
X29425199Y43415893D01*
X29425199Y43415893D02*
X29398589Y43402588D01*
X29398589Y43402588D02*
X29292151Y43402588D01*
X29691294Y43548941D02*
X29638075Y43548941D01*
X29638075Y43548941D02*
X29611466Y43535636D01*
X29611466Y43535636D02*
X29598161Y43522331D01*
X29598161Y43522331D02*
X29571551Y43482417D01*
X29571551Y43482417D02*
X29558247Y43429198D01*
X29558247Y43429198D02*
X29558247Y43322760D01*
X29558247Y43322760D02*
X29571551Y43296150D01*
X29571551Y43296150D02*
X29584856Y43282845D01*
X29584856Y43282845D02*
X29611466Y43269541D01*
X29611466Y43269541D02*
X29664685Y43269541D01*
X29664685Y43269541D02*
X29691294Y43282845D01*
X29691294Y43282845D02*
X29704599Y43296150D01*
X29704599Y43296150D02*
X29717904Y43322760D01*
X29717904Y43322760D02*
X29717904Y43389284D01*
X29717904Y43389284D02*
X29704599Y43415893D01*
X29704599Y43415893D02*
X29691294Y43429198D01*
X29691294Y43429198D02*
X29664685Y43442503D01*
X29664685Y43442503D02*
X29611466Y43442503D01*
X29611466Y43442503D02*
X29584856Y43429198D01*
X29584856Y43429198D02*
X29571551Y43415893D01*
X29571551Y43415893D02*
X29558247Y43389284D01*
X88070997Y27812031D02*
X88270569Y27812031D01*
X88270569Y27812031D02*
X88310483Y27798726D01*
X88310483Y27798726D02*
X88337093Y27772117D01*
X88337093Y27772117D02*
X88350397Y27732202D01*
X88350397Y27732202D02*
X88350397Y27705593D01*
X88070997Y28078126D02*
X88070997Y27945078D01*
X88070997Y27945078D02*
X88204045Y27931774D01*
X88204045Y27931774D02*
X88190740Y27945078D01*
X88190740Y27945078D02*
X88177435Y27971688D01*
X88177435Y27971688D02*
X88177435Y28038212D01*
X88177435Y28038212D02*
X88190740Y28064821D01*
X88190740Y28064821D02*
X88204045Y28078126D01*
X88204045Y28078126D02*
X88230654Y28091431D01*
X88230654Y28091431D02*
X88297178Y28091431D01*
X88297178Y28091431D02*
X88323788Y28078126D01*
X88323788Y28078126D02*
X88337093Y28064821D01*
X88337093Y28064821D02*
X88350397Y28038212D01*
X88350397Y28038212D02*
X88350397Y27971688D01*
X88350397Y27971688D02*
X88337093Y27945078D01*
X88337093Y27945078D02*
X88323788Y27931774D01*
X28951808Y36919541D02*
X28818760Y36919541D01*
X28818760Y36919541D02*
X28818760Y37198941D01*
X29191294Y36919541D02*
X29031637Y36919541D01*
X29111465Y36919541D02*
X29111465Y37198941D01*
X29111465Y37198941D02*
X29084856Y37159026D01*
X29084856Y37159026D02*
X29058246Y37132417D01*
X29058246Y37132417D02*
X29031637Y37119112D01*
X42347388Y41348597D02*
X42360693Y41335293D01*
X42360693Y41335293D02*
X42373997Y41295378D01*
X42373997Y41295378D02*
X42373997Y41268769D01*
X42373997Y41268769D02*
X42360693Y41228855D01*
X42360693Y41228855D02*
X42334083Y41202245D01*
X42334083Y41202245D02*
X42307473Y41188940D01*
X42307473Y41188940D02*
X42254254Y41175636D01*
X42254254Y41175636D02*
X42214340Y41175636D01*
X42214340Y41175636D02*
X42161121Y41188940D01*
X42161121Y41188940D02*
X42134512Y41202245D01*
X42134512Y41202245D02*
X42107902Y41228855D01*
X42107902Y41228855D02*
X42094597Y41268769D01*
X42094597Y41268769D02*
X42094597Y41295378D01*
X42094597Y41295378D02*
X42107902Y41335293D01*
X42107902Y41335293D02*
X42121207Y41348597D01*
X42094597Y41441731D02*
X42094597Y41627997D01*
X42094597Y41627997D02*
X42373997Y41508255D01*
X22221808Y18796150D02*
X22208504Y18782845D01*
X22208504Y18782845D02*
X22168589Y18769541D01*
X22168589Y18769541D02*
X22141980Y18769541D01*
X22141980Y18769541D02*
X22102066Y18782845D01*
X22102066Y18782845D02*
X22075456Y18809455D01*
X22075456Y18809455D02*
X22062151Y18836065D01*
X22062151Y18836065D02*
X22048847Y18889284D01*
X22048847Y18889284D02*
X22048847Y18929198D01*
X22048847Y18929198D02*
X22062151Y18982417D01*
X22062151Y18982417D02*
X22075456Y19009026D01*
X22075456Y19009026D02*
X22102066Y19035636D01*
X22102066Y19035636D02*
X22141980Y19048941D01*
X22141980Y19048941D02*
X22168589Y19048941D01*
X22168589Y19048941D02*
X22208504Y19035636D01*
X22208504Y19035636D02*
X22221808Y19022331D01*
X22487904Y18769541D02*
X22328247Y18769541D01*
X22408075Y18769541D02*
X22408075Y19048941D01*
X22408075Y19048941D02*
X22381466Y19009026D01*
X22381466Y19009026D02*
X22354856Y18982417D01*
X22354856Y18982417D02*
X22328247Y18969112D01*
X26201808Y42296150D02*
X26188504Y42282845D01*
X26188504Y42282845D02*
X26148589Y42269541D01*
X26148589Y42269541D02*
X26121980Y42269541D01*
X26121980Y42269541D02*
X26082066Y42282845D01*
X26082066Y42282845D02*
X26055456Y42309455D01*
X26055456Y42309455D02*
X26042151Y42336065D01*
X26042151Y42336065D02*
X26028847Y42389284D01*
X26028847Y42389284D02*
X26028847Y42429198D01*
X26028847Y42429198D02*
X26042151Y42482417D01*
X26042151Y42482417D02*
X26055456Y42509026D01*
X26055456Y42509026D02*
X26082066Y42535636D01*
X26082066Y42535636D02*
X26121980Y42548941D01*
X26121980Y42548941D02*
X26148589Y42548941D01*
X26148589Y42548941D02*
X26188504Y42535636D01*
X26188504Y42535636D02*
X26201808Y42522331D01*
X26294942Y42548941D02*
X26467904Y42548941D01*
X26467904Y42548941D02*
X26374770Y42442503D01*
X26374770Y42442503D02*
X26414685Y42442503D01*
X26414685Y42442503D02*
X26441294Y42429198D01*
X26441294Y42429198D02*
X26454599Y42415893D01*
X26454599Y42415893D02*
X26467904Y42389284D01*
X26467904Y42389284D02*
X26467904Y42322760D01*
X26467904Y42322760D02*
X26454599Y42296150D01*
X26454599Y42296150D02*
X26441294Y42282845D01*
X26441294Y42282845D02*
X26414685Y42269541D01*
X26414685Y42269541D02*
X26334856Y42269541D01*
X26334856Y42269541D02*
X26308247Y42282845D01*
X26308247Y42282845D02*
X26294942Y42296150D01*
X12094597Y50842031D02*
X12294169Y50842031D01*
X12294169Y50842031D02*
X12334083Y50828726D01*
X12334083Y50828726D02*
X12360693Y50802117D01*
X12360693Y50802117D02*
X12373997Y50762202D01*
X12373997Y50762202D02*
X12373997Y50735593D01*
X12373997Y50988383D02*
X12373997Y51041602D01*
X12373997Y51041602D02*
X12360693Y51068212D01*
X12360693Y51068212D02*
X12347388Y51081516D01*
X12347388Y51081516D02*
X12307473Y51108126D01*
X12307473Y51108126D02*
X12254254Y51121431D01*
X12254254Y51121431D02*
X12147816Y51121431D01*
X12147816Y51121431D02*
X12121207Y51108126D01*
X12121207Y51108126D02*
X12107902Y51094821D01*
X12107902Y51094821D02*
X12094597Y51068212D01*
X12094597Y51068212D02*
X12094597Y51014993D01*
X12094597Y51014993D02*
X12107902Y50988383D01*
X12107902Y50988383D02*
X12121207Y50975078D01*
X12121207Y50975078D02*
X12147816Y50961774D01*
X12147816Y50961774D02*
X12214340Y50961774D01*
X12214340Y50961774D02*
X12240950Y50975078D01*
X12240950Y50975078D02*
X12254254Y50988383D01*
X12254254Y50988383D02*
X12267559Y51014993D01*
X12267559Y51014993D02*
X12267559Y51068212D01*
X12267559Y51068212D02*
X12254254Y51094821D01*
X12254254Y51094821D02*
X12240950Y51108126D01*
X12240950Y51108126D02*
X12214340Y51121431D01*
X27623997Y8455549D02*
X27490950Y8362416D01*
X27623997Y8295892D02*
X27344597Y8295892D01*
X27344597Y8295892D02*
X27344597Y8402330D01*
X27344597Y8402330D02*
X27357902Y8428940D01*
X27357902Y8428940D02*
X27371207Y8442245D01*
X27371207Y8442245D02*
X27397816Y8455549D01*
X27397816Y8455549D02*
X27437731Y8455549D01*
X27437731Y8455549D02*
X27464340Y8442245D01*
X27464340Y8442245D02*
X27477645Y8428940D01*
X27477645Y8428940D02*
X27490950Y8402330D01*
X27490950Y8402330D02*
X27490950Y8295892D01*
X27371207Y8561988D02*
X27357902Y8575292D01*
X27357902Y8575292D02*
X27344597Y8601902D01*
X27344597Y8601902D02*
X27344597Y8668426D01*
X27344597Y8668426D02*
X27357902Y8695035D01*
X27357902Y8695035D02*
X27371207Y8708340D01*
X27371207Y8708340D02*
X27397816Y8721645D01*
X27397816Y8721645D02*
X27424426Y8721645D01*
X27424426Y8721645D02*
X27464340Y8708340D01*
X27464340Y8708340D02*
X27623997Y8548683D01*
X27623997Y8548683D02*
X27623997Y8721645D01*
X27344597Y8894606D02*
X27344597Y8921216D01*
X27344597Y8921216D02*
X27357902Y8947825D01*
X27357902Y8947825D02*
X27371207Y8961130D01*
X27371207Y8961130D02*
X27397816Y8974435D01*
X27397816Y8974435D02*
X27451035Y8987740D01*
X27451035Y8987740D02*
X27517559Y8987740D01*
X27517559Y8987740D02*
X27570778Y8974435D01*
X27570778Y8974435D02*
X27597388Y8961130D01*
X27597388Y8961130D02*
X27610693Y8947825D01*
X27610693Y8947825D02*
X27623997Y8921216D01*
X27623997Y8921216D02*
X27623997Y8894606D01*
X27623997Y8894606D02*
X27610693Y8867997D01*
X27610693Y8867997D02*
X27597388Y8854692D01*
X27597388Y8854692D02*
X27570778Y8841387D01*
X27570778Y8841387D02*
X27517559Y8828083D01*
X27517559Y8828083D02*
X27451035Y8828083D01*
X27451035Y8828083D02*
X27397816Y8841387D01*
X27397816Y8841387D02*
X27371207Y8854692D01*
X27371207Y8854692D02*
X27357902Y8867997D01*
X27357902Y8867997D02*
X27344597Y8894606D01*
X77589597Y34182287D02*
X77815778Y34182287D01*
X77815778Y34182287D02*
X77842388Y34195592D01*
X77842388Y34195592D02*
X77855693Y34208897D01*
X77855693Y34208897D02*
X77868997Y34235506D01*
X77868997Y34235506D02*
X77868997Y34288725D01*
X77868997Y34288725D02*
X77855693Y34315335D01*
X77855693Y34315335D02*
X77842388Y34328640D01*
X77842388Y34328640D02*
X77815778Y34341944D01*
X77815778Y34341944D02*
X77589597Y34341944D01*
X77589597Y34608040D02*
X77589597Y34474992D01*
X77589597Y34474992D02*
X77722645Y34461688D01*
X77722645Y34461688D02*
X77709340Y34474992D01*
X77709340Y34474992D02*
X77696035Y34501602D01*
X77696035Y34501602D02*
X77696035Y34568126D01*
X77696035Y34568126D02*
X77709340Y34594735D01*
X77709340Y34594735D02*
X77722645Y34608040D01*
X77722645Y34608040D02*
X77749254Y34621345D01*
X77749254Y34621345D02*
X77815778Y34621345D01*
X77815778Y34621345D02*
X77842388Y34608040D01*
X77842388Y34608040D02*
X77855693Y34594735D01*
X77855693Y34594735D02*
X77868997Y34568126D01*
X77868997Y34568126D02*
X77868997Y34501602D01*
X77868997Y34501602D02*
X77855693Y34474992D01*
X77855693Y34474992D02*
X77842388Y34461688D01*
X8094597Y28688983D02*
X8294169Y28688983D01*
X8294169Y28688983D02*
X8334083Y28675678D01*
X8334083Y28675678D02*
X8360693Y28649069D01*
X8360693Y28649069D02*
X8373997Y28609154D01*
X8373997Y28609154D02*
X8373997Y28582545D01*
X8373997Y28968383D02*
X8373997Y28808726D01*
X8373997Y28888554D02*
X8094597Y28888554D01*
X8094597Y28888554D02*
X8134512Y28861945D01*
X8134512Y28861945D02*
X8161121Y28835335D01*
X8161121Y28835335D02*
X8174426Y28808726D01*
X8121207Y29074821D02*
X8107902Y29088125D01*
X8107902Y29088125D02*
X8094597Y29114735D01*
X8094597Y29114735D02*
X8094597Y29181259D01*
X8094597Y29181259D02*
X8107902Y29207868D01*
X8107902Y29207868D02*
X8121207Y29221173D01*
X8121207Y29221173D02*
X8147816Y29234478D01*
X8147816Y29234478D02*
X8174426Y29234478D01*
X8174426Y29234478D02*
X8214340Y29221173D01*
X8214340Y29221173D02*
X8373997Y29061516D01*
X8373997Y29061516D02*
X8373997Y29234478D01*
X30123997Y8475549D02*
X29990950Y8382416D01*
X30123997Y8315892D02*
X29844597Y8315892D01*
X29844597Y8315892D02*
X29844597Y8422330D01*
X29844597Y8422330D02*
X29857902Y8448940D01*
X29857902Y8448940D02*
X29871207Y8462245D01*
X29871207Y8462245D02*
X29897816Y8475549D01*
X29897816Y8475549D02*
X29937731Y8475549D01*
X29937731Y8475549D02*
X29964340Y8462245D01*
X29964340Y8462245D02*
X29977645Y8448940D01*
X29977645Y8448940D02*
X29990950Y8422330D01*
X29990950Y8422330D02*
X29990950Y8315892D01*
X30123997Y8741645D02*
X30123997Y8581988D01*
X30123997Y8661816D02*
X29844597Y8661816D01*
X29844597Y8661816D02*
X29884512Y8635207D01*
X29884512Y8635207D02*
X29911121Y8608597D01*
X29911121Y8608597D02*
X29924426Y8581988D01*
X29964340Y8901302D02*
X29951035Y8874692D01*
X29951035Y8874692D02*
X29937731Y8861387D01*
X29937731Y8861387D02*
X29911121Y8848083D01*
X29911121Y8848083D02*
X29897816Y8848083D01*
X29897816Y8848083D02*
X29871207Y8861387D01*
X29871207Y8861387D02*
X29857902Y8874692D01*
X29857902Y8874692D02*
X29844597Y8901302D01*
X29844597Y8901302D02*
X29844597Y8954521D01*
X29844597Y8954521D02*
X29857902Y8981130D01*
X29857902Y8981130D02*
X29871207Y8994435D01*
X29871207Y8994435D02*
X29897816Y9007740D01*
X29897816Y9007740D02*
X29911121Y9007740D01*
X29911121Y9007740D02*
X29937731Y8994435D01*
X29937731Y8994435D02*
X29951035Y8981130D01*
X29951035Y8981130D02*
X29964340Y8954521D01*
X29964340Y8954521D02*
X29964340Y8901302D01*
X29964340Y8901302D02*
X29977645Y8874692D01*
X29977645Y8874692D02*
X29990950Y8861387D01*
X29990950Y8861387D02*
X30017559Y8848083D01*
X30017559Y8848083D02*
X30070778Y8848083D01*
X30070778Y8848083D02*
X30097388Y8861387D01*
X30097388Y8861387D02*
X30110693Y8874692D01*
X30110693Y8874692D02*
X30123997Y8901302D01*
X30123997Y8901302D02*
X30123997Y8954521D01*
X30123997Y8954521D02*
X30110693Y8981130D01*
X30110693Y8981130D02*
X30097388Y8994435D01*
X30097388Y8994435D02*
X30070778Y9007740D01*
X30070778Y9007740D02*
X30017559Y9007740D01*
X30017559Y9007740D02*
X29990950Y8994435D01*
X29990950Y8994435D02*
X29977645Y8981130D01*
X29977645Y8981130D02*
X29964340Y8954521D01*
X71873997Y34725549D02*
X71740950Y34632416D01*
X71873997Y34565892D02*
X71594597Y34565892D01*
X71594597Y34565892D02*
X71594597Y34672330D01*
X71594597Y34672330D02*
X71607902Y34698940D01*
X71607902Y34698940D02*
X71621207Y34712245D01*
X71621207Y34712245D02*
X71647816Y34725549D01*
X71647816Y34725549D02*
X71687731Y34725549D01*
X71687731Y34725549D02*
X71714340Y34712245D01*
X71714340Y34712245D02*
X71727645Y34698940D01*
X71727645Y34698940D02*
X71740950Y34672330D01*
X71740950Y34672330D02*
X71740950Y34565892D01*
X71621207Y34831988D02*
X71607902Y34845292D01*
X71607902Y34845292D02*
X71594597Y34871902D01*
X71594597Y34871902D02*
X71594597Y34938426D01*
X71594597Y34938426D02*
X71607902Y34965035D01*
X71607902Y34965035D02*
X71621207Y34978340D01*
X71621207Y34978340D02*
X71647816Y34991645D01*
X71647816Y34991645D02*
X71674426Y34991645D01*
X71674426Y34991645D02*
X71714340Y34978340D01*
X71714340Y34978340D02*
X71873997Y34818683D01*
X71873997Y34818683D02*
X71873997Y34991645D01*
X71594597Y35244435D02*
X71594597Y35111387D01*
X71594597Y35111387D02*
X71727645Y35098083D01*
X71727645Y35098083D02*
X71714340Y35111387D01*
X71714340Y35111387D02*
X71701035Y35137997D01*
X71701035Y35137997D02*
X71701035Y35204521D01*
X71701035Y35204521D02*
X71714340Y35231130D01*
X71714340Y35231130D02*
X71727645Y35244435D01*
X71727645Y35244435D02*
X71754254Y35257740D01*
X71754254Y35257740D02*
X71820778Y35257740D01*
X71820778Y35257740D02*
X71847388Y35244435D01*
X71847388Y35244435D02*
X71860693Y35231130D01*
X71860693Y35231130D02*
X71873997Y35204521D01*
X71873997Y35204521D02*
X71873997Y35137997D01*
X71873997Y35137997D02*
X71860693Y35111387D01*
X71860693Y35111387D02*
X71847388Y35098083D01*
X25615327Y16402588D02*
X25615327Y16269541D01*
X25522194Y16548941D02*
X25615327Y16402588D01*
X25615327Y16402588D02*
X25708461Y16548941D01*
X25947947Y16269541D02*
X25788290Y16269541D01*
X25868118Y16269541D02*
X25868118Y16548941D01*
X25868118Y16548941D02*
X25841509Y16509026D01*
X25841509Y16509026D02*
X25814899Y16482417D01*
X25814899Y16482417D02*
X25788290Y16469112D01*
X47169597Y47182287D02*
X47395778Y47182287D01*
X47395778Y47182287D02*
X47422388Y47195592D01*
X47422388Y47195592D02*
X47435693Y47208897D01*
X47435693Y47208897D02*
X47448997Y47235506D01*
X47448997Y47235506D02*
X47448997Y47288725D01*
X47448997Y47288725D02*
X47435693Y47315335D01*
X47435693Y47315335D02*
X47422388Y47328640D01*
X47422388Y47328640D02*
X47395778Y47341944D01*
X47395778Y47341944D02*
X47169597Y47341944D01*
X47196207Y47461688D02*
X47182902Y47474992D01*
X47182902Y47474992D02*
X47169597Y47501602D01*
X47169597Y47501602D02*
X47169597Y47568126D01*
X47169597Y47568126D02*
X47182902Y47594735D01*
X47182902Y47594735D02*
X47196207Y47608040D01*
X47196207Y47608040D02*
X47222816Y47621345D01*
X47222816Y47621345D02*
X47249426Y47621345D01*
X47249426Y47621345D02*
X47289340Y47608040D01*
X47289340Y47608040D02*
X47448997Y47448383D01*
X47448997Y47448383D02*
X47448997Y47621345D01*
X34373997Y6235549D02*
X34240950Y6142416D01*
X34373997Y6075892D02*
X34094597Y6075892D01*
X34094597Y6075892D02*
X34094597Y6182330D01*
X34094597Y6182330D02*
X34107902Y6208940D01*
X34107902Y6208940D02*
X34121207Y6222245D01*
X34121207Y6222245D02*
X34147816Y6235549D01*
X34147816Y6235549D02*
X34187731Y6235549D01*
X34187731Y6235549D02*
X34214340Y6222245D01*
X34214340Y6222245D02*
X34227645Y6208940D01*
X34227645Y6208940D02*
X34240950Y6182330D01*
X34240950Y6182330D02*
X34240950Y6075892D01*
X34373997Y6501645D02*
X34373997Y6341988D01*
X34373997Y6421816D02*
X34094597Y6421816D01*
X34094597Y6421816D02*
X34134512Y6395207D01*
X34134512Y6395207D02*
X34161121Y6368597D01*
X34161121Y6368597D02*
X34174426Y6341988D01*
X34187731Y6741130D02*
X34373997Y6741130D01*
X34081293Y6674606D02*
X34280864Y6608083D01*
X34280864Y6608083D02*
X34280864Y6781044D01*
X86847388Y34715549D02*
X86860693Y34702245D01*
X86860693Y34702245D02*
X86873997Y34662330D01*
X86873997Y34662330D02*
X86873997Y34635721D01*
X86873997Y34635721D02*
X86860693Y34595807D01*
X86860693Y34595807D02*
X86834083Y34569197D01*
X86834083Y34569197D02*
X86807473Y34555892D01*
X86807473Y34555892D02*
X86754254Y34542588D01*
X86754254Y34542588D02*
X86714340Y34542588D01*
X86714340Y34542588D02*
X86661121Y34555892D01*
X86661121Y34555892D02*
X86634512Y34569197D01*
X86634512Y34569197D02*
X86607902Y34595807D01*
X86607902Y34595807D02*
X86594597Y34635721D01*
X86594597Y34635721D02*
X86594597Y34662330D01*
X86594597Y34662330D02*
X86607902Y34702245D01*
X86607902Y34702245D02*
X86621207Y34715549D01*
X86621207Y34821988D02*
X86607902Y34835292D01*
X86607902Y34835292D02*
X86594597Y34861902D01*
X86594597Y34861902D02*
X86594597Y34928426D01*
X86594597Y34928426D02*
X86607902Y34955035D01*
X86607902Y34955035D02*
X86621207Y34968340D01*
X86621207Y34968340D02*
X86647816Y34981645D01*
X86647816Y34981645D02*
X86674426Y34981645D01*
X86674426Y34981645D02*
X86714340Y34968340D01*
X86714340Y34968340D02*
X86873997Y34808683D01*
X86873997Y34808683D02*
X86873997Y34981645D01*
X86594597Y35234435D02*
X86594597Y35101387D01*
X86594597Y35101387D02*
X86727645Y35088083D01*
X86727645Y35088083D02*
X86714340Y35101387D01*
X86714340Y35101387D02*
X86701035Y35127997D01*
X86701035Y35127997D02*
X86701035Y35194521D01*
X86701035Y35194521D02*
X86714340Y35221130D01*
X86714340Y35221130D02*
X86727645Y35234435D01*
X86727645Y35234435D02*
X86754254Y35247740D01*
X86754254Y35247740D02*
X86820778Y35247740D01*
X86820778Y35247740D02*
X86847388Y35234435D01*
X86847388Y35234435D02*
X86860693Y35221130D01*
X86860693Y35221130D02*
X86873997Y35194521D01*
X86873997Y35194521D02*
X86873997Y35127997D01*
X86873997Y35127997D02*
X86860693Y35101387D01*
X86860693Y35101387D02*
X86847388Y35088083D01*
X7847388Y11465549D02*
X7860693Y11452245D01*
X7860693Y11452245D02*
X7873997Y11412330D01*
X7873997Y11412330D02*
X7873997Y11385721D01*
X7873997Y11385721D02*
X7860693Y11345807D01*
X7860693Y11345807D02*
X7834083Y11319197D01*
X7834083Y11319197D02*
X7807473Y11305892D01*
X7807473Y11305892D02*
X7754254Y11292588D01*
X7754254Y11292588D02*
X7714340Y11292588D01*
X7714340Y11292588D02*
X7661121Y11305892D01*
X7661121Y11305892D02*
X7634512Y11319197D01*
X7634512Y11319197D02*
X7607902Y11345807D01*
X7607902Y11345807D02*
X7594597Y11385721D01*
X7594597Y11385721D02*
X7594597Y11412330D01*
X7594597Y11412330D02*
X7607902Y11452245D01*
X7607902Y11452245D02*
X7621207Y11465549D01*
X7594597Y11558683D02*
X7594597Y11731645D01*
X7594597Y11731645D02*
X7701035Y11638511D01*
X7701035Y11638511D02*
X7701035Y11678426D01*
X7701035Y11678426D02*
X7714340Y11705035D01*
X7714340Y11705035D02*
X7727645Y11718340D01*
X7727645Y11718340D02*
X7754254Y11731645D01*
X7754254Y11731645D02*
X7820778Y11731645D01*
X7820778Y11731645D02*
X7847388Y11718340D01*
X7847388Y11718340D02*
X7860693Y11705035D01*
X7860693Y11705035D02*
X7873997Y11678426D01*
X7873997Y11678426D02*
X7873997Y11598597D01*
X7873997Y11598597D02*
X7860693Y11571988D01*
X7860693Y11571988D02*
X7847388Y11558683D01*
X7621207Y11838083D02*
X7607902Y11851387D01*
X7607902Y11851387D02*
X7594597Y11877997D01*
X7594597Y11877997D02*
X7594597Y11944521D01*
X7594597Y11944521D02*
X7607902Y11971130D01*
X7607902Y11971130D02*
X7621207Y11984435D01*
X7621207Y11984435D02*
X7647816Y11997740D01*
X7647816Y11997740D02*
X7674426Y11997740D01*
X7674426Y11997740D02*
X7714340Y11984435D01*
X7714340Y11984435D02*
X7873997Y11824778D01*
X7873997Y11824778D02*
X7873997Y11997740D01*
X59502194Y49048941D02*
X59502194Y48849369D01*
X59502194Y48849369D02*
X59488889Y48809455D01*
X59488889Y48809455D02*
X59462280Y48782845D01*
X59462280Y48782845D02*
X59422365Y48769541D01*
X59422365Y48769541D02*
X59395756Y48769541D01*
X59781594Y48769541D02*
X59621937Y48769541D01*
X59701765Y48769541D02*
X59701765Y49048941D01*
X59701765Y49048941D02*
X59675156Y49009026D01*
X59675156Y49009026D02*
X59648546Y48982417D01*
X59648546Y48982417D02*
X59621937Y48969112D01*
X59954555Y49048941D02*
X59981165Y49048941D01*
X59981165Y49048941D02*
X60007774Y49035636D01*
X60007774Y49035636D02*
X60021079Y49022331D01*
X60021079Y49022331D02*
X60034384Y48995722D01*
X60034384Y48995722D02*
X60047689Y48942503D01*
X60047689Y48942503D02*
X60047689Y48875979D01*
X60047689Y48875979D02*
X60034384Y48822760D01*
X60034384Y48822760D02*
X60021079Y48796150D01*
X60021079Y48796150D02*
X60007774Y48782845D01*
X60007774Y48782845D02*
X59981165Y48769541D01*
X59981165Y48769541D02*
X59954555Y48769541D01*
X59954555Y48769541D02*
X59927946Y48782845D01*
X59927946Y48782845D02*
X59914641Y48796150D01*
X59914641Y48796150D02*
X59901336Y48822760D01*
X59901336Y48822760D02*
X59888032Y48875979D01*
X59888032Y48875979D02*
X59888032Y48942503D01*
X59888032Y48942503D02*
X59901336Y48995722D01*
X59901336Y48995722D02*
X59914641Y49022331D01*
X59914641Y49022331D02*
X59927946Y49035636D01*
X59927946Y49035636D02*
X59954555Y49048941D01*
X48594597Y41182287D02*
X48820778Y41182287D01*
X48820778Y41182287D02*
X48847388Y41195592D01*
X48847388Y41195592D02*
X48860693Y41208897D01*
X48860693Y41208897D02*
X48873997Y41235506D01*
X48873997Y41235506D02*
X48873997Y41288725D01*
X48873997Y41288725D02*
X48860693Y41315335D01*
X48860693Y41315335D02*
X48847388Y41328640D01*
X48847388Y41328640D02*
X48820778Y41341944D01*
X48820778Y41341944D02*
X48594597Y41341944D01*
X48594597Y41448383D02*
X48594597Y41621345D01*
X48594597Y41621345D02*
X48701035Y41528211D01*
X48701035Y41528211D02*
X48701035Y41568126D01*
X48701035Y41568126D02*
X48714340Y41594735D01*
X48714340Y41594735D02*
X48727645Y41608040D01*
X48727645Y41608040D02*
X48754254Y41621345D01*
X48754254Y41621345D02*
X48820778Y41621345D01*
X48820778Y41621345D02*
X48847388Y41608040D01*
X48847388Y41608040D02*
X48860693Y41594735D01*
X48860693Y41594735D02*
X48873997Y41568126D01*
X48873997Y41568126D02*
X48873997Y41488297D01*
X48873997Y41488297D02*
X48860693Y41461688D01*
X48860693Y41461688D02*
X48847388Y41448383D01*
X36623997Y6235549D02*
X36490950Y6142416D01*
X36623997Y6075892D02*
X36344597Y6075892D01*
X36344597Y6075892D02*
X36344597Y6182330D01*
X36344597Y6182330D02*
X36357902Y6208940D01*
X36357902Y6208940D02*
X36371207Y6222245D01*
X36371207Y6222245D02*
X36397816Y6235549D01*
X36397816Y6235549D02*
X36437731Y6235549D01*
X36437731Y6235549D02*
X36464340Y6222245D01*
X36464340Y6222245D02*
X36477645Y6208940D01*
X36477645Y6208940D02*
X36490950Y6182330D01*
X36490950Y6182330D02*
X36490950Y6075892D01*
X36623997Y6501645D02*
X36623997Y6341988D01*
X36623997Y6421816D02*
X36344597Y6421816D01*
X36344597Y6421816D02*
X36384512Y6395207D01*
X36384512Y6395207D02*
X36411121Y6368597D01*
X36411121Y6368597D02*
X36424426Y6341988D01*
X36344597Y6594778D02*
X36344597Y6767740D01*
X36344597Y6767740D02*
X36451035Y6674606D01*
X36451035Y6674606D02*
X36451035Y6714521D01*
X36451035Y6714521D02*
X36464340Y6741130D01*
X36464340Y6741130D02*
X36477645Y6754435D01*
X36477645Y6754435D02*
X36504254Y6767740D01*
X36504254Y6767740D02*
X36570778Y6767740D01*
X36570778Y6767740D02*
X36597388Y6754435D01*
X36597388Y6754435D02*
X36610693Y6741130D01*
X36610693Y6741130D02*
X36623997Y6714521D01*
X36623997Y6714521D02*
X36623997Y6634692D01*
X36623997Y6634692D02*
X36610693Y6608083D01*
X36610693Y6608083D02*
X36597388Y6594778D01*
X83847388Y35215549D02*
X83860693Y35202245D01*
X83860693Y35202245D02*
X83873997Y35162330D01*
X83873997Y35162330D02*
X83873997Y35135721D01*
X83873997Y35135721D02*
X83860693Y35095807D01*
X83860693Y35095807D02*
X83834083Y35069197D01*
X83834083Y35069197D02*
X83807473Y35055892D01*
X83807473Y35055892D02*
X83754254Y35042588D01*
X83754254Y35042588D02*
X83714340Y35042588D01*
X83714340Y35042588D02*
X83661121Y35055892D01*
X83661121Y35055892D02*
X83634512Y35069197D01*
X83634512Y35069197D02*
X83607902Y35095807D01*
X83607902Y35095807D02*
X83594597Y35135721D01*
X83594597Y35135721D02*
X83594597Y35162330D01*
X83594597Y35162330D02*
X83607902Y35202245D01*
X83607902Y35202245D02*
X83621207Y35215549D01*
X83621207Y35321988D02*
X83607902Y35335292D01*
X83607902Y35335292D02*
X83594597Y35361902D01*
X83594597Y35361902D02*
X83594597Y35428426D01*
X83594597Y35428426D02*
X83607902Y35455035D01*
X83607902Y35455035D02*
X83621207Y35468340D01*
X83621207Y35468340D02*
X83647816Y35481645D01*
X83647816Y35481645D02*
X83674426Y35481645D01*
X83674426Y35481645D02*
X83714340Y35468340D01*
X83714340Y35468340D02*
X83873997Y35308683D01*
X83873997Y35308683D02*
X83873997Y35481645D01*
X83687731Y35721130D02*
X83873997Y35721130D01*
X83581293Y35654606D02*
X83780864Y35588083D01*
X83780864Y35588083D02*
X83780864Y35761044D01*
X80568760Y41296150D02*
X80555456Y41282845D01*
X80555456Y41282845D02*
X80515541Y41269541D01*
X80515541Y41269541D02*
X80488932Y41269541D01*
X80488932Y41269541D02*
X80449018Y41282845D01*
X80449018Y41282845D02*
X80422408Y41309455D01*
X80422408Y41309455D02*
X80409103Y41336065D01*
X80409103Y41336065D02*
X80395799Y41389284D01*
X80395799Y41389284D02*
X80395799Y41429198D01*
X80395799Y41429198D02*
X80409103Y41482417D01*
X80409103Y41482417D02*
X80422408Y41509026D01*
X80422408Y41509026D02*
X80449018Y41535636D01*
X80449018Y41535636D02*
X80488932Y41548941D01*
X80488932Y41548941D02*
X80515541Y41548941D01*
X80515541Y41548941D02*
X80555456Y41535636D01*
X80555456Y41535636D02*
X80568760Y41522331D01*
X80675199Y41522331D02*
X80688503Y41535636D01*
X80688503Y41535636D02*
X80715113Y41548941D01*
X80715113Y41548941D02*
X80781637Y41548941D01*
X80781637Y41548941D02*
X80808246Y41535636D01*
X80808246Y41535636D02*
X80821551Y41522331D01*
X80821551Y41522331D02*
X80834856Y41495722D01*
X80834856Y41495722D02*
X80834856Y41469112D01*
X80834856Y41469112D02*
X80821551Y41429198D01*
X80821551Y41429198D02*
X80661894Y41269541D01*
X80661894Y41269541D02*
X80834856Y41269541D01*
X80927989Y41548941D02*
X81100951Y41548941D01*
X81100951Y41548941D02*
X81007817Y41442503D01*
X81007817Y41442503D02*
X81047732Y41442503D01*
X81047732Y41442503D02*
X81074341Y41429198D01*
X81074341Y41429198D02*
X81087646Y41415893D01*
X81087646Y41415893D02*
X81100951Y41389284D01*
X81100951Y41389284D02*
X81100951Y41322760D01*
X81100951Y41322760D02*
X81087646Y41296150D01*
X81087646Y41296150D02*
X81074341Y41282845D01*
X81074341Y41282845D02*
X81047732Y41269541D01*
X81047732Y41269541D02*
X80967903Y41269541D01*
X80967903Y41269541D02*
X80941294Y41282845D01*
X80941294Y41282845D02*
X80927989Y41296150D01*
X28701808Y32546150D02*
X28688504Y32532845D01*
X28688504Y32532845D02*
X28648589Y32519541D01*
X28648589Y32519541D02*
X28621980Y32519541D01*
X28621980Y32519541D02*
X28582066Y32532845D01*
X28582066Y32532845D02*
X28555456Y32559455D01*
X28555456Y32559455D02*
X28542151Y32586065D01*
X28542151Y32586065D02*
X28528847Y32639284D01*
X28528847Y32639284D02*
X28528847Y32679198D01*
X28528847Y32679198D02*
X28542151Y32732417D01*
X28542151Y32732417D02*
X28555456Y32759026D01*
X28555456Y32759026D02*
X28582066Y32785636D01*
X28582066Y32785636D02*
X28621980Y32798941D01*
X28621980Y32798941D02*
X28648589Y32798941D01*
X28648589Y32798941D02*
X28688504Y32785636D01*
X28688504Y32785636D02*
X28701808Y32772331D01*
X28954599Y32798941D02*
X28821551Y32798941D01*
X28821551Y32798941D02*
X28808247Y32665893D01*
X28808247Y32665893D02*
X28821551Y32679198D01*
X28821551Y32679198D02*
X28848161Y32692503D01*
X28848161Y32692503D02*
X28914685Y32692503D01*
X28914685Y32692503D02*
X28941294Y32679198D01*
X28941294Y32679198D02*
X28954599Y32665893D01*
X28954599Y32665893D02*
X28967904Y32639284D01*
X28967904Y32639284D02*
X28967904Y32572760D01*
X28967904Y32572760D02*
X28954599Y32546150D01*
X28954599Y32546150D02*
X28941294Y32532845D01*
X28941294Y32532845D02*
X28914685Y32519541D01*
X28914685Y32519541D02*
X28848161Y32519541D01*
X28848161Y32519541D02*
X28821551Y32532845D01*
X28821551Y32532845D02*
X28808247Y32546150D01*
X54702775Y47548941D02*
X54702775Y47482417D01*
X54636251Y47509026D02*
X54702775Y47482417D01*
X54702775Y47482417D02*
X54769298Y47509026D01*
X54662860Y47429198D02*
X54702775Y47482417D01*
X54702775Y47482417D02*
X54742689Y47429198D01*
X53064475Y47548941D02*
X53064475Y47482417D01*
X52997951Y47509026D02*
X53064475Y47482417D01*
X53064475Y47482417D02*
X53130998Y47509026D01*
X53024560Y47429198D02*
X53064475Y47482417D01*
X53064475Y47482417D02*
X53104389Y47429198D01*
X52603041Y47494177D02*
X52616345Y47507481D01*
X52616345Y47507481D02*
X52656260Y47520786D01*
X52656260Y47520786D02*
X52682869Y47520786D01*
X52682869Y47520786D02*
X52722783Y47507481D01*
X52722783Y47507481D02*
X52749393Y47480872D01*
X52749393Y47480872D02*
X52762698Y47454262D01*
X52762698Y47454262D02*
X52776002Y47401043D01*
X52776002Y47401043D02*
X52776002Y47361129D01*
X52776002Y47361129D02*
X52762698Y47307910D01*
X52762698Y47307910D02*
X52749393Y47281301D01*
X52749393Y47281301D02*
X52722783Y47254691D01*
X52722783Y47254691D02*
X52682869Y47241386D01*
X52682869Y47241386D02*
X52656260Y47241386D01*
X52656260Y47241386D02*
X52616345Y47254691D01*
X52616345Y47254691D02*
X52603041Y47267996D01*
X52323641Y47520786D02*
X52416774Y47387739D01*
X52483298Y47520786D02*
X52483298Y47241386D01*
X52483298Y47241386D02*
X52376860Y47241386D01*
X52376860Y47241386D02*
X52350250Y47254691D01*
X52350250Y47254691D02*
X52336945Y47267996D01*
X52336945Y47267996D02*
X52323641Y47294605D01*
X52323641Y47294605D02*
X52323641Y47334520D01*
X52323641Y47334520D02*
X52336945Y47361129D01*
X52336945Y47361129D02*
X52350250Y47374434D01*
X52350250Y47374434D02*
X52376860Y47387739D01*
X52376860Y47387739D02*
X52483298Y47387739D01*
X52057545Y47520786D02*
X52217202Y47520786D01*
X52137374Y47520786D02*
X52137374Y47241386D01*
X52137374Y47241386D02*
X52163983Y47281301D01*
X52163983Y47281301D02*
X52190593Y47307910D01*
X52190593Y47307910D02*
X52217202Y47321215D01*
X53064474Y47241386D02*
X53064474Y47307910D01*
X53130998Y47281301D02*
X53064474Y47307910D01*
X53064474Y47307910D02*
X52997951Y47281301D01*
X53104389Y47361129D02*
X53064474Y47307910D01*
X53064474Y47307910D02*
X53024560Y47361129D01*
X54702774Y47241386D02*
X54702774Y47307910D01*
X54769298Y47281301D02*
X54702774Y47307910D01*
X54702774Y47307910D02*
X54636251Y47281301D01*
X54742689Y47361129D02*
X54702774Y47307910D01*
X54702774Y47307910D02*
X54662860Y47361129D01*
X74568760Y26796150D02*
X74555456Y26782845D01*
X74555456Y26782845D02*
X74515541Y26769541D01*
X74515541Y26769541D02*
X74488932Y26769541D01*
X74488932Y26769541D02*
X74449018Y26782845D01*
X74449018Y26782845D02*
X74422408Y26809455D01*
X74422408Y26809455D02*
X74409103Y26836065D01*
X74409103Y26836065D02*
X74395799Y26889284D01*
X74395799Y26889284D02*
X74395799Y26929198D01*
X74395799Y26929198D02*
X74409103Y26982417D01*
X74409103Y26982417D02*
X74422408Y27009026D01*
X74422408Y27009026D02*
X74449018Y27035636D01*
X74449018Y27035636D02*
X74488932Y27048941D01*
X74488932Y27048941D02*
X74515541Y27048941D01*
X74515541Y27048941D02*
X74555456Y27035636D01*
X74555456Y27035636D02*
X74568760Y27022331D01*
X74675199Y27022331D02*
X74688503Y27035636D01*
X74688503Y27035636D02*
X74715113Y27048941D01*
X74715113Y27048941D02*
X74781637Y27048941D01*
X74781637Y27048941D02*
X74808246Y27035636D01*
X74808246Y27035636D02*
X74821551Y27022331D01*
X74821551Y27022331D02*
X74834856Y26995722D01*
X74834856Y26995722D02*
X74834856Y26969112D01*
X74834856Y26969112D02*
X74821551Y26929198D01*
X74821551Y26929198D02*
X74661894Y26769541D01*
X74661894Y26769541D02*
X74834856Y26769541D01*
X74941294Y27022331D02*
X74954598Y27035636D01*
X74954598Y27035636D02*
X74981208Y27048941D01*
X74981208Y27048941D02*
X75047732Y27048941D01*
X75047732Y27048941D02*
X75074341Y27035636D01*
X75074341Y27035636D02*
X75087646Y27022331D01*
X75087646Y27022331D02*
X75100951Y26995722D01*
X75100951Y26995722D02*
X75100951Y26969112D01*
X75100951Y26969112D02*
X75087646Y26929198D01*
X75087646Y26929198D02*
X74927989Y26769541D01*
X74927989Y26769541D02*
X75100951Y26769541D01*
X55347388Y32715549D02*
X55360693Y32702245D01*
X55360693Y32702245D02*
X55373997Y32662330D01*
X55373997Y32662330D02*
X55373997Y32635721D01*
X55373997Y32635721D02*
X55360693Y32595807D01*
X55360693Y32595807D02*
X55334083Y32569197D01*
X55334083Y32569197D02*
X55307473Y32555892D01*
X55307473Y32555892D02*
X55254254Y32542588D01*
X55254254Y32542588D02*
X55214340Y32542588D01*
X55214340Y32542588D02*
X55161121Y32555892D01*
X55161121Y32555892D02*
X55134512Y32569197D01*
X55134512Y32569197D02*
X55107902Y32595807D01*
X55107902Y32595807D02*
X55094597Y32635721D01*
X55094597Y32635721D02*
X55094597Y32662330D01*
X55094597Y32662330D02*
X55107902Y32702245D01*
X55107902Y32702245D02*
X55121207Y32715549D01*
X55121207Y32821988D02*
X55107902Y32835292D01*
X55107902Y32835292D02*
X55094597Y32861902D01*
X55094597Y32861902D02*
X55094597Y32928426D01*
X55094597Y32928426D02*
X55107902Y32955035D01*
X55107902Y32955035D02*
X55121207Y32968340D01*
X55121207Y32968340D02*
X55147816Y32981645D01*
X55147816Y32981645D02*
X55174426Y32981645D01*
X55174426Y32981645D02*
X55214340Y32968340D01*
X55214340Y32968340D02*
X55373997Y32808683D01*
X55373997Y32808683D02*
X55373997Y32981645D01*
X55094597Y33074778D02*
X55094597Y33261044D01*
X55094597Y33261044D02*
X55373997Y33141302D01*
X22873997Y8475549D02*
X22740950Y8382416D01*
X22873997Y8315892D02*
X22594597Y8315892D01*
X22594597Y8315892D02*
X22594597Y8422330D01*
X22594597Y8422330D02*
X22607902Y8448940D01*
X22607902Y8448940D02*
X22621207Y8462245D01*
X22621207Y8462245D02*
X22647816Y8475549D01*
X22647816Y8475549D02*
X22687731Y8475549D01*
X22687731Y8475549D02*
X22714340Y8462245D01*
X22714340Y8462245D02*
X22727645Y8448940D01*
X22727645Y8448940D02*
X22740950Y8422330D01*
X22740950Y8422330D02*
X22740950Y8315892D01*
X22621207Y8581988D02*
X22607902Y8595292D01*
X22607902Y8595292D02*
X22594597Y8621902D01*
X22594597Y8621902D02*
X22594597Y8688426D01*
X22594597Y8688426D02*
X22607902Y8715035D01*
X22607902Y8715035D02*
X22621207Y8728340D01*
X22621207Y8728340D02*
X22647816Y8741645D01*
X22647816Y8741645D02*
X22674426Y8741645D01*
X22674426Y8741645D02*
X22714340Y8728340D01*
X22714340Y8728340D02*
X22873997Y8568683D01*
X22873997Y8568683D02*
X22873997Y8741645D01*
X22687731Y8981130D02*
X22873997Y8981130D01*
X22581293Y8914606D02*
X22780864Y8848083D01*
X22780864Y8848083D02*
X22780864Y9021044D01*
X55347388Y36848597D02*
X55360693Y36835293D01*
X55360693Y36835293D02*
X55373997Y36795378D01*
X55373997Y36795378D02*
X55373997Y36768769D01*
X55373997Y36768769D02*
X55360693Y36728855D01*
X55360693Y36728855D02*
X55334083Y36702245D01*
X55334083Y36702245D02*
X55307473Y36688940D01*
X55307473Y36688940D02*
X55254254Y36675636D01*
X55254254Y36675636D02*
X55214340Y36675636D01*
X55214340Y36675636D02*
X55161121Y36688940D01*
X55161121Y36688940D02*
X55134512Y36702245D01*
X55134512Y36702245D02*
X55107902Y36728855D01*
X55107902Y36728855D02*
X55094597Y36768769D01*
X55094597Y36768769D02*
X55094597Y36795378D01*
X55094597Y36795378D02*
X55107902Y36835293D01*
X55107902Y36835293D02*
X55121207Y36848597D01*
X55187731Y37088083D02*
X55373997Y37088083D01*
X55081293Y37021559D02*
X55280864Y36955036D01*
X55280864Y36955036D02*
X55280864Y37127997D01*
X25373997Y8475549D02*
X25240950Y8382416D01*
X25373997Y8315892D02*
X25094597Y8315892D01*
X25094597Y8315892D02*
X25094597Y8422330D01*
X25094597Y8422330D02*
X25107902Y8448940D01*
X25107902Y8448940D02*
X25121207Y8462245D01*
X25121207Y8462245D02*
X25147816Y8475549D01*
X25147816Y8475549D02*
X25187731Y8475549D01*
X25187731Y8475549D02*
X25214340Y8462245D01*
X25214340Y8462245D02*
X25227645Y8448940D01*
X25227645Y8448940D02*
X25240950Y8422330D01*
X25240950Y8422330D02*
X25240950Y8315892D01*
X25121207Y8581988D02*
X25107902Y8595292D01*
X25107902Y8595292D02*
X25094597Y8621902D01*
X25094597Y8621902D02*
X25094597Y8688426D01*
X25094597Y8688426D02*
X25107902Y8715035D01*
X25107902Y8715035D02*
X25121207Y8728340D01*
X25121207Y8728340D02*
X25147816Y8741645D01*
X25147816Y8741645D02*
X25174426Y8741645D01*
X25174426Y8741645D02*
X25214340Y8728340D01*
X25214340Y8728340D02*
X25373997Y8568683D01*
X25373997Y8568683D02*
X25373997Y8741645D01*
X25094597Y8834778D02*
X25094597Y9007740D01*
X25094597Y9007740D02*
X25201035Y8914606D01*
X25201035Y8914606D02*
X25201035Y8954521D01*
X25201035Y8954521D02*
X25214340Y8981130D01*
X25214340Y8981130D02*
X25227645Y8994435D01*
X25227645Y8994435D02*
X25254254Y9007740D01*
X25254254Y9007740D02*
X25320778Y9007740D01*
X25320778Y9007740D02*
X25347388Y8994435D01*
X25347388Y8994435D02*
X25360693Y8981130D01*
X25360693Y8981130D02*
X25373997Y8954521D01*
X25373997Y8954521D02*
X25373997Y8874692D01*
X25373997Y8874692D02*
X25360693Y8848083D01*
X25360693Y8848083D02*
X25347388Y8834778D01*
X26373997Y6205549D02*
X26240950Y6112416D01*
X26373997Y6045892D02*
X26094597Y6045892D01*
X26094597Y6045892D02*
X26094597Y6152330D01*
X26094597Y6152330D02*
X26107902Y6178940D01*
X26107902Y6178940D02*
X26121207Y6192245D01*
X26121207Y6192245D02*
X26147816Y6205549D01*
X26147816Y6205549D02*
X26187731Y6205549D01*
X26187731Y6205549D02*
X26214340Y6192245D01*
X26214340Y6192245D02*
X26227645Y6178940D01*
X26227645Y6178940D02*
X26240950Y6152330D01*
X26240950Y6152330D02*
X26240950Y6045892D01*
X26373997Y6471645D02*
X26373997Y6311988D01*
X26373997Y6391816D02*
X26094597Y6391816D01*
X26094597Y6391816D02*
X26134512Y6365207D01*
X26134512Y6365207D02*
X26161121Y6338597D01*
X26161121Y6338597D02*
X26174426Y6311988D01*
X26373997Y6604692D02*
X26373997Y6657911D01*
X26373997Y6657911D02*
X26360693Y6684521D01*
X26360693Y6684521D02*
X26347388Y6697825D01*
X26347388Y6697825D02*
X26307473Y6724435D01*
X26307473Y6724435D02*
X26254254Y6737740D01*
X26254254Y6737740D02*
X26147816Y6737740D01*
X26147816Y6737740D02*
X26121207Y6724435D01*
X26121207Y6724435D02*
X26107902Y6711130D01*
X26107902Y6711130D02*
X26094597Y6684521D01*
X26094597Y6684521D02*
X26094597Y6631302D01*
X26094597Y6631302D02*
X26107902Y6604692D01*
X26107902Y6604692D02*
X26121207Y6591387D01*
X26121207Y6591387D02*
X26147816Y6578083D01*
X26147816Y6578083D02*
X26214340Y6578083D01*
X26214340Y6578083D02*
X26240950Y6591387D01*
X26240950Y6591387D02*
X26254254Y6604692D01*
X26254254Y6604692D02*
X26267559Y6631302D01*
X26267559Y6631302D02*
X26267559Y6684521D01*
X26267559Y6684521D02*
X26254254Y6711130D01*
X26254254Y6711130D02*
X26240950Y6724435D01*
X26240950Y6724435D02*
X26214340Y6737740D01*
X28101808Y13646150D02*
X28088504Y13632845D01*
X28088504Y13632845D02*
X28048589Y13619541D01*
X28048589Y13619541D02*
X28021980Y13619541D01*
X28021980Y13619541D02*
X27982066Y13632845D01*
X27982066Y13632845D02*
X27955456Y13659455D01*
X27955456Y13659455D02*
X27942151Y13686065D01*
X27942151Y13686065D02*
X27928847Y13739284D01*
X27928847Y13739284D02*
X27928847Y13779198D01*
X27928847Y13779198D02*
X27942151Y13832417D01*
X27942151Y13832417D02*
X27955456Y13859026D01*
X27955456Y13859026D02*
X27982066Y13885636D01*
X27982066Y13885636D02*
X28021980Y13898941D01*
X28021980Y13898941D02*
X28048589Y13898941D01*
X28048589Y13898941D02*
X28088504Y13885636D01*
X28088504Y13885636D02*
X28101808Y13872331D01*
X28208247Y13872331D02*
X28221551Y13885636D01*
X28221551Y13885636D02*
X28248161Y13898941D01*
X28248161Y13898941D02*
X28314685Y13898941D01*
X28314685Y13898941D02*
X28341294Y13885636D01*
X28341294Y13885636D02*
X28354599Y13872331D01*
X28354599Y13872331D02*
X28367904Y13845722D01*
X28367904Y13845722D02*
X28367904Y13819112D01*
X28367904Y13819112D02*
X28354599Y13779198D01*
X28354599Y13779198D02*
X28194942Y13619541D01*
X28194942Y13619541D02*
X28367904Y13619541D01*
X71873997Y29715549D02*
X71740950Y29622416D01*
X71873997Y29555892D02*
X71594597Y29555892D01*
X71594597Y29555892D02*
X71594597Y29662330D01*
X71594597Y29662330D02*
X71607902Y29688940D01*
X71607902Y29688940D02*
X71621207Y29702245D01*
X71621207Y29702245D02*
X71647816Y29715549D01*
X71647816Y29715549D02*
X71687731Y29715549D01*
X71687731Y29715549D02*
X71714340Y29702245D01*
X71714340Y29702245D02*
X71727645Y29688940D01*
X71727645Y29688940D02*
X71740950Y29662330D01*
X71740950Y29662330D02*
X71740950Y29555892D01*
X71621207Y29821988D02*
X71607902Y29835292D01*
X71607902Y29835292D02*
X71594597Y29861902D01*
X71594597Y29861902D02*
X71594597Y29928426D01*
X71594597Y29928426D02*
X71607902Y29955035D01*
X71607902Y29955035D02*
X71621207Y29968340D01*
X71621207Y29968340D02*
X71647816Y29981645D01*
X71647816Y29981645D02*
X71674426Y29981645D01*
X71674426Y29981645D02*
X71714340Y29968340D01*
X71714340Y29968340D02*
X71873997Y29808683D01*
X71873997Y29808683D02*
X71873997Y29981645D01*
X71714340Y30141302D02*
X71701035Y30114692D01*
X71701035Y30114692D02*
X71687731Y30101387D01*
X71687731Y30101387D02*
X71661121Y30088083D01*
X71661121Y30088083D02*
X71647816Y30088083D01*
X71647816Y30088083D02*
X71621207Y30101387D01*
X71621207Y30101387D02*
X71607902Y30114692D01*
X71607902Y30114692D02*
X71594597Y30141302D01*
X71594597Y30141302D02*
X71594597Y30194521D01*
X71594597Y30194521D02*
X71607902Y30221130D01*
X71607902Y30221130D02*
X71621207Y30234435D01*
X71621207Y30234435D02*
X71647816Y30247740D01*
X71647816Y30247740D02*
X71661121Y30247740D01*
X71661121Y30247740D02*
X71687731Y30234435D01*
X71687731Y30234435D02*
X71701035Y30221130D01*
X71701035Y30221130D02*
X71714340Y30194521D01*
X71714340Y30194521D02*
X71714340Y30141302D01*
X71714340Y30141302D02*
X71727645Y30114692D01*
X71727645Y30114692D02*
X71740950Y30101387D01*
X71740950Y30101387D02*
X71767559Y30088083D01*
X71767559Y30088083D02*
X71820778Y30088083D01*
X71820778Y30088083D02*
X71847388Y30101387D01*
X71847388Y30101387D02*
X71860693Y30114692D01*
X71860693Y30114692D02*
X71873997Y30141302D01*
X71873997Y30141302D02*
X71873997Y30194521D01*
X71873997Y30194521D02*
X71860693Y30221130D01*
X71860693Y30221130D02*
X71847388Y30234435D01*
X71847388Y30234435D02*
X71820778Y30247740D01*
X71820778Y30247740D02*
X71767559Y30247740D01*
X71767559Y30247740D02*
X71740950Y30234435D01*
X71740950Y30234435D02*
X71727645Y30221130D01*
X71727645Y30221130D02*
X71714340Y30194521D01*
X69518760Y40796150D02*
X69505456Y40782845D01*
X69505456Y40782845D02*
X69465541Y40769541D01*
X69465541Y40769541D02*
X69438932Y40769541D01*
X69438932Y40769541D02*
X69399018Y40782845D01*
X69399018Y40782845D02*
X69372408Y40809455D01*
X69372408Y40809455D02*
X69359103Y40836065D01*
X69359103Y40836065D02*
X69345799Y40889284D01*
X69345799Y40889284D02*
X69345799Y40929198D01*
X69345799Y40929198D02*
X69359103Y40982417D01*
X69359103Y40982417D02*
X69372408Y41009026D01*
X69372408Y41009026D02*
X69399018Y41035636D01*
X69399018Y41035636D02*
X69438932Y41048941D01*
X69438932Y41048941D02*
X69465541Y41048941D01*
X69465541Y41048941D02*
X69505456Y41035636D01*
X69505456Y41035636D02*
X69518760Y41022331D01*
X69625199Y41022331D02*
X69638503Y41035636D01*
X69638503Y41035636D02*
X69665113Y41048941D01*
X69665113Y41048941D02*
X69731637Y41048941D01*
X69731637Y41048941D02*
X69758246Y41035636D01*
X69758246Y41035636D02*
X69771551Y41022331D01*
X69771551Y41022331D02*
X69784856Y40995722D01*
X69784856Y40995722D02*
X69784856Y40969112D01*
X69784856Y40969112D02*
X69771551Y40929198D01*
X69771551Y40929198D02*
X69611894Y40769541D01*
X69611894Y40769541D02*
X69784856Y40769541D01*
X69944513Y40929198D02*
X69917903Y40942503D01*
X69917903Y40942503D02*
X69904598Y40955807D01*
X69904598Y40955807D02*
X69891294Y40982417D01*
X69891294Y40982417D02*
X69891294Y40995722D01*
X69891294Y40995722D02*
X69904598Y41022331D01*
X69904598Y41022331D02*
X69917903Y41035636D01*
X69917903Y41035636D02*
X69944513Y41048941D01*
X69944513Y41048941D02*
X69997732Y41048941D01*
X69997732Y41048941D02*
X70024341Y41035636D01*
X70024341Y41035636D02*
X70037646Y41022331D01*
X70037646Y41022331D02*
X70050951Y40995722D01*
X70050951Y40995722D02*
X70050951Y40982417D01*
X70050951Y40982417D02*
X70037646Y40955807D01*
X70037646Y40955807D02*
X70024341Y40942503D01*
X70024341Y40942503D02*
X69997732Y40929198D01*
X69997732Y40929198D02*
X69944513Y40929198D01*
X69944513Y40929198D02*
X69917903Y40915893D01*
X69917903Y40915893D02*
X69904598Y40902588D01*
X69904598Y40902588D02*
X69891294Y40875979D01*
X69891294Y40875979D02*
X69891294Y40822760D01*
X69891294Y40822760D02*
X69904598Y40796150D01*
X69904598Y40796150D02*
X69917903Y40782845D01*
X69917903Y40782845D02*
X69944513Y40769541D01*
X69944513Y40769541D02*
X69997732Y40769541D01*
X69997732Y40769541D02*
X70024341Y40782845D01*
X70024341Y40782845D02*
X70037646Y40796150D01*
X70037646Y40796150D02*
X70050951Y40822760D01*
X70050951Y40822760D02*
X70050951Y40875979D01*
X70050951Y40875979D02*
X70037646Y40902588D01*
X70037646Y40902588D02*
X70024341Y40915893D01*
X70024341Y40915893D02*
X69997732Y40929198D01*
X10347388Y10715549D02*
X10360693Y10702245D01*
X10360693Y10702245D02*
X10373997Y10662330D01*
X10373997Y10662330D02*
X10373997Y10635721D01*
X10373997Y10635721D02*
X10360693Y10595807D01*
X10360693Y10595807D02*
X10334083Y10569197D01*
X10334083Y10569197D02*
X10307473Y10555892D01*
X10307473Y10555892D02*
X10254254Y10542588D01*
X10254254Y10542588D02*
X10214340Y10542588D01*
X10214340Y10542588D02*
X10161121Y10555892D01*
X10161121Y10555892D02*
X10134512Y10569197D01*
X10134512Y10569197D02*
X10107902Y10595807D01*
X10107902Y10595807D02*
X10094597Y10635721D01*
X10094597Y10635721D02*
X10094597Y10662330D01*
X10094597Y10662330D02*
X10107902Y10702245D01*
X10107902Y10702245D02*
X10121207Y10715549D01*
X10094597Y10808683D02*
X10094597Y10981645D01*
X10094597Y10981645D02*
X10201035Y10888511D01*
X10201035Y10888511D02*
X10201035Y10928426D01*
X10201035Y10928426D02*
X10214340Y10955035D01*
X10214340Y10955035D02*
X10227645Y10968340D01*
X10227645Y10968340D02*
X10254254Y10981645D01*
X10254254Y10981645D02*
X10320778Y10981645D01*
X10320778Y10981645D02*
X10347388Y10968340D01*
X10347388Y10968340D02*
X10360693Y10955035D01*
X10360693Y10955035D02*
X10373997Y10928426D01*
X10373997Y10928426D02*
X10373997Y10848597D01*
X10373997Y10848597D02*
X10360693Y10821988D01*
X10360693Y10821988D02*
X10347388Y10808683D01*
X10094597Y11074778D02*
X10094597Y11247740D01*
X10094597Y11247740D02*
X10201035Y11154606D01*
X10201035Y11154606D02*
X10201035Y11194521D01*
X10201035Y11194521D02*
X10214340Y11221130D01*
X10214340Y11221130D02*
X10227645Y11234435D01*
X10227645Y11234435D02*
X10254254Y11247740D01*
X10254254Y11247740D02*
X10320778Y11247740D01*
X10320778Y11247740D02*
X10347388Y11234435D01*
X10347388Y11234435D02*
X10360693Y11221130D01*
X10360693Y11221130D02*
X10373997Y11194521D01*
X10373997Y11194521D02*
X10373997Y11114692D01*
X10373997Y11114692D02*
X10360693Y11088083D01*
X10360693Y11088083D02*
X10347388Y11074778D01*
X23873997Y6225549D02*
X23740950Y6132416D01*
X23873997Y6065892D02*
X23594597Y6065892D01*
X23594597Y6065892D02*
X23594597Y6172330D01*
X23594597Y6172330D02*
X23607902Y6198940D01*
X23607902Y6198940D02*
X23621207Y6212245D01*
X23621207Y6212245D02*
X23647816Y6225549D01*
X23647816Y6225549D02*
X23687731Y6225549D01*
X23687731Y6225549D02*
X23714340Y6212245D01*
X23714340Y6212245D02*
X23727645Y6198940D01*
X23727645Y6198940D02*
X23740950Y6172330D01*
X23740950Y6172330D02*
X23740950Y6065892D01*
X23621207Y6331988D02*
X23607902Y6345292D01*
X23607902Y6345292D02*
X23594597Y6371902D01*
X23594597Y6371902D02*
X23594597Y6438426D01*
X23594597Y6438426D02*
X23607902Y6465035D01*
X23607902Y6465035D02*
X23621207Y6478340D01*
X23621207Y6478340D02*
X23647816Y6491645D01*
X23647816Y6491645D02*
X23674426Y6491645D01*
X23674426Y6491645D02*
X23714340Y6478340D01*
X23714340Y6478340D02*
X23873997Y6318683D01*
X23873997Y6318683D02*
X23873997Y6491645D01*
X23621207Y6598083D02*
X23607902Y6611387D01*
X23607902Y6611387D02*
X23594597Y6637997D01*
X23594597Y6637997D02*
X23594597Y6704521D01*
X23594597Y6704521D02*
X23607902Y6731130D01*
X23607902Y6731130D02*
X23621207Y6744435D01*
X23621207Y6744435D02*
X23647816Y6757740D01*
X23647816Y6757740D02*
X23674426Y6757740D01*
X23674426Y6757740D02*
X23714340Y6744435D01*
X23714340Y6744435D02*
X23873997Y6584778D01*
X23873997Y6584778D02*
X23873997Y6757740D01*
X32715242Y3548941D02*
X32715242Y3349369D01*
X32715242Y3349369D02*
X32701937Y3309455D01*
X32701937Y3309455D02*
X32675328Y3282845D01*
X32675328Y3282845D02*
X32635413Y3269541D01*
X32635413Y3269541D02*
X32608804Y3269541D01*
X32834985Y3522331D02*
X32848289Y3535636D01*
X32848289Y3535636D02*
X32874899Y3548941D01*
X32874899Y3548941D02*
X32941423Y3548941D01*
X32941423Y3548941D02*
X32968032Y3535636D01*
X32968032Y3535636D02*
X32981337Y3522331D01*
X32981337Y3522331D02*
X32994642Y3495722D01*
X32994642Y3495722D02*
X32994642Y3469112D01*
X32994642Y3469112D02*
X32981337Y3429198D01*
X32981337Y3429198D02*
X32821680Y3269541D01*
X32821680Y3269541D02*
X32994642Y3269541D01*
X39123997Y6235549D02*
X38990950Y6142416D01*
X39123997Y6075892D02*
X38844597Y6075892D01*
X38844597Y6075892D02*
X38844597Y6182330D01*
X38844597Y6182330D02*
X38857902Y6208940D01*
X38857902Y6208940D02*
X38871207Y6222245D01*
X38871207Y6222245D02*
X38897816Y6235549D01*
X38897816Y6235549D02*
X38937731Y6235549D01*
X38937731Y6235549D02*
X38964340Y6222245D01*
X38964340Y6222245D02*
X38977645Y6208940D01*
X38977645Y6208940D02*
X38990950Y6182330D01*
X38990950Y6182330D02*
X38990950Y6075892D01*
X39123997Y6501645D02*
X39123997Y6341988D01*
X39123997Y6421816D02*
X38844597Y6421816D01*
X38844597Y6421816D02*
X38884512Y6395207D01*
X38884512Y6395207D02*
X38911121Y6368597D01*
X38911121Y6368597D02*
X38924426Y6341988D01*
X38871207Y6608083D02*
X38857902Y6621387D01*
X38857902Y6621387D02*
X38844597Y6647997D01*
X38844597Y6647997D02*
X38844597Y6714521D01*
X38844597Y6714521D02*
X38857902Y6741130D01*
X38857902Y6741130D02*
X38871207Y6754435D01*
X38871207Y6754435D02*
X38897816Y6767740D01*
X38897816Y6767740D02*
X38924426Y6767740D01*
X38924426Y6767740D02*
X38964340Y6754435D01*
X38964340Y6754435D02*
X39123997Y6594778D01*
X39123997Y6594778D02*
X39123997Y6767740D01*
X65155242Y4548941D02*
X65155242Y4349369D01*
X65155242Y4349369D02*
X65141937Y4309455D01*
X65141937Y4309455D02*
X65115328Y4282845D01*
X65115328Y4282845D02*
X65075413Y4269541D01*
X65075413Y4269541D02*
X65048804Y4269541D01*
X65328204Y4429198D02*
X65301594Y4442503D01*
X65301594Y4442503D02*
X65288289Y4455807D01*
X65288289Y4455807D02*
X65274985Y4482417D01*
X65274985Y4482417D02*
X65274985Y4495722D01*
X65274985Y4495722D02*
X65288289Y4522331D01*
X65288289Y4522331D02*
X65301594Y4535636D01*
X65301594Y4535636D02*
X65328204Y4548941D01*
X65328204Y4548941D02*
X65381423Y4548941D01*
X65381423Y4548941D02*
X65408032Y4535636D01*
X65408032Y4535636D02*
X65421337Y4522331D01*
X65421337Y4522331D02*
X65434642Y4495722D01*
X65434642Y4495722D02*
X65434642Y4482417D01*
X65434642Y4482417D02*
X65421337Y4455807D01*
X65421337Y4455807D02*
X65408032Y4442503D01*
X65408032Y4442503D02*
X65381423Y4429198D01*
X65381423Y4429198D02*
X65328204Y4429198D01*
X65328204Y4429198D02*
X65301594Y4415893D01*
X65301594Y4415893D02*
X65288289Y4402588D01*
X65288289Y4402588D02*
X65274985Y4375979D01*
X65274985Y4375979D02*
X65274985Y4322760D01*
X65274985Y4322760D02*
X65288289Y4296150D01*
X65288289Y4296150D02*
X65301594Y4282845D01*
X65301594Y4282845D02*
X65328204Y4269541D01*
X65328204Y4269541D02*
X65381423Y4269541D01*
X65381423Y4269541D02*
X65408032Y4282845D01*
X65408032Y4282845D02*
X65421337Y4296150D01*
X65421337Y4296150D02*
X65434642Y4322760D01*
X65434642Y4322760D02*
X65434642Y4375979D01*
X65434642Y4375979D02*
X65421337Y4402588D01*
X65421337Y4402588D02*
X65408032Y4415893D01*
X65408032Y4415893D02*
X65381423Y4429198D01*
X85068760Y28269541D02*
X84975627Y28402588D01*
X84909103Y28269541D02*
X84909103Y28548941D01*
X84909103Y28548941D02*
X85015541Y28548941D01*
X85015541Y28548941D02*
X85042151Y28535636D01*
X85042151Y28535636D02*
X85055456Y28522331D01*
X85055456Y28522331D02*
X85068760Y28495722D01*
X85068760Y28495722D02*
X85068760Y28455807D01*
X85068760Y28455807D02*
X85055456Y28429198D01*
X85055456Y28429198D02*
X85042151Y28415893D01*
X85042151Y28415893D02*
X85015541Y28402588D01*
X85015541Y28402588D02*
X84909103Y28402588D01*
X85161894Y28548941D02*
X85334856Y28548941D01*
X85334856Y28548941D02*
X85241722Y28442503D01*
X85241722Y28442503D02*
X85281637Y28442503D01*
X85281637Y28442503D02*
X85308246Y28429198D01*
X85308246Y28429198D02*
X85321551Y28415893D01*
X85321551Y28415893D02*
X85334856Y28389284D01*
X85334856Y28389284D02*
X85334856Y28322760D01*
X85334856Y28322760D02*
X85321551Y28296150D01*
X85321551Y28296150D02*
X85308246Y28282845D01*
X85308246Y28282845D02*
X85281637Y28269541D01*
X85281637Y28269541D02*
X85201808Y28269541D01*
X85201808Y28269541D02*
X85175199Y28282845D01*
X85175199Y28282845D02*
X85161894Y28296150D01*
X85507817Y28548941D02*
X85534427Y28548941D01*
X85534427Y28548941D02*
X85561036Y28535636D01*
X85561036Y28535636D02*
X85574341Y28522331D01*
X85574341Y28522331D02*
X85587646Y28495722D01*
X85587646Y28495722D02*
X85600951Y28442503D01*
X85600951Y28442503D02*
X85600951Y28375979D01*
X85600951Y28375979D02*
X85587646Y28322760D01*
X85587646Y28322760D02*
X85574341Y28296150D01*
X85574341Y28296150D02*
X85561036Y28282845D01*
X85561036Y28282845D02*
X85534427Y28269541D01*
X85534427Y28269541D02*
X85507817Y28269541D01*
X85507817Y28269541D02*
X85481208Y28282845D01*
X85481208Y28282845D02*
X85467903Y28296150D01*
X85467903Y28296150D02*
X85454598Y28322760D01*
X85454598Y28322760D02*
X85441294Y28375979D01*
X85441294Y28375979D02*
X85441294Y28442503D01*
X85441294Y28442503D02*
X85454598Y28495722D01*
X85454598Y28495722D02*
X85467903Y28522331D01*
X85467903Y28522331D02*
X85481208Y28535636D01*
X85481208Y28535636D02*
X85507817Y28548941D01*
X62089597Y34182287D02*
X62315778Y34182287D01*
X62315778Y34182287D02*
X62342388Y34195592D01*
X62342388Y34195592D02*
X62355693Y34208897D01*
X62355693Y34208897D02*
X62368997Y34235506D01*
X62368997Y34235506D02*
X62368997Y34288725D01*
X62368997Y34288725D02*
X62355693Y34315335D01*
X62355693Y34315335D02*
X62342388Y34328640D01*
X62342388Y34328640D02*
X62315778Y34341944D01*
X62315778Y34341944D02*
X62089597Y34341944D01*
X62089597Y34594735D02*
X62089597Y34541516D01*
X62089597Y34541516D02*
X62102902Y34514907D01*
X62102902Y34514907D02*
X62116207Y34501602D01*
X62116207Y34501602D02*
X62156121Y34474992D01*
X62156121Y34474992D02*
X62209340Y34461688D01*
X62209340Y34461688D02*
X62315778Y34461688D01*
X62315778Y34461688D02*
X62342388Y34474992D01*
X62342388Y34474992D02*
X62355693Y34488297D01*
X62355693Y34488297D02*
X62368997Y34514907D01*
X62368997Y34514907D02*
X62368997Y34568126D01*
X62368997Y34568126D02*
X62355693Y34594735D01*
X62355693Y34594735D02*
X62342388Y34608040D01*
X62342388Y34608040D02*
X62315778Y34621345D01*
X62315778Y34621345D02*
X62249254Y34621345D01*
X62249254Y34621345D02*
X62222645Y34608040D01*
X62222645Y34608040D02*
X62209340Y34594735D01*
X62209340Y34594735D02*
X62196035Y34568126D01*
X62196035Y34568126D02*
X62196035Y34514907D01*
X62196035Y34514907D02*
X62209340Y34488297D01*
X62209340Y34488297D02*
X62222645Y34474992D01*
X62222645Y34474992D02*
X62249254Y34461688D01*
X58347388Y41215549D02*
X58360693Y41202245D01*
X58360693Y41202245D02*
X58373997Y41162330D01*
X58373997Y41162330D02*
X58373997Y41135721D01*
X58373997Y41135721D02*
X58360693Y41095807D01*
X58360693Y41095807D02*
X58334083Y41069197D01*
X58334083Y41069197D02*
X58307473Y41055892D01*
X58307473Y41055892D02*
X58254254Y41042588D01*
X58254254Y41042588D02*
X58214340Y41042588D01*
X58214340Y41042588D02*
X58161121Y41055892D01*
X58161121Y41055892D02*
X58134512Y41069197D01*
X58134512Y41069197D02*
X58107902Y41095807D01*
X58107902Y41095807D02*
X58094597Y41135721D01*
X58094597Y41135721D02*
X58094597Y41162330D01*
X58094597Y41162330D02*
X58107902Y41202245D01*
X58107902Y41202245D02*
X58121207Y41215549D01*
X58121207Y41321988D02*
X58107902Y41335292D01*
X58107902Y41335292D02*
X58094597Y41361902D01*
X58094597Y41361902D02*
X58094597Y41428426D01*
X58094597Y41428426D02*
X58107902Y41455035D01*
X58107902Y41455035D02*
X58121207Y41468340D01*
X58121207Y41468340D02*
X58147816Y41481645D01*
X58147816Y41481645D02*
X58174426Y41481645D01*
X58174426Y41481645D02*
X58214340Y41468340D01*
X58214340Y41468340D02*
X58373997Y41308683D01*
X58373997Y41308683D02*
X58373997Y41481645D01*
X58373997Y41614692D02*
X58373997Y41667911D01*
X58373997Y41667911D02*
X58360693Y41694521D01*
X58360693Y41694521D02*
X58347388Y41707825D01*
X58347388Y41707825D02*
X58307473Y41734435D01*
X58307473Y41734435D02*
X58254254Y41747740D01*
X58254254Y41747740D02*
X58147816Y41747740D01*
X58147816Y41747740D02*
X58121207Y41734435D01*
X58121207Y41734435D02*
X58107902Y41721130D01*
X58107902Y41721130D02*
X58094597Y41694521D01*
X58094597Y41694521D02*
X58094597Y41641302D01*
X58094597Y41641302D02*
X58107902Y41614692D01*
X58107902Y41614692D02*
X58121207Y41601387D01*
X58121207Y41601387D02*
X58147816Y41588083D01*
X58147816Y41588083D02*
X58214340Y41588083D01*
X58214340Y41588083D02*
X58240950Y41601387D01*
X58240950Y41601387D02*
X58254254Y41614692D01*
X58254254Y41614692D02*
X58267559Y41641302D01*
X58267559Y41641302D02*
X58267559Y41694521D01*
X58267559Y41694521D02*
X58254254Y41721130D01*
X58254254Y41721130D02*
X58240950Y41734435D01*
X58240950Y41734435D02*
X58214340Y41747740D01*
X28873997Y6205549D02*
X28740950Y6112416D01*
X28873997Y6045892D02*
X28594597Y6045892D01*
X28594597Y6045892D02*
X28594597Y6152330D01*
X28594597Y6152330D02*
X28607902Y6178940D01*
X28607902Y6178940D02*
X28621207Y6192245D01*
X28621207Y6192245D02*
X28647816Y6205549D01*
X28647816Y6205549D02*
X28687731Y6205549D01*
X28687731Y6205549D02*
X28714340Y6192245D01*
X28714340Y6192245D02*
X28727645Y6178940D01*
X28727645Y6178940D02*
X28740950Y6152330D01*
X28740950Y6152330D02*
X28740950Y6045892D01*
X28873997Y6471645D02*
X28873997Y6311988D01*
X28873997Y6391816D02*
X28594597Y6391816D01*
X28594597Y6391816D02*
X28634512Y6365207D01*
X28634512Y6365207D02*
X28661121Y6338597D01*
X28661121Y6338597D02*
X28674426Y6311988D01*
X28594597Y6564778D02*
X28594597Y6751044D01*
X28594597Y6751044D02*
X28873997Y6631302D01*
X21785498Y39048941D02*
X21785498Y38822760D01*
X21785498Y38822760D02*
X21798803Y38796150D01*
X21798803Y38796150D02*
X21812108Y38782845D01*
X21812108Y38782845D02*
X21838717Y38769541D01*
X21838717Y38769541D02*
X21891936Y38769541D01*
X21891936Y38769541D02*
X21918546Y38782845D01*
X21918546Y38782845D02*
X21931851Y38796150D01*
X21931851Y38796150D02*
X21945155Y38822760D01*
X21945155Y38822760D02*
X21945155Y39048941D01*
X22224556Y38769541D02*
X22064899Y38769541D01*
X22144727Y38769541D02*
X22144727Y39048941D01*
X22144727Y39048941D02*
X22118118Y39009026D01*
X22118118Y39009026D02*
X22091508Y38982417D01*
X22091508Y38982417D02*
X22064899Y38969112D01*
X31373997Y6205549D02*
X31240950Y6112416D01*
X31373997Y6045892D02*
X31094597Y6045892D01*
X31094597Y6045892D02*
X31094597Y6152330D01*
X31094597Y6152330D02*
X31107902Y6178940D01*
X31107902Y6178940D02*
X31121207Y6192245D01*
X31121207Y6192245D02*
X31147816Y6205549D01*
X31147816Y6205549D02*
X31187731Y6205549D01*
X31187731Y6205549D02*
X31214340Y6192245D01*
X31214340Y6192245D02*
X31227645Y6178940D01*
X31227645Y6178940D02*
X31240950Y6152330D01*
X31240950Y6152330D02*
X31240950Y6045892D01*
X31373997Y6471645D02*
X31373997Y6311988D01*
X31373997Y6391816D02*
X31094597Y6391816D01*
X31094597Y6391816D02*
X31134512Y6365207D01*
X31134512Y6365207D02*
X31161121Y6338597D01*
X31161121Y6338597D02*
X31174426Y6311988D01*
X31094597Y6711130D02*
X31094597Y6657911D01*
X31094597Y6657911D02*
X31107902Y6631302D01*
X31107902Y6631302D02*
X31121207Y6617997D01*
X31121207Y6617997D02*
X31161121Y6591387D01*
X31161121Y6591387D02*
X31214340Y6578083D01*
X31214340Y6578083D02*
X31320778Y6578083D01*
X31320778Y6578083D02*
X31347388Y6591387D01*
X31347388Y6591387D02*
X31360693Y6604692D01*
X31360693Y6604692D02*
X31373997Y6631302D01*
X31373997Y6631302D02*
X31373997Y6684521D01*
X31373997Y6684521D02*
X31360693Y6711130D01*
X31360693Y6711130D02*
X31347388Y6724435D01*
X31347388Y6724435D02*
X31320778Y6737740D01*
X31320778Y6737740D02*
X31254254Y6737740D01*
X31254254Y6737740D02*
X31227645Y6724435D01*
X31227645Y6724435D02*
X31214340Y6711130D01*
X31214340Y6711130D02*
X31201035Y6684521D01*
X31201035Y6684521D02*
X31201035Y6631302D01*
X31201035Y6631302D02*
X31214340Y6604692D01*
X31214340Y6604692D02*
X31227645Y6591387D01*
X31227645Y6591387D02*
X31254254Y6578083D01*
X26155242Y54548941D02*
X26155242Y54349369D01*
X26155242Y54349369D02*
X26141937Y54309455D01*
X26141937Y54309455D02*
X26115328Y54282845D01*
X26115328Y54282845D02*
X26075413Y54269541D01*
X26075413Y54269541D02*
X26048804Y54269541D01*
X26408032Y54548941D02*
X26354813Y54548941D01*
X26354813Y54548941D02*
X26328204Y54535636D01*
X26328204Y54535636D02*
X26314899Y54522331D01*
X26314899Y54522331D02*
X26288289Y54482417D01*
X26288289Y54482417D02*
X26274985Y54429198D01*
X26274985Y54429198D02*
X26274985Y54322760D01*
X26274985Y54322760D02*
X26288289Y54296150D01*
X26288289Y54296150D02*
X26301594Y54282845D01*
X26301594Y54282845D02*
X26328204Y54269541D01*
X26328204Y54269541D02*
X26381423Y54269541D01*
X26381423Y54269541D02*
X26408032Y54282845D01*
X26408032Y54282845D02*
X26421337Y54296150D01*
X26421337Y54296150D02*
X26434642Y54322760D01*
X26434642Y54322760D02*
X26434642Y54389284D01*
X26434642Y54389284D02*
X26421337Y54415893D01*
X26421337Y54415893D02*
X26408032Y54429198D01*
X26408032Y54429198D02*
X26381423Y54442503D01*
X26381423Y54442503D02*
X26328204Y54442503D01*
X26328204Y54442503D02*
X26301594Y54429198D01*
X26301594Y54429198D02*
X26288289Y54415893D01*
X26288289Y54415893D02*
X26274985Y54389284D01*
X69373997Y32215549D02*
X69240950Y32122416D01*
X69373997Y32055892D02*
X69094597Y32055892D01*
X69094597Y32055892D02*
X69094597Y32162330D01*
X69094597Y32162330D02*
X69107902Y32188940D01*
X69107902Y32188940D02*
X69121207Y32202245D01*
X69121207Y32202245D02*
X69147816Y32215549D01*
X69147816Y32215549D02*
X69187731Y32215549D01*
X69187731Y32215549D02*
X69214340Y32202245D01*
X69214340Y32202245D02*
X69227645Y32188940D01*
X69227645Y32188940D02*
X69240950Y32162330D01*
X69240950Y32162330D02*
X69240950Y32055892D01*
X69121207Y32321988D02*
X69107902Y32335292D01*
X69107902Y32335292D02*
X69094597Y32361902D01*
X69094597Y32361902D02*
X69094597Y32428426D01*
X69094597Y32428426D02*
X69107902Y32455035D01*
X69107902Y32455035D02*
X69121207Y32468340D01*
X69121207Y32468340D02*
X69147816Y32481645D01*
X69147816Y32481645D02*
X69174426Y32481645D01*
X69174426Y32481645D02*
X69214340Y32468340D01*
X69214340Y32468340D02*
X69373997Y32308683D01*
X69373997Y32308683D02*
X69373997Y32481645D01*
X69373997Y32614692D02*
X69373997Y32667911D01*
X69373997Y32667911D02*
X69360693Y32694521D01*
X69360693Y32694521D02*
X69347388Y32707825D01*
X69347388Y32707825D02*
X69307473Y32734435D01*
X69307473Y32734435D02*
X69254254Y32747740D01*
X69254254Y32747740D02*
X69147816Y32747740D01*
X69147816Y32747740D02*
X69121207Y32734435D01*
X69121207Y32734435D02*
X69107902Y32721130D01*
X69107902Y32721130D02*
X69094597Y32694521D01*
X69094597Y32694521D02*
X69094597Y32641302D01*
X69094597Y32641302D02*
X69107902Y32614692D01*
X69107902Y32614692D02*
X69121207Y32601387D01*
X69121207Y32601387D02*
X69147816Y32588083D01*
X69147816Y32588083D02*
X69214340Y32588083D01*
X69214340Y32588083D02*
X69240950Y32601387D01*
X69240950Y32601387D02*
X69254254Y32614692D01*
X69254254Y32614692D02*
X69267559Y32641302D01*
X69267559Y32641302D02*
X69267559Y32694521D01*
X69267559Y32694521D02*
X69254254Y32721130D01*
X69254254Y32721130D02*
X69240950Y32734435D01*
X69240950Y32734435D02*
X69214340Y32747740D01*
X12344597Y28673983D02*
X12544169Y28673983D01*
X12544169Y28673983D02*
X12584083Y28660678D01*
X12584083Y28660678D02*
X12610693Y28634069D01*
X12610693Y28634069D02*
X12623997Y28594154D01*
X12623997Y28594154D02*
X12623997Y28567545D01*
X12623997Y28953383D02*
X12623997Y28793726D01*
X12623997Y28873554D02*
X12344597Y28873554D01*
X12344597Y28873554D02*
X12384512Y28846945D01*
X12384512Y28846945D02*
X12411121Y28820335D01*
X12411121Y28820335D02*
X12424426Y28793726D01*
X12623997Y29219478D02*
X12623997Y29059821D01*
X12623997Y29139649D02*
X12344597Y29139649D01*
X12344597Y29139649D02*
X12384512Y29113040D01*
X12384512Y29113040D02*
X12411121Y29086430D01*
X12411121Y29086430D02*
X12424426Y29059821D01*
X41873997Y6225549D02*
X41740950Y6132416D01*
X41873997Y6065892D02*
X41594597Y6065892D01*
X41594597Y6065892D02*
X41594597Y6172330D01*
X41594597Y6172330D02*
X41607902Y6198940D01*
X41607902Y6198940D02*
X41621207Y6212245D01*
X41621207Y6212245D02*
X41647816Y6225549D01*
X41647816Y6225549D02*
X41687731Y6225549D01*
X41687731Y6225549D02*
X41714340Y6212245D01*
X41714340Y6212245D02*
X41727645Y6198940D01*
X41727645Y6198940D02*
X41740950Y6172330D01*
X41740950Y6172330D02*
X41740950Y6065892D01*
X41873997Y6491645D02*
X41873997Y6331988D01*
X41873997Y6411816D02*
X41594597Y6411816D01*
X41594597Y6411816D02*
X41634512Y6385207D01*
X41634512Y6385207D02*
X41661121Y6358597D01*
X41661121Y6358597D02*
X41674426Y6331988D01*
X41873997Y6757740D02*
X41873997Y6598083D01*
X41873997Y6677911D02*
X41594597Y6677911D01*
X41594597Y6677911D02*
X41634512Y6651302D01*
X41634512Y6651302D02*
X41661121Y6624692D01*
X41661121Y6624692D02*
X41674426Y6598083D01*
X70048760Y37796150D02*
X70035456Y37782845D01*
X70035456Y37782845D02*
X69995541Y37769541D01*
X69995541Y37769541D02*
X69968932Y37769541D01*
X69968932Y37769541D02*
X69929018Y37782845D01*
X69929018Y37782845D02*
X69902408Y37809455D01*
X69902408Y37809455D02*
X69889103Y37836065D01*
X69889103Y37836065D02*
X69875799Y37889284D01*
X69875799Y37889284D02*
X69875799Y37929198D01*
X69875799Y37929198D02*
X69889103Y37982417D01*
X69889103Y37982417D02*
X69902408Y38009026D01*
X69902408Y38009026D02*
X69929018Y38035636D01*
X69929018Y38035636D02*
X69968932Y38048941D01*
X69968932Y38048941D02*
X69995541Y38048941D01*
X69995541Y38048941D02*
X70035456Y38035636D01*
X70035456Y38035636D02*
X70048760Y38022331D01*
X70155199Y38022331D02*
X70168503Y38035636D01*
X70168503Y38035636D02*
X70195113Y38048941D01*
X70195113Y38048941D02*
X70261637Y38048941D01*
X70261637Y38048941D02*
X70288246Y38035636D01*
X70288246Y38035636D02*
X70301551Y38022331D01*
X70301551Y38022331D02*
X70314856Y37995722D01*
X70314856Y37995722D02*
X70314856Y37969112D01*
X70314856Y37969112D02*
X70301551Y37929198D01*
X70301551Y37929198D02*
X70141894Y37769541D01*
X70141894Y37769541D02*
X70314856Y37769541D01*
X70554341Y38048941D02*
X70501122Y38048941D01*
X70501122Y38048941D02*
X70474513Y38035636D01*
X70474513Y38035636D02*
X70461208Y38022331D01*
X70461208Y38022331D02*
X70434598Y37982417D01*
X70434598Y37982417D02*
X70421294Y37929198D01*
X70421294Y37929198D02*
X70421294Y37822760D01*
X70421294Y37822760D02*
X70434598Y37796150D01*
X70434598Y37796150D02*
X70447903Y37782845D01*
X70447903Y37782845D02*
X70474513Y37769541D01*
X70474513Y37769541D02*
X70527732Y37769541D01*
X70527732Y37769541D02*
X70554341Y37782845D01*
X70554341Y37782845D02*
X70567646Y37796150D01*
X70567646Y37796150D02*
X70580951Y37822760D01*
X70580951Y37822760D02*
X70580951Y37889284D01*
X70580951Y37889284D02*
X70567646Y37915893D01*
X70567646Y37915893D02*
X70554341Y37929198D01*
X70554341Y37929198D02*
X70527732Y37942503D01*
X70527732Y37942503D02*
X70474513Y37942503D01*
X70474513Y37942503D02*
X70447903Y37929198D01*
X70447903Y37929198D02*
X70434598Y37915893D01*
X70434598Y37915893D02*
X70421294Y37889284D01*
X58373997Y43715549D02*
X58240950Y43622416D01*
X58373997Y43555892D02*
X58094597Y43555892D01*
X58094597Y43555892D02*
X58094597Y43662330D01*
X58094597Y43662330D02*
X58107902Y43688940D01*
X58107902Y43688940D02*
X58121207Y43702245D01*
X58121207Y43702245D02*
X58147816Y43715549D01*
X58147816Y43715549D02*
X58187731Y43715549D01*
X58187731Y43715549D02*
X58214340Y43702245D01*
X58214340Y43702245D02*
X58227645Y43688940D01*
X58227645Y43688940D02*
X58240950Y43662330D01*
X58240950Y43662330D02*
X58240950Y43555892D01*
X58121207Y43821988D02*
X58107902Y43835292D01*
X58107902Y43835292D02*
X58094597Y43861902D01*
X58094597Y43861902D02*
X58094597Y43928426D01*
X58094597Y43928426D02*
X58107902Y43955035D01*
X58107902Y43955035D02*
X58121207Y43968340D01*
X58121207Y43968340D02*
X58147816Y43981645D01*
X58147816Y43981645D02*
X58174426Y43981645D01*
X58174426Y43981645D02*
X58214340Y43968340D01*
X58214340Y43968340D02*
X58373997Y43808683D01*
X58373997Y43808683D02*
X58373997Y43981645D01*
X58094597Y44074778D02*
X58094597Y44261044D01*
X58094597Y44261044D02*
X58373997Y44141302D01*
X49655242Y54048941D02*
X49655242Y53849369D01*
X49655242Y53849369D02*
X49641937Y53809455D01*
X49641937Y53809455D02*
X49615328Y53782845D01*
X49615328Y53782845D02*
X49575413Y53769541D01*
X49575413Y53769541D02*
X49548804Y53769541D01*
X49934642Y53769541D02*
X49774985Y53769541D01*
X49854813Y53769541D02*
X49854813Y54048941D01*
X49854813Y54048941D02*
X49828204Y54009026D01*
X49828204Y54009026D02*
X49801594Y53982417D01*
X49801594Y53982417D02*
X49774985Y53969112D01*
X28738545Y15486114D02*
X28605498Y15392981D01*
X28738545Y15326457D02*
X28459145Y15326457D01*
X28459145Y15326457D02*
X28459145Y15432895D01*
X28459145Y15432895D02*
X28472450Y15459505D01*
X28472450Y15459505D02*
X28485755Y15472810D01*
X28485755Y15472810D02*
X28512364Y15486114D01*
X28512364Y15486114D02*
X28552279Y15486114D01*
X28552279Y15486114D02*
X28578888Y15472810D01*
X28578888Y15472810D02*
X28592193Y15459505D01*
X28592193Y15459505D02*
X28605498Y15432895D01*
X28605498Y15432895D02*
X28605498Y15326457D01*
X28459145Y15579248D02*
X28459145Y15752210D01*
X28459145Y15752210D02*
X28565583Y15659076D01*
X28565583Y15659076D02*
X28565583Y15698991D01*
X28565583Y15698991D02*
X28578888Y15725600D01*
X28578888Y15725600D02*
X28592193Y15738905D01*
X28592193Y15738905D02*
X28618802Y15752210D01*
X28618802Y15752210D02*
X28685326Y15752210D01*
X28685326Y15752210D02*
X28711936Y15738905D01*
X28711936Y15738905D02*
X28725241Y15725600D01*
X28725241Y15725600D02*
X28738545Y15698991D01*
X28738545Y15698991D02*
X28738545Y15619162D01*
X28738545Y15619162D02*
X28725241Y15592553D01*
X28725241Y15592553D02*
X28711936Y15579248D01*
X28701808Y33796150D02*
X28688504Y33782845D01*
X28688504Y33782845D02*
X28648589Y33769541D01*
X28648589Y33769541D02*
X28621980Y33769541D01*
X28621980Y33769541D02*
X28582066Y33782845D01*
X28582066Y33782845D02*
X28555456Y33809455D01*
X28555456Y33809455D02*
X28542151Y33836065D01*
X28542151Y33836065D02*
X28528847Y33889284D01*
X28528847Y33889284D02*
X28528847Y33929198D01*
X28528847Y33929198D02*
X28542151Y33982417D01*
X28542151Y33982417D02*
X28555456Y34009026D01*
X28555456Y34009026D02*
X28582066Y34035636D01*
X28582066Y34035636D02*
X28621980Y34048941D01*
X28621980Y34048941D02*
X28648589Y34048941D01*
X28648589Y34048941D02*
X28688504Y34035636D01*
X28688504Y34035636D02*
X28701808Y34022331D01*
X28941294Y34048941D02*
X28888075Y34048941D01*
X28888075Y34048941D02*
X28861466Y34035636D01*
X28861466Y34035636D02*
X28848161Y34022331D01*
X28848161Y34022331D02*
X28821551Y33982417D01*
X28821551Y33982417D02*
X28808247Y33929198D01*
X28808247Y33929198D02*
X28808247Y33822760D01*
X28808247Y33822760D02*
X28821551Y33796150D01*
X28821551Y33796150D02*
X28834856Y33782845D01*
X28834856Y33782845D02*
X28861466Y33769541D01*
X28861466Y33769541D02*
X28914685Y33769541D01*
X28914685Y33769541D02*
X28941294Y33782845D01*
X28941294Y33782845D02*
X28954599Y33796150D01*
X28954599Y33796150D02*
X28967904Y33822760D01*
X28967904Y33822760D02*
X28967904Y33889284D01*
X28967904Y33889284D02*
X28954599Y33915893D01*
X28954599Y33915893D02*
X28941294Y33929198D01*
X28941294Y33929198D02*
X28914685Y33942503D01*
X28914685Y33942503D02*
X28861466Y33942503D01*
X28861466Y33942503D02*
X28834856Y33929198D01*
X28834856Y33929198D02*
X28821551Y33915893D01*
X28821551Y33915893D02*
X28808247Y33889284D01*
X84373997Y37715549D02*
X84240950Y37622416D01*
X84373997Y37555892D02*
X84094597Y37555892D01*
X84094597Y37555892D02*
X84094597Y37662330D01*
X84094597Y37662330D02*
X84107902Y37688940D01*
X84107902Y37688940D02*
X84121207Y37702245D01*
X84121207Y37702245D02*
X84147816Y37715549D01*
X84147816Y37715549D02*
X84187731Y37715549D01*
X84187731Y37715549D02*
X84214340Y37702245D01*
X84214340Y37702245D02*
X84227645Y37688940D01*
X84227645Y37688940D02*
X84240950Y37662330D01*
X84240950Y37662330D02*
X84240950Y37555892D01*
X84121207Y37821988D02*
X84107902Y37835292D01*
X84107902Y37835292D02*
X84094597Y37861902D01*
X84094597Y37861902D02*
X84094597Y37928426D01*
X84094597Y37928426D02*
X84107902Y37955035D01*
X84107902Y37955035D02*
X84121207Y37968340D01*
X84121207Y37968340D02*
X84147816Y37981645D01*
X84147816Y37981645D02*
X84174426Y37981645D01*
X84174426Y37981645D02*
X84214340Y37968340D01*
X84214340Y37968340D02*
X84373997Y37808683D01*
X84373997Y37808683D02*
X84373997Y37981645D01*
X84373997Y38247740D02*
X84373997Y38088083D01*
X84373997Y38167911D02*
X84094597Y38167911D01*
X84094597Y38167911D02*
X84134512Y38141302D01*
X84134512Y38141302D02*
X84161121Y38114692D01*
X84161121Y38114692D02*
X84174426Y38088083D01*
X3844597Y27992031D02*
X4044169Y27992031D01*
X4044169Y27992031D02*
X4084083Y27978726D01*
X4084083Y27978726D02*
X4110693Y27952117D01*
X4110693Y27952117D02*
X4123997Y27912202D01*
X4123997Y27912202D02*
X4123997Y27885593D01*
X3844597Y28098469D02*
X3844597Y28284735D01*
X3844597Y28284735D02*
X4123997Y28164993D01*
X85373997Y40215549D02*
X85240950Y40122416D01*
X85373997Y40055892D02*
X85094597Y40055892D01*
X85094597Y40055892D02*
X85094597Y40162330D01*
X85094597Y40162330D02*
X85107902Y40188940D01*
X85107902Y40188940D02*
X85121207Y40202245D01*
X85121207Y40202245D02*
X85147816Y40215549D01*
X85147816Y40215549D02*
X85187731Y40215549D01*
X85187731Y40215549D02*
X85214340Y40202245D01*
X85214340Y40202245D02*
X85227645Y40188940D01*
X85227645Y40188940D02*
X85240950Y40162330D01*
X85240950Y40162330D02*
X85240950Y40055892D01*
X85373997Y40481645D02*
X85373997Y40321988D01*
X85373997Y40401816D02*
X85094597Y40401816D01*
X85094597Y40401816D02*
X85134512Y40375207D01*
X85134512Y40375207D02*
X85161121Y40348597D01*
X85161121Y40348597D02*
X85174426Y40321988D01*
X85094597Y40734435D02*
X85094597Y40601387D01*
X85094597Y40601387D02*
X85227645Y40588083D01*
X85227645Y40588083D02*
X85214340Y40601387D01*
X85214340Y40601387D02*
X85201035Y40627997D01*
X85201035Y40627997D02*
X85201035Y40694521D01*
X85201035Y40694521D02*
X85214340Y40721130D01*
X85214340Y40721130D02*
X85227645Y40734435D01*
X85227645Y40734435D02*
X85254254Y40747740D01*
X85254254Y40747740D02*
X85320778Y40747740D01*
X85320778Y40747740D02*
X85347388Y40734435D01*
X85347388Y40734435D02*
X85360693Y40721130D01*
X85360693Y40721130D02*
X85373997Y40694521D01*
X85373997Y40694521D02*
X85373997Y40627997D01*
X85373997Y40627997D02*
X85360693Y40601387D01*
X85360693Y40601387D02*
X85347388Y40588083D01*
X28123997Y33184778D02*
X27990950Y33277911D01*
X28123997Y33344435D02*
X27844597Y33344435D01*
X27844597Y33344435D02*
X27844597Y33237997D01*
X27844597Y33237997D02*
X27857902Y33211387D01*
X27857902Y33211387D02*
X27871207Y33198082D01*
X27871207Y33198082D02*
X27897816Y33184778D01*
X27897816Y33184778D02*
X27937731Y33184778D01*
X27937731Y33184778D02*
X27964340Y33198082D01*
X27964340Y33198082D02*
X27977645Y33211387D01*
X27977645Y33211387D02*
X27990950Y33237997D01*
X27990950Y33237997D02*
X27990950Y33344435D01*
X28123997Y32918682D02*
X28123997Y33078339D01*
X28123997Y32998511D02*
X27844597Y32998511D01*
X27844597Y32998511D02*
X27884512Y33025120D01*
X27884512Y33025120D02*
X27911121Y33051730D01*
X27911121Y33051730D02*
X27924426Y33078339D01*
X27844597Y32745721D02*
X27844597Y32719111D01*
X27844597Y32719111D02*
X27857902Y32692502D01*
X27857902Y32692502D02*
X27871207Y32679197D01*
X27871207Y32679197D02*
X27897816Y32665892D01*
X27897816Y32665892D02*
X27951035Y32652587D01*
X27951035Y32652587D02*
X28017559Y32652587D01*
X28017559Y32652587D02*
X28070778Y32665892D01*
X28070778Y32665892D02*
X28097388Y32679197D01*
X28097388Y32679197D02*
X28110693Y32692502D01*
X28110693Y32692502D02*
X28123997Y32719111D01*
X28123997Y32719111D02*
X28123997Y32745721D01*
X28123997Y32745721D02*
X28110693Y32772330D01*
X28110693Y32772330D02*
X28097388Y32785635D01*
X28097388Y32785635D02*
X28070778Y32798940D01*
X28070778Y32798940D02*
X28017559Y32812244D01*
X28017559Y32812244D02*
X27951035Y32812244D01*
X27951035Y32812244D02*
X27897816Y32798940D01*
X27897816Y32798940D02*
X27871207Y32785635D01*
X27871207Y32785635D02*
X27857902Y32772330D01*
X27857902Y32772330D02*
X27844597Y32745721D01*
X56097388Y38574778D02*
X56110693Y38588082D01*
X56110693Y38588082D02*
X56123997Y38627997D01*
X56123997Y38627997D02*
X56123997Y38654606D01*
X56123997Y38654606D02*
X56110693Y38694520D01*
X56110693Y38694520D02*
X56084083Y38721130D01*
X56084083Y38721130D02*
X56057473Y38734435D01*
X56057473Y38734435D02*
X56004254Y38747739D01*
X56004254Y38747739D02*
X55964340Y38747739D01*
X55964340Y38747739D02*
X55911121Y38734435D01*
X55911121Y38734435D02*
X55884512Y38721130D01*
X55884512Y38721130D02*
X55857902Y38694520D01*
X55857902Y38694520D02*
X55844597Y38654606D01*
X55844597Y38654606D02*
X55844597Y38627997D01*
X55844597Y38627997D02*
X55857902Y38588082D01*
X55857902Y38588082D02*
X55871207Y38574778D01*
X55844597Y38481644D02*
X55844597Y38308682D01*
X55844597Y38308682D02*
X55951035Y38401816D01*
X55951035Y38401816D02*
X55951035Y38361901D01*
X55951035Y38361901D02*
X55964340Y38335292D01*
X55964340Y38335292D02*
X55977645Y38321987D01*
X55977645Y38321987D02*
X56004254Y38308682D01*
X56004254Y38308682D02*
X56070778Y38308682D01*
X56070778Y38308682D02*
X56097388Y38321987D01*
X56097388Y38321987D02*
X56110693Y38335292D01*
X56110693Y38335292D02*
X56123997Y38361901D01*
X56123997Y38361901D02*
X56123997Y38441730D01*
X56123997Y38441730D02*
X56110693Y38468339D01*
X56110693Y38468339D02*
X56097388Y38481644D01*
X55844597Y38055892D02*
X55844597Y38188940D01*
X55844597Y38188940D02*
X55977645Y38202244D01*
X55977645Y38202244D02*
X55964340Y38188940D01*
X55964340Y38188940D02*
X55951035Y38162330D01*
X55951035Y38162330D02*
X55951035Y38095806D01*
X55951035Y38095806D02*
X55964340Y38069197D01*
X55964340Y38069197D02*
X55977645Y38055892D01*
X55977645Y38055892D02*
X56004254Y38042587D01*
X56004254Y38042587D02*
X56070778Y38042587D01*
X56070778Y38042587D02*
X56097388Y38055892D01*
X56097388Y38055892D02*
X56110693Y38069197D01*
X56110693Y38069197D02*
X56123997Y38095806D01*
X56123997Y38095806D02*
X56123997Y38162330D01*
X56123997Y38162330D02*
X56110693Y38188940D01*
X56110693Y38188940D02*
X56097388Y38202244D01*
X57373997Y55178587D02*
X57094597Y55178587D01*
X57094597Y55178587D02*
X57094597Y55072149D01*
X57094597Y55072149D02*
X57107902Y55045539D01*
X57107902Y55045539D02*
X57121207Y55032234D01*
X57121207Y55032234D02*
X57147816Y55018930D01*
X57147816Y55018930D02*
X57187731Y55018930D01*
X57187731Y55018930D02*
X57214340Y55032234D01*
X57214340Y55032234D02*
X57227645Y55045539D01*
X57227645Y55045539D02*
X57240950Y55072149D01*
X57240950Y55072149D02*
X57240950Y55178587D01*
X57373997Y54899187D02*
X57094597Y54899187D01*
X57094597Y54899187D02*
X57094597Y54832663D01*
X57094597Y54832663D02*
X57107902Y54792749D01*
X57107902Y54792749D02*
X57134512Y54766139D01*
X57134512Y54766139D02*
X57161121Y54752834D01*
X57161121Y54752834D02*
X57214340Y54739530D01*
X57214340Y54739530D02*
X57254254Y54739530D01*
X57254254Y54739530D02*
X57307473Y54752834D01*
X57307473Y54752834D02*
X57334083Y54766139D01*
X57334083Y54766139D02*
X57360693Y54792749D01*
X57360693Y54792749D02*
X57373997Y54832663D01*
X57373997Y54832663D02*
X57373997Y54899187D01*
X57373997Y54473434D02*
X57373997Y54633091D01*
X57373997Y54553263D02*
X57094597Y54553263D01*
X57094597Y54553263D02*
X57134512Y54579872D01*
X57134512Y54579872D02*
X57161121Y54606482D01*
X57161121Y54606482D02*
X57174426Y54633091D01*
X59794941Y52207041D02*
X59888074Y52340088D01*
X59954598Y52207041D02*
X59954598Y52486441D01*
X59954598Y52486441D02*
X59848160Y52486441D01*
X59848160Y52486441D02*
X59821550Y52473136D01*
X59821550Y52473136D02*
X59808245Y52459831D01*
X59808245Y52459831D02*
X59794941Y52433222D01*
X59794941Y52433222D02*
X59794941Y52393307D01*
X59794941Y52393307D02*
X59808245Y52366698D01*
X59808245Y52366698D02*
X59821550Y52353393D01*
X59821550Y52353393D02*
X59848160Y52340088D01*
X59848160Y52340088D02*
X59954598Y52340088D01*
X59635283Y52366698D02*
X59661893Y52380003D01*
X59661893Y52380003D02*
X59675198Y52393307D01*
X59675198Y52393307D02*
X59688502Y52419917D01*
X59688502Y52419917D02*
X59688502Y52433222D01*
X59688502Y52433222D02*
X59675198Y52459831D01*
X59675198Y52459831D02*
X59661893Y52473136D01*
X59661893Y52473136D02*
X59635283Y52486441D01*
X59635283Y52486441D02*
X59582064Y52486441D01*
X59582064Y52486441D02*
X59555455Y52473136D01*
X59555455Y52473136D02*
X59542150Y52459831D01*
X59542150Y52459831D02*
X59528845Y52433222D01*
X59528845Y52433222D02*
X59528845Y52419917D01*
X59528845Y52419917D02*
X59542150Y52393307D01*
X59542150Y52393307D02*
X59555455Y52380003D01*
X59555455Y52380003D02*
X59582064Y52366698D01*
X59582064Y52366698D02*
X59635283Y52366698D01*
X59635283Y52366698D02*
X59661893Y52353393D01*
X59661893Y52353393D02*
X59675198Y52340088D01*
X59675198Y52340088D02*
X59688502Y52313479D01*
X59688502Y52313479D02*
X59688502Y52260260D01*
X59688502Y52260260D02*
X59675198Y52233650D01*
X59675198Y52233650D02*
X59661893Y52220345D01*
X59661893Y52220345D02*
X59635283Y52207041D01*
X59635283Y52207041D02*
X59582064Y52207041D01*
X59582064Y52207041D02*
X59555455Y52220345D01*
X59555455Y52220345D02*
X59542150Y52233650D01*
X59542150Y52233650D02*
X59528845Y52260260D01*
X59528845Y52260260D02*
X59528845Y52313479D01*
X59528845Y52313479D02*
X59542150Y52340088D01*
X59542150Y52340088D02*
X59555455Y52353393D01*
X59555455Y52353393D02*
X59582064Y52366698D01*
X62427989Y38806150D02*
X62441293Y38792845D01*
X62441293Y38792845D02*
X62481208Y38779541D01*
X62481208Y38779541D02*
X62507817Y38779541D01*
X62507817Y38779541D02*
X62547731Y38792845D01*
X62547731Y38792845D02*
X62574341Y38819455D01*
X62574341Y38819455D02*
X62587646Y38846065D01*
X62587646Y38846065D02*
X62600950Y38899284D01*
X62600950Y38899284D02*
X62600950Y38939198D01*
X62600950Y38939198D02*
X62587646Y38992417D01*
X62587646Y38992417D02*
X62574341Y39019026D01*
X62574341Y39019026D02*
X62547731Y39045636D01*
X62547731Y39045636D02*
X62507817Y39058941D01*
X62507817Y39058941D02*
X62481208Y39058941D01*
X62481208Y39058941D02*
X62441293Y39045636D01*
X62441293Y39045636D02*
X62427989Y39032331D01*
X62334855Y39058941D02*
X62161893Y39058941D01*
X62161893Y39058941D02*
X62255027Y38952503D01*
X62255027Y38952503D02*
X62215112Y38952503D01*
X62215112Y38952503D02*
X62188503Y38939198D01*
X62188503Y38939198D02*
X62175198Y38925893D01*
X62175198Y38925893D02*
X62161893Y38899284D01*
X62161893Y38899284D02*
X62161893Y38832760D01*
X62161893Y38832760D02*
X62175198Y38806150D01*
X62175198Y38806150D02*
X62188503Y38792845D01*
X62188503Y38792845D02*
X62215112Y38779541D01*
X62215112Y38779541D02*
X62294941Y38779541D01*
X62294941Y38779541D02*
X62321550Y38792845D01*
X62321550Y38792845D02*
X62334855Y38806150D01*
X61922408Y38965807D02*
X61922408Y38779541D01*
X61988932Y39072245D02*
X62055455Y38872674D01*
X62055455Y38872674D02*
X61882494Y38872674D01*
X57294941Y52207041D02*
X57388074Y52340088D01*
X57454598Y52207041D02*
X57454598Y52486441D01*
X57454598Y52486441D02*
X57348160Y52486441D01*
X57348160Y52486441D02*
X57321550Y52473136D01*
X57321550Y52473136D02*
X57308245Y52459831D01*
X57308245Y52459831D02*
X57294941Y52433222D01*
X57294941Y52433222D02*
X57294941Y52393307D01*
X57294941Y52393307D02*
X57308245Y52366698D01*
X57308245Y52366698D02*
X57321550Y52353393D01*
X57321550Y52353393D02*
X57348160Y52340088D01*
X57348160Y52340088D02*
X57454598Y52340088D01*
X57201807Y52486441D02*
X57015541Y52486441D01*
X57015541Y52486441D02*
X57135283Y52207041D01*
X59344597Y44358040D02*
X59570778Y44358040D01*
X59570778Y44358040D02*
X59597388Y44344735D01*
X59597388Y44344735D02*
X59610693Y44331430D01*
X59610693Y44331430D02*
X59623997Y44304821D01*
X59623997Y44304821D02*
X59623997Y44251602D01*
X59623997Y44251602D02*
X59610693Y44224992D01*
X59610693Y44224992D02*
X59597388Y44211687D01*
X59597388Y44211687D02*
X59570778Y44198383D01*
X59570778Y44198383D02*
X59344597Y44198383D01*
X59344597Y44091944D02*
X59344597Y43905678D01*
X59344597Y43905678D02*
X59623997Y44025420D01*
X59873997Y55178587D02*
X59594597Y55178587D01*
X59594597Y55178587D02*
X59594597Y55072149D01*
X59594597Y55072149D02*
X59607902Y55045539D01*
X59607902Y55045539D02*
X59621207Y55032234D01*
X59621207Y55032234D02*
X59647816Y55018930D01*
X59647816Y55018930D02*
X59687731Y55018930D01*
X59687731Y55018930D02*
X59714340Y55032234D01*
X59714340Y55032234D02*
X59727645Y55045539D01*
X59727645Y55045539D02*
X59740950Y55072149D01*
X59740950Y55072149D02*
X59740950Y55178587D01*
X59873997Y54899187D02*
X59594597Y54899187D01*
X59594597Y54899187D02*
X59594597Y54832663D01*
X59594597Y54832663D02*
X59607902Y54792749D01*
X59607902Y54792749D02*
X59634512Y54766139D01*
X59634512Y54766139D02*
X59661121Y54752834D01*
X59661121Y54752834D02*
X59714340Y54739530D01*
X59714340Y54739530D02*
X59754254Y54739530D01*
X59754254Y54739530D02*
X59807473Y54752834D01*
X59807473Y54752834D02*
X59834083Y54766139D01*
X59834083Y54766139D02*
X59860693Y54792749D01*
X59860693Y54792749D02*
X59873997Y54832663D01*
X59873997Y54832663D02*
X59873997Y54899187D01*
X59621207Y54633091D02*
X59607902Y54619787D01*
X59607902Y54619787D02*
X59594597Y54593177D01*
X59594597Y54593177D02*
X59594597Y54526653D01*
X59594597Y54526653D02*
X59607902Y54500044D01*
X59607902Y54500044D02*
X59621207Y54486739D01*
X59621207Y54486739D02*
X59647816Y54473434D01*
X59647816Y54473434D02*
X59674426Y54473434D01*
X59674426Y54473434D02*
X59714340Y54486739D01*
X59714340Y54486739D02*
X59873997Y54646396D01*
X59873997Y54646396D02*
X59873997Y54473434D01*
X27373997Y34941730D02*
X27240950Y35034863D01*
X27373997Y35101387D02*
X27094597Y35101387D01*
X27094597Y35101387D02*
X27094597Y34994949D01*
X27094597Y34994949D02*
X27107902Y34968339D01*
X27107902Y34968339D02*
X27121207Y34955034D01*
X27121207Y34955034D02*
X27147816Y34941730D01*
X27147816Y34941730D02*
X27187731Y34941730D01*
X27187731Y34941730D02*
X27214340Y34955034D01*
X27214340Y34955034D02*
X27227645Y34968339D01*
X27227645Y34968339D02*
X27240950Y34994949D01*
X27240950Y34994949D02*
X27240950Y35101387D01*
X27373997Y34808682D02*
X27373997Y34755463D01*
X27373997Y34755463D02*
X27360693Y34728853D01*
X27360693Y34728853D02*
X27347388Y34715549D01*
X27347388Y34715549D02*
X27307473Y34688939D01*
X27307473Y34688939D02*
X27254254Y34675634D01*
X27254254Y34675634D02*
X27147816Y34675634D01*
X27147816Y34675634D02*
X27121207Y34688939D01*
X27121207Y34688939D02*
X27107902Y34702244D01*
X27107902Y34702244D02*
X27094597Y34728853D01*
X27094597Y34728853D02*
X27094597Y34782072D01*
X27094597Y34782072D02*
X27107902Y34808682D01*
X27107902Y34808682D02*
X27121207Y34821987D01*
X27121207Y34821987D02*
X27147816Y34835291D01*
X27147816Y34835291D02*
X27214340Y34835291D01*
X27214340Y34835291D02*
X27240950Y34821987D01*
X27240950Y34821987D02*
X27254254Y34808682D01*
X27254254Y34808682D02*
X27267559Y34782072D01*
X27267559Y34782072D02*
X27267559Y34728853D01*
X27267559Y34728853D02*
X27254254Y34702244D01*
X27254254Y34702244D02*
X27240950Y34688939D01*
X27240950Y34688939D02*
X27214340Y34675634D01*
D14*
X68868375Y34751522D02*
X68868375Y35058804D01*
X69628375Y34751522D02*
X69628375Y35058804D01*
X87336475Y40450282D02*
X87336475Y40143000D01*
X86576475Y40450282D02*
X86576475Y40143000D01*
X68826475Y29950282D02*
X68826475Y29643000D01*
X69586475Y29950282D02*
X69586475Y29643000D01*
X85566475Y44904477D02*
X85566475Y44688805D01*
X84846475Y44904477D02*
X84846475Y44688805D01*
X63368375Y56065163D02*
X64748375Y56065163D01*
X63368375Y54685163D02*
X63368375Y56065163D01*
X63368375Y53415163D02*
X63368375Y50765163D01*
X63368375Y53415163D02*
X66128375Y53415163D01*
X63368375Y50765163D02*
X66128375Y50765163D01*
X66128375Y53415163D02*
X66128375Y50765163D01*
X71388375Y32482999D02*
X71388375Y32267327D01*
X72108375Y32482999D02*
X72108375Y32267327D01*
X29344734Y43775163D02*
X29652016Y43775163D01*
X29344734Y43015163D02*
X29652016Y43015163D01*
X86844775Y33095163D02*
X88224775Y33095163D01*
X86844775Y31715163D02*
X86844775Y33095163D01*
X86844775Y30445163D02*
X86844775Y22715163D01*
X86844775Y30445163D02*
X89604775Y30445163D01*
X86844775Y22715163D02*
X89604775Y22715163D01*
X89604775Y30445163D02*
X89604775Y22715163D01*
D15*
X28194085Y36945163D02*
G75*
G02*
X28002665Y36945163I-95710J0D01*
G01*
X28002665Y36945163D02*
G75*
G02*
X28194085Y36945163I95710J0D01*
G01*
D14*
X41513375Y41656415D02*
X41513375Y41133911D01*
X42983375Y41656415D02*
X42983375Y41133911D01*
X22376211Y19255163D02*
X22160539Y19255163D01*
X22376211Y18535163D02*
X22160539Y18535163D01*
X26140539Y42755163D02*
X26356211Y42755163D01*
X26140539Y42035163D02*
X26356211Y42035163D01*
X10868375Y54855163D02*
X12248375Y54855163D01*
X10868375Y53475163D02*
X10868375Y54855163D01*
X10868375Y52205163D02*
X10868375Y47015163D01*
X10868375Y52205163D02*
X13628375Y52205163D01*
X10868375Y47015163D02*
X13628375Y47015163D01*
X13628375Y52205163D02*
X13628375Y47015163D01*
X27118375Y8788804D02*
X27118375Y8481522D01*
X27878375Y8788804D02*
X27878375Y8481522D01*
X75093375Y39535163D02*
X75093375Y29255163D01*
X75093375Y29255163D02*
X76743375Y29255163D01*
X78743375Y29255163D02*
X80393375Y29255163D01*
X80393375Y39535163D02*
X75093375Y39535163D01*
X80393375Y29255163D02*
X80393375Y39535163D01*
X76743375Y29255163D02*
G75*
G02*
X78743375Y29255163I1000000J0D01*
G01*
X6868375Y31565163D02*
X8248375Y31565163D01*
X6868375Y30185163D02*
X6868375Y31565163D01*
X6868375Y28915163D02*
X6868375Y26265163D01*
X6868375Y28915163D02*
X9628375Y28915163D01*
X6868375Y26265163D02*
X9628375Y26265163D01*
X9628375Y28915163D02*
X9628375Y26265163D01*
X29618375Y8808804D02*
X29618375Y8501522D01*
X30378375Y8808804D02*
X30378375Y8501522D01*
X67588375Y50990726D02*
X67588375Y45235163D01*
X67588375Y45235163D02*
X69938375Y45235163D01*
X68652812Y52055163D02*
X67588375Y50990726D01*
X68652812Y52055163D02*
X69938375Y52055163D01*
X72845875Y53082663D02*
X72845875Y52295163D01*
X73239625Y52688913D02*
X72452125Y52688913D01*
X73343938Y52055163D02*
X72058375Y52055163D01*
X73343938Y52055163D02*
X74408375Y50990726D01*
X74408375Y50990726D02*
X74408375Y45235163D01*
X74408375Y45235163D02*
X72058375Y45235163D01*
X71368375Y34751522D02*
X71368375Y35058804D01*
X72128375Y34751522D02*
X72128375Y35058804D01*
X23688375Y18105163D02*
X23688375Y14685163D01*
X23688375Y14685163D02*
X27808375Y14685163D01*
X46673375Y48385163D02*
X47973375Y48385163D01*
X46673375Y46405163D02*
X47723375Y46405163D01*
X48093375Y46125163D02*
X48093375Y46405163D01*
X48373375Y46405163D01*
X48093375Y46125163D01*
G36*
X48093375Y46125163D02*
G01*
X48093375Y46405163D01*
X48373375Y46405163D01*
X48093375Y46125163D01*
G37*
X33868375Y6261522D02*
X33868375Y6568804D01*
X34628375Y6261522D02*
X34628375Y6568804D01*
X86388375Y35002999D02*
X86388375Y34787327D01*
X87108375Y35002999D02*
X87108375Y34787327D01*
X7013375Y11383911D02*
X7013375Y11906415D01*
X8483375Y11383911D02*
X8483375Y11906415D01*
X57078375Y50275163D02*
X57078375Y47515163D01*
X59728375Y50275163D02*
X57078375Y50275163D01*
X59728375Y50275163D02*
X59728375Y47515163D01*
X59728375Y47515163D02*
X57078375Y47515163D01*
X60998375Y50275163D02*
X62378375Y50275163D01*
X62378375Y50275163D02*
X62378375Y48895163D01*
X46838375Y44805163D02*
X46838375Y43545163D01*
X46838375Y37985163D02*
X46838375Y39245163D01*
X50598375Y44805163D02*
X46838375Y44805163D01*
X50598375Y37985163D02*
X46838375Y37985163D01*
X52118375Y37755163D02*
X51638375Y37755163D01*
X51878375Y38085163D01*
X52118375Y37755163D01*
G36*
X52118375Y37755163D02*
G01*
X51638375Y37755163D01*
X51878375Y38085163D01*
X52118375Y37755163D01*
G37*
X36118375Y6261522D02*
X36118375Y6568804D01*
X36878375Y6261522D02*
X36878375Y6568804D01*
X83388375Y35502999D02*
X83388375Y35287327D01*
X84108375Y35502999D02*
X84108375Y35287327D01*
X80487123Y42130163D02*
X81009627Y42130163D01*
X80487123Y40660163D02*
X81009627Y40660163D01*
X28640539Y33005163D02*
X28856211Y33005163D01*
X28640539Y32285163D02*
X28856211Y32285163D01*
D16*
X51388075Y46544263D02*
X53445475Y46544263D01*
X53445475Y48246063D02*
X51388075Y48246063D01*
D14*
X74487123Y27630163D02*
X75009627Y27630163D01*
X74487123Y26160163D02*
X75009627Y26160163D01*
X54513375Y33156415D02*
X54513375Y32633911D01*
X55983375Y33156415D02*
X55983375Y32633911D01*
X22368375Y8808804D02*
X22368375Y8501522D01*
X23128375Y8808804D02*
X23128375Y8501522D01*
X54513375Y37156415D02*
X54513375Y36633911D01*
X55983375Y37156415D02*
X55983375Y36633911D01*
X24868375Y8808804D02*
X24868375Y8501522D01*
X25628375Y8808804D02*
X25628375Y8501522D01*
X25868375Y6231522D02*
X25868375Y6538804D01*
X26628375Y6231522D02*
X26628375Y6538804D01*
X28256211Y14105163D02*
X28040539Y14105163D01*
X28256211Y13385163D02*
X28040539Y13385163D01*
X71368375Y29741522D02*
X71368375Y30048804D01*
X72128375Y29741522D02*
X72128375Y30048804D01*
X69437123Y41630163D02*
X69959627Y41630163D01*
X69437123Y40160163D02*
X69959627Y40160163D01*
X9888375Y10787327D02*
X9888375Y11002999D01*
X10608375Y10787327D02*
X10608375Y11002999D01*
X23368375Y6251522D02*
X23368375Y6558804D01*
X24128375Y6251522D02*
X24128375Y6558804D01*
X16152016Y25775163D02*
X15844734Y25775163D01*
X16152016Y25015163D02*
X15844734Y25015163D01*
X22538375Y2015163D02*
X22538375Y3395163D01*
X23918375Y2015163D02*
X22538375Y2015163D01*
X25188375Y4775163D02*
X43078375Y4775163D01*
X25188375Y2015163D02*
X25188375Y4775163D01*
X25188375Y2015163D02*
X43078375Y2015163D01*
X43078375Y2015163D02*
X43078375Y4775163D01*
X38618375Y6261522D02*
X38618375Y6568804D01*
X39378375Y6261522D02*
X39378375Y6568804D01*
X54978375Y5775163D02*
X54978375Y3015163D01*
X72868375Y5775163D02*
X54978375Y5775163D01*
X72868375Y5775163D02*
X72868375Y3015163D01*
X72868375Y3015163D02*
X54978375Y3015163D01*
X74138375Y5775163D02*
X75518375Y5775163D01*
X75518375Y5775163D02*
X75518375Y4395163D01*
X20688375Y31455163D02*
X21638375Y31455163D01*
X20688375Y30505163D02*
X20688375Y31455163D01*
X20688375Y21235163D02*
X20688375Y22185163D01*
X21638375Y21235163D02*
X20688375Y21235163D01*
X29958375Y31455163D02*
X30908375Y31455163D01*
X30908375Y31455163D02*
X30908375Y30505163D01*
X30908375Y22185163D02*
X30908375Y21235163D01*
X30908375Y21235163D02*
X29958375Y21235163D01*
X20188375Y30145163D02*
X19858375Y29905163D01*
X19858375Y30385163D01*
X20188375Y30145163D01*
G36*
X20188375Y30145163D02*
G01*
X19858375Y29905163D01*
X19858375Y30385163D01*
X20188375Y30145163D01*
G37*
X85402016Y28775163D02*
X85094734Y28775163D01*
X85402016Y28015163D02*
X85094734Y28015163D01*
X16152016Y28025163D02*
X15844734Y28025163D01*
X16152016Y27265163D02*
X15844734Y27265163D01*
X59593375Y39535163D02*
X59593375Y29255163D01*
X59593375Y29255163D02*
X61243375Y29255163D01*
X63243375Y29255163D02*
X64893375Y29255163D01*
X64893375Y39535163D02*
X59593375Y39535163D01*
X64893375Y29255163D02*
X64893375Y39535163D01*
X61243375Y29255163D02*
G75*
G02*
X63243375Y29255163I1000000J0D01*
G01*
X57888375Y41502999D02*
X57888375Y41287327D01*
X58608375Y41502999D02*
X58608375Y41287327D01*
X28368375Y6231522D02*
X28368375Y6538804D01*
X29128375Y6231522D02*
X29128375Y6538804D01*
X19238375Y41655163D02*
X24758375Y41655163D01*
X19238375Y41385163D02*
X19238375Y41655163D01*
X19238375Y36135163D02*
X19238375Y36405163D01*
X24758375Y41655163D02*
X24758375Y41385163D01*
X24758375Y36405163D02*
X24758375Y36135163D01*
X24758375Y36135163D02*
X19238375Y36135163D01*
X18408375Y41395163D02*
X18068375Y41865163D01*
X18748375Y41865163D01*
X18408375Y41395163D01*
G36*
X18408375Y41395163D02*
G01*
X18068375Y41865163D01*
X18748375Y41865163D01*
X18408375Y41395163D01*
G37*
X30868375Y6231522D02*
X30868375Y6538804D01*
X31628375Y6231522D02*
X31628375Y6538804D01*
X19788375Y53015163D02*
X19788375Y54395163D01*
X21168375Y53015163D02*
X19788375Y53015163D01*
X22438375Y55775163D02*
X32708375Y55775163D01*
X22438375Y53015163D02*
X22438375Y55775163D01*
X22438375Y53015163D02*
X32708375Y53015163D01*
X32708375Y53015163D02*
X32708375Y55775163D01*
X31788375Y14015163D02*
X31788375Y15395163D01*
X33168375Y14015163D02*
X31788375Y14015163D01*
X34438375Y16775163D02*
X39628375Y16775163D01*
X34438375Y14015163D02*
X34438375Y16775163D01*
X34438375Y14015163D02*
X39628375Y14015163D01*
X39628375Y14015163D02*
X39628375Y16775163D01*
X68868375Y32241522D02*
X68868375Y32548804D01*
X69628375Y32241522D02*
X69628375Y32548804D01*
X11118375Y31550163D02*
X12498375Y31550163D01*
X11118375Y30170163D02*
X11118375Y31550163D01*
X11118375Y28900163D02*
X11118375Y26250163D01*
X11118375Y28900163D02*
X13878375Y28900163D01*
X11118375Y26250163D02*
X13878375Y26250163D01*
X13878375Y28900163D02*
X13878375Y26250163D01*
X41368375Y6251522D02*
X41368375Y6558804D01*
X42128375Y6251522D02*
X42128375Y6558804D01*
X70336211Y38255163D02*
X70120539Y38255163D01*
X70336211Y37535163D02*
X70120539Y37535163D01*
X57868375Y43741522D02*
X57868375Y44048804D01*
X58628375Y43741522D02*
X58628375Y44048804D01*
X45168375Y57680163D02*
X54328375Y57680163D01*
X45168375Y55975163D02*
X45168375Y57680163D01*
X45168375Y53965163D02*
X45168375Y52045163D01*
X54328375Y57680163D02*
X54328375Y55975163D01*
X54328375Y52045163D02*
X54328375Y53965163D01*
X28232923Y15686321D02*
X28232923Y15379039D01*
X28992923Y15686321D02*
X28992923Y15379039D01*
X28640539Y34255163D02*
X28856211Y34255163D01*
X28640539Y33535163D02*
X28856211Y33535163D01*
X83868375Y38048804D02*
X83868375Y37741522D01*
X84628375Y38048804D02*
X84628375Y37741522D01*
X2618375Y45975163D02*
X3998375Y45975163D01*
X2618375Y44595163D02*
X2618375Y45975163D01*
X2618375Y43325163D02*
X2618375Y10195163D01*
X2618375Y43325163D02*
X5378375Y43325163D01*
X2618375Y10195163D02*
X5378375Y10195163D01*
X5378375Y43325163D02*
X5378375Y10195163D01*
X84868375Y40548804D02*
X84868375Y40241522D01*
X85628375Y40548804D02*
X85628375Y40241522D01*
M02*
