G04 #@! TF.GenerationSoftware,KiCad,Pcbnew,9.0.6*
G04 #@! TF.CreationDate,2025-11-20T09:59:51-05:00*
G04 #@! TF.ProjectId,Proton,50726f74-6f6e-42e6-9b69-6361645f7063,REV3*
G04 #@! TF.SameCoordinates,PX71ba2a9PY5a7fc3b*
G04 #@! TF.FileFunction,Legend,Top*
G04 #@! TF.FilePolarity,Positive*
%FSLAX46Y46*%
G04 Gerber Fmt 4.6, Leading zero omitted, Abs format (unit mm)*
G04 Created by KiCad (PCBNEW 9.0.6) date 2025-11-20 09:59:51*
%MOMM*%
%LPD*%
G01*
G04 APERTURE LIST*
%ADD10C,0.076200*%
%ADD11C,0.889000*%
%ADD12C,0.150000*%
%ADD13C,0.069850*%
%ADD14C,0.120000*%
%ADD15C,0.191421*%
%ADD16C,0.152400*%
G04 APERTURE END LIST*
D10*
X8435553Y24545106D02*
X8387172Y24569296D01*
X8387172Y24569296D02*
X8314601Y24569296D01*
X8314601Y24569296D02*
X8242029Y24545106D01*
X8242029Y24545106D02*
X8193648Y24496725D01*
X8193648Y24496725D02*
X8169458Y24448344D01*
X8169458Y24448344D02*
X8145267Y24351582D01*
X8145267Y24351582D02*
X8145267Y24279010D01*
X8145267Y24279010D02*
X8169458Y24182248D01*
X8169458Y24182248D02*
X8193648Y24133867D01*
X8193648Y24133867D02*
X8242029Y24085486D01*
X8242029Y24085486D02*
X8314601Y24061296D01*
X8314601Y24061296D02*
X8362982Y24061296D01*
X8362982Y24061296D02*
X8435553Y24085486D01*
X8435553Y24085486D02*
X8459744Y24109677D01*
X8459744Y24109677D02*
X8459744Y24279010D01*
X8459744Y24279010D02*
X8362982Y24279010D01*
X8677458Y24061296D02*
X8677458Y24569296D01*
X8677458Y24569296D02*
X8967744Y24061296D01*
X8967744Y24061296D02*
X8967744Y24569296D01*
X9209648Y24061296D02*
X9209648Y24569296D01*
X9209648Y24569296D02*
X9330600Y24569296D01*
X9330600Y24569296D02*
X9403172Y24545106D01*
X9403172Y24545106D02*
X9451553Y24496725D01*
X9451553Y24496725D02*
X9475743Y24448344D01*
X9475743Y24448344D02*
X9499934Y24351582D01*
X9499934Y24351582D02*
X9499934Y24279010D01*
X9499934Y24279010D02*
X9475743Y24182248D01*
X9475743Y24182248D02*
X9451553Y24133867D01*
X9451553Y24133867D02*
X9403172Y24085486D01*
X9403172Y24085486D02*
X9330600Y24061296D01*
X9330600Y24061296D02*
X9209648Y24061296D01*
X11088791Y24395243D02*
X10919458Y24395243D01*
X10919458Y24129148D02*
X10919458Y24637148D01*
X10919458Y24637148D02*
X11161363Y24637148D01*
X11524220Y24395243D02*
X11596792Y24371053D01*
X11596792Y24371053D02*
X11620982Y24346862D01*
X11620982Y24346862D02*
X11645173Y24298481D01*
X11645173Y24298481D02*
X11645173Y24225910D01*
X11645173Y24225910D02*
X11620982Y24177529D01*
X11620982Y24177529D02*
X11596792Y24153338D01*
X11596792Y24153338D02*
X11548411Y24129148D01*
X11548411Y24129148D02*
X11354887Y24129148D01*
X11354887Y24129148D02*
X11354887Y24637148D01*
X11354887Y24637148D02*
X11524220Y24637148D01*
X11524220Y24637148D02*
X11572601Y24612958D01*
X11572601Y24612958D02*
X11596792Y24588767D01*
X11596792Y24588767D02*
X11620982Y24540386D01*
X11620982Y24540386D02*
X11620982Y24492005D01*
X11620982Y24492005D02*
X11596792Y24443624D01*
X11596792Y24443624D02*
X11572601Y24419434D01*
X11572601Y24419434D02*
X11524220Y24395243D01*
X11524220Y24395243D02*
X11354887Y24395243D01*
X11741935Y24080767D02*
X12128982Y24080767D01*
X12201554Y24637148D02*
X12516030Y24637148D01*
X12516030Y24637148D02*
X12346697Y24443624D01*
X12346697Y24443624D02*
X12419268Y24443624D01*
X12419268Y24443624D02*
X12467649Y24419434D01*
X12467649Y24419434D02*
X12491840Y24395243D01*
X12491840Y24395243D02*
X12516030Y24346862D01*
X12516030Y24346862D02*
X12516030Y24225910D01*
X12516030Y24225910D02*
X12491840Y24177529D01*
X12491840Y24177529D02*
X12467649Y24153338D01*
X12467649Y24153338D02*
X12419268Y24129148D01*
X12419268Y24129148D02*
X12274125Y24129148D01*
X12274125Y24129148D02*
X12225744Y24153338D01*
X12225744Y24153338D02*
X12201554Y24177529D01*
X70145267Y6735486D02*
X70217839Y6711296D01*
X70217839Y6711296D02*
X70338791Y6711296D01*
X70338791Y6711296D02*
X70387172Y6735486D01*
X70387172Y6735486D02*
X70411363Y6759677D01*
X70411363Y6759677D02*
X70435553Y6808058D01*
X70435553Y6808058D02*
X70435553Y6856439D01*
X70435553Y6856439D02*
X70411363Y6904820D01*
X70411363Y6904820D02*
X70387172Y6929010D01*
X70387172Y6929010D02*
X70338791Y6953201D01*
X70338791Y6953201D02*
X70242029Y6977391D01*
X70242029Y6977391D02*
X70193648Y7001582D01*
X70193648Y7001582D02*
X70169458Y7025772D01*
X70169458Y7025772D02*
X70145267Y7074153D01*
X70145267Y7074153D02*
X70145267Y7122534D01*
X70145267Y7122534D02*
X70169458Y7170915D01*
X70169458Y7170915D02*
X70193648Y7195106D01*
X70193648Y7195106D02*
X70242029Y7219296D01*
X70242029Y7219296D02*
X70362982Y7219296D01*
X70362982Y7219296D02*
X70435553Y7195106D01*
X70653268Y6711296D02*
X70653268Y7049963D01*
X70653268Y7219296D02*
X70629077Y7195106D01*
X70629077Y7195106D02*
X70653268Y7170915D01*
X70653268Y7170915D02*
X70677458Y7195106D01*
X70677458Y7195106D02*
X70653268Y7219296D01*
X70653268Y7219296D02*
X70653268Y7170915D01*
X71112887Y7049963D02*
X71112887Y6711296D01*
X70991935Y7243486D02*
X70870982Y6880629D01*
X70870982Y6880629D02*
X71185459Y6880629D01*
X71330602Y7219296D02*
X71669269Y7219296D01*
X71669269Y7219296D02*
X71451554Y6711296D01*
X71959555Y7219296D02*
X72007936Y7219296D01*
X72007936Y7219296D02*
X72056317Y7195106D01*
X72056317Y7195106D02*
X72080507Y7170915D01*
X72080507Y7170915D02*
X72104698Y7122534D01*
X72104698Y7122534D02*
X72128888Y7025772D01*
X72128888Y7025772D02*
X72128888Y6904820D01*
X72128888Y6904820D02*
X72104698Y6808058D01*
X72104698Y6808058D02*
X72080507Y6759677D01*
X72080507Y6759677D02*
X72056317Y6735486D01*
X72056317Y6735486D02*
X72007936Y6711296D01*
X72007936Y6711296D02*
X71959555Y6711296D01*
X71959555Y6711296D02*
X71911174Y6735486D01*
X71911174Y6735486D02*
X71886983Y6759677D01*
X71886983Y6759677D02*
X71862793Y6808058D01*
X71862793Y6808058D02*
X71838602Y6904820D01*
X71838602Y6904820D02*
X71838602Y7025772D01*
X71838602Y7025772D02*
X71862793Y7122534D01*
X71862793Y7122534D02*
X71886983Y7170915D01*
X71886983Y7170915D02*
X71911174Y7195106D01*
X71911174Y7195106D02*
X71959555Y7219296D01*
X72298222Y7219296D02*
X72612698Y7219296D01*
X72612698Y7219296D02*
X72443365Y7025772D01*
X72443365Y7025772D02*
X72515936Y7025772D01*
X72515936Y7025772D02*
X72564317Y7001582D01*
X72564317Y7001582D02*
X72588508Y6977391D01*
X72588508Y6977391D02*
X72612698Y6929010D01*
X72612698Y6929010D02*
X72612698Y6808058D01*
X72612698Y6808058D02*
X72588508Y6759677D01*
X72588508Y6759677D02*
X72564317Y6735486D01*
X72564317Y6735486D02*
X72515936Y6711296D01*
X72515936Y6711296D02*
X72370793Y6711296D01*
X72370793Y6711296D02*
X72322412Y6735486D01*
X72322412Y6735486D02*
X72298222Y6759677D01*
X9209744Y53211296D02*
X9040410Y53453201D01*
X8919458Y53211296D02*
X8919458Y53719296D01*
X8919458Y53719296D02*
X9112982Y53719296D01*
X9112982Y53719296D02*
X9161363Y53695106D01*
X9161363Y53695106D02*
X9185553Y53670915D01*
X9185553Y53670915D02*
X9209744Y53622534D01*
X9209744Y53622534D02*
X9209744Y53549963D01*
X9209744Y53549963D02*
X9185553Y53501582D01*
X9185553Y53501582D02*
X9161363Y53477391D01*
X9161363Y53477391D02*
X9112982Y53453201D01*
X9112982Y53453201D02*
X8919458Y53453201D01*
X9379077Y53719296D02*
X9717744Y53211296D01*
X9717744Y53719296D02*
X9379077Y53211296D01*
X20459744Y51461296D02*
X20290410Y51703201D01*
X20169458Y51461296D02*
X20169458Y51969296D01*
X20169458Y51969296D02*
X20362982Y51969296D01*
X20362982Y51969296D02*
X20411363Y51945106D01*
X20411363Y51945106D02*
X20435553Y51920915D01*
X20435553Y51920915D02*
X20459744Y51872534D01*
X20459744Y51872534D02*
X20459744Y51799963D01*
X20459744Y51799963D02*
X20435553Y51751582D01*
X20435553Y51751582D02*
X20411363Y51727391D01*
X20411363Y51727391D02*
X20362982Y51703201D01*
X20362982Y51703201D02*
X20169458Y51703201D01*
X20774220Y51969296D02*
X20870982Y51969296D01*
X20870982Y51969296D02*
X20919363Y51945106D01*
X20919363Y51945106D02*
X20967744Y51896725D01*
X20967744Y51896725D02*
X20991934Y51799963D01*
X20991934Y51799963D02*
X20991934Y51630629D01*
X20991934Y51630629D02*
X20967744Y51533867D01*
X20967744Y51533867D02*
X20919363Y51485486D01*
X20919363Y51485486D02*
X20870982Y51461296D01*
X20870982Y51461296D02*
X20774220Y51461296D01*
X20774220Y51461296D02*
X20725839Y51485486D01*
X20725839Y51485486D02*
X20677458Y51533867D01*
X20677458Y51533867D02*
X20653267Y51630629D01*
X20653267Y51630629D02*
X20653267Y51799963D01*
X20653267Y51799963D02*
X20677458Y51896725D01*
X20677458Y51896725D02*
X20725839Y51945106D01*
X20725839Y51945106D02*
X20774220Y51969296D01*
X21137076Y51969296D02*
X21427362Y51969296D01*
X21282219Y51461296D02*
X21282219Y51969296D01*
X21572505Y51606439D02*
X21814410Y51606439D01*
X21524124Y51461296D02*
X21693458Y51969296D01*
X21693458Y51969296D02*
X21862791Y51461296D01*
X22322411Y51461296D02*
X22153077Y51703201D01*
X22032125Y51461296D02*
X22032125Y51969296D01*
X22032125Y51969296D02*
X22225649Y51969296D01*
X22225649Y51969296D02*
X22274030Y51945106D01*
X22274030Y51945106D02*
X22298220Y51920915D01*
X22298220Y51920915D02*
X22322411Y51872534D01*
X22322411Y51872534D02*
X22322411Y51799963D01*
X22322411Y51799963D02*
X22298220Y51751582D01*
X22298220Y51751582D02*
X22274030Y51727391D01*
X22274030Y51727391D02*
X22225649Y51703201D01*
X22225649Y51703201D02*
X22032125Y51703201D01*
X22636887Y51703201D02*
X22636887Y51461296D01*
X22467553Y51969296D02*
X22636887Y51703201D01*
X22636887Y51703201D02*
X22806220Y51969296D01*
X23362602Y51727391D02*
X23531935Y51727391D01*
X23604507Y51461296D02*
X23362602Y51461296D01*
X23362602Y51461296D02*
X23362602Y51969296D01*
X23362602Y51969296D02*
X23604507Y51969296D01*
X23822221Y51461296D02*
X23822221Y51969296D01*
X23822221Y51969296D02*
X24112507Y51461296D01*
X24112507Y51461296D02*
X24112507Y51969296D01*
X24644697Y51509677D02*
X24620506Y51485486D01*
X24620506Y51485486D02*
X24547935Y51461296D01*
X24547935Y51461296D02*
X24499554Y51461296D01*
X24499554Y51461296D02*
X24426982Y51485486D01*
X24426982Y51485486D02*
X24378601Y51533867D01*
X24378601Y51533867D02*
X24354411Y51582248D01*
X24354411Y51582248D02*
X24330220Y51679010D01*
X24330220Y51679010D02*
X24330220Y51751582D01*
X24330220Y51751582D02*
X24354411Y51848344D01*
X24354411Y51848344D02*
X24378601Y51896725D01*
X24378601Y51896725D02*
X24426982Y51945106D01*
X24426982Y51945106D02*
X24499554Y51969296D01*
X24499554Y51969296D02*
X24547935Y51969296D01*
X24547935Y51969296D02*
X24620506Y51945106D01*
X24620506Y51945106D02*
X24644697Y51920915D01*
X24959173Y51969296D02*
X25055935Y51969296D01*
X25055935Y51969296D02*
X25104316Y51945106D01*
X25104316Y51945106D02*
X25152697Y51896725D01*
X25152697Y51896725D02*
X25176887Y51799963D01*
X25176887Y51799963D02*
X25176887Y51630629D01*
X25176887Y51630629D02*
X25152697Y51533867D01*
X25152697Y51533867D02*
X25104316Y51485486D01*
X25104316Y51485486D02*
X25055935Y51461296D01*
X25055935Y51461296D02*
X24959173Y51461296D01*
X24959173Y51461296D02*
X24910792Y51485486D01*
X24910792Y51485486D02*
X24862411Y51533867D01*
X24862411Y51533867D02*
X24838220Y51630629D01*
X24838220Y51630629D02*
X24838220Y51799963D01*
X24838220Y51799963D02*
X24862411Y51896725D01*
X24862411Y51896725D02*
X24910792Y51945106D01*
X24910792Y51945106D02*
X24959173Y51969296D01*
X25394601Y51461296D02*
X25394601Y51969296D01*
X25394601Y51969296D02*
X25515553Y51969296D01*
X25515553Y51969296D02*
X25588125Y51945106D01*
X25588125Y51945106D02*
X25636506Y51896725D01*
X25636506Y51896725D02*
X25660696Y51848344D01*
X25660696Y51848344D02*
X25684887Y51751582D01*
X25684887Y51751582D02*
X25684887Y51679010D01*
X25684887Y51679010D02*
X25660696Y51582248D01*
X25660696Y51582248D02*
X25636506Y51533867D01*
X25636506Y51533867D02*
X25588125Y51485486D01*
X25588125Y51485486D02*
X25515553Y51461296D01*
X25515553Y51461296D02*
X25394601Y51461296D01*
X25902601Y51727391D02*
X26071934Y51727391D01*
X26144506Y51461296D02*
X25902601Y51461296D01*
X25902601Y51461296D02*
X25902601Y51969296D01*
X25902601Y51969296D02*
X26144506Y51969296D01*
X26652506Y51461296D02*
X26483172Y51703201D01*
X26362220Y51461296D02*
X26362220Y51969296D01*
X26362220Y51969296D02*
X26555744Y51969296D01*
X26555744Y51969296D02*
X26604125Y51945106D01*
X26604125Y51945106D02*
X26628315Y51920915D01*
X26628315Y51920915D02*
X26652506Y51872534D01*
X26652506Y51872534D02*
X26652506Y51799963D01*
X26652506Y51799963D02*
X26628315Y51751582D01*
X26628315Y51751582D02*
X26604125Y51727391D01*
X26604125Y51727391D02*
X26555744Y51703201D01*
X26555744Y51703201D02*
X26362220Y51703201D01*
X1738718Y10566247D02*
X1738718Y10953294D01*
X1932242Y10759771D02*
X1545194Y10759771D01*
X1424242Y11146818D02*
X1424242Y11461294D01*
X1424242Y11461294D02*
X1617766Y11291961D01*
X1617766Y11291961D02*
X1617766Y11364532D01*
X1617766Y11364532D02*
X1641956Y11412913D01*
X1641956Y11412913D02*
X1666147Y11437104D01*
X1666147Y11437104D02*
X1714528Y11461294D01*
X1714528Y11461294D02*
X1835480Y11461294D01*
X1835480Y11461294D02*
X1883861Y11437104D01*
X1883861Y11437104D02*
X1908052Y11412913D01*
X1908052Y11412913D02*
X1932242Y11364532D01*
X1932242Y11364532D02*
X1932242Y11219389D01*
X1932242Y11219389D02*
X1908052Y11171008D01*
X1908052Y11171008D02*
X1883861Y11146818D01*
X1883861Y11679009D02*
X1908052Y11703199D01*
X1908052Y11703199D02*
X1932242Y11679009D01*
X1932242Y11679009D02*
X1908052Y11654818D01*
X1908052Y11654818D02*
X1883861Y11679009D01*
X1883861Y11679009D02*
X1932242Y11679009D01*
X1424242Y11872533D02*
X1424242Y12187009D01*
X1424242Y12187009D02*
X1617766Y12017676D01*
X1617766Y12017676D02*
X1617766Y12090247D01*
X1617766Y12090247D02*
X1641956Y12138628D01*
X1641956Y12138628D02*
X1666147Y12162819D01*
X1666147Y12162819D02*
X1714528Y12187009D01*
X1714528Y12187009D02*
X1835480Y12187009D01*
X1835480Y12187009D02*
X1883861Y12162819D01*
X1883861Y12162819D02*
X1908052Y12138628D01*
X1908052Y12138628D02*
X1932242Y12090247D01*
X1932242Y12090247D02*
X1932242Y11945104D01*
X1932242Y11945104D02*
X1908052Y11896723D01*
X1908052Y11896723D02*
X1883861Y11872533D01*
X1424242Y12332152D02*
X1932242Y12501486D01*
X1932242Y12501486D02*
X1424242Y12670819D01*
X38435553Y13445106D02*
X38387172Y13469296D01*
X38387172Y13469296D02*
X38314601Y13469296D01*
X38314601Y13469296D02*
X38242029Y13445106D01*
X38242029Y13445106D02*
X38193648Y13396725D01*
X38193648Y13396725D02*
X38169458Y13348344D01*
X38169458Y13348344D02*
X38145267Y13251582D01*
X38145267Y13251582D02*
X38145267Y13179010D01*
X38145267Y13179010D02*
X38169458Y13082248D01*
X38169458Y13082248D02*
X38193648Y13033867D01*
X38193648Y13033867D02*
X38242029Y12985486D01*
X38242029Y12985486D02*
X38314601Y12961296D01*
X38314601Y12961296D02*
X38362982Y12961296D01*
X38362982Y12961296D02*
X38435553Y12985486D01*
X38435553Y12985486D02*
X38459744Y13009677D01*
X38459744Y13009677D02*
X38459744Y13179010D01*
X38459744Y13179010D02*
X38362982Y13179010D01*
X38677458Y12961296D02*
X38677458Y13469296D01*
X38677458Y13469296D02*
X38967744Y12961296D01*
X38967744Y12961296D02*
X38967744Y13469296D01*
X39209648Y12961296D02*
X39209648Y13469296D01*
X39209648Y13469296D02*
X39330600Y13469296D01*
X39330600Y13469296D02*
X39403172Y13445106D01*
X39403172Y13445106D02*
X39451553Y13396725D01*
X39451553Y13396725D02*
X39475743Y13348344D01*
X39475743Y13348344D02*
X39499934Y13251582D01*
X39499934Y13251582D02*
X39499934Y13179010D01*
X39499934Y13179010D02*
X39475743Y13082248D01*
X39475743Y13082248D02*
X39451553Y13033867D01*
X39451553Y13033867D02*
X39403172Y12985486D01*
X39403172Y12985486D02*
X39330600Y12961296D01*
X39330600Y12961296D02*
X39209648Y12961296D01*
X62448432Y51582342D02*
X62424242Y51533961D01*
X62424242Y51533961D02*
X62424242Y51461390D01*
X62424242Y51461390D02*
X62448432Y51388818D01*
X62448432Y51388818D02*
X62496813Y51340437D01*
X62496813Y51340437D02*
X62545194Y51316247D01*
X62545194Y51316247D02*
X62641956Y51292056D01*
X62641956Y51292056D02*
X62714528Y51292056D01*
X62714528Y51292056D02*
X62811290Y51316247D01*
X62811290Y51316247D02*
X62859671Y51340437D01*
X62859671Y51340437D02*
X62908052Y51388818D01*
X62908052Y51388818D02*
X62932242Y51461390D01*
X62932242Y51461390D02*
X62932242Y51509771D01*
X62932242Y51509771D02*
X62908052Y51582342D01*
X62908052Y51582342D02*
X62883861Y51606533D01*
X62883861Y51606533D02*
X62714528Y51606533D01*
X62714528Y51606533D02*
X62714528Y51509771D01*
X62932242Y51824247D02*
X62424242Y51824247D01*
X62424242Y51824247D02*
X62932242Y52114533D01*
X62932242Y52114533D02*
X62424242Y52114533D01*
X62932242Y52356437D02*
X62424242Y52356437D01*
X62424242Y52356437D02*
X62424242Y52477389D01*
X62424242Y52477389D02*
X62448432Y52549961D01*
X62448432Y52549961D02*
X62496813Y52598342D01*
X62496813Y52598342D02*
X62545194Y52622532D01*
X62545194Y52622532D02*
X62641956Y52646723D01*
X62641956Y52646723D02*
X62714528Y52646723D01*
X62714528Y52646723D02*
X62811290Y52622532D01*
X62811290Y52622532D02*
X62859671Y52598342D01*
X62859671Y52598342D02*
X62908052Y52549961D01*
X62908052Y52549961D02*
X62932242Y52477389D01*
X62932242Y52477389D02*
X62932242Y52356437D01*
X7088791Y36577391D02*
X6919458Y36577391D01*
X6919458Y36311296D02*
X6919458Y36819296D01*
X6919458Y36819296D02*
X7161363Y36819296D01*
X7524220Y36577391D02*
X7596792Y36553201D01*
X7596792Y36553201D02*
X7620982Y36529010D01*
X7620982Y36529010D02*
X7645173Y36480629D01*
X7645173Y36480629D02*
X7645173Y36408058D01*
X7645173Y36408058D02*
X7620982Y36359677D01*
X7620982Y36359677D02*
X7596792Y36335486D01*
X7596792Y36335486D02*
X7548411Y36311296D01*
X7548411Y36311296D02*
X7354887Y36311296D01*
X7354887Y36311296D02*
X7354887Y36819296D01*
X7354887Y36819296D02*
X7524220Y36819296D01*
X7524220Y36819296D02*
X7572601Y36795106D01*
X7572601Y36795106D02*
X7596792Y36770915D01*
X7596792Y36770915D02*
X7620982Y36722534D01*
X7620982Y36722534D02*
X7620982Y36674153D01*
X7620982Y36674153D02*
X7596792Y36625772D01*
X7596792Y36625772D02*
X7572601Y36601582D01*
X7572601Y36601582D02*
X7524220Y36577391D01*
X7524220Y36577391D02*
X7354887Y36577391D01*
X7741935Y36262915D02*
X8128982Y36262915D01*
X8225744Y36770915D02*
X8249935Y36795106D01*
X8249935Y36795106D02*
X8298316Y36819296D01*
X8298316Y36819296D02*
X8419268Y36819296D01*
X8419268Y36819296D02*
X8467649Y36795106D01*
X8467649Y36795106D02*
X8491840Y36770915D01*
X8491840Y36770915D02*
X8516030Y36722534D01*
X8516030Y36722534D02*
X8516030Y36674153D01*
X8516030Y36674153D02*
X8491840Y36601582D01*
X8491840Y36601582D02*
X8201554Y36311296D01*
X8201554Y36311296D02*
X8516030Y36311296D01*
D11*
X58558957Y19467663D02*
X58558957Y18741949D01*
X60010385Y19467663D02*
X60010385Y18741949D01*
X61461814Y15839091D02*
X62006100Y15657663D01*
X62006100Y15657663D02*
X62913242Y15657663D01*
X62913242Y15657663D02*
X63276100Y15839091D01*
X63276100Y15839091D02*
X63457528Y16020520D01*
X63457528Y16020520D02*
X63638957Y16383377D01*
X63638957Y16383377D02*
X63638957Y16746234D01*
X63638957Y16746234D02*
X63457528Y17109091D01*
X63457528Y17109091D02*
X63276100Y17290520D01*
X63276100Y17290520D02*
X62913242Y17471949D01*
X62913242Y17471949D02*
X62187528Y17653377D01*
X62187528Y17653377D02*
X61824671Y17834806D01*
X61824671Y17834806D02*
X61643242Y18016234D01*
X61643242Y18016234D02*
X61461814Y18379091D01*
X61461814Y18379091D02*
X61461814Y18741949D01*
X61461814Y18741949D02*
X61643242Y19104806D01*
X61643242Y19104806D02*
X61824671Y19286234D01*
X61824671Y19286234D02*
X62187528Y19467663D01*
X62187528Y19467663D02*
X63094671Y19467663D01*
X63094671Y19467663D02*
X63638957Y19286234D01*
X65271813Y15657663D02*
X65271813Y19467663D01*
X65271813Y17653377D02*
X67448956Y17653377D01*
X67448956Y15657663D02*
X67448956Y19467663D01*
X69081814Y16746234D02*
X70896100Y16746234D01*
X68718957Y15657663D02*
X69988957Y19467663D01*
X69988957Y19467663D02*
X71258957Y15657663D01*
X73798956Y17653377D02*
X74343242Y17471949D01*
X74343242Y17471949D02*
X74524671Y17290520D01*
X74524671Y17290520D02*
X74706099Y16927663D01*
X74706099Y16927663D02*
X74706099Y16383377D01*
X74706099Y16383377D02*
X74524671Y16020520D01*
X74524671Y16020520D02*
X74343242Y15839091D01*
X74343242Y15839091D02*
X73980385Y15657663D01*
X73980385Y15657663D02*
X72528956Y15657663D01*
X72528956Y15657663D02*
X72528956Y19467663D01*
X72528956Y19467663D02*
X73798956Y19467663D01*
X73798956Y19467663D02*
X74161814Y19286234D01*
X74161814Y19286234D02*
X74343242Y19104806D01*
X74343242Y19104806D02*
X74524671Y18741949D01*
X74524671Y18741949D02*
X74524671Y18379091D01*
X74524671Y18379091D02*
X74343242Y18016234D01*
X74343242Y18016234D02*
X74161814Y17834806D01*
X74161814Y17834806D02*
X73798956Y17653377D01*
X73798956Y17653377D02*
X72528956Y17653377D01*
X76157528Y16746234D02*
X77971814Y16746234D01*
X75794671Y15657663D02*
X77064671Y19467663D01*
X77064671Y19467663D02*
X78334671Y15657663D01*
X79604670Y15657663D02*
X79604670Y19467663D01*
X79604670Y19467663D02*
X81781813Y15657663D01*
X81781813Y15657663D02*
X81781813Y19467663D01*
X85591814Y19286234D02*
X85228957Y19467663D01*
X85228957Y19467663D02*
X84684671Y19467663D01*
X84684671Y19467663D02*
X84140385Y19286234D01*
X84140385Y19286234D02*
X83777528Y18923377D01*
X83777528Y18923377D02*
X83596099Y18560520D01*
X83596099Y18560520D02*
X83414671Y17834806D01*
X83414671Y17834806D02*
X83414671Y17290520D01*
X83414671Y17290520D02*
X83596099Y16564806D01*
X83596099Y16564806D02*
X83777528Y16201949D01*
X83777528Y16201949D02*
X84140385Y15839091D01*
X84140385Y15839091D02*
X84684671Y15657663D01*
X84684671Y15657663D02*
X85047528Y15657663D01*
X85047528Y15657663D02*
X85591814Y15839091D01*
X85591814Y15839091D02*
X85773242Y16020520D01*
X85773242Y16020520D02*
X85773242Y17290520D01*
X85773242Y17290520D02*
X85047528Y17290520D01*
X87406099Y16020520D02*
X87587528Y15839091D01*
X87587528Y15839091D02*
X87406099Y15657663D01*
X87406099Y15657663D02*
X87224671Y15839091D01*
X87224671Y15839091D02*
X87406099Y16020520D01*
X87406099Y16020520D02*
X87406099Y15657663D01*
X87406099Y17109091D02*
X87224671Y19286234D01*
X87224671Y19286234D02*
X87406099Y19467663D01*
X87406099Y19467663D02*
X87587528Y19286234D01*
X87587528Y19286234D02*
X87406099Y17109091D01*
X87406099Y17109091D02*
X87406099Y19467663D01*
X89038957Y19467663D02*
X89038957Y18741949D01*
X90490385Y19467663D02*
X90490385Y18741949D01*
D10*
X27669458Y52404820D02*
X28056506Y52404820D01*
X27862982Y52211296D02*
X27862982Y52598344D01*
X28250029Y52719296D02*
X28564505Y52719296D01*
X28564505Y52719296D02*
X28395172Y52525772D01*
X28395172Y52525772D02*
X28467743Y52525772D01*
X28467743Y52525772D02*
X28516124Y52501582D01*
X28516124Y52501582D02*
X28540315Y52477391D01*
X28540315Y52477391D02*
X28564505Y52429010D01*
X28564505Y52429010D02*
X28564505Y52308058D01*
X28564505Y52308058D02*
X28540315Y52259677D01*
X28540315Y52259677D02*
X28516124Y52235486D01*
X28516124Y52235486D02*
X28467743Y52211296D01*
X28467743Y52211296D02*
X28322600Y52211296D01*
X28322600Y52211296D02*
X28274219Y52235486D01*
X28274219Y52235486D02*
X28250029Y52259677D01*
X28782220Y52259677D02*
X28806410Y52235486D01*
X28806410Y52235486D02*
X28782220Y52211296D01*
X28782220Y52211296D02*
X28758029Y52235486D01*
X28758029Y52235486D02*
X28782220Y52259677D01*
X28782220Y52259677D02*
X28782220Y52211296D01*
X28975744Y52719296D02*
X29290220Y52719296D01*
X29290220Y52719296D02*
X29120887Y52525772D01*
X29120887Y52525772D02*
X29193458Y52525772D01*
X29193458Y52525772D02*
X29241839Y52501582D01*
X29241839Y52501582D02*
X29266030Y52477391D01*
X29266030Y52477391D02*
X29290220Y52429010D01*
X29290220Y52429010D02*
X29290220Y52308058D01*
X29290220Y52308058D02*
X29266030Y52259677D01*
X29266030Y52259677D02*
X29241839Y52235486D01*
X29241839Y52235486D02*
X29193458Y52211296D01*
X29193458Y52211296D02*
X29048315Y52211296D01*
X29048315Y52211296D02*
X28999934Y52235486D01*
X28999934Y52235486D02*
X28975744Y52259677D01*
X29435363Y52719296D02*
X29604697Y52211296D01*
X29604697Y52211296D02*
X29774030Y52719296D01*
X11338791Y36577391D02*
X11169458Y36577391D01*
X11169458Y36311296D02*
X11169458Y36819296D01*
X11169458Y36819296D02*
X11411363Y36819296D01*
X11774220Y36577391D02*
X11846792Y36553201D01*
X11846792Y36553201D02*
X11870982Y36529010D01*
X11870982Y36529010D02*
X11895173Y36480629D01*
X11895173Y36480629D02*
X11895173Y36408058D01*
X11895173Y36408058D02*
X11870982Y36359677D01*
X11870982Y36359677D02*
X11846792Y36335486D01*
X11846792Y36335486D02*
X11798411Y36311296D01*
X11798411Y36311296D02*
X11604887Y36311296D01*
X11604887Y36311296D02*
X11604887Y36819296D01*
X11604887Y36819296D02*
X11774220Y36819296D01*
X11774220Y36819296D02*
X11822601Y36795106D01*
X11822601Y36795106D02*
X11846792Y36770915D01*
X11846792Y36770915D02*
X11870982Y36722534D01*
X11870982Y36722534D02*
X11870982Y36674153D01*
X11870982Y36674153D02*
X11846792Y36625772D01*
X11846792Y36625772D02*
X11822601Y36601582D01*
X11822601Y36601582D02*
X11774220Y36577391D01*
X11774220Y36577391D02*
X11604887Y36577391D01*
X11991935Y36262915D02*
X12378982Y36262915D01*
X12766030Y36311296D02*
X12475744Y36311296D01*
X12620887Y36311296D02*
X12620887Y36819296D01*
X12620887Y36819296D02*
X12572506Y36746725D01*
X12572506Y36746725D02*
X12524125Y36698344D01*
X12524125Y36698344D02*
X12475744Y36674153D01*
X7185553Y30045106D02*
X7137172Y30069296D01*
X7137172Y30069296D02*
X7064601Y30069296D01*
X7064601Y30069296D02*
X6992029Y30045106D01*
X6992029Y30045106D02*
X6943648Y29996725D01*
X6943648Y29996725D02*
X6919458Y29948344D01*
X6919458Y29948344D02*
X6895267Y29851582D01*
X6895267Y29851582D02*
X6895267Y29779010D01*
X6895267Y29779010D02*
X6919458Y29682248D01*
X6919458Y29682248D02*
X6943648Y29633867D01*
X6943648Y29633867D02*
X6992029Y29585486D01*
X6992029Y29585486D02*
X7064601Y29561296D01*
X7064601Y29561296D02*
X7112982Y29561296D01*
X7112982Y29561296D02*
X7185553Y29585486D01*
X7185553Y29585486D02*
X7209744Y29609677D01*
X7209744Y29609677D02*
X7209744Y29779010D01*
X7209744Y29779010D02*
X7112982Y29779010D01*
X7427458Y29561296D02*
X7427458Y30069296D01*
X7427458Y30069296D02*
X7717744Y29561296D01*
X7717744Y29561296D02*
X7717744Y30069296D01*
X7959648Y29561296D02*
X7959648Y30069296D01*
X7959648Y30069296D02*
X8080600Y30069296D01*
X8080600Y30069296D02*
X8153172Y30045106D01*
X8153172Y30045106D02*
X8201553Y29996725D01*
X8201553Y29996725D02*
X8225743Y29948344D01*
X8225743Y29948344D02*
X8249934Y29851582D01*
X8249934Y29851582D02*
X8249934Y29779010D01*
X8249934Y29779010D02*
X8225743Y29682248D01*
X8225743Y29682248D02*
X8201553Y29633867D01*
X8201553Y29633867D02*
X8153172Y29585486D01*
X8153172Y29585486D02*
X8080600Y29561296D01*
X8080600Y29561296D02*
X7959648Y29561296D01*
X30935553Y52695106D02*
X30887172Y52719296D01*
X30887172Y52719296D02*
X30814601Y52719296D01*
X30814601Y52719296D02*
X30742029Y52695106D01*
X30742029Y52695106D02*
X30693648Y52646725D01*
X30693648Y52646725D02*
X30669458Y52598344D01*
X30669458Y52598344D02*
X30645267Y52501582D01*
X30645267Y52501582D02*
X30645267Y52429010D01*
X30645267Y52429010D02*
X30669458Y52332248D01*
X30669458Y52332248D02*
X30693648Y52283867D01*
X30693648Y52283867D02*
X30742029Y52235486D01*
X30742029Y52235486D02*
X30814601Y52211296D01*
X30814601Y52211296D02*
X30862982Y52211296D01*
X30862982Y52211296D02*
X30935553Y52235486D01*
X30935553Y52235486D02*
X30959744Y52259677D01*
X30959744Y52259677D02*
X30959744Y52429010D01*
X30959744Y52429010D02*
X30862982Y52429010D01*
X31177458Y52211296D02*
X31177458Y52719296D01*
X31177458Y52719296D02*
X31467744Y52211296D01*
X31467744Y52211296D02*
X31467744Y52719296D01*
X31709648Y52211296D02*
X31709648Y52719296D01*
X31709648Y52719296D02*
X31830600Y52719296D01*
X31830600Y52719296D02*
X31903172Y52695106D01*
X31903172Y52695106D02*
X31951553Y52646725D01*
X31951553Y52646725D02*
X31975743Y52598344D01*
X31975743Y52598344D02*
X31999934Y52501582D01*
X31999934Y52501582D02*
X31999934Y52429010D01*
X31999934Y52429010D02*
X31975743Y52332248D01*
X31975743Y52332248D02*
X31951553Y52283867D01*
X31951553Y52283867D02*
X31903172Y52235486D01*
X31903172Y52235486D02*
X31830600Y52211296D01*
X31830600Y52211296D02*
X31709648Y52211296D01*
X31395267Y12985486D02*
X31467839Y12961296D01*
X31467839Y12961296D02*
X31588791Y12961296D01*
X31588791Y12961296D02*
X31637172Y12985486D01*
X31637172Y12985486D02*
X31661363Y13009677D01*
X31661363Y13009677D02*
X31685553Y13058058D01*
X31685553Y13058058D02*
X31685553Y13106439D01*
X31685553Y13106439D02*
X31661363Y13154820D01*
X31661363Y13154820D02*
X31637172Y13179010D01*
X31637172Y13179010D02*
X31588791Y13203201D01*
X31588791Y13203201D02*
X31492029Y13227391D01*
X31492029Y13227391D02*
X31443648Y13251582D01*
X31443648Y13251582D02*
X31419458Y13275772D01*
X31419458Y13275772D02*
X31395267Y13324153D01*
X31395267Y13324153D02*
X31395267Y13372534D01*
X31395267Y13372534D02*
X31419458Y13420915D01*
X31419458Y13420915D02*
X31443648Y13445106D01*
X31443648Y13445106D02*
X31492029Y13469296D01*
X31492029Y13469296D02*
X31612982Y13469296D01*
X31612982Y13469296D02*
X31685553Y13445106D01*
X31854887Y13469296D02*
X31975839Y12961296D01*
X31975839Y12961296D02*
X32072601Y13324153D01*
X32072601Y13324153D02*
X32169363Y12961296D01*
X32169363Y12961296D02*
X32290316Y13469296D01*
X32774125Y13009677D02*
X32749934Y12985486D01*
X32749934Y12985486D02*
X32677363Y12961296D01*
X32677363Y12961296D02*
X32628982Y12961296D01*
X32628982Y12961296D02*
X32556410Y12985486D01*
X32556410Y12985486D02*
X32508029Y13033867D01*
X32508029Y13033867D02*
X32483839Y13082248D01*
X32483839Y13082248D02*
X32459648Y13179010D01*
X32459648Y13179010D02*
X32459648Y13251582D01*
X32459648Y13251582D02*
X32483839Y13348344D01*
X32483839Y13348344D02*
X32508029Y13396725D01*
X32508029Y13396725D02*
X32556410Y13445106D01*
X32556410Y13445106D02*
X32628982Y13469296D01*
X32628982Y13469296D02*
X32677363Y13469296D01*
X32677363Y13469296D02*
X32749934Y13445106D01*
X32749934Y13445106D02*
X32774125Y13420915D01*
X33233744Y12961296D02*
X32991839Y12961296D01*
X32991839Y12961296D02*
X32991839Y13469296D01*
X33403077Y12961296D02*
X33403077Y13469296D01*
X33693363Y12961296D02*
X33475648Y13251582D01*
X33693363Y13469296D02*
X33403077Y13179010D01*
X11185553Y30045106D02*
X11137172Y30069296D01*
X11137172Y30069296D02*
X11064601Y30069296D01*
X11064601Y30069296D02*
X10992029Y30045106D01*
X10992029Y30045106D02*
X10943648Y29996725D01*
X10943648Y29996725D02*
X10919458Y29948344D01*
X10919458Y29948344D02*
X10895267Y29851582D01*
X10895267Y29851582D02*
X10895267Y29779010D01*
X10895267Y29779010D02*
X10919458Y29682248D01*
X10919458Y29682248D02*
X10943648Y29633867D01*
X10943648Y29633867D02*
X10992029Y29585486D01*
X10992029Y29585486D02*
X11064601Y29561296D01*
X11064601Y29561296D02*
X11112982Y29561296D01*
X11112982Y29561296D02*
X11185553Y29585486D01*
X11185553Y29585486D02*
X11209744Y29609677D01*
X11209744Y29609677D02*
X11209744Y29779010D01*
X11209744Y29779010D02*
X11112982Y29779010D01*
X11427458Y29561296D02*
X11427458Y30069296D01*
X11427458Y30069296D02*
X11717744Y29561296D01*
X11717744Y29561296D02*
X11717744Y30069296D01*
X11959648Y29561296D02*
X11959648Y30069296D01*
X11959648Y30069296D02*
X12080600Y30069296D01*
X12080600Y30069296D02*
X12153172Y30045106D01*
X12153172Y30045106D02*
X12201553Y29996725D01*
X12201553Y29996725D02*
X12225743Y29948344D01*
X12225743Y29948344D02*
X12249934Y29851582D01*
X12249934Y29851582D02*
X12249934Y29779010D01*
X12249934Y29779010D02*
X12225743Y29682248D01*
X12225743Y29682248D02*
X12201553Y29633867D01*
X12201553Y29633867D02*
X12153172Y29585486D01*
X12153172Y29585486D02*
X12080600Y29561296D01*
X12080600Y29561296D02*
X11959648Y29561296D01*
X35145267Y12985486D02*
X35217839Y12961296D01*
X35217839Y12961296D02*
X35338791Y12961296D01*
X35338791Y12961296D02*
X35387172Y12985486D01*
X35387172Y12985486D02*
X35411363Y13009677D01*
X35411363Y13009677D02*
X35435553Y13058058D01*
X35435553Y13058058D02*
X35435553Y13106439D01*
X35435553Y13106439D02*
X35411363Y13154820D01*
X35411363Y13154820D02*
X35387172Y13179010D01*
X35387172Y13179010D02*
X35338791Y13203201D01*
X35338791Y13203201D02*
X35242029Y13227391D01*
X35242029Y13227391D02*
X35193648Y13251582D01*
X35193648Y13251582D02*
X35169458Y13275772D01*
X35169458Y13275772D02*
X35145267Y13324153D01*
X35145267Y13324153D02*
X35145267Y13372534D01*
X35145267Y13372534D02*
X35169458Y13420915D01*
X35169458Y13420915D02*
X35193648Y13445106D01*
X35193648Y13445106D02*
X35242029Y13469296D01*
X35242029Y13469296D02*
X35362982Y13469296D01*
X35362982Y13469296D02*
X35435553Y13445106D01*
X35604887Y13469296D02*
X35725839Y12961296D01*
X35725839Y12961296D02*
X35822601Y13324153D01*
X35822601Y13324153D02*
X35919363Y12961296D01*
X35919363Y12961296D02*
X36040316Y13469296D01*
X36233839Y12961296D02*
X36233839Y13469296D01*
X36233839Y13469296D02*
X36354791Y13469296D01*
X36354791Y13469296D02*
X36427363Y13445106D01*
X36427363Y13445106D02*
X36475744Y13396725D01*
X36475744Y13396725D02*
X36499934Y13348344D01*
X36499934Y13348344D02*
X36524125Y13251582D01*
X36524125Y13251582D02*
X36524125Y13179010D01*
X36524125Y13179010D02*
X36499934Y13082248D01*
X36499934Y13082248D02*
X36475744Y13033867D01*
X36475744Y13033867D02*
X36427363Y12985486D01*
X36427363Y12985486D02*
X36354791Y12961296D01*
X36354791Y12961296D02*
X36233839Y12961296D01*
X58685553Y2695106D02*
X58637172Y2719296D01*
X58637172Y2719296D02*
X58564601Y2719296D01*
X58564601Y2719296D02*
X58492029Y2695106D01*
X58492029Y2695106D02*
X58443648Y2646725D01*
X58443648Y2646725D02*
X58419458Y2598344D01*
X58419458Y2598344D02*
X58395267Y2501582D01*
X58395267Y2501582D02*
X58395267Y2429010D01*
X58395267Y2429010D02*
X58419458Y2332248D01*
X58419458Y2332248D02*
X58443648Y2283867D01*
X58443648Y2283867D02*
X58492029Y2235486D01*
X58492029Y2235486D02*
X58564601Y2211296D01*
X58564601Y2211296D02*
X58612982Y2211296D01*
X58612982Y2211296D02*
X58685553Y2235486D01*
X58685553Y2235486D02*
X58709744Y2259677D01*
X58709744Y2259677D02*
X58709744Y2429010D01*
X58709744Y2429010D02*
X58612982Y2429010D01*
X58927458Y2211296D02*
X58927458Y2719296D01*
X58927458Y2719296D02*
X59217744Y2211296D01*
X59217744Y2211296D02*
X59217744Y2719296D01*
X59459648Y2211296D02*
X59459648Y2719296D01*
X59459648Y2719296D02*
X59580600Y2719296D01*
X59580600Y2719296D02*
X59653172Y2695106D01*
X59653172Y2695106D02*
X59701553Y2646725D01*
X59701553Y2646725D02*
X59725743Y2598344D01*
X59725743Y2598344D02*
X59749934Y2501582D01*
X59749934Y2501582D02*
X59749934Y2429010D01*
X59749934Y2429010D02*
X59725743Y2332248D01*
X59725743Y2332248D02*
X59701553Y2283867D01*
X59701553Y2283867D02*
X59653172Y2235486D01*
X59653172Y2235486D02*
X59580600Y2211296D01*
X59580600Y2211296D02*
X59459648Y2211296D01*
D12*
X72085154Y12656297D02*
X72847059Y12656297D01*
X73942297Y13275344D02*
X74513725Y13275344D01*
X74228011Y12275344D02*
X74228011Y13275344D01*
X74847059Y12275344D02*
X74847059Y13275344D01*
X74847059Y12799154D02*
X75418487Y12799154D01*
X75418487Y12275344D02*
X75418487Y13275344D01*
X75894678Y12799154D02*
X76228011Y12799154D01*
X76370868Y12275344D02*
X75894678Y12275344D01*
X75894678Y12275344D02*
X75894678Y13275344D01*
X75894678Y13275344D02*
X76370868Y13275344D01*
X77894678Y12799154D02*
X77561345Y12799154D01*
X77561345Y12275344D02*
X77561345Y13275344D01*
X77561345Y13275344D02*
X78037535Y13275344D01*
X78894678Y12275344D02*
X78418488Y12275344D01*
X78418488Y12275344D02*
X78418488Y13275344D01*
X79418488Y12751535D02*
X79418488Y12275344D01*
X79085155Y13275344D02*
X79418488Y12751535D01*
X79418488Y12751535D02*
X79751821Y13275344D01*
X80085155Y12275344D02*
X80085155Y13275344D01*
X80561345Y12275344D02*
X80561345Y13275344D01*
X80561345Y13275344D02*
X81132773Y12275344D01*
X81132773Y12275344D02*
X81132773Y13275344D01*
X82132773Y13227725D02*
X82037535Y13275344D01*
X82037535Y13275344D02*
X81894678Y13275344D01*
X81894678Y13275344D02*
X81751821Y13227725D01*
X81751821Y13227725D02*
X81656583Y13132487D01*
X81656583Y13132487D02*
X81608964Y13037249D01*
X81608964Y13037249D02*
X81561345Y12846773D01*
X81561345Y12846773D02*
X81561345Y12703916D01*
X81561345Y12703916D02*
X81608964Y12513440D01*
X81608964Y12513440D02*
X81656583Y12418202D01*
X81656583Y12418202D02*
X81751821Y12322963D01*
X81751821Y12322963D02*
X81894678Y12275344D01*
X81894678Y12275344D02*
X81989916Y12275344D01*
X81989916Y12275344D02*
X82132773Y12322963D01*
X82132773Y12322963D02*
X82180392Y12370583D01*
X82180392Y12370583D02*
X82180392Y12703916D01*
X82180392Y12703916D02*
X81989916Y12703916D01*
X83370869Y12275344D02*
X83370869Y13275344D01*
X83370869Y13275344D02*
X83704202Y12561059D01*
X83704202Y12561059D02*
X84037535Y13275344D01*
X84037535Y13275344D02*
X84037535Y12275344D01*
X84466107Y12561059D02*
X84942297Y12561059D01*
X84370869Y12275344D02*
X84704202Y13275344D01*
X84704202Y13275344D02*
X85037535Y12275344D01*
X85942297Y12370583D02*
X85894678Y12322963D01*
X85894678Y12322963D02*
X85751821Y12275344D01*
X85751821Y12275344D02*
X85656583Y12275344D01*
X85656583Y12275344D02*
X85513726Y12322963D01*
X85513726Y12322963D02*
X85418488Y12418202D01*
X85418488Y12418202D02*
X85370869Y12513440D01*
X85370869Y12513440D02*
X85323250Y12703916D01*
X85323250Y12703916D02*
X85323250Y12846773D01*
X85323250Y12846773D02*
X85370869Y13037249D01*
X85370869Y13037249D02*
X85418488Y13132487D01*
X85418488Y13132487D02*
X85513726Y13227725D01*
X85513726Y13227725D02*
X85656583Y13275344D01*
X85656583Y13275344D02*
X85751821Y13275344D01*
X85751821Y13275344D02*
X85894678Y13227725D01*
X85894678Y13227725D02*
X85942297Y13180106D01*
X86370869Y12275344D02*
X86370869Y13275344D01*
X86370869Y12799154D02*
X86942297Y12799154D01*
X86942297Y12275344D02*
X86942297Y13275344D01*
X87418488Y12275344D02*
X87418488Y13275344D01*
X87894678Y12275344D02*
X87894678Y13275344D01*
X87894678Y13275344D02*
X88466106Y12275344D01*
X88466106Y12275344D02*
X88466106Y13275344D01*
X88942297Y12799154D02*
X89275630Y12799154D01*
X89418487Y12275344D02*
X88942297Y12275344D01*
X88942297Y12275344D02*
X88942297Y13275344D01*
X88942297Y13275344D02*
X89418487Y13275344D01*
D10*
X8846886Y51219296D02*
X9137172Y51219296D01*
X8992029Y50711296D02*
X8992029Y51219296D01*
X9258125Y51219296D02*
X9596792Y50711296D01*
X9596792Y51219296D02*
X9258125Y50711296D01*
X9185553Y48445106D02*
X9137172Y48469296D01*
X9137172Y48469296D02*
X9064601Y48469296D01*
X9064601Y48469296D02*
X8992029Y48445106D01*
X8992029Y48445106D02*
X8943648Y48396725D01*
X8943648Y48396725D02*
X8919458Y48348344D01*
X8919458Y48348344D02*
X8895267Y48251582D01*
X8895267Y48251582D02*
X8895267Y48179010D01*
X8895267Y48179010D02*
X8919458Y48082248D01*
X8919458Y48082248D02*
X8943648Y48033867D01*
X8943648Y48033867D02*
X8992029Y47985486D01*
X8992029Y47985486D02*
X9064601Y47961296D01*
X9064601Y47961296D02*
X9112982Y47961296D01*
X9112982Y47961296D02*
X9185553Y47985486D01*
X9185553Y47985486D02*
X9209744Y48009677D01*
X9209744Y48009677D02*
X9209744Y48179010D01*
X9209744Y48179010D02*
X9112982Y48179010D01*
X9427458Y47961296D02*
X9427458Y48469296D01*
X9427458Y48469296D02*
X9717744Y47961296D01*
X9717744Y47961296D02*
X9717744Y48469296D01*
X9959648Y47961296D02*
X9959648Y48469296D01*
X9959648Y48469296D02*
X10080600Y48469296D01*
X10080600Y48469296D02*
X10153172Y48445106D01*
X10153172Y48445106D02*
X10201553Y48396725D01*
X10201553Y48396725D02*
X10225743Y48348344D01*
X10225743Y48348344D02*
X10249934Y48251582D01*
X10249934Y48251582D02*
X10249934Y48179010D01*
X10249934Y48179010D02*
X10225743Y48082248D01*
X10225743Y48082248D02*
X10201553Y48033867D01*
X10201553Y48033867D02*
X10153172Y47985486D01*
X10153172Y47985486D02*
X10080600Y47961296D01*
X10080600Y47961296D02*
X9959648Y47961296D01*
X62908052Y54042056D02*
X62932242Y54114628D01*
X62932242Y54114628D02*
X62932242Y54235580D01*
X62932242Y54235580D02*
X62908052Y54283961D01*
X62908052Y54283961D02*
X62883861Y54308152D01*
X62883861Y54308152D02*
X62835480Y54332342D01*
X62835480Y54332342D02*
X62787099Y54332342D01*
X62787099Y54332342D02*
X62738718Y54308152D01*
X62738718Y54308152D02*
X62714528Y54283961D01*
X62714528Y54283961D02*
X62690337Y54235580D01*
X62690337Y54235580D02*
X62666147Y54138818D01*
X62666147Y54138818D02*
X62641956Y54090437D01*
X62641956Y54090437D02*
X62617766Y54066247D01*
X62617766Y54066247D02*
X62569385Y54042056D01*
X62569385Y54042056D02*
X62521004Y54042056D01*
X62521004Y54042056D02*
X62472623Y54066247D01*
X62472623Y54066247D02*
X62448432Y54090437D01*
X62448432Y54090437D02*
X62424242Y54138818D01*
X62424242Y54138818D02*
X62424242Y54259771D01*
X62424242Y54259771D02*
X62448432Y54332342D01*
X62932242Y54550057D02*
X62424242Y54550057D01*
X62424242Y54550057D02*
X62424242Y54743581D01*
X62424242Y54743581D02*
X62448432Y54791962D01*
X62448432Y54791962D02*
X62472623Y54816152D01*
X62472623Y54816152D02*
X62521004Y54840343D01*
X62521004Y54840343D02*
X62593575Y54840343D01*
X62593575Y54840343D02*
X62641956Y54816152D01*
X62641956Y54816152D02*
X62666147Y54791962D01*
X62666147Y54791962D02*
X62690337Y54743581D01*
X62690337Y54743581D02*
X62690337Y54550057D01*
X62932242Y55058057D02*
X62424242Y55058057D01*
X62932242Y55348343D02*
X62641956Y55130628D01*
X62424242Y55348343D02*
X62714528Y55058057D01*
X62932242Y55856343D02*
X62690337Y55687009D01*
X62932242Y55566057D02*
X62424242Y55566057D01*
X62424242Y55566057D02*
X62424242Y55759581D01*
X62424242Y55759581D02*
X62448432Y55807962D01*
X62448432Y55807962D02*
X62472623Y55832152D01*
X62472623Y55832152D02*
X62521004Y55856343D01*
X62521004Y55856343D02*
X62593575Y55856343D01*
X62593575Y55856343D02*
X62641956Y55832152D01*
X62641956Y55832152D02*
X62666147Y55807962D01*
X62666147Y55807962D02*
X62690337Y55759581D01*
X62690337Y55759581D02*
X62690337Y55566057D01*
X1448432Y13832342D02*
X1424242Y13783961D01*
X1424242Y13783961D02*
X1424242Y13711390D01*
X1424242Y13711390D02*
X1448432Y13638818D01*
X1448432Y13638818D02*
X1496813Y13590437D01*
X1496813Y13590437D02*
X1545194Y13566247D01*
X1545194Y13566247D02*
X1641956Y13542056D01*
X1641956Y13542056D02*
X1714528Y13542056D01*
X1714528Y13542056D02*
X1811290Y13566247D01*
X1811290Y13566247D02*
X1859671Y13590437D01*
X1859671Y13590437D02*
X1908052Y13638818D01*
X1908052Y13638818D02*
X1932242Y13711390D01*
X1932242Y13711390D02*
X1932242Y13759771D01*
X1932242Y13759771D02*
X1908052Y13832342D01*
X1908052Y13832342D02*
X1883861Y13856533D01*
X1883861Y13856533D02*
X1714528Y13856533D01*
X1714528Y13856533D02*
X1714528Y13759771D01*
X1932242Y14074247D02*
X1424242Y14074247D01*
X1424242Y14074247D02*
X1932242Y14364533D01*
X1932242Y14364533D02*
X1424242Y14364533D01*
X1932242Y14606437D02*
X1424242Y14606437D01*
X1424242Y14606437D02*
X1424242Y14727389D01*
X1424242Y14727389D02*
X1448432Y14799961D01*
X1448432Y14799961D02*
X1496813Y14848342D01*
X1496813Y14848342D02*
X1545194Y14872532D01*
X1545194Y14872532D02*
X1641956Y14896723D01*
X1641956Y14896723D02*
X1714528Y14896723D01*
X1714528Y14896723D02*
X1811290Y14872532D01*
X1811290Y14872532D02*
X1859671Y14848342D01*
X1859671Y14848342D02*
X1908052Y14799961D01*
X1908052Y14799961D02*
X1932242Y14727389D01*
X1932242Y14727389D02*
X1932242Y14606437D01*
X74698432Y54082342D02*
X74674242Y54033961D01*
X74674242Y54033961D02*
X74674242Y53961390D01*
X74674242Y53961390D02*
X74698432Y53888818D01*
X74698432Y53888818D02*
X74746813Y53840437D01*
X74746813Y53840437D02*
X74795194Y53816247D01*
X74795194Y53816247D02*
X74891956Y53792056D01*
X74891956Y53792056D02*
X74964528Y53792056D01*
X74964528Y53792056D02*
X75061290Y53816247D01*
X75061290Y53816247D02*
X75109671Y53840437D01*
X75109671Y53840437D02*
X75158052Y53888818D01*
X75158052Y53888818D02*
X75182242Y53961390D01*
X75182242Y53961390D02*
X75182242Y54009771D01*
X75182242Y54009771D02*
X75158052Y54082342D01*
X75158052Y54082342D02*
X75133861Y54106533D01*
X75133861Y54106533D02*
X74964528Y54106533D01*
X74964528Y54106533D02*
X74964528Y54009771D01*
X75182242Y54324247D02*
X74674242Y54324247D01*
X74674242Y54324247D02*
X75182242Y54614533D01*
X75182242Y54614533D02*
X74674242Y54614533D01*
X75182242Y54856437D02*
X74674242Y54856437D01*
X74674242Y54856437D02*
X74674242Y54977389D01*
X74674242Y54977389D02*
X74698432Y55049961D01*
X74698432Y55049961D02*
X74746813Y55098342D01*
X74746813Y55098342D02*
X74795194Y55122532D01*
X74795194Y55122532D02*
X74891956Y55146723D01*
X74891956Y55146723D02*
X74964528Y55146723D01*
X74964528Y55146723D02*
X75061290Y55122532D01*
X75061290Y55122532D02*
X75109671Y55098342D01*
X75109671Y55098342D02*
X75158052Y55049961D01*
X75158052Y55049961D02*
X75182242Y54977389D01*
X75182242Y54977389D02*
X75182242Y54856437D01*
X55169458Y2404820D02*
X55556506Y2404820D01*
X55362982Y2211296D02*
X55362982Y2598344D01*
X55750029Y2719296D02*
X56064505Y2719296D01*
X56064505Y2719296D02*
X55895172Y2525772D01*
X55895172Y2525772D02*
X55967743Y2525772D01*
X55967743Y2525772D02*
X56016124Y2501582D01*
X56016124Y2501582D02*
X56040315Y2477391D01*
X56040315Y2477391D02*
X56064505Y2429010D01*
X56064505Y2429010D02*
X56064505Y2308058D01*
X56064505Y2308058D02*
X56040315Y2259677D01*
X56040315Y2259677D02*
X56016124Y2235486D01*
X56016124Y2235486D02*
X55967743Y2211296D01*
X55967743Y2211296D02*
X55822600Y2211296D01*
X55822600Y2211296D02*
X55774219Y2235486D01*
X55774219Y2235486D02*
X55750029Y2259677D01*
X56282220Y2259677D02*
X56306410Y2235486D01*
X56306410Y2235486D02*
X56282220Y2211296D01*
X56282220Y2211296D02*
X56258029Y2235486D01*
X56258029Y2235486D02*
X56282220Y2259677D01*
X56282220Y2259677D02*
X56282220Y2211296D01*
X56475744Y2719296D02*
X56790220Y2719296D01*
X56790220Y2719296D02*
X56620887Y2525772D01*
X56620887Y2525772D02*
X56693458Y2525772D01*
X56693458Y2525772D02*
X56741839Y2501582D01*
X56741839Y2501582D02*
X56766030Y2477391D01*
X56766030Y2477391D02*
X56790220Y2429010D01*
X56790220Y2429010D02*
X56790220Y2308058D01*
X56790220Y2308058D02*
X56766030Y2259677D01*
X56766030Y2259677D02*
X56741839Y2235486D01*
X56741839Y2235486D02*
X56693458Y2211296D01*
X56693458Y2211296D02*
X56548315Y2211296D01*
X56548315Y2211296D02*
X56499934Y2235486D01*
X56499934Y2235486D02*
X56475744Y2259677D01*
X56935363Y2719296D02*
X57104697Y2211296D01*
X57104697Y2211296D02*
X57274030Y2719296D01*
D13*
X12344597Y33023983D02*
X12544169Y33023983D01*
X12544169Y33023983D02*
X12584083Y33010678D01*
X12584083Y33010678D02*
X12610693Y32984069D01*
X12610693Y32984069D02*
X12623997Y32944154D01*
X12623997Y32944154D02*
X12623997Y32917545D01*
X12623997Y33303383D02*
X12623997Y33143726D01*
X12623997Y33223554D02*
X12344597Y33223554D01*
X12344597Y33223554D02*
X12384512Y33196945D01*
X12384512Y33196945D02*
X12411121Y33170335D01*
X12411121Y33170335D02*
X12424426Y33143726D01*
X12344597Y33476344D02*
X12344597Y33502954D01*
X12344597Y33502954D02*
X12357902Y33529563D01*
X12357902Y33529563D02*
X12371207Y33542868D01*
X12371207Y33542868D02*
X12397816Y33556173D01*
X12397816Y33556173D02*
X12451035Y33569478D01*
X12451035Y33569478D02*
X12517559Y33569478D01*
X12517559Y33569478D02*
X12570778Y33556173D01*
X12570778Y33556173D02*
X12597388Y33542868D01*
X12597388Y33542868D02*
X12610693Y33529563D01*
X12610693Y33529563D02*
X12623997Y33502954D01*
X12623997Y33502954D02*
X12623997Y33476344D01*
X12623997Y33476344D02*
X12610693Y33449735D01*
X12610693Y33449735D02*
X12597388Y33436430D01*
X12597388Y33436430D02*
X12570778Y33423125D01*
X12570778Y33423125D02*
X12517559Y33409821D01*
X12517559Y33409821D02*
X12451035Y33409821D01*
X12451035Y33409821D02*
X12397816Y33423125D01*
X12397816Y33423125D02*
X12371207Y33436430D01*
X12371207Y33436430D02*
X12357902Y33449735D01*
X12357902Y33449735D02*
X12344597Y33476344D01*
X8094597Y33172031D02*
X8294169Y33172031D01*
X8294169Y33172031D02*
X8334083Y33158726D01*
X8334083Y33158726D02*
X8360693Y33132117D01*
X8360693Y33132117D02*
X8373997Y33092202D01*
X8373997Y33092202D02*
X8373997Y33065593D01*
X8373997Y33318383D02*
X8373997Y33371602D01*
X8373997Y33371602D02*
X8360693Y33398212D01*
X8360693Y33398212D02*
X8347388Y33411516D01*
X8347388Y33411516D02*
X8307473Y33438126D01*
X8307473Y33438126D02*
X8254254Y33451431D01*
X8254254Y33451431D02*
X8147816Y33451431D01*
X8147816Y33451431D02*
X8121207Y33438126D01*
X8121207Y33438126D02*
X8107902Y33424821D01*
X8107902Y33424821D02*
X8094597Y33398212D01*
X8094597Y33398212D02*
X8094597Y33344993D01*
X8094597Y33344993D02*
X8107902Y33318383D01*
X8107902Y33318383D02*
X8121207Y33305078D01*
X8121207Y33305078D02*
X8147816Y33291774D01*
X8147816Y33291774D02*
X8214340Y33291774D01*
X8214340Y33291774D02*
X8240950Y33305078D01*
X8240950Y33305078D02*
X8254254Y33318383D01*
X8254254Y33318383D02*
X8267559Y33344993D01*
X8267559Y33344993D02*
X8267559Y33398212D01*
X8267559Y33398212D02*
X8254254Y33424821D01*
X8254254Y33424821D02*
X8240950Y33438126D01*
X8240950Y33438126D02*
X8214340Y33451431D01*
X15568760Y24869541D02*
X15475627Y25002588D01*
X15409103Y24869541D02*
X15409103Y25148941D01*
X15409103Y25148941D02*
X15515541Y25148941D01*
X15515541Y25148941D02*
X15542151Y25135636D01*
X15542151Y25135636D02*
X15555456Y25122331D01*
X15555456Y25122331D02*
X15568760Y25095722D01*
X15568760Y25095722D02*
X15568760Y25055807D01*
X15568760Y25055807D02*
X15555456Y25029198D01*
X15555456Y25029198D02*
X15542151Y25015893D01*
X15542151Y25015893D02*
X15515541Y25002588D01*
X15515541Y25002588D02*
X15409103Y25002588D01*
X15808246Y25055807D02*
X15808246Y24869541D01*
X15741722Y25162245D02*
X15675199Y24962674D01*
X15675199Y24962674D02*
X15848160Y24962674D01*
X16007817Y25148941D02*
X16034427Y25148941D01*
X16034427Y25148941D02*
X16061036Y25135636D01*
X16061036Y25135636D02*
X16074341Y25122331D01*
X16074341Y25122331D02*
X16087646Y25095722D01*
X16087646Y25095722D02*
X16100951Y25042503D01*
X16100951Y25042503D02*
X16100951Y24975979D01*
X16100951Y24975979D02*
X16087646Y24922760D01*
X16087646Y24922760D02*
X16074341Y24896150D01*
X16074341Y24896150D02*
X16061036Y24882845D01*
X16061036Y24882845D02*
X16034427Y24869541D01*
X16034427Y24869541D02*
X16007817Y24869541D01*
X16007817Y24869541D02*
X15981208Y24882845D01*
X15981208Y24882845D02*
X15967903Y24896150D01*
X15967903Y24896150D02*
X15954598Y24922760D01*
X15954598Y24922760D02*
X15941294Y24975979D01*
X15941294Y24975979D02*
X15941294Y25042503D01*
X15941294Y25042503D02*
X15954598Y25095722D01*
X15954598Y25095722D02*
X15967903Y25122331D01*
X15967903Y25122331D02*
X15981208Y25135636D01*
X15981208Y25135636D02*
X16007817Y25148941D01*
X13474597Y26268983D02*
X13674169Y26268983D01*
X13674169Y26268983D02*
X13714083Y26255678D01*
X13714083Y26255678D02*
X13740693Y26229069D01*
X13740693Y26229069D02*
X13753997Y26189154D01*
X13753997Y26189154D02*
X13753997Y26162545D01*
X13753997Y26548383D02*
X13753997Y26388726D01*
X13753997Y26468554D02*
X13474597Y26468554D01*
X13474597Y26468554D02*
X13514512Y26441945D01*
X13514512Y26441945D02*
X13541121Y26415335D01*
X13541121Y26415335D02*
X13554426Y26388726D01*
X13567731Y26787868D02*
X13753997Y26787868D01*
X13461293Y26721344D02*
X13660864Y26654821D01*
X13660864Y26654821D02*
X13660864Y26827782D01*
X82568760Y35896150D02*
X82555456Y35882845D01*
X82555456Y35882845D02*
X82515541Y35869541D01*
X82515541Y35869541D02*
X82488932Y35869541D01*
X82488932Y35869541D02*
X82449018Y35882845D01*
X82449018Y35882845D02*
X82422408Y35909455D01*
X82422408Y35909455D02*
X82409103Y35936065D01*
X82409103Y35936065D02*
X82395799Y35989284D01*
X82395799Y35989284D02*
X82395799Y36029198D01*
X82395799Y36029198D02*
X82409103Y36082417D01*
X82409103Y36082417D02*
X82422408Y36109026D01*
X82422408Y36109026D02*
X82449018Y36135636D01*
X82449018Y36135636D02*
X82488932Y36148941D01*
X82488932Y36148941D02*
X82515541Y36148941D01*
X82515541Y36148941D02*
X82555456Y36135636D01*
X82555456Y36135636D02*
X82568760Y36122331D01*
X82675199Y36122331D02*
X82688503Y36135636D01*
X82688503Y36135636D02*
X82715113Y36148941D01*
X82715113Y36148941D02*
X82781637Y36148941D01*
X82781637Y36148941D02*
X82808246Y36135636D01*
X82808246Y36135636D02*
X82821551Y36122331D01*
X82821551Y36122331D02*
X82834856Y36095722D01*
X82834856Y36095722D02*
X82834856Y36069112D01*
X82834856Y36069112D02*
X82821551Y36029198D01*
X82821551Y36029198D02*
X82661894Y35869541D01*
X82661894Y35869541D02*
X82834856Y35869541D01*
X82967903Y35869541D02*
X83021122Y35869541D01*
X83021122Y35869541D02*
X83047732Y35882845D01*
X83047732Y35882845D02*
X83061036Y35896150D01*
X83061036Y35896150D02*
X83087646Y35936065D01*
X83087646Y35936065D02*
X83100951Y35989284D01*
X83100951Y35989284D02*
X83100951Y36095722D01*
X83100951Y36095722D02*
X83087646Y36122331D01*
X83087646Y36122331D02*
X83074341Y36135636D01*
X83074341Y36135636D02*
X83047732Y36148941D01*
X83047732Y36148941D02*
X82994513Y36148941D01*
X82994513Y36148941D02*
X82967903Y36135636D01*
X82967903Y36135636D02*
X82954598Y36122331D01*
X82954598Y36122331D02*
X82941294Y36095722D01*
X82941294Y36095722D02*
X82941294Y36029198D01*
X82941294Y36029198D02*
X82954598Y36002588D01*
X82954598Y36002588D02*
X82967903Y35989284D01*
X82967903Y35989284D02*
X82994513Y35975979D01*
X82994513Y35975979D02*
X83047732Y35975979D01*
X83047732Y35975979D02*
X83074341Y35989284D01*
X83074341Y35989284D02*
X83087646Y36002588D01*
X83087646Y36002588D02*
X83100951Y36029198D01*
X82338760Y38896150D02*
X82325456Y38882845D01*
X82325456Y38882845D02*
X82285541Y38869541D01*
X82285541Y38869541D02*
X82258932Y38869541D01*
X82258932Y38869541D02*
X82219018Y38882845D01*
X82219018Y38882845D02*
X82192408Y38909455D01*
X82192408Y38909455D02*
X82179103Y38936065D01*
X82179103Y38936065D02*
X82165799Y38989284D01*
X82165799Y38989284D02*
X82165799Y39029198D01*
X82165799Y39029198D02*
X82179103Y39082417D01*
X82179103Y39082417D02*
X82192408Y39109026D01*
X82192408Y39109026D02*
X82219018Y39135636D01*
X82219018Y39135636D02*
X82258932Y39148941D01*
X82258932Y39148941D02*
X82285541Y39148941D01*
X82285541Y39148941D02*
X82325456Y39135636D01*
X82325456Y39135636D02*
X82338760Y39122331D01*
X82431894Y39148941D02*
X82604856Y39148941D01*
X82604856Y39148941D02*
X82511722Y39042503D01*
X82511722Y39042503D02*
X82551637Y39042503D01*
X82551637Y39042503D02*
X82578246Y39029198D01*
X82578246Y39029198D02*
X82591551Y39015893D01*
X82591551Y39015893D02*
X82604856Y38989284D01*
X82604856Y38989284D02*
X82604856Y38922760D01*
X82604856Y38922760D02*
X82591551Y38896150D01*
X82591551Y38896150D02*
X82578246Y38882845D01*
X82578246Y38882845D02*
X82551637Y38869541D01*
X82551637Y38869541D02*
X82471808Y38869541D01*
X82471808Y38869541D02*
X82445199Y38882845D01*
X82445199Y38882845D02*
X82431894Y38896150D01*
X82777817Y39148941D02*
X82804427Y39148941D01*
X82804427Y39148941D02*
X82831036Y39135636D01*
X82831036Y39135636D02*
X82844341Y39122331D01*
X82844341Y39122331D02*
X82857646Y39095722D01*
X82857646Y39095722D02*
X82870951Y39042503D01*
X82870951Y39042503D02*
X82870951Y38975979D01*
X82870951Y38975979D02*
X82857646Y38922760D01*
X82857646Y38922760D02*
X82844341Y38896150D01*
X82844341Y38896150D02*
X82831036Y38882845D01*
X82831036Y38882845D02*
X82804427Y38869541D01*
X82804427Y38869541D02*
X82777817Y38869541D01*
X82777817Y38869541D02*
X82751208Y38882845D01*
X82751208Y38882845D02*
X82737903Y38896150D01*
X82737903Y38896150D02*
X82724598Y38922760D01*
X82724598Y38922760D02*
X82711294Y38975979D01*
X82711294Y38975979D02*
X82711294Y39042503D01*
X82711294Y39042503D02*
X82724598Y39095722D01*
X82724598Y39095722D02*
X82737903Y39122331D01*
X82737903Y39122331D02*
X82751208Y39135636D01*
X82751208Y39135636D02*
X82777817Y39148941D01*
X84873997Y32065549D02*
X84740950Y31972416D01*
X84873997Y31905892D02*
X84594597Y31905892D01*
X84594597Y31905892D02*
X84594597Y32012330D01*
X84594597Y32012330D02*
X84607902Y32038940D01*
X84607902Y32038940D02*
X84621207Y32052245D01*
X84621207Y32052245D02*
X84647816Y32065549D01*
X84647816Y32065549D02*
X84687731Y32065549D01*
X84687731Y32065549D02*
X84714340Y32052245D01*
X84714340Y32052245D02*
X84727645Y32038940D01*
X84727645Y32038940D02*
X84740950Y32012330D01*
X84740950Y32012330D02*
X84740950Y31905892D01*
X84594597Y32158683D02*
X84594597Y32331645D01*
X84594597Y32331645D02*
X84701035Y32238511D01*
X84701035Y32238511D02*
X84701035Y32278426D01*
X84701035Y32278426D02*
X84714340Y32305035D01*
X84714340Y32305035D02*
X84727645Y32318340D01*
X84727645Y32318340D02*
X84754254Y32331645D01*
X84754254Y32331645D02*
X84820778Y32331645D01*
X84820778Y32331645D02*
X84847388Y32318340D01*
X84847388Y32318340D02*
X84860693Y32305035D01*
X84860693Y32305035D02*
X84873997Y32278426D01*
X84873997Y32278426D02*
X84873997Y32198597D01*
X84873997Y32198597D02*
X84860693Y32171988D01*
X84860693Y32171988D02*
X84847388Y32158683D01*
X84621207Y32438083D02*
X84607902Y32451387D01*
X84607902Y32451387D02*
X84594597Y32477997D01*
X84594597Y32477997D02*
X84594597Y32544521D01*
X84594597Y32544521D02*
X84607902Y32571130D01*
X84607902Y32571130D02*
X84621207Y32584435D01*
X84621207Y32584435D02*
X84647816Y32597740D01*
X84647816Y32597740D02*
X84674426Y32597740D01*
X84674426Y32597740D02*
X84714340Y32584435D01*
X84714340Y32584435D02*
X84873997Y32424778D01*
X84873997Y32424778D02*
X84873997Y32597740D01*
X82568760Y36619541D02*
X82475627Y36752588D01*
X82409103Y36619541D02*
X82409103Y36898941D01*
X82409103Y36898941D02*
X82515541Y36898941D01*
X82515541Y36898941D02*
X82542151Y36885636D01*
X82542151Y36885636D02*
X82555456Y36872331D01*
X82555456Y36872331D02*
X82568760Y36845722D01*
X82568760Y36845722D02*
X82568760Y36805807D01*
X82568760Y36805807D02*
X82555456Y36779198D01*
X82555456Y36779198D02*
X82542151Y36765893D01*
X82542151Y36765893D02*
X82515541Y36752588D01*
X82515541Y36752588D02*
X82409103Y36752588D01*
X82661894Y36898941D02*
X82834856Y36898941D01*
X82834856Y36898941D02*
X82741722Y36792503D01*
X82741722Y36792503D02*
X82781637Y36792503D01*
X82781637Y36792503D02*
X82808246Y36779198D01*
X82808246Y36779198D02*
X82821551Y36765893D01*
X82821551Y36765893D02*
X82834856Y36739284D01*
X82834856Y36739284D02*
X82834856Y36672760D01*
X82834856Y36672760D02*
X82821551Y36646150D01*
X82821551Y36646150D02*
X82808246Y36632845D01*
X82808246Y36632845D02*
X82781637Y36619541D01*
X82781637Y36619541D02*
X82701808Y36619541D01*
X82701808Y36619541D02*
X82675199Y36632845D01*
X82675199Y36632845D02*
X82661894Y36646150D01*
X82927989Y36898941D02*
X83100951Y36898941D01*
X83100951Y36898941D02*
X83007817Y36792503D01*
X83007817Y36792503D02*
X83047732Y36792503D01*
X83047732Y36792503D02*
X83074341Y36779198D01*
X83074341Y36779198D02*
X83087646Y36765893D01*
X83087646Y36765893D02*
X83100951Y36739284D01*
X83100951Y36739284D02*
X83100951Y36672760D01*
X83100951Y36672760D02*
X83087646Y36646150D01*
X83087646Y36646150D02*
X83074341Y36632845D01*
X83074341Y36632845D02*
X83047732Y36619541D01*
X83047732Y36619541D02*
X82967903Y36619541D01*
X82967903Y36619541D02*
X82941294Y36632845D01*
X82941294Y36632845D02*
X82927989Y36646150D01*
X69007388Y25065549D02*
X69020693Y25052245D01*
X69020693Y25052245D02*
X69033997Y25012330D01*
X69033997Y25012330D02*
X69033997Y24985721D01*
X69033997Y24985721D02*
X69020693Y24945807D01*
X69020693Y24945807D02*
X68994083Y24919197D01*
X68994083Y24919197D02*
X68967473Y24905892D01*
X68967473Y24905892D02*
X68914254Y24892588D01*
X68914254Y24892588D02*
X68874340Y24892588D01*
X68874340Y24892588D02*
X68821121Y24905892D01*
X68821121Y24905892D02*
X68794512Y24919197D01*
X68794512Y24919197D02*
X68767902Y24945807D01*
X68767902Y24945807D02*
X68754597Y24985721D01*
X68754597Y24985721D02*
X68754597Y25012330D01*
X68754597Y25012330D02*
X68767902Y25052245D01*
X68767902Y25052245D02*
X68781207Y25065549D01*
X68754597Y25158683D02*
X68754597Y25331645D01*
X68754597Y25331645D02*
X68861035Y25238511D01*
X68861035Y25238511D02*
X68861035Y25278426D01*
X68861035Y25278426D02*
X68874340Y25305035D01*
X68874340Y25305035D02*
X68887645Y25318340D01*
X68887645Y25318340D02*
X68914254Y25331645D01*
X68914254Y25331645D02*
X68980778Y25331645D01*
X68980778Y25331645D02*
X69007388Y25318340D01*
X69007388Y25318340D02*
X69020693Y25305035D01*
X69020693Y25305035D02*
X69033997Y25278426D01*
X69033997Y25278426D02*
X69033997Y25198597D01*
X69033997Y25198597D02*
X69020693Y25171988D01*
X69020693Y25171988D02*
X69007388Y25158683D01*
X69033997Y25597740D02*
X69033997Y25438083D01*
X69033997Y25517911D02*
X68754597Y25517911D01*
X68754597Y25517911D02*
X68794512Y25491302D01*
X68794512Y25491302D02*
X68821121Y25464692D01*
X68821121Y25464692D02*
X68834426Y25438083D01*
X68078760Y27619541D02*
X67985627Y27752588D01*
X67919103Y27619541D02*
X67919103Y27898941D01*
X67919103Y27898941D02*
X68025541Y27898941D01*
X68025541Y27898941D02*
X68052151Y27885636D01*
X68052151Y27885636D02*
X68065456Y27872331D01*
X68065456Y27872331D02*
X68078760Y27845722D01*
X68078760Y27845722D02*
X68078760Y27805807D01*
X68078760Y27805807D02*
X68065456Y27779198D01*
X68065456Y27779198D02*
X68052151Y27765893D01*
X68052151Y27765893D02*
X68025541Y27752588D01*
X68025541Y27752588D02*
X67919103Y27752588D01*
X68171894Y27898941D02*
X68344856Y27898941D01*
X68344856Y27898941D02*
X68251722Y27792503D01*
X68251722Y27792503D02*
X68291637Y27792503D01*
X68291637Y27792503D02*
X68318246Y27779198D01*
X68318246Y27779198D02*
X68331551Y27765893D01*
X68331551Y27765893D02*
X68344856Y27739284D01*
X68344856Y27739284D02*
X68344856Y27672760D01*
X68344856Y27672760D02*
X68331551Y27646150D01*
X68331551Y27646150D02*
X68318246Y27632845D01*
X68318246Y27632845D02*
X68291637Y27619541D01*
X68291637Y27619541D02*
X68211808Y27619541D01*
X68211808Y27619541D02*
X68185199Y27632845D01*
X68185199Y27632845D02*
X68171894Y27646150D01*
X68584341Y27805807D02*
X68584341Y27619541D01*
X68517817Y27912245D02*
X68451294Y27712674D01*
X68451294Y27712674D02*
X68624255Y27712674D01*
X86507388Y44085549D02*
X86520693Y44072245D01*
X86520693Y44072245D02*
X86533997Y44032330D01*
X86533997Y44032330D02*
X86533997Y44005721D01*
X86533997Y44005721D02*
X86520693Y43965807D01*
X86520693Y43965807D02*
X86494083Y43939197D01*
X86494083Y43939197D02*
X86467473Y43925892D01*
X86467473Y43925892D02*
X86414254Y43912588D01*
X86414254Y43912588D02*
X86374340Y43912588D01*
X86374340Y43912588D02*
X86321121Y43925892D01*
X86321121Y43925892D02*
X86294512Y43939197D01*
X86294512Y43939197D02*
X86267902Y43965807D01*
X86267902Y43965807D02*
X86254597Y44005721D01*
X86254597Y44005721D02*
X86254597Y44032330D01*
X86254597Y44032330D02*
X86267902Y44072245D01*
X86267902Y44072245D02*
X86281207Y44085549D01*
X86281207Y44191988D02*
X86267902Y44205292D01*
X86267902Y44205292D02*
X86254597Y44231902D01*
X86254597Y44231902D02*
X86254597Y44298426D01*
X86254597Y44298426D02*
X86267902Y44325035D01*
X86267902Y44325035D02*
X86281207Y44338340D01*
X86281207Y44338340D02*
X86307816Y44351645D01*
X86307816Y44351645D02*
X86334426Y44351645D01*
X86334426Y44351645D02*
X86374340Y44338340D01*
X86374340Y44338340D02*
X86533997Y44178683D01*
X86533997Y44178683D02*
X86533997Y44351645D01*
X86347731Y44591130D02*
X86533997Y44591130D01*
X86241293Y44524606D02*
X86440864Y44458083D01*
X86440864Y44458083D02*
X86440864Y44631044D01*
X70873997Y34065549D02*
X70740950Y33972416D01*
X70873997Y33905892D02*
X70594597Y33905892D01*
X70594597Y33905892D02*
X70594597Y34012330D01*
X70594597Y34012330D02*
X70607902Y34038940D01*
X70607902Y34038940D02*
X70621207Y34052245D01*
X70621207Y34052245D02*
X70647816Y34065549D01*
X70647816Y34065549D02*
X70687731Y34065549D01*
X70687731Y34065549D02*
X70714340Y34052245D01*
X70714340Y34052245D02*
X70727645Y34038940D01*
X70727645Y34038940D02*
X70740950Y34012330D01*
X70740950Y34012330D02*
X70740950Y33905892D01*
X70873997Y34331645D02*
X70873997Y34171988D01*
X70873997Y34251816D02*
X70594597Y34251816D01*
X70594597Y34251816D02*
X70634512Y34225207D01*
X70634512Y34225207D02*
X70661121Y34198597D01*
X70661121Y34198597D02*
X70674426Y34171988D01*
X70873997Y34464692D02*
X70873997Y34517911D01*
X70873997Y34517911D02*
X70860693Y34544521D01*
X70860693Y34544521D02*
X70847388Y34557825D01*
X70847388Y34557825D02*
X70807473Y34584435D01*
X70807473Y34584435D02*
X70754254Y34597740D01*
X70754254Y34597740D02*
X70647816Y34597740D01*
X70647816Y34597740D02*
X70621207Y34584435D01*
X70621207Y34584435D02*
X70607902Y34571130D01*
X70607902Y34571130D02*
X70594597Y34544521D01*
X70594597Y34544521D02*
X70594597Y34491302D01*
X70594597Y34491302D02*
X70607902Y34464692D01*
X70607902Y34464692D02*
X70621207Y34451387D01*
X70621207Y34451387D02*
X70647816Y34438083D01*
X70647816Y34438083D02*
X70714340Y34438083D01*
X70714340Y34438083D02*
X70740950Y34451387D01*
X70740950Y34451387D02*
X70754254Y34464692D01*
X70754254Y34464692D02*
X70767559Y34491302D01*
X70767559Y34491302D02*
X70767559Y34544521D01*
X70767559Y34544521D02*
X70754254Y34571130D01*
X70754254Y34571130D02*
X70740950Y34584435D01*
X70740950Y34584435D02*
X70714340Y34597740D01*
X68873997Y32815549D02*
X68740950Y32722416D01*
X68873997Y32655892D02*
X68594597Y32655892D01*
X68594597Y32655892D02*
X68594597Y32762330D01*
X68594597Y32762330D02*
X68607902Y32788940D01*
X68607902Y32788940D02*
X68621207Y32802245D01*
X68621207Y32802245D02*
X68647816Y32815549D01*
X68647816Y32815549D02*
X68687731Y32815549D01*
X68687731Y32815549D02*
X68714340Y32802245D01*
X68714340Y32802245D02*
X68727645Y32788940D01*
X68727645Y32788940D02*
X68740950Y32762330D01*
X68740950Y32762330D02*
X68740950Y32655892D01*
X68621207Y32921988D02*
X68607902Y32935292D01*
X68607902Y32935292D02*
X68594597Y32961902D01*
X68594597Y32961902D02*
X68594597Y33028426D01*
X68594597Y33028426D02*
X68607902Y33055035D01*
X68607902Y33055035D02*
X68621207Y33068340D01*
X68621207Y33068340D02*
X68647816Y33081645D01*
X68647816Y33081645D02*
X68674426Y33081645D01*
X68674426Y33081645D02*
X68714340Y33068340D01*
X68714340Y33068340D02*
X68873997Y32908683D01*
X68873997Y32908683D02*
X68873997Y33081645D01*
X68594597Y33254606D02*
X68594597Y33281216D01*
X68594597Y33281216D02*
X68607902Y33307825D01*
X68607902Y33307825D02*
X68621207Y33321130D01*
X68621207Y33321130D02*
X68647816Y33334435D01*
X68647816Y33334435D02*
X68701035Y33347740D01*
X68701035Y33347740D02*
X68767559Y33347740D01*
X68767559Y33347740D02*
X68820778Y33334435D01*
X68820778Y33334435D02*
X68847388Y33321130D01*
X68847388Y33321130D02*
X68860693Y33307825D01*
X68860693Y33307825D02*
X68873997Y33281216D01*
X68873997Y33281216D02*
X68873997Y33254606D01*
X68873997Y33254606D02*
X68860693Y33227997D01*
X68860693Y33227997D02*
X68847388Y33214692D01*
X68847388Y33214692D02*
X68820778Y33201387D01*
X68820778Y33201387D02*
X68767559Y33188083D01*
X68767559Y33188083D02*
X68701035Y33188083D01*
X68701035Y33188083D02*
X68647816Y33201387D01*
X68647816Y33201387D02*
X68621207Y33214692D01*
X68621207Y33214692D02*
X68607902Y33227997D01*
X68607902Y33227997D02*
X68594597Y33254606D01*
X78035498Y44148941D02*
X78035498Y43922760D01*
X78035498Y43922760D02*
X78048803Y43896150D01*
X78048803Y43896150D02*
X78062108Y43882845D01*
X78062108Y43882845D02*
X78088717Y43869541D01*
X78088717Y43869541D02*
X78141936Y43869541D01*
X78141936Y43869541D02*
X78168546Y43882845D01*
X78168546Y43882845D02*
X78181851Y43896150D01*
X78181851Y43896150D02*
X78195155Y43922760D01*
X78195155Y43922760D02*
X78195155Y44148941D01*
X78447946Y44148941D02*
X78394727Y44148941D01*
X78394727Y44148941D02*
X78368118Y44135636D01*
X78368118Y44135636D02*
X78354813Y44122331D01*
X78354813Y44122331D02*
X78328203Y44082417D01*
X78328203Y44082417D02*
X78314899Y44029198D01*
X78314899Y44029198D02*
X78314899Y43922760D01*
X78314899Y43922760D02*
X78328203Y43896150D01*
X78328203Y43896150D02*
X78341508Y43882845D01*
X78341508Y43882845D02*
X78368118Y43869541D01*
X78368118Y43869541D02*
X78421337Y43869541D01*
X78421337Y43869541D02*
X78447946Y43882845D01*
X78447946Y43882845D02*
X78461251Y43896150D01*
X78461251Y43896150D02*
X78474556Y43922760D01*
X78474556Y43922760D02*
X78474556Y43989284D01*
X78474556Y43989284D02*
X78461251Y44015893D01*
X78461251Y44015893D02*
X78447946Y44029198D01*
X78447946Y44029198D02*
X78421337Y44042503D01*
X78421337Y44042503D02*
X78368118Y44042503D01*
X78368118Y44042503D02*
X78341508Y44029198D01*
X78341508Y44029198D02*
X78328203Y44015893D01*
X78328203Y44015893D02*
X78314899Y43989284D01*
X75197388Y48565549D02*
X75210693Y48552245D01*
X75210693Y48552245D02*
X75223997Y48512330D01*
X75223997Y48512330D02*
X75223997Y48485721D01*
X75223997Y48485721D02*
X75210693Y48445807D01*
X75210693Y48445807D02*
X75184083Y48419197D01*
X75184083Y48419197D02*
X75157473Y48405892D01*
X75157473Y48405892D02*
X75104254Y48392588D01*
X75104254Y48392588D02*
X75064340Y48392588D01*
X75064340Y48392588D02*
X75011121Y48405892D01*
X75011121Y48405892D02*
X74984512Y48419197D01*
X74984512Y48419197D02*
X74957902Y48445807D01*
X74957902Y48445807D02*
X74944597Y48485721D01*
X74944597Y48485721D02*
X74944597Y48512330D01*
X74944597Y48512330D02*
X74957902Y48552245D01*
X74957902Y48552245D02*
X74971207Y48565549D01*
X74944597Y48658683D02*
X74944597Y48831645D01*
X74944597Y48831645D02*
X75051035Y48738511D01*
X75051035Y48738511D02*
X75051035Y48778426D01*
X75051035Y48778426D02*
X75064340Y48805035D01*
X75064340Y48805035D02*
X75077645Y48818340D01*
X75077645Y48818340D02*
X75104254Y48831645D01*
X75104254Y48831645D02*
X75170778Y48831645D01*
X75170778Y48831645D02*
X75197388Y48818340D01*
X75197388Y48818340D02*
X75210693Y48805035D01*
X75210693Y48805035D02*
X75223997Y48778426D01*
X75223997Y48778426D02*
X75223997Y48698597D01*
X75223997Y48698597D02*
X75210693Y48671988D01*
X75210693Y48671988D02*
X75197388Y48658683D01*
X74944597Y49084435D02*
X74944597Y48951387D01*
X74944597Y48951387D02*
X75077645Y48938083D01*
X75077645Y48938083D02*
X75064340Y48951387D01*
X75064340Y48951387D02*
X75051035Y48977997D01*
X75051035Y48977997D02*
X75051035Y49044521D01*
X75051035Y49044521D02*
X75064340Y49071130D01*
X75064340Y49071130D02*
X75077645Y49084435D01*
X75077645Y49084435D02*
X75104254Y49097740D01*
X75104254Y49097740D02*
X75170778Y49097740D01*
X75170778Y49097740D02*
X75197388Y49084435D01*
X75197388Y49084435D02*
X75210693Y49071130D01*
X75210693Y49071130D02*
X75223997Y49044521D01*
X75223997Y49044521D02*
X75223997Y48977997D01*
X75223997Y48977997D02*
X75210693Y48951387D01*
X75210693Y48951387D02*
X75197388Y48938083D01*
X62023003Y28381062D02*
X62023003Y28154881D01*
X62023003Y28154881D02*
X62036308Y28128271D01*
X62036308Y28128271D02*
X62049613Y28114966D01*
X62049613Y28114966D02*
X62076222Y28101662D01*
X62076222Y28101662D02*
X62129441Y28101662D01*
X62129441Y28101662D02*
X62156051Y28114966D01*
X62156051Y28114966D02*
X62169356Y28128271D01*
X62169356Y28128271D02*
X62182660Y28154881D01*
X62182660Y28154881D02*
X62182660Y28381062D01*
X62289099Y28381062D02*
X62475365Y28381062D01*
X62475365Y28381062D02*
X62355623Y28101662D01*
X75318760Y43869541D02*
X75225627Y44002588D01*
X75159103Y43869541D02*
X75159103Y44148941D01*
X75159103Y44148941D02*
X75265541Y44148941D01*
X75265541Y44148941D02*
X75292151Y44135636D01*
X75292151Y44135636D02*
X75305456Y44122331D01*
X75305456Y44122331D02*
X75318760Y44095722D01*
X75318760Y44095722D02*
X75318760Y44055807D01*
X75318760Y44055807D02*
X75305456Y44029198D01*
X75305456Y44029198D02*
X75292151Y44015893D01*
X75292151Y44015893D02*
X75265541Y44002588D01*
X75265541Y44002588D02*
X75159103Y44002588D01*
X75411894Y44148941D02*
X75584856Y44148941D01*
X75584856Y44148941D02*
X75491722Y44042503D01*
X75491722Y44042503D02*
X75531637Y44042503D01*
X75531637Y44042503D02*
X75558246Y44029198D01*
X75558246Y44029198D02*
X75571551Y44015893D01*
X75571551Y44015893D02*
X75584856Y43989284D01*
X75584856Y43989284D02*
X75584856Y43922760D01*
X75584856Y43922760D02*
X75571551Y43896150D01*
X75571551Y43896150D02*
X75558246Y43882845D01*
X75558246Y43882845D02*
X75531637Y43869541D01*
X75531637Y43869541D02*
X75451808Y43869541D01*
X75451808Y43869541D02*
X75425199Y43882845D01*
X75425199Y43882845D02*
X75411894Y43896150D01*
X75744513Y44029198D02*
X75717903Y44042503D01*
X75717903Y44042503D02*
X75704598Y44055807D01*
X75704598Y44055807D02*
X75691294Y44082417D01*
X75691294Y44082417D02*
X75691294Y44095722D01*
X75691294Y44095722D02*
X75704598Y44122331D01*
X75704598Y44122331D02*
X75717903Y44135636D01*
X75717903Y44135636D02*
X75744513Y44148941D01*
X75744513Y44148941D02*
X75797732Y44148941D01*
X75797732Y44148941D02*
X75824341Y44135636D01*
X75824341Y44135636D02*
X75837646Y44122331D01*
X75837646Y44122331D02*
X75850951Y44095722D01*
X75850951Y44095722D02*
X75850951Y44082417D01*
X75850951Y44082417D02*
X75837646Y44055807D01*
X75837646Y44055807D02*
X75824341Y44042503D01*
X75824341Y44042503D02*
X75797732Y44029198D01*
X75797732Y44029198D02*
X75744513Y44029198D01*
X75744513Y44029198D02*
X75717903Y44015893D01*
X75717903Y44015893D02*
X75704598Y44002588D01*
X75704598Y44002588D02*
X75691294Y43975979D01*
X75691294Y43975979D02*
X75691294Y43922760D01*
X75691294Y43922760D02*
X75704598Y43896150D01*
X75704598Y43896150D02*
X75717903Y43882845D01*
X75717903Y43882845D02*
X75744513Y43869541D01*
X75744513Y43869541D02*
X75797732Y43869541D01*
X75797732Y43869541D02*
X75824341Y43882845D01*
X75824341Y43882845D02*
X75837646Y43896150D01*
X75837646Y43896150D02*
X75850951Y43922760D01*
X75850951Y43922760D02*
X75850951Y43975979D01*
X75850951Y43975979D02*
X75837646Y44002588D01*
X75837646Y44002588D02*
X75824341Y44015893D01*
X75824341Y44015893D02*
X75797732Y44029198D01*
X79793997Y24065549D02*
X79660950Y23972416D01*
X79793997Y23905892D02*
X79514597Y23905892D01*
X79514597Y23905892D02*
X79514597Y24012330D01*
X79514597Y24012330D02*
X79527902Y24038940D01*
X79527902Y24038940D02*
X79541207Y24052245D01*
X79541207Y24052245D02*
X79567816Y24065549D01*
X79567816Y24065549D02*
X79607731Y24065549D01*
X79607731Y24065549D02*
X79634340Y24052245D01*
X79634340Y24052245D02*
X79647645Y24038940D01*
X79647645Y24038940D02*
X79660950Y24012330D01*
X79660950Y24012330D02*
X79660950Y23905892D01*
X79541207Y24171988D02*
X79527902Y24185292D01*
X79527902Y24185292D02*
X79514597Y24211902D01*
X79514597Y24211902D02*
X79514597Y24278426D01*
X79514597Y24278426D02*
X79527902Y24305035D01*
X79527902Y24305035D02*
X79541207Y24318340D01*
X79541207Y24318340D02*
X79567816Y24331645D01*
X79567816Y24331645D02*
X79594426Y24331645D01*
X79594426Y24331645D02*
X79634340Y24318340D01*
X79634340Y24318340D02*
X79793997Y24158683D01*
X79793997Y24158683D02*
X79793997Y24331645D01*
X79634340Y24491302D02*
X79621035Y24464692D01*
X79621035Y24464692D02*
X79607731Y24451387D01*
X79607731Y24451387D02*
X79581121Y24438083D01*
X79581121Y24438083D02*
X79567816Y24438083D01*
X79567816Y24438083D02*
X79541207Y24451387D01*
X79541207Y24451387D02*
X79527902Y24464692D01*
X79527902Y24464692D02*
X79514597Y24491302D01*
X79514597Y24491302D02*
X79514597Y24544521D01*
X79514597Y24544521D02*
X79527902Y24571130D01*
X79527902Y24571130D02*
X79541207Y24584435D01*
X79541207Y24584435D02*
X79567816Y24597740D01*
X79567816Y24597740D02*
X79581121Y24597740D01*
X79581121Y24597740D02*
X79607731Y24584435D01*
X79607731Y24584435D02*
X79621035Y24571130D01*
X79621035Y24571130D02*
X79634340Y24544521D01*
X79634340Y24544521D02*
X79634340Y24491302D01*
X79634340Y24491302D02*
X79647645Y24464692D01*
X79647645Y24464692D02*
X79660950Y24451387D01*
X79660950Y24451387D02*
X79687559Y24438083D01*
X79687559Y24438083D02*
X79740778Y24438083D01*
X79740778Y24438083D02*
X79767388Y24451387D01*
X79767388Y24451387D02*
X79780693Y24464692D01*
X79780693Y24464692D02*
X79793997Y24491302D01*
X79793997Y24491302D02*
X79793997Y24544521D01*
X79793997Y24544521D02*
X79780693Y24571130D01*
X79780693Y24571130D02*
X79767388Y24584435D01*
X79767388Y24584435D02*
X79740778Y24597740D01*
X79740778Y24597740D02*
X79687559Y24597740D01*
X79687559Y24597740D02*
X79660950Y24584435D01*
X79660950Y24584435D02*
X79647645Y24571130D01*
X79647645Y24571130D02*
X79634340Y24544521D01*
X70873997Y37805549D02*
X70740950Y37712416D01*
X70873997Y37645892D02*
X70594597Y37645892D01*
X70594597Y37645892D02*
X70594597Y37752330D01*
X70594597Y37752330D02*
X70607902Y37778940D01*
X70607902Y37778940D02*
X70621207Y37792245D01*
X70621207Y37792245D02*
X70647816Y37805549D01*
X70647816Y37805549D02*
X70687731Y37805549D01*
X70687731Y37805549D02*
X70714340Y37792245D01*
X70714340Y37792245D02*
X70727645Y37778940D01*
X70727645Y37778940D02*
X70740950Y37752330D01*
X70740950Y37752330D02*
X70740950Y37645892D01*
X70594597Y37898683D02*
X70594597Y38071645D01*
X70594597Y38071645D02*
X70701035Y37978511D01*
X70701035Y37978511D02*
X70701035Y38018426D01*
X70701035Y38018426D02*
X70714340Y38045035D01*
X70714340Y38045035D02*
X70727645Y38058340D01*
X70727645Y38058340D02*
X70754254Y38071645D01*
X70754254Y38071645D02*
X70820778Y38071645D01*
X70820778Y38071645D02*
X70847388Y38058340D01*
X70847388Y38058340D02*
X70860693Y38045035D01*
X70860693Y38045035D02*
X70873997Y38018426D01*
X70873997Y38018426D02*
X70873997Y37938597D01*
X70873997Y37938597D02*
X70860693Y37911988D01*
X70860693Y37911988D02*
X70847388Y37898683D01*
X70873997Y38337740D02*
X70873997Y38178083D01*
X70873997Y38257911D02*
X70594597Y38257911D01*
X70594597Y38257911D02*
X70634512Y38231302D01*
X70634512Y38231302D02*
X70661121Y38204692D01*
X70661121Y38204692D02*
X70674426Y38178083D01*
X67873997Y38055549D02*
X67740950Y37962416D01*
X67873997Y37895892D02*
X67594597Y37895892D01*
X67594597Y37895892D02*
X67594597Y38002330D01*
X67594597Y38002330D02*
X67607902Y38028940D01*
X67607902Y38028940D02*
X67621207Y38042245D01*
X67621207Y38042245D02*
X67647816Y38055549D01*
X67647816Y38055549D02*
X67687731Y38055549D01*
X67687731Y38055549D02*
X67714340Y38042245D01*
X67714340Y38042245D02*
X67727645Y38028940D01*
X67727645Y38028940D02*
X67740950Y38002330D01*
X67740950Y38002330D02*
X67740950Y37895892D01*
X67621207Y38161988D02*
X67607902Y38175292D01*
X67607902Y38175292D02*
X67594597Y38201902D01*
X67594597Y38201902D02*
X67594597Y38268426D01*
X67594597Y38268426D02*
X67607902Y38295035D01*
X67607902Y38295035D02*
X67621207Y38308340D01*
X67621207Y38308340D02*
X67647816Y38321645D01*
X67647816Y38321645D02*
X67674426Y38321645D01*
X67674426Y38321645D02*
X67714340Y38308340D01*
X67714340Y38308340D02*
X67873997Y38148683D01*
X67873997Y38148683D02*
X67873997Y38321645D01*
X67873997Y38454692D02*
X67873997Y38507911D01*
X67873997Y38507911D02*
X67860693Y38534521D01*
X67860693Y38534521D02*
X67847388Y38547825D01*
X67847388Y38547825D02*
X67807473Y38574435D01*
X67807473Y38574435D02*
X67754254Y38587740D01*
X67754254Y38587740D02*
X67647816Y38587740D01*
X67647816Y38587740D02*
X67621207Y38574435D01*
X67621207Y38574435D02*
X67607902Y38561130D01*
X67607902Y38561130D02*
X67594597Y38534521D01*
X67594597Y38534521D02*
X67594597Y38481302D01*
X67594597Y38481302D02*
X67607902Y38454692D01*
X67607902Y38454692D02*
X67621207Y38441387D01*
X67621207Y38441387D02*
X67647816Y38428083D01*
X67647816Y38428083D02*
X67714340Y38428083D01*
X67714340Y38428083D02*
X67740950Y38441387D01*
X67740950Y38441387D02*
X67754254Y38454692D01*
X67754254Y38454692D02*
X67767559Y38481302D01*
X67767559Y38481302D02*
X67767559Y38534521D01*
X67767559Y38534521D02*
X67754254Y38561130D01*
X67754254Y38561130D02*
X67740950Y38574435D01*
X67740950Y38574435D02*
X67714340Y38587740D01*
X68068760Y29539541D02*
X67975627Y29672588D01*
X67909103Y29539541D02*
X67909103Y29818941D01*
X67909103Y29818941D02*
X68015541Y29818941D01*
X68015541Y29818941D02*
X68042151Y29805636D01*
X68042151Y29805636D02*
X68055456Y29792331D01*
X68055456Y29792331D02*
X68068760Y29765722D01*
X68068760Y29765722D02*
X68068760Y29725807D01*
X68068760Y29725807D02*
X68055456Y29699198D01*
X68055456Y29699198D02*
X68042151Y29685893D01*
X68042151Y29685893D02*
X68015541Y29672588D01*
X68015541Y29672588D02*
X67909103Y29672588D01*
X68161894Y29818941D02*
X68334856Y29818941D01*
X68334856Y29818941D02*
X68241722Y29712503D01*
X68241722Y29712503D02*
X68281637Y29712503D01*
X68281637Y29712503D02*
X68308246Y29699198D01*
X68308246Y29699198D02*
X68321551Y29685893D01*
X68321551Y29685893D02*
X68334856Y29659284D01*
X68334856Y29659284D02*
X68334856Y29592760D01*
X68334856Y29592760D02*
X68321551Y29566150D01*
X68321551Y29566150D02*
X68308246Y29552845D01*
X68308246Y29552845D02*
X68281637Y29539541D01*
X68281637Y29539541D02*
X68201808Y29539541D01*
X68201808Y29539541D02*
X68175199Y29552845D01*
X68175199Y29552845D02*
X68161894Y29566150D01*
X68587646Y29818941D02*
X68454598Y29818941D01*
X68454598Y29818941D02*
X68441294Y29685893D01*
X68441294Y29685893D02*
X68454598Y29699198D01*
X68454598Y29699198D02*
X68481208Y29712503D01*
X68481208Y29712503D02*
X68547732Y29712503D01*
X68547732Y29712503D02*
X68574341Y29699198D01*
X68574341Y29699198D02*
X68587646Y29685893D01*
X68587646Y29685893D02*
X68600951Y29659284D01*
X68600951Y29659284D02*
X68600951Y29592760D01*
X68600951Y29592760D02*
X68587646Y29566150D01*
X68587646Y29566150D02*
X68574341Y29552845D01*
X68574341Y29552845D02*
X68547732Y29539541D01*
X68547732Y29539541D02*
X68481208Y29539541D01*
X68481208Y29539541D02*
X68454598Y29552845D01*
X68454598Y29552845D02*
X68441294Y29566150D01*
X82568760Y33119541D02*
X82475627Y33252588D01*
X82409103Y33119541D02*
X82409103Y33398941D01*
X82409103Y33398941D02*
X82515541Y33398941D01*
X82515541Y33398941D02*
X82542151Y33385636D01*
X82542151Y33385636D02*
X82555456Y33372331D01*
X82555456Y33372331D02*
X82568760Y33345722D01*
X82568760Y33345722D02*
X82568760Y33305807D01*
X82568760Y33305807D02*
X82555456Y33279198D01*
X82555456Y33279198D02*
X82542151Y33265893D01*
X82542151Y33265893D02*
X82515541Y33252588D01*
X82515541Y33252588D02*
X82409103Y33252588D01*
X82675199Y33372331D02*
X82688503Y33385636D01*
X82688503Y33385636D02*
X82715113Y33398941D01*
X82715113Y33398941D02*
X82781637Y33398941D01*
X82781637Y33398941D02*
X82808246Y33385636D01*
X82808246Y33385636D02*
X82821551Y33372331D01*
X82821551Y33372331D02*
X82834856Y33345722D01*
X82834856Y33345722D02*
X82834856Y33319112D01*
X82834856Y33319112D02*
X82821551Y33279198D01*
X82821551Y33279198D02*
X82661894Y33119541D01*
X82661894Y33119541D02*
X82834856Y33119541D01*
X82941294Y33372331D02*
X82954598Y33385636D01*
X82954598Y33385636D02*
X82981208Y33398941D01*
X82981208Y33398941D02*
X83047732Y33398941D01*
X83047732Y33398941D02*
X83074341Y33385636D01*
X83074341Y33385636D02*
X83087646Y33372331D01*
X83087646Y33372331D02*
X83100951Y33345722D01*
X83100951Y33345722D02*
X83100951Y33319112D01*
X83100951Y33319112D02*
X83087646Y33279198D01*
X83087646Y33279198D02*
X82927989Y33119541D01*
X82927989Y33119541D02*
X83100951Y33119541D01*
X82568760Y31119541D02*
X82475627Y31252588D01*
X82409103Y31119541D02*
X82409103Y31398941D01*
X82409103Y31398941D02*
X82515541Y31398941D01*
X82515541Y31398941D02*
X82542151Y31385636D01*
X82542151Y31385636D02*
X82555456Y31372331D01*
X82555456Y31372331D02*
X82568760Y31345722D01*
X82568760Y31345722D02*
X82568760Y31305807D01*
X82568760Y31305807D02*
X82555456Y31279198D01*
X82555456Y31279198D02*
X82542151Y31265893D01*
X82542151Y31265893D02*
X82515541Y31252588D01*
X82515541Y31252588D02*
X82409103Y31252588D01*
X82675199Y31372331D02*
X82688503Y31385636D01*
X82688503Y31385636D02*
X82715113Y31398941D01*
X82715113Y31398941D02*
X82781637Y31398941D01*
X82781637Y31398941D02*
X82808246Y31385636D01*
X82808246Y31385636D02*
X82821551Y31372331D01*
X82821551Y31372331D02*
X82834856Y31345722D01*
X82834856Y31345722D02*
X82834856Y31319112D01*
X82834856Y31319112D02*
X82821551Y31279198D01*
X82821551Y31279198D02*
X82661894Y31119541D01*
X82661894Y31119541D02*
X82834856Y31119541D01*
X83100951Y31119541D02*
X82941294Y31119541D01*
X83021122Y31119541D02*
X83021122Y31398941D01*
X83021122Y31398941D02*
X82994513Y31359026D01*
X82994513Y31359026D02*
X82967903Y31332417D01*
X82967903Y31332417D02*
X82941294Y31319112D01*
X82568760Y30619541D02*
X82475627Y30752588D01*
X82409103Y30619541D02*
X82409103Y30898941D01*
X82409103Y30898941D02*
X82515541Y30898941D01*
X82515541Y30898941D02*
X82542151Y30885636D01*
X82542151Y30885636D02*
X82555456Y30872331D01*
X82555456Y30872331D02*
X82568760Y30845722D01*
X82568760Y30845722D02*
X82568760Y30805807D01*
X82568760Y30805807D02*
X82555456Y30779198D01*
X82555456Y30779198D02*
X82542151Y30765893D01*
X82542151Y30765893D02*
X82515541Y30752588D01*
X82515541Y30752588D02*
X82409103Y30752588D01*
X82661894Y30898941D02*
X82834856Y30898941D01*
X82834856Y30898941D02*
X82741722Y30792503D01*
X82741722Y30792503D02*
X82781637Y30792503D01*
X82781637Y30792503D02*
X82808246Y30779198D01*
X82808246Y30779198D02*
X82821551Y30765893D01*
X82821551Y30765893D02*
X82834856Y30739284D01*
X82834856Y30739284D02*
X82834856Y30672760D01*
X82834856Y30672760D02*
X82821551Y30646150D01*
X82821551Y30646150D02*
X82808246Y30632845D01*
X82808246Y30632845D02*
X82781637Y30619541D01*
X82781637Y30619541D02*
X82701808Y30619541D01*
X82701808Y30619541D02*
X82675199Y30632845D01*
X82675199Y30632845D02*
X82661894Y30646150D01*
X83007817Y30898941D02*
X83034427Y30898941D01*
X83034427Y30898941D02*
X83061036Y30885636D01*
X83061036Y30885636D02*
X83074341Y30872331D01*
X83074341Y30872331D02*
X83087646Y30845722D01*
X83087646Y30845722D02*
X83100951Y30792503D01*
X83100951Y30792503D02*
X83100951Y30725979D01*
X83100951Y30725979D02*
X83087646Y30672760D01*
X83087646Y30672760D02*
X83074341Y30646150D01*
X83074341Y30646150D02*
X83061036Y30632845D01*
X83061036Y30632845D02*
X83034427Y30619541D01*
X83034427Y30619541D02*
X83007817Y30619541D01*
X83007817Y30619541D02*
X82981208Y30632845D01*
X82981208Y30632845D02*
X82967903Y30646150D01*
X82967903Y30646150D02*
X82954598Y30672760D01*
X82954598Y30672760D02*
X82941294Y30725979D01*
X82941294Y30725979D02*
X82941294Y30792503D01*
X82941294Y30792503D02*
X82954598Y30845722D01*
X82954598Y30845722D02*
X82967903Y30872331D01*
X82967903Y30872331D02*
X82981208Y30885636D01*
X82981208Y30885636D02*
X83007817Y30898941D01*
X64522194Y57303941D02*
X64522194Y57104369D01*
X64522194Y57104369D02*
X64508889Y57064455D01*
X64508889Y57064455D02*
X64482280Y57037845D01*
X64482280Y57037845D02*
X64442365Y57024541D01*
X64442365Y57024541D02*
X64415756Y57024541D01*
X64801594Y57024541D02*
X64641937Y57024541D01*
X64721765Y57024541D02*
X64721765Y57303941D01*
X64721765Y57303941D02*
X64695156Y57264026D01*
X64695156Y57264026D02*
X64668546Y57237417D01*
X64668546Y57237417D02*
X64641937Y57224112D01*
X64908032Y57277331D02*
X64921336Y57290636D01*
X64921336Y57290636D02*
X64947946Y57303941D01*
X64947946Y57303941D02*
X65014470Y57303941D01*
X65014470Y57303941D02*
X65041079Y57290636D01*
X65041079Y57290636D02*
X65054384Y57277331D01*
X65054384Y57277331D02*
X65067689Y57250722D01*
X65067689Y57250722D02*
X65067689Y57224112D01*
X65067689Y57224112D02*
X65054384Y57184198D01*
X65054384Y57184198D02*
X64894727Y57024541D01*
X64894727Y57024541D02*
X65067689Y57024541D01*
X74347388Y46315549D02*
X74360693Y46302245D01*
X74360693Y46302245D02*
X74373997Y46262330D01*
X74373997Y46262330D02*
X74373997Y46235721D01*
X74373997Y46235721D02*
X74360693Y46195807D01*
X74360693Y46195807D02*
X74334083Y46169197D01*
X74334083Y46169197D02*
X74307473Y46155892D01*
X74307473Y46155892D02*
X74254254Y46142588D01*
X74254254Y46142588D02*
X74214340Y46142588D01*
X74214340Y46142588D02*
X74161121Y46155892D01*
X74161121Y46155892D02*
X74134512Y46169197D01*
X74134512Y46169197D02*
X74107902Y46195807D01*
X74107902Y46195807D02*
X74094597Y46235721D01*
X74094597Y46235721D02*
X74094597Y46262330D01*
X74094597Y46262330D02*
X74107902Y46302245D01*
X74107902Y46302245D02*
X74121207Y46315549D01*
X74094597Y46408683D02*
X74094597Y46581645D01*
X74094597Y46581645D02*
X74201035Y46488511D01*
X74201035Y46488511D02*
X74201035Y46528426D01*
X74201035Y46528426D02*
X74214340Y46555035D01*
X74214340Y46555035D02*
X74227645Y46568340D01*
X74227645Y46568340D02*
X74254254Y46581645D01*
X74254254Y46581645D02*
X74320778Y46581645D01*
X74320778Y46581645D02*
X74347388Y46568340D01*
X74347388Y46568340D02*
X74360693Y46555035D01*
X74360693Y46555035D02*
X74373997Y46528426D01*
X74373997Y46528426D02*
X74373997Y46448597D01*
X74373997Y46448597D02*
X74360693Y46421988D01*
X74360693Y46421988D02*
X74347388Y46408683D01*
X74187731Y46821130D02*
X74373997Y46821130D01*
X74081293Y46754606D02*
X74280864Y46688083D01*
X74280864Y46688083D02*
X74280864Y46861044D01*
X65318760Y28896150D02*
X65305456Y28882845D01*
X65305456Y28882845D02*
X65265541Y28869541D01*
X65265541Y28869541D02*
X65238932Y28869541D01*
X65238932Y28869541D02*
X65199018Y28882845D01*
X65199018Y28882845D02*
X65172408Y28909455D01*
X65172408Y28909455D02*
X65159103Y28936065D01*
X65159103Y28936065D02*
X65145799Y28989284D01*
X65145799Y28989284D02*
X65145799Y29029198D01*
X65145799Y29029198D02*
X65159103Y29082417D01*
X65159103Y29082417D02*
X65172408Y29109026D01*
X65172408Y29109026D02*
X65199018Y29135636D01*
X65199018Y29135636D02*
X65238932Y29148941D01*
X65238932Y29148941D02*
X65265541Y29148941D01*
X65265541Y29148941D02*
X65305456Y29135636D01*
X65305456Y29135636D02*
X65318760Y29122331D01*
X65411894Y29148941D02*
X65584856Y29148941D01*
X65584856Y29148941D02*
X65491722Y29042503D01*
X65491722Y29042503D02*
X65531637Y29042503D01*
X65531637Y29042503D02*
X65558246Y29029198D01*
X65558246Y29029198D02*
X65571551Y29015893D01*
X65571551Y29015893D02*
X65584856Y28989284D01*
X65584856Y28989284D02*
X65584856Y28922760D01*
X65584856Y28922760D02*
X65571551Y28896150D01*
X65571551Y28896150D02*
X65558246Y28882845D01*
X65558246Y28882845D02*
X65531637Y28869541D01*
X65531637Y28869541D02*
X65451808Y28869541D01*
X65451808Y28869541D02*
X65425199Y28882845D01*
X65425199Y28882845D02*
X65411894Y28896150D01*
X65677989Y29148941D02*
X65850951Y29148941D01*
X65850951Y29148941D02*
X65757817Y29042503D01*
X65757817Y29042503D02*
X65797732Y29042503D01*
X65797732Y29042503D02*
X65824341Y29029198D01*
X65824341Y29029198D02*
X65837646Y29015893D01*
X65837646Y29015893D02*
X65850951Y28989284D01*
X65850951Y28989284D02*
X65850951Y28922760D01*
X65850951Y28922760D02*
X65837646Y28896150D01*
X65837646Y28896150D02*
X65824341Y28882845D01*
X65824341Y28882845D02*
X65797732Y28869541D01*
X65797732Y28869541D02*
X65717903Y28869541D01*
X65717903Y28869541D02*
X65691294Y28882845D01*
X65691294Y28882845D02*
X65677989Y28896150D01*
X69347388Y40295549D02*
X69360693Y40282245D01*
X69360693Y40282245D02*
X69373997Y40242330D01*
X69373997Y40242330D02*
X69373997Y40215721D01*
X69373997Y40215721D02*
X69360693Y40175807D01*
X69360693Y40175807D02*
X69334083Y40149197D01*
X69334083Y40149197D02*
X69307473Y40135892D01*
X69307473Y40135892D02*
X69254254Y40122588D01*
X69254254Y40122588D02*
X69214340Y40122588D01*
X69214340Y40122588D02*
X69161121Y40135892D01*
X69161121Y40135892D02*
X69134512Y40149197D01*
X69134512Y40149197D02*
X69107902Y40175807D01*
X69107902Y40175807D02*
X69094597Y40215721D01*
X69094597Y40215721D02*
X69094597Y40242330D01*
X69094597Y40242330D02*
X69107902Y40282245D01*
X69107902Y40282245D02*
X69121207Y40295549D01*
X69121207Y40401988D02*
X69107902Y40415292D01*
X69107902Y40415292D02*
X69094597Y40441902D01*
X69094597Y40441902D02*
X69094597Y40508426D01*
X69094597Y40508426D02*
X69107902Y40535035D01*
X69107902Y40535035D02*
X69121207Y40548340D01*
X69121207Y40548340D02*
X69147816Y40561645D01*
X69147816Y40561645D02*
X69174426Y40561645D01*
X69174426Y40561645D02*
X69214340Y40548340D01*
X69214340Y40548340D02*
X69373997Y40388683D01*
X69373997Y40388683D02*
X69373997Y40561645D01*
X69214340Y40721302D02*
X69201035Y40694692D01*
X69201035Y40694692D02*
X69187731Y40681387D01*
X69187731Y40681387D02*
X69161121Y40668083D01*
X69161121Y40668083D02*
X69147816Y40668083D01*
X69147816Y40668083D02*
X69121207Y40681387D01*
X69121207Y40681387D02*
X69107902Y40694692D01*
X69107902Y40694692D02*
X69094597Y40721302D01*
X69094597Y40721302D02*
X69094597Y40774521D01*
X69094597Y40774521D02*
X69107902Y40801130D01*
X69107902Y40801130D02*
X69121207Y40814435D01*
X69121207Y40814435D02*
X69147816Y40827740D01*
X69147816Y40827740D02*
X69161121Y40827740D01*
X69161121Y40827740D02*
X69187731Y40814435D01*
X69187731Y40814435D02*
X69201035Y40801130D01*
X69201035Y40801130D02*
X69214340Y40774521D01*
X69214340Y40774521D02*
X69214340Y40721302D01*
X69214340Y40721302D02*
X69227645Y40694692D01*
X69227645Y40694692D02*
X69240950Y40681387D01*
X69240950Y40681387D02*
X69267559Y40668083D01*
X69267559Y40668083D02*
X69320778Y40668083D01*
X69320778Y40668083D02*
X69347388Y40681387D01*
X69347388Y40681387D02*
X69360693Y40694692D01*
X69360693Y40694692D02*
X69373997Y40721302D01*
X69373997Y40721302D02*
X69373997Y40774521D01*
X69373997Y40774521D02*
X69360693Y40801130D01*
X69360693Y40801130D02*
X69347388Y40814435D01*
X69347388Y40814435D02*
X69320778Y40827740D01*
X69320778Y40827740D02*
X69267559Y40827740D01*
X69267559Y40827740D02*
X69240950Y40814435D01*
X69240950Y40814435D02*
X69227645Y40801130D01*
X69227645Y40801130D02*
X69214340Y40774521D01*
X69068760Y34986150D02*
X69055456Y34972845D01*
X69055456Y34972845D02*
X69015541Y34959541D01*
X69015541Y34959541D02*
X68988932Y34959541D01*
X68988932Y34959541D02*
X68949018Y34972845D01*
X68949018Y34972845D02*
X68922408Y34999455D01*
X68922408Y34999455D02*
X68909103Y35026065D01*
X68909103Y35026065D02*
X68895799Y35079284D01*
X68895799Y35079284D02*
X68895799Y35119198D01*
X68895799Y35119198D02*
X68909103Y35172417D01*
X68909103Y35172417D02*
X68922408Y35199026D01*
X68922408Y35199026D02*
X68949018Y35225636D01*
X68949018Y35225636D02*
X68988932Y35238941D01*
X68988932Y35238941D02*
X69015541Y35238941D01*
X69015541Y35238941D02*
X69055456Y35225636D01*
X69055456Y35225636D02*
X69068760Y35212331D01*
X69175199Y35212331D02*
X69188503Y35225636D01*
X69188503Y35225636D02*
X69215113Y35238941D01*
X69215113Y35238941D02*
X69281637Y35238941D01*
X69281637Y35238941D02*
X69308246Y35225636D01*
X69308246Y35225636D02*
X69321551Y35212331D01*
X69321551Y35212331D02*
X69334856Y35185722D01*
X69334856Y35185722D02*
X69334856Y35159112D01*
X69334856Y35159112D02*
X69321551Y35119198D01*
X69321551Y35119198D02*
X69161894Y34959541D01*
X69161894Y34959541D02*
X69334856Y34959541D01*
X69427989Y35238941D02*
X69614255Y35238941D01*
X69614255Y35238941D02*
X69494513Y34959541D01*
X75818760Y22466150D02*
X75805456Y22452845D01*
X75805456Y22452845D02*
X75765541Y22439541D01*
X75765541Y22439541D02*
X75738932Y22439541D01*
X75738932Y22439541D02*
X75699018Y22452845D01*
X75699018Y22452845D02*
X75672408Y22479455D01*
X75672408Y22479455D02*
X75659103Y22506065D01*
X75659103Y22506065D02*
X75645799Y22559284D01*
X75645799Y22559284D02*
X75645799Y22599198D01*
X75645799Y22599198D02*
X75659103Y22652417D01*
X75659103Y22652417D02*
X75672408Y22679026D01*
X75672408Y22679026D02*
X75699018Y22705636D01*
X75699018Y22705636D02*
X75738932Y22718941D01*
X75738932Y22718941D02*
X75765541Y22718941D01*
X75765541Y22718941D02*
X75805456Y22705636D01*
X75805456Y22705636D02*
X75818760Y22692331D01*
X75925199Y22692331D02*
X75938503Y22705636D01*
X75938503Y22705636D02*
X75965113Y22718941D01*
X75965113Y22718941D02*
X76031637Y22718941D01*
X76031637Y22718941D02*
X76058246Y22705636D01*
X76058246Y22705636D02*
X76071551Y22692331D01*
X76071551Y22692331D02*
X76084856Y22665722D01*
X76084856Y22665722D02*
X76084856Y22639112D01*
X76084856Y22639112D02*
X76071551Y22599198D01*
X76071551Y22599198D02*
X75911894Y22439541D01*
X75911894Y22439541D02*
X76084856Y22439541D01*
X76324341Y22718941D02*
X76271122Y22718941D01*
X76271122Y22718941D02*
X76244513Y22705636D01*
X76244513Y22705636D02*
X76231208Y22692331D01*
X76231208Y22692331D02*
X76204598Y22652417D01*
X76204598Y22652417D02*
X76191294Y22599198D01*
X76191294Y22599198D02*
X76191294Y22492760D01*
X76191294Y22492760D02*
X76204598Y22466150D01*
X76204598Y22466150D02*
X76217903Y22452845D01*
X76217903Y22452845D02*
X76244513Y22439541D01*
X76244513Y22439541D02*
X76297732Y22439541D01*
X76297732Y22439541D02*
X76324341Y22452845D01*
X76324341Y22452845D02*
X76337646Y22466150D01*
X76337646Y22466150D02*
X76350951Y22492760D01*
X76350951Y22492760D02*
X76350951Y22559284D01*
X76350951Y22559284D02*
X76337646Y22585893D01*
X76337646Y22585893D02*
X76324341Y22599198D01*
X76324341Y22599198D02*
X76297732Y22612503D01*
X76297732Y22612503D02*
X76244513Y22612503D01*
X76244513Y22612503D02*
X76217903Y22599198D01*
X76217903Y22599198D02*
X76204598Y22585893D01*
X76204598Y22585893D02*
X76191294Y22559284D01*
X68068760Y31556150D02*
X68055456Y31542845D01*
X68055456Y31542845D02*
X68015541Y31529541D01*
X68015541Y31529541D02*
X67988932Y31529541D01*
X67988932Y31529541D02*
X67949018Y31542845D01*
X67949018Y31542845D02*
X67922408Y31569455D01*
X67922408Y31569455D02*
X67909103Y31596065D01*
X67909103Y31596065D02*
X67895799Y31649284D01*
X67895799Y31649284D02*
X67895799Y31689198D01*
X67895799Y31689198D02*
X67909103Y31742417D01*
X67909103Y31742417D02*
X67922408Y31769026D01*
X67922408Y31769026D02*
X67949018Y31795636D01*
X67949018Y31795636D02*
X67988932Y31808941D01*
X67988932Y31808941D02*
X68015541Y31808941D01*
X68015541Y31808941D02*
X68055456Y31795636D01*
X68055456Y31795636D02*
X68068760Y31782331D01*
X68161894Y31808941D02*
X68334856Y31808941D01*
X68334856Y31808941D02*
X68241722Y31702503D01*
X68241722Y31702503D02*
X68281637Y31702503D01*
X68281637Y31702503D02*
X68308246Y31689198D01*
X68308246Y31689198D02*
X68321551Y31675893D01*
X68321551Y31675893D02*
X68334856Y31649284D01*
X68334856Y31649284D02*
X68334856Y31582760D01*
X68334856Y31582760D02*
X68321551Y31556150D01*
X68321551Y31556150D02*
X68308246Y31542845D01*
X68308246Y31542845D02*
X68281637Y31529541D01*
X68281637Y31529541D02*
X68201808Y31529541D01*
X68201808Y31529541D02*
X68175199Y31542845D01*
X68175199Y31542845D02*
X68161894Y31556150D01*
X68441294Y31782331D02*
X68454598Y31795636D01*
X68454598Y31795636D02*
X68481208Y31808941D01*
X68481208Y31808941D02*
X68547732Y31808941D01*
X68547732Y31808941D02*
X68574341Y31795636D01*
X68574341Y31795636D02*
X68587646Y31782331D01*
X68587646Y31782331D02*
X68600951Y31755722D01*
X68600951Y31755722D02*
X68600951Y31729112D01*
X68600951Y31729112D02*
X68587646Y31689198D01*
X68587646Y31689198D02*
X68427989Y31529541D01*
X68427989Y31529541D02*
X68600951Y31529541D01*
X83757388Y44085549D02*
X83770693Y44072245D01*
X83770693Y44072245D02*
X83783997Y44032330D01*
X83783997Y44032330D02*
X83783997Y44005721D01*
X83783997Y44005721D02*
X83770693Y43965807D01*
X83770693Y43965807D02*
X83744083Y43939197D01*
X83744083Y43939197D02*
X83717473Y43925892D01*
X83717473Y43925892D02*
X83664254Y43912588D01*
X83664254Y43912588D02*
X83624340Y43912588D01*
X83624340Y43912588D02*
X83571121Y43925892D01*
X83571121Y43925892D02*
X83544512Y43939197D01*
X83544512Y43939197D02*
X83517902Y43965807D01*
X83517902Y43965807D02*
X83504597Y44005721D01*
X83504597Y44005721D02*
X83504597Y44032330D01*
X83504597Y44032330D02*
X83517902Y44072245D01*
X83517902Y44072245D02*
X83531207Y44085549D01*
X83531207Y44191988D02*
X83517902Y44205292D01*
X83517902Y44205292D02*
X83504597Y44231902D01*
X83504597Y44231902D02*
X83504597Y44298426D01*
X83504597Y44298426D02*
X83517902Y44325035D01*
X83517902Y44325035D02*
X83531207Y44338340D01*
X83531207Y44338340D02*
X83557816Y44351645D01*
X83557816Y44351645D02*
X83584426Y44351645D01*
X83584426Y44351645D02*
X83624340Y44338340D01*
X83624340Y44338340D02*
X83783997Y44178683D01*
X83783997Y44178683D02*
X83783997Y44351645D01*
X83504597Y44604435D02*
X83504597Y44471387D01*
X83504597Y44471387D02*
X83637645Y44458083D01*
X83637645Y44458083D02*
X83624340Y44471387D01*
X83624340Y44471387D02*
X83611035Y44497997D01*
X83611035Y44497997D02*
X83611035Y44564521D01*
X83611035Y44564521D02*
X83624340Y44591130D01*
X83624340Y44591130D02*
X83637645Y44604435D01*
X83637645Y44604435D02*
X83664254Y44617740D01*
X83664254Y44617740D02*
X83730778Y44617740D01*
X83730778Y44617740D02*
X83757388Y44604435D01*
X83757388Y44604435D02*
X83770693Y44591130D01*
X83770693Y44591130D02*
X83783997Y44564521D01*
X83783997Y44564521D02*
X83783997Y44497997D01*
X83783997Y44497997D02*
X83770693Y44471387D01*
X83770693Y44471387D02*
X83757388Y44458083D01*
X29451808Y43269541D02*
X29358675Y43402588D01*
X29292151Y43269541D02*
X29292151Y43548941D01*
X29292151Y43548941D02*
X29398589Y43548941D01*
X29398589Y43548941D02*
X29425199Y43535636D01*
X29425199Y43535636D02*
X29438504Y43522331D01*
X29438504Y43522331D02*
X29451808Y43495722D01*
X29451808Y43495722D02*
X29451808Y43455807D01*
X29451808Y43455807D02*
X29438504Y43429198D01*
X29438504Y43429198D02*
X29425199Y43415893D01*
X29425199Y43415893D02*
X29398589Y43402588D01*
X29398589Y43402588D02*
X29292151Y43402588D01*
X29691294Y43548941D02*
X29638075Y43548941D01*
X29638075Y43548941D02*
X29611466Y43535636D01*
X29611466Y43535636D02*
X29598161Y43522331D01*
X29598161Y43522331D02*
X29571551Y43482417D01*
X29571551Y43482417D02*
X29558247Y43429198D01*
X29558247Y43429198D02*
X29558247Y43322760D01*
X29558247Y43322760D02*
X29571551Y43296150D01*
X29571551Y43296150D02*
X29584856Y43282845D01*
X29584856Y43282845D02*
X29611466Y43269541D01*
X29611466Y43269541D02*
X29664685Y43269541D01*
X29664685Y43269541D02*
X29691294Y43282845D01*
X29691294Y43282845D02*
X29704599Y43296150D01*
X29704599Y43296150D02*
X29717904Y43322760D01*
X29717904Y43322760D02*
X29717904Y43389284D01*
X29717904Y43389284D02*
X29704599Y43415893D01*
X29704599Y43415893D02*
X29691294Y43429198D01*
X29691294Y43429198D02*
X29664685Y43442503D01*
X29664685Y43442503D02*
X29611466Y43442503D01*
X29611466Y43442503D02*
X29584856Y43429198D01*
X29584856Y43429198D02*
X29571551Y43415893D01*
X29571551Y43415893D02*
X29558247Y43389284D01*
X88070997Y27678983D02*
X88270569Y27678983D01*
X88270569Y27678983D02*
X88310483Y27665678D01*
X88310483Y27665678D02*
X88337093Y27639069D01*
X88337093Y27639069D02*
X88350397Y27599154D01*
X88350397Y27599154D02*
X88350397Y27572545D01*
X88350397Y27958383D02*
X88350397Y27798726D01*
X88350397Y27878554D02*
X88070997Y27878554D01*
X88070997Y27878554D02*
X88110912Y27851945D01*
X88110912Y27851945D02*
X88137521Y27825335D01*
X88137521Y27825335D02*
X88150826Y27798726D01*
X88350397Y28224478D02*
X88350397Y28064821D01*
X88350397Y28144649D02*
X88070997Y28144649D01*
X88070997Y28144649D02*
X88110912Y28118040D01*
X88110912Y28118040D02*
X88137521Y28091430D01*
X88137521Y28091430D02*
X88150826Y28064821D01*
X28951808Y36919541D02*
X28818760Y36919541D01*
X28818760Y36919541D02*
X28818760Y37198941D01*
X29191294Y36919541D02*
X29031637Y36919541D01*
X29111465Y36919541D02*
X29111465Y37198941D01*
X29111465Y37198941D02*
X29084856Y37159026D01*
X29084856Y37159026D02*
X29058246Y37132417D01*
X29058246Y37132417D02*
X29031637Y37119112D01*
X42347388Y41348597D02*
X42360693Y41335293D01*
X42360693Y41335293D02*
X42373997Y41295378D01*
X42373997Y41295378D02*
X42373997Y41268769D01*
X42373997Y41268769D02*
X42360693Y41228855D01*
X42360693Y41228855D02*
X42334083Y41202245D01*
X42334083Y41202245D02*
X42307473Y41188940D01*
X42307473Y41188940D02*
X42254254Y41175636D01*
X42254254Y41175636D02*
X42214340Y41175636D01*
X42214340Y41175636D02*
X42161121Y41188940D01*
X42161121Y41188940D02*
X42134512Y41202245D01*
X42134512Y41202245D02*
X42107902Y41228855D01*
X42107902Y41228855D02*
X42094597Y41268769D01*
X42094597Y41268769D02*
X42094597Y41295378D01*
X42094597Y41295378D02*
X42107902Y41335293D01*
X42107902Y41335293D02*
X42121207Y41348597D01*
X42373997Y41481645D02*
X42373997Y41534864D01*
X42373997Y41534864D02*
X42360693Y41561474D01*
X42360693Y41561474D02*
X42347388Y41574778D01*
X42347388Y41574778D02*
X42307473Y41601388D01*
X42307473Y41601388D02*
X42254254Y41614693D01*
X42254254Y41614693D02*
X42147816Y41614693D01*
X42147816Y41614693D02*
X42121207Y41601388D01*
X42121207Y41601388D02*
X42107902Y41588083D01*
X42107902Y41588083D02*
X42094597Y41561474D01*
X42094597Y41561474D02*
X42094597Y41508255D01*
X42094597Y41508255D02*
X42107902Y41481645D01*
X42107902Y41481645D02*
X42121207Y41468340D01*
X42121207Y41468340D02*
X42147816Y41455036D01*
X42147816Y41455036D02*
X42214340Y41455036D01*
X42214340Y41455036D02*
X42240950Y41468340D01*
X42240950Y41468340D02*
X42254254Y41481645D01*
X42254254Y41481645D02*
X42267559Y41508255D01*
X42267559Y41508255D02*
X42267559Y41561474D01*
X42267559Y41561474D02*
X42254254Y41588083D01*
X42254254Y41588083D02*
X42240950Y41601388D01*
X42240950Y41601388D02*
X42214340Y41614693D01*
X22221808Y18796150D02*
X22208504Y18782845D01*
X22208504Y18782845D02*
X22168589Y18769541D01*
X22168589Y18769541D02*
X22141980Y18769541D01*
X22141980Y18769541D02*
X22102066Y18782845D01*
X22102066Y18782845D02*
X22075456Y18809455D01*
X22075456Y18809455D02*
X22062151Y18836065D01*
X22062151Y18836065D02*
X22048847Y18889284D01*
X22048847Y18889284D02*
X22048847Y18929198D01*
X22048847Y18929198D02*
X22062151Y18982417D01*
X22062151Y18982417D02*
X22075456Y19009026D01*
X22075456Y19009026D02*
X22102066Y19035636D01*
X22102066Y19035636D02*
X22141980Y19048941D01*
X22141980Y19048941D02*
X22168589Y19048941D01*
X22168589Y19048941D02*
X22208504Y19035636D01*
X22208504Y19035636D02*
X22221808Y19022331D01*
X22487904Y18769541D02*
X22328247Y18769541D01*
X22408075Y18769541D02*
X22408075Y19048941D01*
X22408075Y19048941D02*
X22381466Y19009026D01*
X22381466Y19009026D02*
X22354856Y18982417D01*
X22354856Y18982417D02*
X22328247Y18969112D01*
X26201808Y42296150D02*
X26188504Y42282845D01*
X26188504Y42282845D02*
X26148589Y42269541D01*
X26148589Y42269541D02*
X26121980Y42269541D01*
X26121980Y42269541D02*
X26082066Y42282845D01*
X26082066Y42282845D02*
X26055456Y42309455D01*
X26055456Y42309455D02*
X26042151Y42336065D01*
X26042151Y42336065D02*
X26028847Y42389284D01*
X26028847Y42389284D02*
X26028847Y42429198D01*
X26028847Y42429198D02*
X26042151Y42482417D01*
X26042151Y42482417D02*
X26055456Y42509026D01*
X26055456Y42509026D02*
X26082066Y42535636D01*
X26082066Y42535636D02*
X26121980Y42548941D01*
X26121980Y42548941D02*
X26148589Y42548941D01*
X26148589Y42548941D02*
X26188504Y42535636D01*
X26188504Y42535636D02*
X26201808Y42522331D01*
X26441294Y42455807D02*
X26441294Y42269541D01*
X26374770Y42562245D02*
X26308247Y42362674D01*
X26308247Y42362674D02*
X26481208Y42362674D01*
X12094597Y50842031D02*
X12294169Y50842031D01*
X12294169Y50842031D02*
X12334083Y50828726D01*
X12334083Y50828726D02*
X12360693Y50802117D01*
X12360693Y50802117D02*
X12373997Y50762202D01*
X12373997Y50762202D02*
X12373997Y50735593D01*
X12187731Y51094821D02*
X12373997Y51094821D01*
X12081293Y51028297D02*
X12280864Y50961774D01*
X12280864Y50961774D02*
X12280864Y51134735D01*
X27623997Y8455549D02*
X27490950Y8362416D01*
X27623997Y8295892D02*
X27344597Y8295892D01*
X27344597Y8295892D02*
X27344597Y8402330D01*
X27344597Y8402330D02*
X27357902Y8428940D01*
X27357902Y8428940D02*
X27371207Y8442245D01*
X27371207Y8442245D02*
X27397816Y8455549D01*
X27397816Y8455549D02*
X27437731Y8455549D01*
X27437731Y8455549D02*
X27464340Y8442245D01*
X27464340Y8442245D02*
X27477645Y8428940D01*
X27477645Y8428940D02*
X27490950Y8402330D01*
X27490950Y8402330D02*
X27490950Y8295892D01*
X27371207Y8561988D02*
X27357902Y8575292D01*
X27357902Y8575292D02*
X27344597Y8601902D01*
X27344597Y8601902D02*
X27344597Y8668426D01*
X27344597Y8668426D02*
X27357902Y8695035D01*
X27357902Y8695035D02*
X27371207Y8708340D01*
X27371207Y8708340D02*
X27397816Y8721645D01*
X27397816Y8721645D02*
X27424426Y8721645D01*
X27424426Y8721645D02*
X27464340Y8708340D01*
X27464340Y8708340D02*
X27623997Y8548683D01*
X27623997Y8548683D02*
X27623997Y8721645D01*
X27344597Y8814778D02*
X27344597Y8987740D01*
X27344597Y8987740D02*
X27451035Y8894606D01*
X27451035Y8894606D02*
X27451035Y8934521D01*
X27451035Y8934521D02*
X27464340Y8961130D01*
X27464340Y8961130D02*
X27477645Y8974435D01*
X27477645Y8974435D02*
X27504254Y8987740D01*
X27504254Y8987740D02*
X27570778Y8987740D01*
X27570778Y8987740D02*
X27597388Y8974435D01*
X27597388Y8974435D02*
X27610693Y8961130D01*
X27610693Y8961130D02*
X27623997Y8934521D01*
X27623997Y8934521D02*
X27623997Y8854692D01*
X27623997Y8854692D02*
X27610693Y8828083D01*
X27610693Y8828083D02*
X27597388Y8814778D01*
X30123997Y8475549D02*
X29990950Y8382416D01*
X30123997Y8315892D02*
X29844597Y8315892D01*
X29844597Y8315892D02*
X29844597Y8422330D01*
X29844597Y8422330D02*
X29857902Y8448940D01*
X29857902Y8448940D02*
X29871207Y8462245D01*
X29871207Y8462245D02*
X29897816Y8475549D01*
X29897816Y8475549D02*
X29937731Y8475549D01*
X29937731Y8475549D02*
X29964340Y8462245D01*
X29964340Y8462245D02*
X29977645Y8448940D01*
X29977645Y8448940D02*
X29990950Y8422330D01*
X29990950Y8422330D02*
X29990950Y8315892D01*
X30123997Y8741645D02*
X30123997Y8581988D01*
X30123997Y8661816D02*
X29844597Y8661816D01*
X29844597Y8661816D02*
X29884512Y8635207D01*
X29884512Y8635207D02*
X29911121Y8608597D01*
X29911121Y8608597D02*
X29924426Y8581988D01*
X29844597Y8834778D02*
X29844597Y9021044D01*
X29844597Y9021044D02*
X30123997Y8901302D01*
X25615327Y16402588D02*
X25615327Y16269541D01*
X25522194Y16548941D02*
X25615327Y16402588D01*
X25615327Y16402588D02*
X25708461Y16548941D01*
X25947947Y16269541D02*
X25788290Y16269541D01*
X25868118Y16269541D02*
X25868118Y16548941D01*
X25868118Y16548941D02*
X25841509Y16509026D01*
X25841509Y16509026D02*
X25814899Y16482417D01*
X25814899Y16482417D02*
X25788290Y16469112D01*
X47169597Y47182287D02*
X47395778Y47182287D01*
X47395778Y47182287D02*
X47422388Y47195592D01*
X47422388Y47195592D02*
X47435693Y47208897D01*
X47435693Y47208897D02*
X47448997Y47235506D01*
X47448997Y47235506D02*
X47448997Y47288725D01*
X47448997Y47288725D02*
X47435693Y47315335D01*
X47435693Y47315335D02*
X47422388Y47328640D01*
X47422388Y47328640D02*
X47395778Y47341944D01*
X47395778Y47341944D02*
X47169597Y47341944D01*
X47169597Y47448383D02*
X47169597Y47621345D01*
X47169597Y47621345D02*
X47276035Y47528211D01*
X47276035Y47528211D02*
X47276035Y47568126D01*
X47276035Y47568126D02*
X47289340Y47594735D01*
X47289340Y47594735D02*
X47302645Y47608040D01*
X47302645Y47608040D02*
X47329254Y47621345D01*
X47329254Y47621345D02*
X47395778Y47621345D01*
X47395778Y47621345D02*
X47422388Y47608040D01*
X47422388Y47608040D02*
X47435693Y47594735D01*
X47435693Y47594735D02*
X47448997Y47568126D01*
X47448997Y47568126D02*
X47448997Y47488297D01*
X47448997Y47488297D02*
X47435693Y47461688D01*
X47435693Y47461688D02*
X47422388Y47448383D01*
X34373997Y6235549D02*
X34240950Y6142416D01*
X34373997Y6075892D02*
X34094597Y6075892D01*
X34094597Y6075892D02*
X34094597Y6182330D01*
X34094597Y6182330D02*
X34107902Y6208940D01*
X34107902Y6208940D02*
X34121207Y6222245D01*
X34121207Y6222245D02*
X34147816Y6235549D01*
X34147816Y6235549D02*
X34187731Y6235549D01*
X34187731Y6235549D02*
X34214340Y6222245D01*
X34214340Y6222245D02*
X34227645Y6208940D01*
X34227645Y6208940D02*
X34240950Y6182330D01*
X34240950Y6182330D02*
X34240950Y6075892D01*
X34373997Y6501645D02*
X34373997Y6341988D01*
X34373997Y6421816D02*
X34094597Y6421816D01*
X34094597Y6421816D02*
X34134512Y6395207D01*
X34134512Y6395207D02*
X34161121Y6368597D01*
X34161121Y6368597D02*
X34174426Y6341988D01*
X34187731Y6741130D02*
X34373997Y6741130D01*
X34081293Y6674606D02*
X34280864Y6608083D01*
X34280864Y6608083D02*
X34280864Y6781044D01*
X7847388Y11465549D02*
X7860693Y11452245D01*
X7860693Y11452245D02*
X7873997Y11412330D01*
X7873997Y11412330D02*
X7873997Y11385721D01*
X7873997Y11385721D02*
X7860693Y11345807D01*
X7860693Y11345807D02*
X7834083Y11319197D01*
X7834083Y11319197D02*
X7807473Y11305892D01*
X7807473Y11305892D02*
X7754254Y11292588D01*
X7754254Y11292588D02*
X7714340Y11292588D01*
X7714340Y11292588D02*
X7661121Y11305892D01*
X7661121Y11305892D02*
X7634512Y11319197D01*
X7634512Y11319197D02*
X7607902Y11345807D01*
X7607902Y11345807D02*
X7594597Y11385721D01*
X7594597Y11385721D02*
X7594597Y11412330D01*
X7594597Y11412330D02*
X7607902Y11452245D01*
X7607902Y11452245D02*
X7621207Y11465549D01*
X7594597Y11558683D02*
X7594597Y11731645D01*
X7594597Y11731645D02*
X7701035Y11638511D01*
X7701035Y11638511D02*
X7701035Y11678426D01*
X7701035Y11678426D02*
X7714340Y11705035D01*
X7714340Y11705035D02*
X7727645Y11718340D01*
X7727645Y11718340D02*
X7754254Y11731645D01*
X7754254Y11731645D02*
X7820778Y11731645D01*
X7820778Y11731645D02*
X7847388Y11718340D01*
X7847388Y11718340D02*
X7860693Y11705035D01*
X7860693Y11705035D02*
X7873997Y11678426D01*
X7873997Y11678426D02*
X7873997Y11598597D01*
X7873997Y11598597D02*
X7860693Y11571988D01*
X7860693Y11571988D02*
X7847388Y11558683D01*
X7594597Y11971130D02*
X7594597Y11917911D01*
X7594597Y11917911D02*
X7607902Y11891302D01*
X7607902Y11891302D02*
X7621207Y11877997D01*
X7621207Y11877997D02*
X7661121Y11851387D01*
X7661121Y11851387D02*
X7714340Y11838083D01*
X7714340Y11838083D02*
X7820778Y11838083D01*
X7820778Y11838083D02*
X7847388Y11851387D01*
X7847388Y11851387D02*
X7860693Y11864692D01*
X7860693Y11864692D02*
X7873997Y11891302D01*
X7873997Y11891302D02*
X7873997Y11944521D01*
X7873997Y11944521D02*
X7860693Y11971130D01*
X7860693Y11971130D02*
X7847388Y11984435D01*
X7847388Y11984435D02*
X7820778Y11997740D01*
X7820778Y11997740D02*
X7754254Y11997740D01*
X7754254Y11997740D02*
X7727645Y11984435D01*
X7727645Y11984435D02*
X7714340Y11971130D01*
X7714340Y11971130D02*
X7701035Y11944521D01*
X7701035Y11944521D02*
X7701035Y11891302D01*
X7701035Y11891302D02*
X7714340Y11864692D01*
X7714340Y11864692D02*
X7727645Y11851387D01*
X7727645Y11851387D02*
X7754254Y11838083D01*
X59635242Y49048941D02*
X59635242Y48849369D01*
X59635242Y48849369D02*
X59621937Y48809455D01*
X59621937Y48809455D02*
X59595328Y48782845D01*
X59595328Y48782845D02*
X59555413Y48769541D01*
X59555413Y48769541D02*
X59528804Y48769541D01*
X59914642Y48769541D02*
X59754985Y48769541D01*
X59834813Y48769541D02*
X59834813Y49048941D01*
X59834813Y49048941D02*
X59808204Y49009026D01*
X59808204Y49009026D02*
X59781594Y48982417D01*
X59781594Y48982417D02*
X59754985Y48969112D01*
X48594597Y41182287D02*
X48820778Y41182287D01*
X48820778Y41182287D02*
X48847388Y41195592D01*
X48847388Y41195592D02*
X48860693Y41208897D01*
X48860693Y41208897D02*
X48873997Y41235506D01*
X48873997Y41235506D02*
X48873997Y41288725D01*
X48873997Y41288725D02*
X48860693Y41315335D01*
X48860693Y41315335D02*
X48847388Y41328640D01*
X48847388Y41328640D02*
X48820778Y41341944D01*
X48820778Y41341944D02*
X48594597Y41341944D01*
X48687731Y41594735D02*
X48873997Y41594735D01*
X48581293Y41528211D02*
X48780864Y41461688D01*
X48780864Y41461688D02*
X48780864Y41634649D01*
X36623997Y6235549D02*
X36490950Y6142416D01*
X36623997Y6075892D02*
X36344597Y6075892D01*
X36344597Y6075892D02*
X36344597Y6182330D01*
X36344597Y6182330D02*
X36357902Y6208940D01*
X36357902Y6208940D02*
X36371207Y6222245D01*
X36371207Y6222245D02*
X36397816Y6235549D01*
X36397816Y6235549D02*
X36437731Y6235549D01*
X36437731Y6235549D02*
X36464340Y6222245D01*
X36464340Y6222245D02*
X36477645Y6208940D01*
X36477645Y6208940D02*
X36490950Y6182330D01*
X36490950Y6182330D02*
X36490950Y6075892D01*
X36623997Y6501645D02*
X36623997Y6341988D01*
X36623997Y6421816D02*
X36344597Y6421816D01*
X36344597Y6421816D02*
X36384512Y6395207D01*
X36384512Y6395207D02*
X36411121Y6368597D01*
X36411121Y6368597D02*
X36424426Y6341988D01*
X36344597Y6594778D02*
X36344597Y6767740D01*
X36344597Y6767740D02*
X36451035Y6674606D01*
X36451035Y6674606D02*
X36451035Y6714521D01*
X36451035Y6714521D02*
X36464340Y6741130D01*
X36464340Y6741130D02*
X36477645Y6754435D01*
X36477645Y6754435D02*
X36504254Y6767740D01*
X36504254Y6767740D02*
X36570778Y6767740D01*
X36570778Y6767740D02*
X36597388Y6754435D01*
X36597388Y6754435D02*
X36610693Y6741130D01*
X36610693Y6741130D02*
X36623997Y6714521D01*
X36623997Y6714521D02*
X36623997Y6634692D01*
X36623997Y6634692D02*
X36610693Y6608083D01*
X36610693Y6608083D02*
X36597388Y6594778D01*
X28701808Y32546150D02*
X28688504Y32532845D01*
X28688504Y32532845D02*
X28648589Y32519541D01*
X28648589Y32519541D02*
X28621980Y32519541D01*
X28621980Y32519541D02*
X28582066Y32532845D01*
X28582066Y32532845D02*
X28555456Y32559455D01*
X28555456Y32559455D02*
X28542151Y32586065D01*
X28542151Y32586065D02*
X28528847Y32639284D01*
X28528847Y32639284D02*
X28528847Y32679198D01*
X28528847Y32679198D02*
X28542151Y32732417D01*
X28542151Y32732417D02*
X28555456Y32759026D01*
X28555456Y32759026D02*
X28582066Y32785636D01*
X28582066Y32785636D02*
X28621980Y32798941D01*
X28621980Y32798941D02*
X28648589Y32798941D01*
X28648589Y32798941D02*
X28688504Y32785636D01*
X28688504Y32785636D02*
X28701808Y32772331D01*
X28794942Y32798941D02*
X28981208Y32798941D01*
X28981208Y32798941D02*
X28861466Y32519541D01*
X54702775Y47548941D02*
X54702775Y47482417D01*
X54636251Y47509026D02*
X54702775Y47482417D01*
X54702775Y47482417D02*
X54769298Y47509026D01*
X54662860Y47429198D02*
X54702775Y47482417D01*
X54702775Y47482417D02*
X54742689Y47429198D01*
X53064475Y47548941D02*
X53064475Y47482417D01*
X52997951Y47509026D02*
X53064475Y47482417D01*
X53064475Y47482417D02*
X53130998Y47509026D01*
X53024560Y47429198D02*
X53064475Y47482417D01*
X53064475Y47482417D02*
X53104389Y47429198D01*
X52603041Y47494177D02*
X52616345Y47507481D01*
X52616345Y47507481D02*
X52656260Y47520786D01*
X52656260Y47520786D02*
X52682869Y47520786D01*
X52682869Y47520786D02*
X52722783Y47507481D01*
X52722783Y47507481D02*
X52749393Y47480872D01*
X52749393Y47480872D02*
X52762698Y47454262D01*
X52762698Y47454262D02*
X52776002Y47401043D01*
X52776002Y47401043D02*
X52776002Y47361129D01*
X52776002Y47361129D02*
X52762698Y47307910D01*
X52762698Y47307910D02*
X52749393Y47281301D01*
X52749393Y47281301D02*
X52722783Y47254691D01*
X52722783Y47254691D02*
X52682869Y47241386D01*
X52682869Y47241386D02*
X52656260Y47241386D01*
X52656260Y47241386D02*
X52616345Y47254691D01*
X52616345Y47254691D02*
X52603041Y47267996D01*
X52323641Y47520786D02*
X52416774Y47387739D01*
X52483298Y47520786D02*
X52483298Y47241386D01*
X52483298Y47241386D02*
X52376860Y47241386D01*
X52376860Y47241386D02*
X52350250Y47254691D01*
X52350250Y47254691D02*
X52336945Y47267996D01*
X52336945Y47267996D02*
X52323641Y47294605D01*
X52323641Y47294605D02*
X52323641Y47334520D01*
X52323641Y47334520D02*
X52336945Y47361129D01*
X52336945Y47361129D02*
X52350250Y47374434D01*
X52350250Y47374434D02*
X52376860Y47387739D01*
X52376860Y47387739D02*
X52483298Y47387739D01*
X52057545Y47520786D02*
X52217202Y47520786D01*
X52137374Y47520786D02*
X52137374Y47241386D01*
X52137374Y47241386D02*
X52163983Y47281301D01*
X52163983Y47281301D02*
X52190593Y47307910D01*
X52190593Y47307910D02*
X52217202Y47321215D01*
X53064474Y47241386D02*
X53064474Y47307910D01*
X53130998Y47281301D02*
X53064474Y47307910D01*
X53064474Y47307910D02*
X52997951Y47281301D01*
X53104389Y47361129D02*
X53064474Y47307910D01*
X53064474Y47307910D02*
X53024560Y47361129D01*
X54702774Y47241386D02*
X54702774Y47307910D01*
X54769298Y47281301D02*
X54702774Y47307910D01*
X54702774Y47307910D02*
X54636251Y47281301D01*
X54742689Y47361129D02*
X54702774Y47307910D01*
X54702774Y47307910D02*
X54662860Y47361129D01*
X22873997Y8475549D02*
X22740950Y8382416D01*
X22873997Y8315892D02*
X22594597Y8315892D01*
X22594597Y8315892D02*
X22594597Y8422330D01*
X22594597Y8422330D02*
X22607902Y8448940D01*
X22607902Y8448940D02*
X22621207Y8462245D01*
X22621207Y8462245D02*
X22647816Y8475549D01*
X22647816Y8475549D02*
X22687731Y8475549D01*
X22687731Y8475549D02*
X22714340Y8462245D01*
X22714340Y8462245D02*
X22727645Y8448940D01*
X22727645Y8448940D02*
X22740950Y8422330D01*
X22740950Y8422330D02*
X22740950Y8315892D01*
X22621207Y8581988D02*
X22607902Y8595292D01*
X22607902Y8595292D02*
X22594597Y8621902D01*
X22594597Y8621902D02*
X22594597Y8688426D01*
X22594597Y8688426D02*
X22607902Y8715035D01*
X22607902Y8715035D02*
X22621207Y8728340D01*
X22621207Y8728340D02*
X22647816Y8741645D01*
X22647816Y8741645D02*
X22674426Y8741645D01*
X22674426Y8741645D02*
X22714340Y8728340D01*
X22714340Y8728340D02*
X22873997Y8568683D01*
X22873997Y8568683D02*
X22873997Y8741645D01*
X22594597Y8981130D02*
X22594597Y8927911D01*
X22594597Y8927911D02*
X22607902Y8901302D01*
X22607902Y8901302D02*
X22621207Y8887997D01*
X22621207Y8887997D02*
X22661121Y8861387D01*
X22661121Y8861387D02*
X22714340Y8848083D01*
X22714340Y8848083D02*
X22820778Y8848083D01*
X22820778Y8848083D02*
X22847388Y8861387D01*
X22847388Y8861387D02*
X22860693Y8874692D01*
X22860693Y8874692D02*
X22873997Y8901302D01*
X22873997Y8901302D02*
X22873997Y8954521D01*
X22873997Y8954521D02*
X22860693Y8981130D01*
X22860693Y8981130D02*
X22847388Y8994435D01*
X22847388Y8994435D02*
X22820778Y9007740D01*
X22820778Y9007740D02*
X22754254Y9007740D01*
X22754254Y9007740D02*
X22727645Y8994435D01*
X22727645Y8994435D02*
X22714340Y8981130D01*
X22714340Y8981130D02*
X22701035Y8954521D01*
X22701035Y8954521D02*
X22701035Y8901302D01*
X22701035Y8901302D02*
X22714340Y8874692D01*
X22714340Y8874692D02*
X22727645Y8861387D01*
X22727645Y8861387D02*
X22754254Y8848083D01*
X55347388Y36848597D02*
X55360693Y36835293D01*
X55360693Y36835293D02*
X55373997Y36795378D01*
X55373997Y36795378D02*
X55373997Y36768769D01*
X55373997Y36768769D02*
X55360693Y36728855D01*
X55360693Y36728855D02*
X55334083Y36702245D01*
X55334083Y36702245D02*
X55307473Y36688940D01*
X55307473Y36688940D02*
X55254254Y36675636D01*
X55254254Y36675636D02*
X55214340Y36675636D01*
X55214340Y36675636D02*
X55161121Y36688940D01*
X55161121Y36688940D02*
X55134512Y36702245D01*
X55134512Y36702245D02*
X55107902Y36728855D01*
X55107902Y36728855D02*
X55094597Y36768769D01*
X55094597Y36768769D02*
X55094597Y36795378D01*
X55094597Y36795378D02*
X55107902Y36835293D01*
X55107902Y36835293D02*
X55121207Y36848597D01*
X55094597Y37088083D02*
X55094597Y37034864D01*
X55094597Y37034864D02*
X55107902Y37008255D01*
X55107902Y37008255D02*
X55121207Y36994950D01*
X55121207Y36994950D02*
X55161121Y36968340D01*
X55161121Y36968340D02*
X55214340Y36955036D01*
X55214340Y36955036D02*
X55320778Y36955036D01*
X55320778Y36955036D02*
X55347388Y36968340D01*
X55347388Y36968340D02*
X55360693Y36981645D01*
X55360693Y36981645D02*
X55373997Y37008255D01*
X55373997Y37008255D02*
X55373997Y37061474D01*
X55373997Y37061474D02*
X55360693Y37088083D01*
X55360693Y37088083D02*
X55347388Y37101388D01*
X55347388Y37101388D02*
X55320778Y37114693D01*
X55320778Y37114693D02*
X55254254Y37114693D01*
X55254254Y37114693D02*
X55227645Y37101388D01*
X55227645Y37101388D02*
X55214340Y37088083D01*
X55214340Y37088083D02*
X55201035Y37061474D01*
X55201035Y37061474D02*
X55201035Y37008255D01*
X55201035Y37008255D02*
X55214340Y36981645D01*
X55214340Y36981645D02*
X55227645Y36968340D01*
X55227645Y36968340D02*
X55254254Y36955036D01*
X25373997Y8475549D02*
X25240950Y8382416D01*
X25373997Y8315892D02*
X25094597Y8315892D01*
X25094597Y8315892D02*
X25094597Y8422330D01*
X25094597Y8422330D02*
X25107902Y8448940D01*
X25107902Y8448940D02*
X25121207Y8462245D01*
X25121207Y8462245D02*
X25147816Y8475549D01*
X25147816Y8475549D02*
X25187731Y8475549D01*
X25187731Y8475549D02*
X25214340Y8462245D01*
X25214340Y8462245D02*
X25227645Y8448940D01*
X25227645Y8448940D02*
X25240950Y8422330D01*
X25240950Y8422330D02*
X25240950Y8315892D01*
X25121207Y8581988D02*
X25107902Y8595292D01*
X25107902Y8595292D02*
X25094597Y8621902D01*
X25094597Y8621902D02*
X25094597Y8688426D01*
X25094597Y8688426D02*
X25107902Y8715035D01*
X25107902Y8715035D02*
X25121207Y8728340D01*
X25121207Y8728340D02*
X25147816Y8741645D01*
X25147816Y8741645D02*
X25174426Y8741645D01*
X25174426Y8741645D02*
X25214340Y8728340D01*
X25214340Y8728340D02*
X25373997Y8568683D01*
X25373997Y8568683D02*
X25373997Y8741645D01*
X25094597Y8994435D02*
X25094597Y8861387D01*
X25094597Y8861387D02*
X25227645Y8848083D01*
X25227645Y8848083D02*
X25214340Y8861387D01*
X25214340Y8861387D02*
X25201035Y8887997D01*
X25201035Y8887997D02*
X25201035Y8954521D01*
X25201035Y8954521D02*
X25214340Y8981130D01*
X25214340Y8981130D02*
X25227645Y8994435D01*
X25227645Y8994435D02*
X25254254Y9007740D01*
X25254254Y9007740D02*
X25320778Y9007740D01*
X25320778Y9007740D02*
X25347388Y8994435D01*
X25347388Y8994435D02*
X25360693Y8981130D01*
X25360693Y8981130D02*
X25373997Y8954521D01*
X25373997Y8954521D02*
X25373997Y8887997D01*
X25373997Y8887997D02*
X25360693Y8861387D01*
X25360693Y8861387D02*
X25347388Y8848083D01*
X26373997Y6205549D02*
X26240950Y6112416D01*
X26373997Y6045892D02*
X26094597Y6045892D01*
X26094597Y6045892D02*
X26094597Y6152330D01*
X26094597Y6152330D02*
X26107902Y6178940D01*
X26107902Y6178940D02*
X26121207Y6192245D01*
X26121207Y6192245D02*
X26147816Y6205549D01*
X26147816Y6205549D02*
X26187731Y6205549D01*
X26187731Y6205549D02*
X26214340Y6192245D01*
X26214340Y6192245D02*
X26227645Y6178940D01*
X26227645Y6178940D02*
X26240950Y6152330D01*
X26240950Y6152330D02*
X26240950Y6045892D01*
X26373997Y6471645D02*
X26373997Y6311988D01*
X26373997Y6391816D02*
X26094597Y6391816D01*
X26094597Y6391816D02*
X26134512Y6365207D01*
X26134512Y6365207D02*
X26161121Y6338597D01*
X26161121Y6338597D02*
X26174426Y6311988D01*
X26214340Y6631302D02*
X26201035Y6604692D01*
X26201035Y6604692D02*
X26187731Y6591387D01*
X26187731Y6591387D02*
X26161121Y6578083D01*
X26161121Y6578083D02*
X26147816Y6578083D01*
X26147816Y6578083D02*
X26121207Y6591387D01*
X26121207Y6591387D02*
X26107902Y6604692D01*
X26107902Y6604692D02*
X26094597Y6631302D01*
X26094597Y6631302D02*
X26094597Y6684521D01*
X26094597Y6684521D02*
X26107902Y6711130D01*
X26107902Y6711130D02*
X26121207Y6724435D01*
X26121207Y6724435D02*
X26147816Y6737740D01*
X26147816Y6737740D02*
X26161121Y6737740D01*
X26161121Y6737740D02*
X26187731Y6724435D01*
X26187731Y6724435D02*
X26201035Y6711130D01*
X26201035Y6711130D02*
X26214340Y6684521D01*
X26214340Y6684521D02*
X26214340Y6631302D01*
X26214340Y6631302D02*
X26227645Y6604692D01*
X26227645Y6604692D02*
X26240950Y6591387D01*
X26240950Y6591387D02*
X26267559Y6578083D01*
X26267559Y6578083D02*
X26320778Y6578083D01*
X26320778Y6578083D02*
X26347388Y6591387D01*
X26347388Y6591387D02*
X26360693Y6604692D01*
X26360693Y6604692D02*
X26373997Y6631302D01*
X26373997Y6631302D02*
X26373997Y6684521D01*
X26373997Y6684521D02*
X26360693Y6711130D01*
X26360693Y6711130D02*
X26347388Y6724435D01*
X26347388Y6724435D02*
X26320778Y6737740D01*
X26320778Y6737740D02*
X26267559Y6737740D01*
X26267559Y6737740D02*
X26240950Y6724435D01*
X26240950Y6724435D02*
X26227645Y6711130D01*
X26227645Y6711130D02*
X26214340Y6684521D01*
X28101808Y13646150D02*
X28088504Y13632845D01*
X28088504Y13632845D02*
X28048589Y13619541D01*
X28048589Y13619541D02*
X28021980Y13619541D01*
X28021980Y13619541D02*
X27982066Y13632845D01*
X27982066Y13632845D02*
X27955456Y13659455D01*
X27955456Y13659455D02*
X27942151Y13686065D01*
X27942151Y13686065D02*
X27928847Y13739284D01*
X27928847Y13739284D02*
X27928847Y13779198D01*
X27928847Y13779198D02*
X27942151Y13832417D01*
X27942151Y13832417D02*
X27955456Y13859026D01*
X27955456Y13859026D02*
X27982066Y13885636D01*
X27982066Y13885636D02*
X28021980Y13898941D01*
X28021980Y13898941D02*
X28048589Y13898941D01*
X28048589Y13898941D02*
X28088504Y13885636D01*
X28088504Y13885636D02*
X28101808Y13872331D01*
X28208247Y13872331D02*
X28221551Y13885636D01*
X28221551Y13885636D02*
X28248161Y13898941D01*
X28248161Y13898941D02*
X28314685Y13898941D01*
X28314685Y13898941D02*
X28341294Y13885636D01*
X28341294Y13885636D02*
X28354599Y13872331D01*
X28354599Y13872331D02*
X28367904Y13845722D01*
X28367904Y13845722D02*
X28367904Y13819112D01*
X28367904Y13819112D02*
X28354599Y13779198D01*
X28354599Y13779198D02*
X28194942Y13619541D01*
X28194942Y13619541D02*
X28367904Y13619541D01*
X10347388Y10715549D02*
X10360693Y10702245D01*
X10360693Y10702245D02*
X10373997Y10662330D01*
X10373997Y10662330D02*
X10373997Y10635721D01*
X10373997Y10635721D02*
X10360693Y10595807D01*
X10360693Y10595807D02*
X10334083Y10569197D01*
X10334083Y10569197D02*
X10307473Y10555892D01*
X10307473Y10555892D02*
X10254254Y10542588D01*
X10254254Y10542588D02*
X10214340Y10542588D01*
X10214340Y10542588D02*
X10161121Y10555892D01*
X10161121Y10555892D02*
X10134512Y10569197D01*
X10134512Y10569197D02*
X10107902Y10595807D01*
X10107902Y10595807D02*
X10094597Y10635721D01*
X10094597Y10635721D02*
X10094597Y10662330D01*
X10094597Y10662330D02*
X10107902Y10702245D01*
X10107902Y10702245D02*
X10121207Y10715549D01*
X10094597Y10808683D02*
X10094597Y10981645D01*
X10094597Y10981645D02*
X10201035Y10888511D01*
X10201035Y10888511D02*
X10201035Y10928426D01*
X10201035Y10928426D02*
X10214340Y10955035D01*
X10214340Y10955035D02*
X10227645Y10968340D01*
X10227645Y10968340D02*
X10254254Y10981645D01*
X10254254Y10981645D02*
X10320778Y10981645D01*
X10320778Y10981645D02*
X10347388Y10968340D01*
X10347388Y10968340D02*
X10360693Y10955035D01*
X10360693Y10955035D02*
X10373997Y10928426D01*
X10373997Y10928426D02*
X10373997Y10848597D01*
X10373997Y10848597D02*
X10360693Y10821988D01*
X10360693Y10821988D02*
X10347388Y10808683D01*
X10094597Y11074778D02*
X10094597Y11261044D01*
X10094597Y11261044D02*
X10373997Y11141302D01*
X23873997Y6225549D02*
X23740950Y6132416D01*
X23873997Y6065892D02*
X23594597Y6065892D01*
X23594597Y6065892D02*
X23594597Y6172330D01*
X23594597Y6172330D02*
X23607902Y6198940D01*
X23607902Y6198940D02*
X23621207Y6212245D01*
X23621207Y6212245D02*
X23647816Y6225549D01*
X23647816Y6225549D02*
X23687731Y6225549D01*
X23687731Y6225549D02*
X23714340Y6212245D01*
X23714340Y6212245D02*
X23727645Y6198940D01*
X23727645Y6198940D02*
X23740950Y6172330D01*
X23740950Y6172330D02*
X23740950Y6065892D01*
X23621207Y6331988D02*
X23607902Y6345292D01*
X23607902Y6345292D02*
X23594597Y6371902D01*
X23594597Y6371902D02*
X23594597Y6438426D01*
X23594597Y6438426D02*
X23607902Y6465035D01*
X23607902Y6465035D02*
X23621207Y6478340D01*
X23621207Y6478340D02*
X23647816Y6491645D01*
X23647816Y6491645D02*
X23674426Y6491645D01*
X23674426Y6491645D02*
X23714340Y6478340D01*
X23714340Y6478340D02*
X23873997Y6318683D01*
X23873997Y6318683D02*
X23873997Y6491645D01*
X23687731Y6731130D02*
X23873997Y6731130D01*
X23581293Y6664606D02*
X23780864Y6598083D01*
X23780864Y6598083D02*
X23780864Y6771044D01*
X32715242Y3548941D02*
X32715242Y3349369D01*
X32715242Y3349369D02*
X32701937Y3309455D01*
X32701937Y3309455D02*
X32675328Y3282845D01*
X32675328Y3282845D02*
X32635413Y3269541D01*
X32635413Y3269541D02*
X32608804Y3269541D01*
X32981337Y3548941D02*
X32848289Y3548941D01*
X32848289Y3548941D02*
X32834985Y3415893D01*
X32834985Y3415893D02*
X32848289Y3429198D01*
X32848289Y3429198D02*
X32874899Y3442503D01*
X32874899Y3442503D02*
X32941423Y3442503D01*
X32941423Y3442503D02*
X32968032Y3429198D01*
X32968032Y3429198D02*
X32981337Y3415893D01*
X32981337Y3415893D02*
X32994642Y3389284D01*
X32994642Y3389284D02*
X32994642Y3322760D01*
X32994642Y3322760D02*
X32981337Y3296150D01*
X32981337Y3296150D02*
X32968032Y3282845D01*
X32968032Y3282845D02*
X32941423Y3269541D01*
X32941423Y3269541D02*
X32874899Y3269541D01*
X32874899Y3269541D02*
X32848289Y3282845D01*
X32848289Y3282845D02*
X32834985Y3296150D01*
X39123997Y6235549D02*
X38990950Y6142416D01*
X39123997Y6075892D02*
X38844597Y6075892D01*
X38844597Y6075892D02*
X38844597Y6182330D01*
X38844597Y6182330D02*
X38857902Y6208940D01*
X38857902Y6208940D02*
X38871207Y6222245D01*
X38871207Y6222245D02*
X38897816Y6235549D01*
X38897816Y6235549D02*
X38937731Y6235549D01*
X38937731Y6235549D02*
X38964340Y6222245D01*
X38964340Y6222245D02*
X38977645Y6208940D01*
X38977645Y6208940D02*
X38990950Y6182330D01*
X38990950Y6182330D02*
X38990950Y6075892D01*
X39123997Y6501645D02*
X39123997Y6341988D01*
X39123997Y6421816D02*
X38844597Y6421816D01*
X38844597Y6421816D02*
X38884512Y6395207D01*
X38884512Y6395207D02*
X38911121Y6368597D01*
X38911121Y6368597D02*
X38924426Y6341988D01*
X38871207Y6608083D02*
X38857902Y6621387D01*
X38857902Y6621387D02*
X38844597Y6647997D01*
X38844597Y6647997D02*
X38844597Y6714521D01*
X38844597Y6714521D02*
X38857902Y6741130D01*
X38857902Y6741130D02*
X38871207Y6754435D01*
X38871207Y6754435D02*
X38897816Y6767740D01*
X38897816Y6767740D02*
X38924426Y6767740D01*
X38924426Y6767740D02*
X38964340Y6754435D01*
X38964340Y6754435D02*
X39123997Y6594778D01*
X39123997Y6594778D02*
X39123997Y6767740D01*
X65022194Y4548941D02*
X65022194Y4349369D01*
X65022194Y4349369D02*
X65008889Y4309455D01*
X65008889Y4309455D02*
X64982280Y4282845D01*
X64982280Y4282845D02*
X64942365Y4269541D01*
X64942365Y4269541D02*
X64915756Y4269541D01*
X65301594Y4269541D02*
X65141937Y4269541D01*
X65221765Y4269541D02*
X65221765Y4548941D01*
X65221765Y4548941D02*
X65195156Y4509026D01*
X65195156Y4509026D02*
X65168546Y4482417D01*
X65168546Y4482417D02*
X65141937Y4469112D01*
X65394727Y4548941D02*
X65567689Y4548941D01*
X65567689Y4548941D02*
X65474555Y4442503D01*
X65474555Y4442503D02*
X65514470Y4442503D01*
X65514470Y4442503D02*
X65541079Y4429198D01*
X65541079Y4429198D02*
X65554384Y4415893D01*
X65554384Y4415893D02*
X65567689Y4389284D01*
X65567689Y4389284D02*
X65567689Y4322760D01*
X65567689Y4322760D02*
X65554384Y4296150D01*
X65554384Y4296150D02*
X65541079Y4282845D01*
X65541079Y4282845D02*
X65514470Y4269541D01*
X65514470Y4269541D02*
X65434641Y4269541D01*
X65434641Y4269541D02*
X65408032Y4282845D01*
X65408032Y4282845D02*
X65394727Y4296150D01*
X85068760Y28269541D02*
X84975627Y28402588D01*
X84909103Y28269541D02*
X84909103Y28548941D01*
X84909103Y28548941D02*
X85015541Y28548941D01*
X85015541Y28548941D02*
X85042151Y28535636D01*
X85042151Y28535636D02*
X85055456Y28522331D01*
X85055456Y28522331D02*
X85068760Y28495722D01*
X85068760Y28495722D02*
X85068760Y28455807D01*
X85068760Y28455807D02*
X85055456Y28429198D01*
X85055456Y28429198D02*
X85042151Y28415893D01*
X85042151Y28415893D02*
X85015541Y28402588D01*
X85015541Y28402588D02*
X84909103Y28402588D01*
X85161894Y28548941D02*
X85334856Y28548941D01*
X85334856Y28548941D02*
X85241722Y28442503D01*
X85241722Y28442503D02*
X85281637Y28442503D01*
X85281637Y28442503D02*
X85308246Y28429198D01*
X85308246Y28429198D02*
X85321551Y28415893D01*
X85321551Y28415893D02*
X85334856Y28389284D01*
X85334856Y28389284D02*
X85334856Y28322760D01*
X85334856Y28322760D02*
X85321551Y28296150D01*
X85321551Y28296150D02*
X85308246Y28282845D01*
X85308246Y28282845D02*
X85281637Y28269541D01*
X85281637Y28269541D02*
X85201808Y28269541D01*
X85201808Y28269541D02*
X85175199Y28282845D01*
X85175199Y28282845D02*
X85161894Y28296150D01*
X85467903Y28269541D02*
X85521122Y28269541D01*
X85521122Y28269541D02*
X85547732Y28282845D01*
X85547732Y28282845D02*
X85561036Y28296150D01*
X85561036Y28296150D02*
X85587646Y28336065D01*
X85587646Y28336065D02*
X85600951Y28389284D01*
X85600951Y28389284D02*
X85600951Y28495722D01*
X85600951Y28495722D02*
X85587646Y28522331D01*
X85587646Y28522331D02*
X85574341Y28535636D01*
X85574341Y28535636D02*
X85547732Y28548941D01*
X85547732Y28548941D02*
X85494513Y28548941D01*
X85494513Y28548941D02*
X85467903Y28535636D01*
X85467903Y28535636D02*
X85454598Y28522331D01*
X85454598Y28522331D02*
X85441294Y28495722D01*
X85441294Y28495722D02*
X85441294Y28429198D01*
X85441294Y28429198D02*
X85454598Y28402588D01*
X85454598Y28402588D02*
X85467903Y28389284D01*
X85467903Y28389284D02*
X85494513Y28375979D01*
X85494513Y28375979D02*
X85547732Y28375979D01*
X85547732Y28375979D02*
X85574341Y28389284D01*
X85574341Y28389284D02*
X85587646Y28402588D01*
X85587646Y28402588D02*
X85600951Y28429198D01*
X28873997Y6205549D02*
X28740950Y6112416D01*
X28873997Y6045892D02*
X28594597Y6045892D01*
X28594597Y6045892D02*
X28594597Y6152330D01*
X28594597Y6152330D02*
X28607902Y6178940D01*
X28607902Y6178940D02*
X28621207Y6192245D01*
X28621207Y6192245D02*
X28647816Y6205549D01*
X28647816Y6205549D02*
X28687731Y6205549D01*
X28687731Y6205549D02*
X28714340Y6192245D01*
X28714340Y6192245D02*
X28727645Y6178940D01*
X28727645Y6178940D02*
X28740950Y6152330D01*
X28740950Y6152330D02*
X28740950Y6045892D01*
X28873997Y6471645D02*
X28873997Y6311988D01*
X28873997Y6391816D02*
X28594597Y6391816D01*
X28594597Y6391816D02*
X28634512Y6365207D01*
X28634512Y6365207D02*
X28661121Y6338597D01*
X28661121Y6338597D02*
X28674426Y6311988D01*
X28594597Y6711130D02*
X28594597Y6657911D01*
X28594597Y6657911D02*
X28607902Y6631302D01*
X28607902Y6631302D02*
X28621207Y6617997D01*
X28621207Y6617997D02*
X28661121Y6591387D01*
X28661121Y6591387D02*
X28714340Y6578083D01*
X28714340Y6578083D02*
X28820778Y6578083D01*
X28820778Y6578083D02*
X28847388Y6591387D01*
X28847388Y6591387D02*
X28860693Y6604692D01*
X28860693Y6604692D02*
X28873997Y6631302D01*
X28873997Y6631302D02*
X28873997Y6684521D01*
X28873997Y6684521D02*
X28860693Y6711130D01*
X28860693Y6711130D02*
X28847388Y6724435D01*
X28847388Y6724435D02*
X28820778Y6737740D01*
X28820778Y6737740D02*
X28754254Y6737740D01*
X28754254Y6737740D02*
X28727645Y6724435D01*
X28727645Y6724435D02*
X28714340Y6711130D01*
X28714340Y6711130D02*
X28701035Y6684521D01*
X28701035Y6684521D02*
X28701035Y6631302D01*
X28701035Y6631302D02*
X28714340Y6604692D01*
X28714340Y6604692D02*
X28727645Y6591387D01*
X28727645Y6591387D02*
X28754254Y6578083D01*
X21785498Y39048941D02*
X21785498Y38822760D01*
X21785498Y38822760D02*
X21798803Y38796150D01*
X21798803Y38796150D02*
X21812108Y38782845D01*
X21812108Y38782845D02*
X21838717Y38769541D01*
X21838717Y38769541D02*
X21891936Y38769541D01*
X21891936Y38769541D02*
X21918546Y38782845D01*
X21918546Y38782845D02*
X21931851Y38796150D01*
X21931851Y38796150D02*
X21945155Y38822760D01*
X21945155Y38822760D02*
X21945155Y39048941D01*
X22064899Y39022331D02*
X22078203Y39035636D01*
X22078203Y39035636D02*
X22104813Y39048941D01*
X22104813Y39048941D02*
X22171337Y39048941D01*
X22171337Y39048941D02*
X22197946Y39035636D01*
X22197946Y39035636D02*
X22211251Y39022331D01*
X22211251Y39022331D02*
X22224556Y38995722D01*
X22224556Y38995722D02*
X22224556Y38969112D01*
X22224556Y38969112D02*
X22211251Y38929198D01*
X22211251Y38929198D02*
X22051594Y38769541D01*
X22051594Y38769541D02*
X22224556Y38769541D01*
X31373997Y6205549D02*
X31240950Y6112416D01*
X31373997Y6045892D02*
X31094597Y6045892D01*
X31094597Y6045892D02*
X31094597Y6152330D01*
X31094597Y6152330D02*
X31107902Y6178940D01*
X31107902Y6178940D02*
X31121207Y6192245D01*
X31121207Y6192245D02*
X31147816Y6205549D01*
X31147816Y6205549D02*
X31187731Y6205549D01*
X31187731Y6205549D02*
X31214340Y6192245D01*
X31214340Y6192245D02*
X31227645Y6178940D01*
X31227645Y6178940D02*
X31240950Y6152330D01*
X31240950Y6152330D02*
X31240950Y6045892D01*
X31373997Y6471645D02*
X31373997Y6311988D01*
X31373997Y6391816D02*
X31094597Y6391816D01*
X31094597Y6391816D02*
X31134512Y6365207D01*
X31134512Y6365207D02*
X31161121Y6338597D01*
X31161121Y6338597D02*
X31174426Y6311988D01*
X31094597Y6724435D02*
X31094597Y6591387D01*
X31094597Y6591387D02*
X31227645Y6578083D01*
X31227645Y6578083D02*
X31214340Y6591387D01*
X31214340Y6591387D02*
X31201035Y6617997D01*
X31201035Y6617997D02*
X31201035Y6684521D01*
X31201035Y6684521D02*
X31214340Y6711130D01*
X31214340Y6711130D02*
X31227645Y6724435D01*
X31227645Y6724435D02*
X31254254Y6737740D01*
X31254254Y6737740D02*
X31320778Y6737740D01*
X31320778Y6737740D02*
X31347388Y6724435D01*
X31347388Y6724435D02*
X31360693Y6711130D01*
X31360693Y6711130D02*
X31373997Y6684521D01*
X31373997Y6684521D02*
X31373997Y6617997D01*
X31373997Y6617997D02*
X31360693Y6591387D01*
X31360693Y6591387D02*
X31347388Y6578083D01*
X26155242Y54548941D02*
X26155242Y54349369D01*
X26155242Y54349369D02*
X26141937Y54309455D01*
X26141937Y54309455D02*
X26115328Y54282845D01*
X26115328Y54282845D02*
X26075413Y54269541D01*
X26075413Y54269541D02*
X26048804Y54269541D01*
X26261680Y54548941D02*
X26447946Y54548941D01*
X26447946Y54548941D02*
X26328204Y54269541D01*
X41873997Y6225549D02*
X41740950Y6132416D01*
X41873997Y6065892D02*
X41594597Y6065892D01*
X41594597Y6065892D02*
X41594597Y6172330D01*
X41594597Y6172330D02*
X41607902Y6198940D01*
X41607902Y6198940D02*
X41621207Y6212245D01*
X41621207Y6212245D02*
X41647816Y6225549D01*
X41647816Y6225549D02*
X41687731Y6225549D01*
X41687731Y6225549D02*
X41714340Y6212245D01*
X41714340Y6212245D02*
X41727645Y6198940D01*
X41727645Y6198940D02*
X41740950Y6172330D01*
X41740950Y6172330D02*
X41740950Y6065892D01*
X41873997Y6491645D02*
X41873997Y6331988D01*
X41873997Y6411816D02*
X41594597Y6411816D01*
X41594597Y6411816D02*
X41634512Y6385207D01*
X41634512Y6385207D02*
X41661121Y6358597D01*
X41661121Y6358597D02*
X41674426Y6331988D01*
X41873997Y6757740D02*
X41873997Y6598083D01*
X41873997Y6677911D02*
X41594597Y6677911D01*
X41594597Y6677911D02*
X41634512Y6651302D01*
X41634512Y6651302D02*
X41661121Y6624692D01*
X41661121Y6624692D02*
X41674426Y6598083D01*
X49655242Y54048941D02*
X49655242Y53849369D01*
X49655242Y53849369D02*
X49641937Y53809455D01*
X49641937Y53809455D02*
X49615328Y53782845D01*
X49615328Y53782845D02*
X49575413Y53769541D01*
X49575413Y53769541D02*
X49548804Y53769541D01*
X49774985Y54022331D02*
X49788289Y54035636D01*
X49788289Y54035636D02*
X49814899Y54048941D01*
X49814899Y54048941D02*
X49881423Y54048941D01*
X49881423Y54048941D02*
X49908032Y54035636D01*
X49908032Y54035636D02*
X49921337Y54022331D01*
X49921337Y54022331D02*
X49934642Y53995722D01*
X49934642Y53995722D02*
X49934642Y53969112D01*
X49934642Y53969112D02*
X49921337Y53929198D01*
X49921337Y53929198D02*
X49761680Y53769541D01*
X49761680Y53769541D02*
X49934642Y53769541D01*
X28738545Y15486114D02*
X28605498Y15392981D01*
X28738545Y15326457D02*
X28459145Y15326457D01*
X28459145Y15326457D02*
X28459145Y15432895D01*
X28459145Y15432895D02*
X28472450Y15459505D01*
X28472450Y15459505D02*
X28485755Y15472810D01*
X28485755Y15472810D02*
X28512364Y15486114D01*
X28512364Y15486114D02*
X28552279Y15486114D01*
X28552279Y15486114D02*
X28578888Y15472810D01*
X28578888Y15472810D02*
X28592193Y15459505D01*
X28592193Y15459505D02*
X28605498Y15432895D01*
X28605498Y15432895D02*
X28605498Y15326457D01*
X28459145Y15579248D02*
X28459145Y15752210D01*
X28459145Y15752210D02*
X28565583Y15659076D01*
X28565583Y15659076D02*
X28565583Y15698991D01*
X28565583Y15698991D02*
X28578888Y15725600D01*
X28578888Y15725600D02*
X28592193Y15738905D01*
X28592193Y15738905D02*
X28618802Y15752210D01*
X28618802Y15752210D02*
X28685326Y15752210D01*
X28685326Y15752210D02*
X28711936Y15738905D01*
X28711936Y15738905D02*
X28725241Y15725600D01*
X28725241Y15725600D02*
X28738545Y15698991D01*
X28738545Y15698991D02*
X28738545Y15619162D01*
X28738545Y15619162D02*
X28725241Y15592553D01*
X28725241Y15592553D02*
X28711936Y15579248D01*
X28701808Y33796150D02*
X28688504Y33782845D01*
X28688504Y33782845D02*
X28648589Y33769541D01*
X28648589Y33769541D02*
X28621980Y33769541D01*
X28621980Y33769541D02*
X28582066Y33782845D01*
X28582066Y33782845D02*
X28555456Y33809455D01*
X28555456Y33809455D02*
X28542151Y33836065D01*
X28542151Y33836065D02*
X28528847Y33889284D01*
X28528847Y33889284D02*
X28528847Y33929198D01*
X28528847Y33929198D02*
X28542151Y33982417D01*
X28542151Y33982417D02*
X28555456Y34009026D01*
X28555456Y34009026D02*
X28582066Y34035636D01*
X28582066Y34035636D02*
X28621980Y34048941D01*
X28621980Y34048941D02*
X28648589Y34048941D01*
X28648589Y34048941D02*
X28688504Y34035636D01*
X28688504Y34035636D02*
X28701808Y34022331D01*
X28861466Y33929198D02*
X28834856Y33942503D01*
X28834856Y33942503D02*
X28821551Y33955807D01*
X28821551Y33955807D02*
X28808247Y33982417D01*
X28808247Y33982417D02*
X28808247Y33995722D01*
X28808247Y33995722D02*
X28821551Y34022331D01*
X28821551Y34022331D02*
X28834856Y34035636D01*
X28834856Y34035636D02*
X28861466Y34048941D01*
X28861466Y34048941D02*
X28914685Y34048941D01*
X28914685Y34048941D02*
X28941294Y34035636D01*
X28941294Y34035636D02*
X28954599Y34022331D01*
X28954599Y34022331D02*
X28967904Y33995722D01*
X28967904Y33995722D02*
X28967904Y33982417D01*
X28967904Y33982417D02*
X28954599Y33955807D01*
X28954599Y33955807D02*
X28941294Y33942503D01*
X28941294Y33942503D02*
X28914685Y33929198D01*
X28914685Y33929198D02*
X28861466Y33929198D01*
X28861466Y33929198D02*
X28834856Y33915893D01*
X28834856Y33915893D02*
X28821551Y33902588D01*
X28821551Y33902588D02*
X28808247Y33875979D01*
X28808247Y33875979D02*
X28808247Y33822760D01*
X28808247Y33822760D02*
X28821551Y33796150D01*
X28821551Y33796150D02*
X28834856Y33782845D01*
X28834856Y33782845D02*
X28861466Y33769541D01*
X28861466Y33769541D02*
X28914685Y33769541D01*
X28914685Y33769541D02*
X28941294Y33782845D01*
X28941294Y33782845D02*
X28954599Y33796150D01*
X28954599Y33796150D02*
X28967904Y33822760D01*
X28967904Y33822760D02*
X28967904Y33875979D01*
X28967904Y33875979D02*
X28954599Y33902588D01*
X28954599Y33902588D02*
X28941294Y33915893D01*
X28941294Y33915893D02*
X28914685Y33929198D01*
X3844597Y27992031D02*
X4044169Y27992031D01*
X4044169Y27992031D02*
X4084083Y27978726D01*
X4084083Y27978726D02*
X4110693Y27952117D01*
X4110693Y27952117D02*
X4123997Y27912202D01*
X4123997Y27912202D02*
X4123997Y27885593D01*
X3964340Y28164993D02*
X3951035Y28138383D01*
X3951035Y28138383D02*
X3937731Y28125078D01*
X3937731Y28125078D02*
X3911121Y28111774D01*
X3911121Y28111774D02*
X3897816Y28111774D01*
X3897816Y28111774D02*
X3871207Y28125078D01*
X3871207Y28125078D02*
X3857902Y28138383D01*
X3857902Y28138383D02*
X3844597Y28164993D01*
X3844597Y28164993D02*
X3844597Y28218212D01*
X3844597Y28218212D02*
X3857902Y28244821D01*
X3857902Y28244821D02*
X3871207Y28258126D01*
X3871207Y28258126D02*
X3897816Y28271431D01*
X3897816Y28271431D02*
X3911121Y28271431D01*
X3911121Y28271431D02*
X3937731Y28258126D01*
X3937731Y28258126D02*
X3951035Y28244821D01*
X3951035Y28244821D02*
X3964340Y28218212D01*
X3964340Y28218212D02*
X3964340Y28164993D01*
X3964340Y28164993D02*
X3977645Y28138383D01*
X3977645Y28138383D02*
X3990950Y28125078D01*
X3990950Y28125078D02*
X4017559Y28111774D01*
X4017559Y28111774D02*
X4070778Y28111774D01*
X4070778Y28111774D02*
X4097388Y28125078D01*
X4097388Y28125078D02*
X4110693Y28138383D01*
X4110693Y28138383D02*
X4123997Y28164993D01*
X4123997Y28164993D02*
X4123997Y28218212D01*
X4123997Y28218212D02*
X4110693Y28244821D01*
X4110693Y28244821D02*
X4097388Y28258126D01*
X4097388Y28258126D02*
X4070778Y28271431D01*
X4070778Y28271431D02*
X4017559Y28271431D01*
X4017559Y28271431D02*
X3990950Y28258126D01*
X3990950Y28258126D02*
X3977645Y28244821D01*
X3977645Y28244821D02*
X3964340Y28218212D01*
X28123997Y33184778D02*
X27990950Y33277911D01*
X28123997Y33344435D02*
X27844597Y33344435D01*
X27844597Y33344435D02*
X27844597Y33237997D01*
X27844597Y33237997D02*
X27857902Y33211387D01*
X27857902Y33211387D02*
X27871207Y33198082D01*
X27871207Y33198082D02*
X27897816Y33184778D01*
X27897816Y33184778D02*
X27937731Y33184778D01*
X27937731Y33184778D02*
X27964340Y33198082D01*
X27964340Y33198082D02*
X27977645Y33211387D01*
X27977645Y33211387D02*
X27990950Y33237997D01*
X27990950Y33237997D02*
X27990950Y33344435D01*
X28123997Y32918682D02*
X28123997Y33078339D01*
X28123997Y32998511D02*
X27844597Y32998511D01*
X27844597Y32998511D02*
X27884512Y33025120D01*
X27884512Y33025120D02*
X27911121Y33051730D01*
X27911121Y33051730D02*
X27924426Y33078339D01*
X27844597Y32745721D02*
X27844597Y32719111D01*
X27844597Y32719111D02*
X27857902Y32692502D01*
X27857902Y32692502D02*
X27871207Y32679197D01*
X27871207Y32679197D02*
X27897816Y32665892D01*
X27897816Y32665892D02*
X27951035Y32652587D01*
X27951035Y32652587D02*
X28017559Y32652587D01*
X28017559Y32652587D02*
X28070778Y32665892D01*
X28070778Y32665892D02*
X28097388Y32679197D01*
X28097388Y32679197D02*
X28110693Y32692502D01*
X28110693Y32692502D02*
X28123997Y32719111D01*
X28123997Y32719111D02*
X28123997Y32745721D01*
X28123997Y32745721D02*
X28110693Y32772330D01*
X28110693Y32772330D02*
X28097388Y32785635D01*
X28097388Y32785635D02*
X28070778Y32798940D01*
X28070778Y32798940D02*
X28017559Y32812244D01*
X28017559Y32812244D02*
X27951035Y32812244D01*
X27951035Y32812244D02*
X27897816Y32798940D01*
X27897816Y32798940D02*
X27871207Y32785635D01*
X27871207Y32785635D02*
X27857902Y32772330D01*
X27857902Y32772330D02*
X27844597Y32745721D01*
X56097388Y38441730D02*
X56110693Y38455034D01*
X56110693Y38455034D02*
X56123997Y38494949D01*
X56123997Y38494949D02*
X56123997Y38521558D01*
X56123997Y38521558D02*
X56110693Y38561472D01*
X56110693Y38561472D02*
X56084083Y38588082D01*
X56084083Y38588082D02*
X56057473Y38601387D01*
X56057473Y38601387D02*
X56004254Y38614691D01*
X56004254Y38614691D02*
X55964340Y38614691D01*
X55964340Y38614691D02*
X55911121Y38601387D01*
X55911121Y38601387D02*
X55884512Y38588082D01*
X55884512Y38588082D02*
X55857902Y38561472D01*
X55857902Y38561472D02*
X55844597Y38521558D01*
X55844597Y38521558D02*
X55844597Y38494949D01*
X55844597Y38494949D02*
X55857902Y38455034D01*
X55857902Y38455034D02*
X55871207Y38441730D01*
X55844597Y38188939D02*
X55844597Y38321987D01*
X55844597Y38321987D02*
X55977645Y38335291D01*
X55977645Y38335291D02*
X55964340Y38321987D01*
X55964340Y38321987D02*
X55951035Y38295377D01*
X55951035Y38295377D02*
X55951035Y38228853D01*
X55951035Y38228853D02*
X55964340Y38202244D01*
X55964340Y38202244D02*
X55977645Y38188939D01*
X55977645Y38188939D02*
X56004254Y38175634D01*
X56004254Y38175634D02*
X56070778Y38175634D01*
X56070778Y38175634D02*
X56097388Y38188939D01*
X56097388Y38188939D02*
X56110693Y38202244D01*
X56110693Y38202244D02*
X56123997Y38228853D01*
X56123997Y38228853D02*
X56123997Y38295377D01*
X56123997Y38295377D02*
X56110693Y38321987D01*
X56110693Y38321987D02*
X56097388Y38335291D01*
X57373997Y55178587D02*
X57094597Y55178587D01*
X57094597Y55178587D02*
X57094597Y55072149D01*
X57094597Y55072149D02*
X57107902Y55045539D01*
X57107902Y55045539D02*
X57121207Y55032234D01*
X57121207Y55032234D02*
X57147816Y55018930D01*
X57147816Y55018930D02*
X57187731Y55018930D01*
X57187731Y55018930D02*
X57214340Y55032234D01*
X57214340Y55032234D02*
X57227645Y55045539D01*
X57227645Y55045539D02*
X57240950Y55072149D01*
X57240950Y55072149D02*
X57240950Y55178587D01*
X57373997Y54899187D02*
X57094597Y54899187D01*
X57094597Y54899187D02*
X57094597Y54832663D01*
X57094597Y54832663D02*
X57107902Y54792749D01*
X57107902Y54792749D02*
X57134512Y54766139D01*
X57134512Y54766139D02*
X57161121Y54752834D01*
X57161121Y54752834D02*
X57214340Y54739530D01*
X57214340Y54739530D02*
X57254254Y54739530D01*
X57254254Y54739530D02*
X57307473Y54752834D01*
X57307473Y54752834D02*
X57334083Y54766139D01*
X57334083Y54766139D02*
X57360693Y54792749D01*
X57360693Y54792749D02*
X57373997Y54832663D01*
X57373997Y54832663D02*
X57373997Y54899187D01*
X57373997Y54473434D02*
X57373997Y54633091D01*
X57373997Y54553263D02*
X57094597Y54553263D01*
X57094597Y54553263D02*
X57134512Y54579872D01*
X57134512Y54579872D02*
X57161121Y54606482D01*
X57161121Y54606482D02*
X57174426Y54633091D01*
X59794941Y52207041D02*
X59888074Y52340088D01*
X59954598Y52207041D02*
X59954598Y52486441D01*
X59954598Y52486441D02*
X59848160Y52486441D01*
X59848160Y52486441D02*
X59821550Y52473136D01*
X59821550Y52473136D02*
X59808245Y52459831D01*
X59808245Y52459831D02*
X59794941Y52433222D01*
X59794941Y52433222D02*
X59794941Y52393307D01*
X59794941Y52393307D02*
X59808245Y52366698D01*
X59808245Y52366698D02*
X59821550Y52353393D01*
X59821550Y52353393D02*
X59848160Y52340088D01*
X59848160Y52340088D02*
X59954598Y52340088D01*
X59635283Y52366698D02*
X59661893Y52380003D01*
X59661893Y52380003D02*
X59675198Y52393307D01*
X59675198Y52393307D02*
X59688502Y52419917D01*
X59688502Y52419917D02*
X59688502Y52433222D01*
X59688502Y52433222D02*
X59675198Y52459831D01*
X59675198Y52459831D02*
X59661893Y52473136D01*
X59661893Y52473136D02*
X59635283Y52486441D01*
X59635283Y52486441D02*
X59582064Y52486441D01*
X59582064Y52486441D02*
X59555455Y52473136D01*
X59555455Y52473136D02*
X59542150Y52459831D01*
X59542150Y52459831D02*
X59528845Y52433222D01*
X59528845Y52433222D02*
X59528845Y52419917D01*
X59528845Y52419917D02*
X59542150Y52393307D01*
X59542150Y52393307D02*
X59555455Y52380003D01*
X59555455Y52380003D02*
X59582064Y52366698D01*
X59582064Y52366698D02*
X59635283Y52366698D01*
X59635283Y52366698D02*
X59661893Y52353393D01*
X59661893Y52353393D02*
X59675198Y52340088D01*
X59675198Y52340088D02*
X59688502Y52313479D01*
X59688502Y52313479D02*
X59688502Y52260260D01*
X59688502Y52260260D02*
X59675198Y52233650D01*
X59675198Y52233650D02*
X59661893Y52220345D01*
X59661893Y52220345D02*
X59635283Y52207041D01*
X59635283Y52207041D02*
X59582064Y52207041D01*
X59582064Y52207041D02*
X59555455Y52220345D01*
X59555455Y52220345D02*
X59542150Y52233650D01*
X59542150Y52233650D02*
X59528845Y52260260D01*
X59528845Y52260260D02*
X59528845Y52313479D01*
X59528845Y52313479D02*
X59542150Y52340088D01*
X59542150Y52340088D02*
X59555455Y52353393D01*
X59555455Y52353393D02*
X59582064Y52366698D01*
X62294941Y38806150D02*
X62308245Y38792845D01*
X62308245Y38792845D02*
X62348160Y38779541D01*
X62348160Y38779541D02*
X62374769Y38779541D01*
X62374769Y38779541D02*
X62414683Y38792845D01*
X62414683Y38792845D02*
X62441293Y38819455D01*
X62441293Y38819455D02*
X62454598Y38846065D01*
X62454598Y38846065D02*
X62467902Y38899284D01*
X62467902Y38899284D02*
X62467902Y38939198D01*
X62467902Y38939198D02*
X62454598Y38992417D01*
X62454598Y38992417D02*
X62441293Y39019026D01*
X62441293Y39019026D02*
X62414683Y39045636D01*
X62414683Y39045636D02*
X62374769Y39058941D01*
X62374769Y39058941D02*
X62348160Y39058941D01*
X62348160Y39058941D02*
X62308245Y39045636D01*
X62308245Y39045636D02*
X62294941Y39032331D01*
X62201807Y39058941D02*
X62028845Y39058941D01*
X62028845Y39058941D02*
X62121979Y38952503D01*
X62121979Y38952503D02*
X62082064Y38952503D01*
X62082064Y38952503D02*
X62055455Y38939198D01*
X62055455Y38939198D02*
X62042150Y38925893D01*
X62042150Y38925893D02*
X62028845Y38899284D01*
X62028845Y38899284D02*
X62028845Y38832760D01*
X62028845Y38832760D02*
X62042150Y38806150D01*
X62042150Y38806150D02*
X62055455Y38792845D01*
X62055455Y38792845D02*
X62082064Y38779541D01*
X62082064Y38779541D02*
X62161893Y38779541D01*
X62161893Y38779541D02*
X62188502Y38792845D01*
X62188502Y38792845D02*
X62201807Y38806150D01*
X57294941Y52207041D02*
X57388074Y52340088D01*
X57454598Y52207041D02*
X57454598Y52486441D01*
X57454598Y52486441D02*
X57348160Y52486441D01*
X57348160Y52486441D02*
X57321550Y52473136D01*
X57321550Y52473136D02*
X57308245Y52459831D01*
X57308245Y52459831D02*
X57294941Y52433222D01*
X57294941Y52433222D02*
X57294941Y52393307D01*
X57294941Y52393307D02*
X57308245Y52366698D01*
X57308245Y52366698D02*
X57321550Y52353393D01*
X57321550Y52353393D02*
X57348160Y52340088D01*
X57348160Y52340088D02*
X57454598Y52340088D01*
X57201807Y52486441D02*
X57015541Y52486441D01*
X57015541Y52486441D02*
X57135283Y52207041D01*
X59344597Y44358040D02*
X59570778Y44358040D01*
X59570778Y44358040D02*
X59597388Y44344735D01*
X59597388Y44344735D02*
X59610693Y44331430D01*
X59610693Y44331430D02*
X59623997Y44304821D01*
X59623997Y44304821D02*
X59623997Y44251602D01*
X59623997Y44251602D02*
X59610693Y44224992D01*
X59610693Y44224992D02*
X59597388Y44211687D01*
X59597388Y44211687D02*
X59570778Y44198383D01*
X59570778Y44198383D02*
X59344597Y44198383D01*
X59623997Y43918982D02*
X59623997Y44078639D01*
X59623997Y43998811D02*
X59344597Y43998811D01*
X59344597Y43998811D02*
X59384512Y44025420D01*
X59384512Y44025420D02*
X59411121Y44052030D01*
X59411121Y44052030D02*
X59424426Y44078639D01*
X59873997Y55178587D02*
X59594597Y55178587D01*
X59594597Y55178587D02*
X59594597Y55072149D01*
X59594597Y55072149D02*
X59607902Y55045539D01*
X59607902Y55045539D02*
X59621207Y55032234D01*
X59621207Y55032234D02*
X59647816Y55018930D01*
X59647816Y55018930D02*
X59687731Y55018930D01*
X59687731Y55018930D02*
X59714340Y55032234D01*
X59714340Y55032234D02*
X59727645Y55045539D01*
X59727645Y55045539D02*
X59740950Y55072149D01*
X59740950Y55072149D02*
X59740950Y55178587D01*
X59873997Y54899187D02*
X59594597Y54899187D01*
X59594597Y54899187D02*
X59594597Y54832663D01*
X59594597Y54832663D02*
X59607902Y54792749D01*
X59607902Y54792749D02*
X59634512Y54766139D01*
X59634512Y54766139D02*
X59661121Y54752834D01*
X59661121Y54752834D02*
X59714340Y54739530D01*
X59714340Y54739530D02*
X59754254Y54739530D01*
X59754254Y54739530D02*
X59807473Y54752834D01*
X59807473Y54752834D02*
X59834083Y54766139D01*
X59834083Y54766139D02*
X59860693Y54792749D01*
X59860693Y54792749D02*
X59873997Y54832663D01*
X59873997Y54832663D02*
X59873997Y54899187D01*
X59621207Y54633091D02*
X59607902Y54619787D01*
X59607902Y54619787D02*
X59594597Y54593177D01*
X59594597Y54593177D02*
X59594597Y54526653D01*
X59594597Y54526653D02*
X59607902Y54500044D01*
X59607902Y54500044D02*
X59621207Y54486739D01*
X59621207Y54486739D02*
X59647816Y54473434D01*
X59647816Y54473434D02*
X59674426Y54473434D01*
X59674426Y54473434D02*
X59714340Y54486739D01*
X59714340Y54486739D02*
X59873997Y54646396D01*
X59873997Y54646396D02*
X59873997Y54473434D01*
X27373997Y34941730D02*
X27240950Y35034863D01*
X27373997Y35101387D02*
X27094597Y35101387D01*
X27094597Y35101387D02*
X27094597Y34994949D01*
X27094597Y34994949D02*
X27107902Y34968339D01*
X27107902Y34968339D02*
X27121207Y34955034D01*
X27121207Y34955034D02*
X27147816Y34941730D01*
X27147816Y34941730D02*
X27187731Y34941730D01*
X27187731Y34941730D02*
X27214340Y34955034D01*
X27214340Y34955034D02*
X27227645Y34968339D01*
X27227645Y34968339D02*
X27240950Y34994949D01*
X27240950Y34994949D02*
X27240950Y35101387D01*
X27373997Y34808682D02*
X27373997Y34755463D01*
X27373997Y34755463D02*
X27360693Y34728853D01*
X27360693Y34728853D02*
X27347388Y34715549D01*
X27347388Y34715549D02*
X27307473Y34688939D01*
X27307473Y34688939D02*
X27254254Y34675634D01*
X27254254Y34675634D02*
X27147816Y34675634D01*
X27147816Y34675634D02*
X27121207Y34688939D01*
X27121207Y34688939D02*
X27107902Y34702244D01*
X27107902Y34702244D02*
X27094597Y34728853D01*
X27094597Y34728853D02*
X27094597Y34782072D01*
X27094597Y34782072D02*
X27107902Y34808682D01*
X27107902Y34808682D02*
X27121207Y34821987D01*
X27121207Y34821987D02*
X27147816Y34835291D01*
X27147816Y34835291D02*
X27214340Y34835291D01*
X27214340Y34835291D02*
X27240950Y34821987D01*
X27240950Y34821987D02*
X27254254Y34808682D01*
X27254254Y34808682D02*
X27267559Y34782072D01*
X27267559Y34782072D02*
X27267559Y34728853D01*
X27267559Y34728853D02*
X27254254Y34702244D01*
X27254254Y34702244D02*
X27240950Y34688939D01*
X27240950Y34688939D02*
X27214340Y34675634D01*
X82568760Y28619541D02*
X82475627Y28752588D01*
X82409103Y28619541D02*
X82409103Y28898941D01*
X82409103Y28898941D02*
X82515541Y28898941D01*
X82515541Y28898941D02*
X82542151Y28885636D01*
X82542151Y28885636D02*
X82555456Y28872331D01*
X82555456Y28872331D02*
X82568760Y28845722D01*
X82568760Y28845722D02*
X82568760Y28805807D01*
X82568760Y28805807D02*
X82555456Y28779198D01*
X82555456Y28779198D02*
X82542151Y28765893D01*
X82542151Y28765893D02*
X82515541Y28752588D01*
X82515541Y28752588D02*
X82409103Y28752588D01*
X82675199Y28872331D02*
X82688503Y28885636D01*
X82688503Y28885636D02*
X82715113Y28898941D01*
X82715113Y28898941D02*
X82781637Y28898941D01*
X82781637Y28898941D02*
X82808246Y28885636D01*
X82808246Y28885636D02*
X82821551Y28872331D01*
X82821551Y28872331D02*
X82834856Y28845722D01*
X82834856Y28845722D02*
X82834856Y28819112D01*
X82834856Y28819112D02*
X82821551Y28779198D01*
X82821551Y28779198D02*
X82661894Y28619541D01*
X82661894Y28619541D02*
X82834856Y28619541D01*
X82927989Y28898941D02*
X83114255Y28898941D01*
X83114255Y28898941D02*
X82994513Y28619541D01*
D14*
X13878375Y33250163D02*
X13878375Y30600163D01*
X11118375Y30600163D02*
X13878375Y30600163D01*
X11118375Y33250163D02*
X13878375Y33250163D01*
X11118375Y33250163D02*
X11118375Y30600163D01*
X11118375Y34520163D02*
X11118375Y35900163D01*
X11118375Y35900163D02*
X12498375Y35900163D01*
X9628375Y33265163D02*
X9628375Y30615163D01*
X6868375Y30615163D02*
X9628375Y30615163D01*
X6868375Y33265163D02*
X9628375Y33265163D01*
X6868375Y33265163D02*
X6868375Y30615163D01*
X6868375Y34535163D02*
X6868375Y35915163D01*
X6868375Y35915163D02*
X8248375Y35915163D01*
X15902016Y23865163D02*
X15594734Y23865163D01*
X15902016Y24625163D02*
X15594734Y24625163D01*
X12628375Y27875163D02*
X12628375Y26495163D01*
X11248375Y27875163D02*
X12628375Y27875163D01*
X9978375Y27875163D02*
X7328375Y27875163D01*
X9978375Y27875163D02*
X9978375Y25115163D01*
X7328375Y27875163D02*
X7328375Y25115163D01*
X9978375Y25115163D02*
X7328375Y25115163D01*
X82856211Y35605163D02*
X82640539Y35605163D01*
X82856211Y34885163D02*
X82640539Y34885163D01*
X82626211Y40105163D02*
X82410539Y40105163D01*
X82626211Y39385163D02*
X82410539Y39385163D01*
X85878375Y32091522D02*
X85878375Y32398804D01*
X85118375Y32091522D02*
X85118375Y32398804D01*
X82902016Y37875163D02*
X82594734Y37875163D01*
X82902016Y37115163D02*
X82594734Y37115163D01*
X67388375Y25352999D02*
X67388375Y25137327D01*
X68108375Y25352999D02*
X68108375Y25137327D01*
X68104734Y26615163D02*
X68412016Y26615163D01*
X68104734Y27375163D02*
X68412016Y27375163D01*
X84888375Y44372999D02*
X84888375Y44157327D01*
X85608375Y44372999D02*
X85608375Y44157327D01*
X69618375Y34648804D02*
X69618375Y34341522D01*
X70378375Y34648804D02*
X70378375Y34341522D01*
X67618375Y33398804D02*
X67618375Y33091522D01*
X68378375Y33398804D02*
X68378375Y33091522D01*
X77253375Y43445163D02*
G75*
G02*
X75253375Y43445163I-1000000J0D01*
G01*
X78903375Y25545163D02*
X78903375Y43445163D01*
X78903375Y43445163D02*
X77253375Y43445163D01*
X75253375Y43445163D02*
X73603375Y43445163D01*
X73603375Y25545163D02*
X78903375Y25545163D01*
X73603375Y43445163D02*
X73603375Y25545163D01*
X67338375Y45335163D02*
X69688375Y45335163D01*
X74158375Y45335163D02*
X71808375Y45335163D01*
X67338375Y51090726D02*
X67338375Y45335163D01*
X74158375Y51090726D02*
X74158375Y45335163D01*
X68402812Y52155163D02*
X67338375Y51090726D01*
X68402812Y52155163D02*
X69688375Y52155163D01*
X73093938Y52155163D02*
X74158375Y51090726D01*
X73093938Y52155163D02*
X71808375Y52155163D01*
X72989625Y52788913D02*
X72202125Y52788913D01*
X72595875Y53182663D02*
X72595875Y52395163D01*
X64885880Y29227284D02*
X64885880Y39507284D01*
X64885880Y39507284D02*
X59585880Y39507284D01*
X63235880Y29227284D02*
X64885880Y29227284D01*
X59585880Y29227284D02*
X61235880Y29227284D01*
X59585880Y39507284D02*
X59585880Y29227284D01*
X61235880Y29227284D02*
G75*
G02*
X63235880Y29227284I1000000J0D01*
G01*
X75344734Y45125163D02*
X75652016Y45125163D01*
X75344734Y44365163D02*
X75652016Y44365163D01*
X78878375Y24398804D02*
X78878375Y24091522D01*
X78118375Y24398804D02*
X78118375Y24091522D01*
X70378375Y38138804D02*
X70378375Y37831522D01*
X69618375Y38138804D02*
X69618375Y37831522D01*
X68118375Y38091522D02*
X68118375Y38398804D01*
X68878375Y38091522D02*
X68878375Y38398804D01*
X68094734Y28875163D02*
X68402016Y28875163D01*
X68094734Y28115163D02*
X68402016Y28115163D01*
X82902016Y33615163D02*
X82594734Y33615163D01*
X82902016Y34375163D02*
X82594734Y34375163D01*
X82902016Y31615163D02*
X82594734Y31615163D01*
X82902016Y32375163D02*
X82594734Y32375163D01*
X82594734Y30125163D02*
X82902016Y30125163D01*
X82594734Y29365163D02*
X82902016Y29365163D01*
X63368375Y56150163D02*
X64748375Y56150163D01*
X63368375Y54770163D02*
X63368375Y56150163D01*
X63368375Y53500163D02*
X63368375Y50850163D01*
X63368375Y53500163D02*
X66128375Y53500163D01*
X63368375Y50850163D02*
X66128375Y50850163D01*
X66128375Y53500163D02*
X66128375Y50850163D01*
X74638375Y46387327D02*
X74638375Y46602999D01*
X75358375Y46387327D02*
X75358375Y46602999D01*
X65376211Y27885163D02*
X65160539Y27885163D01*
X65376211Y28605163D02*
X65160539Y28605163D01*
X69638375Y40367327D02*
X69638375Y40582999D01*
X70358375Y40367327D02*
X70358375Y40582999D01*
X69356211Y35885163D02*
X69140539Y35885163D01*
X69356211Y36605163D02*
X69140539Y36605163D01*
X76259627Y23510163D02*
X75737123Y23510163D01*
X76259627Y24980163D02*
X75737123Y24980163D01*
X68140539Y30855163D02*
X68356211Y30855163D01*
X68140539Y30135163D02*
X68356211Y30135163D01*
X82858375Y44372999D02*
X82858375Y44157327D01*
X82138375Y44372999D02*
X82138375Y44157327D01*
X29344734Y43775163D02*
X29652016Y43775163D01*
X29344734Y43015163D02*
X29652016Y43015163D01*
X86844775Y33095163D02*
X88224775Y33095163D01*
X86844775Y31715163D02*
X86844775Y33095163D01*
X86844775Y30445163D02*
X86844775Y22715163D01*
X86844775Y30445163D02*
X89604775Y30445163D01*
X86844775Y22715163D02*
X89604775Y22715163D01*
X89604775Y30445163D02*
X89604775Y22715163D01*
D15*
X28194085Y36945163D02*
G75*
G02*
X28002665Y36945163I-95710J0D01*
G01*
X28002665Y36945163D02*
G75*
G02*
X28194085Y36945163I95710J0D01*
G01*
D14*
X41513375Y41656415D02*
X41513375Y41133911D01*
X42983375Y41656415D02*
X42983375Y41133911D01*
X22376211Y19255163D02*
X22160539Y19255163D01*
X22376211Y18535163D02*
X22160539Y18535163D01*
X26140539Y42755163D02*
X26356211Y42755163D01*
X26140539Y42035163D02*
X26356211Y42035163D01*
X10868375Y54855163D02*
X12248375Y54855163D01*
X10868375Y53475163D02*
X10868375Y54855163D01*
X10868375Y52205163D02*
X10868375Y47015163D01*
X10868375Y52205163D02*
X13628375Y52205163D01*
X10868375Y47015163D02*
X13628375Y47015163D01*
X13628375Y52205163D02*
X13628375Y47015163D01*
X27118375Y8788804D02*
X27118375Y8481522D01*
X27878375Y8788804D02*
X27878375Y8481522D01*
X29618375Y8808804D02*
X29618375Y8501522D01*
X30378375Y8808804D02*
X30378375Y8501522D01*
X23688375Y18105163D02*
X23688375Y14685163D01*
X23688375Y14685163D02*
X27808375Y14685163D01*
X46673375Y48385163D02*
X47973375Y48385163D01*
X46673375Y46405163D02*
X47723375Y46405163D01*
X48093375Y46125163D02*
X48093375Y46405163D01*
X48373375Y46405163D01*
X48093375Y46125163D01*
G36*
X48093375Y46125163D02*
G01*
X48093375Y46405163D01*
X48373375Y46405163D01*
X48093375Y46125163D01*
G37*
X33868375Y6261522D02*
X33868375Y6568804D01*
X34628375Y6261522D02*
X34628375Y6568804D01*
X7013375Y11383911D02*
X7013375Y11906415D01*
X8483375Y11383911D02*
X8483375Y11906415D01*
X57078375Y50275163D02*
X57078375Y47515163D01*
X59728375Y50275163D02*
X57078375Y50275163D01*
X59728375Y50275163D02*
X59728375Y47515163D01*
X59728375Y47515163D02*
X57078375Y47515163D01*
X60998375Y50275163D02*
X62378375Y50275163D01*
X62378375Y50275163D02*
X62378375Y48895163D01*
X46838375Y44805163D02*
X46838375Y43545163D01*
X46838375Y37985163D02*
X46838375Y39245163D01*
X50598375Y44805163D02*
X46838375Y44805163D01*
X50598375Y37985163D02*
X46838375Y37985163D01*
X52118375Y37755163D02*
X51638375Y37755163D01*
X51878375Y38085163D01*
X52118375Y37755163D01*
G36*
X52118375Y37755163D02*
G01*
X51638375Y37755163D01*
X51878375Y38085163D01*
X52118375Y37755163D01*
G37*
X36118375Y6261522D02*
X36118375Y6568804D01*
X36878375Y6261522D02*
X36878375Y6568804D01*
X28640539Y33005163D02*
X28856211Y33005163D01*
X28640539Y32285163D02*
X28856211Y32285163D01*
D16*
X51388075Y46544263D02*
X53445475Y46544263D01*
X53445475Y48246063D02*
X51388075Y48246063D01*
D14*
X22368375Y8808804D02*
X22368375Y8501522D01*
X23128375Y8808804D02*
X23128375Y8501522D01*
X54513375Y37156415D02*
X54513375Y36633911D01*
X55983375Y37156415D02*
X55983375Y36633911D01*
X24868375Y8808804D02*
X24868375Y8501522D01*
X25628375Y8808804D02*
X25628375Y8501522D01*
X25868375Y6231522D02*
X25868375Y6538804D01*
X26628375Y6231522D02*
X26628375Y6538804D01*
X28256211Y14105163D02*
X28040539Y14105163D01*
X28256211Y13385163D02*
X28040539Y13385163D01*
X9888375Y10787327D02*
X9888375Y11002999D01*
X10608375Y10787327D02*
X10608375Y11002999D01*
X23368375Y6251522D02*
X23368375Y6558804D01*
X24128375Y6251522D02*
X24128375Y6558804D01*
X16142016Y26375163D02*
X15834734Y26375163D01*
X16142016Y25615163D02*
X15834734Y25615163D01*
X22538375Y2015163D02*
X22538375Y3395163D01*
X23918375Y2015163D02*
X22538375Y2015163D01*
X25188375Y4775163D02*
X43078375Y4775163D01*
X25188375Y2015163D02*
X25188375Y4775163D01*
X25188375Y2015163D02*
X43078375Y2015163D01*
X43078375Y2015163D02*
X43078375Y4775163D01*
X38618375Y6261522D02*
X38618375Y6568804D01*
X39378375Y6261522D02*
X39378375Y6568804D01*
X54978375Y5775163D02*
X54978375Y3015163D01*
X72868375Y5775163D02*
X54978375Y5775163D01*
X72868375Y5775163D02*
X72868375Y3015163D01*
X72868375Y3015163D02*
X54978375Y3015163D01*
X74138375Y5775163D02*
X75518375Y5775163D01*
X75518375Y5775163D02*
X75518375Y4395163D01*
X20688375Y31455163D02*
X21638375Y31455163D01*
X20688375Y30505163D02*
X20688375Y31455163D01*
X20688375Y21235163D02*
X20688375Y22185163D01*
X21638375Y21235163D02*
X20688375Y21235163D01*
X29958375Y31455163D02*
X30908375Y31455163D01*
X30908375Y31455163D02*
X30908375Y30505163D01*
X30908375Y22185163D02*
X30908375Y21235163D01*
X30908375Y21235163D02*
X29958375Y21235163D01*
X20188375Y30145163D02*
X19858375Y29905163D01*
X19858375Y30385163D01*
X20188375Y30145163D01*
G36*
X20188375Y30145163D02*
G01*
X19858375Y29905163D01*
X19858375Y30385163D01*
X20188375Y30145163D01*
G37*
X85402016Y28775163D02*
X85094734Y28775163D01*
X85402016Y28015163D02*
X85094734Y28015163D01*
X16152016Y28025163D02*
X15844734Y28025163D01*
X16152016Y27265163D02*
X15844734Y27265163D01*
X28368375Y6231522D02*
X28368375Y6538804D01*
X29128375Y6231522D02*
X29128375Y6538804D01*
X19238375Y41655163D02*
X24758375Y41655163D01*
X19238375Y41385163D02*
X19238375Y41655163D01*
X19238375Y36135163D02*
X19238375Y36405163D01*
X24758375Y41655163D02*
X24758375Y41385163D01*
X24758375Y36405163D02*
X24758375Y36135163D01*
X24758375Y36135163D02*
X19238375Y36135163D01*
X18408375Y41395163D02*
X18068375Y41865163D01*
X18748375Y41865163D01*
X18408375Y41395163D01*
G36*
X18408375Y41395163D02*
G01*
X18068375Y41865163D01*
X18748375Y41865163D01*
X18408375Y41395163D01*
G37*
X30868375Y6231522D02*
X30868375Y6538804D01*
X31628375Y6231522D02*
X31628375Y6538804D01*
X19788375Y53015163D02*
X19788375Y54395163D01*
X21168375Y53015163D02*
X19788375Y53015163D01*
X22438375Y55775163D02*
X32708375Y55775163D01*
X22438375Y53015163D02*
X22438375Y55775163D01*
X22438375Y53015163D02*
X32708375Y53015163D01*
X32708375Y53015163D02*
X32708375Y55775163D01*
X31788375Y14015163D02*
X31788375Y15395163D01*
X33168375Y14015163D02*
X31788375Y14015163D01*
X34438375Y16775163D02*
X39628375Y16775163D01*
X34438375Y14015163D02*
X34438375Y16775163D01*
X34438375Y14015163D02*
X39628375Y14015163D01*
X39628375Y14015163D02*
X39628375Y16775163D01*
X41368375Y6251522D02*
X41368375Y6558804D01*
X42128375Y6251522D02*
X42128375Y6558804D01*
X45168375Y57680163D02*
X54328375Y57680163D01*
X45168375Y55975163D02*
X45168375Y57680163D01*
X45168375Y53965163D02*
X45168375Y52045163D01*
X54328375Y57680163D02*
X54328375Y55975163D01*
X54328375Y52045163D02*
X54328375Y53965163D01*
X28232923Y15686321D02*
X28232923Y15379039D01*
X28992923Y15686321D02*
X28992923Y15379039D01*
X28640539Y34255163D02*
X28856211Y34255163D01*
X28640539Y33535163D02*
X28856211Y33535163D01*
X2618375Y45975163D02*
X3998375Y45975163D01*
X2618375Y44595163D02*
X2618375Y45975163D01*
X2618375Y43325163D02*
X2618375Y10195163D01*
X2618375Y43325163D02*
X5378375Y43325163D01*
X2618375Y10195163D02*
X5378375Y10195163D01*
X5378375Y43325163D02*
X5378375Y10195163D01*
X82594734Y28375163D02*
X82902016Y28375163D01*
X82594734Y27615163D02*
X82902016Y27615163D01*
M02*
