G04 #@! TF.GenerationSoftware,KiCad,Pcbnew,9.0.6*
G04 #@! TF.CreationDate,2025-11-20T09:59:51-05:00*
G04 #@! TF.ProjectId,Proton,50726f74-6f6e-42e6-9b69-6361645f7063,REV3*
G04 #@! TF.SameCoordinates,PX71ba2a9PY5a7fc3b*
G04 #@! TF.FileFunction,Soldermask,Top*
G04 #@! TF.FilePolarity,Negative*
%FSLAX46Y46*%
G04 Gerber Fmt 4.6, Leading zero omitted, Abs format (unit mm)*
G04 Created by KiCad (PCBNEW 9.0.6) date 2025-11-20 09:59:51*
%MOMM*%
%LPD*%
G01*
G04 APERTURE LIST*
G04 Aperture macros list*
%AMRoundRect*
0 Rectangle with rounded corners*
0 $1 Rounding radius*
0 $2 $3 $4 $5 $6 $7 $8 $9 X,Y pos of 4 corners*
0 Add a 4 corners polygon primitive as box body*
4,1,4,$2,$3,$4,$5,$6,$7,$8,$9,$2,$3,0*
0 Add four circle primitives for the rounded corners*
1,1,$1+$1,$2,$3*
1,1,$1+$1,$4,$5*
1,1,$1+$1,$6,$7*
1,1,$1+$1,$8,$9*
0 Add four rect primitives between the rounded corners*
20,1,$1+$1,$2,$3,$4,$5,0*
20,1,$1+$1,$4,$5,$6,$7,0*
20,1,$1+$1,$6,$7,$8,$9,0*
20,1,$1+$1,$8,$9,$2,$3,0*%
G04 Aperture macros list end*
%ADD10C,1.700000*%
%ADD11R,1.700000X1.700000*%
%ADD12RoundRect,0.135000X0.135000X0.185000X-0.135000X0.185000X-0.135000X-0.185000X0.135000X-0.185000X0*%
%ADD13RoundRect,0.140000X0.140000X0.170000X-0.140000X0.170000X-0.140000X-0.170000X0.140000X-0.170000X0*%
%ADD14RoundRect,0.135000X0.185000X-0.135000X0.185000X0.135000X-0.185000X0.135000X-0.185000X-0.135000X0*%
%ADD15RoundRect,0.140000X-0.170000X0.140000X-0.170000X-0.140000X0.170000X-0.140000X0.170000X0.140000X0*%
%ADD16RoundRect,0.135000X-0.135000X-0.185000X0.135000X-0.185000X0.135000X0.185000X-0.135000X0.185000X0*%
%ADD17RoundRect,0.135000X-0.185000X0.135000X-0.185000X-0.135000X0.185000X-0.135000X0.185000X0.135000X0*%
%ADD18C,1.600000*%
%ADD19RoundRect,0.250000X-0.550000X-0.550000X0.550000X-0.550000X0.550000X0.550000X-0.550000X0.550000X0*%
%ADD20RoundRect,0.250000X-0.550000X1.500000X-0.550000X-1.500000X0.550000X-1.500000X0.550000X1.500000X0*%
%ADD21RoundRect,0.250000X0.550000X0.550000X-0.550000X0.550000X-0.550000X-0.550000X0.550000X-0.550000X0*%
%ADD22C,1.100000*%
%ADD23RoundRect,0.102000X-0.825000X0.825000X-0.825000X-0.825000X0.825000X-0.825000X0.825000X0.825000X0*%
%ADD24C,1.854000*%
%ADD25RoundRect,0.140000X0.170000X-0.140000X0.170000X0.140000X-0.170000X0.140000X-0.170000X-0.140000X0*%
%ADD26RoundRect,0.250000X0.250000X0.475000X-0.250000X0.475000X-0.250000X-0.475000X0.250000X-0.475000X0*%
%ADD27RoundRect,0.140000X-0.140000X-0.170000X0.140000X-0.170000X0.140000X0.170000X-0.140000X0.170000X0*%
%ADD28R,0.700000X1.700000*%
%ADD29RoundRect,0.250000X-0.475000X0.250000X-0.475000X-0.250000X0.475000X-0.250000X0.475000X0.250000X0*%
%ADD30RoundRect,0.250000X-0.450000X-0.350000X0.450000X-0.350000X0.450000X0.350000X-0.450000X0.350000X0*%
%ADD31RoundRect,0.093750X0.156250X0.093750X-0.156250X0.093750X-0.156250X-0.093750X0.156250X-0.093750X0*%
%ADD32RoundRect,0.075000X0.250000X0.075000X-0.250000X0.075000X-0.250000X-0.075000X0.250000X-0.075000X0*%
%ADD33RoundRect,0.250000X0.475000X-0.250000X0.475000X0.250000X-0.475000X0.250000X-0.475000X-0.250000X0*%
%ADD34RoundRect,0.375000X0.625000X0.375000X-0.625000X0.375000X-0.625000X-0.375000X0.625000X-0.375000X0*%
%ADD35RoundRect,0.500000X0.500000X1.400000X-0.500000X1.400000X-0.500000X-1.400000X0.500000X-1.400000X0*%
%ADD36R,1.473200X0.533400*%
%ADD37RoundRect,0.050000X-0.350000X-0.050000X0.350000X-0.050000X0.350000X0.050000X-0.350000X0.050000X0*%
%ADD38RoundRect,0.050000X-0.050000X-0.350000X0.050000X-0.350000X0.050000X0.350000X-0.050000X0.350000X0*%
%ADD39R,3.400000X3.400000*%
%ADD40RoundRect,0.162500X-0.650000X-0.162500X0.650000X-0.162500X0.650000X0.162500X-0.650000X0.162500X0*%
%ADD41C,0.650000*%
%ADD42R,0.600000X1.240000*%
%ADD43R,0.300000X1.240000*%
%ADD44O,1.000000X2.100000*%
%ADD45O,1.000000X1.800000*%
G04 APERTURE END LIST*
D10*
X12498375Y31980163D03*
D11*
X12498375Y34520163D03*
D10*
X8248375Y31995163D03*
D11*
X8248375Y34535163D03*
D12*
X16258375Y24245163D03*
X15238375Y24245163D03*
D11*
X11248375Y26495163D03*
D10*
X8708375Y26495163D03*
D13*
X82268375Y35245163D03*
X83228375Y35245163D03*
X82038375Y39745163D03*
X82998375Y39745163D03*
D14*
X85498375Y32755163D03*
X85498375Y31735163D03*
D12*
X82238375Y37495163D03*
X83258375Y37495163D03*
D15*
X67748375Y24765163D03*
X67748375Y25725163D03*
D16*
X68768375Y26995163D03*
X67748375Y26995163D03*
D15*
X85248375Y43785163D03*
X85248375Y44745163D03*
D17*
X69998375Y33985163D03*
X69998375Y35005163D03*
X67998375Y32735163D03*
X67998375Y33755163D03*
D18*
X80063375Y42115163D03*
X80063375Y39575163D03*
X80063375Y37035163D03*
X80063375Y34495163D03*
X80063375Y31955163D03*
X80063375Y29415163D03*
X80063375Y26875163D03*
X72443375Y26875163D03*
X72443375Y29415163D03*
X72443375Y31955163D03*
X72443375Y34495163D03*
X72443375Y37035163D03*
X72443375Y39575163D03*
D19*
X72443375Y42115163D03*
D20*
X70748375Y46045163D03*
X70748375Y51445163D03*
D21*
X66045880Y30557284D03*
D18*
X66045880Y33097284D03*
X66045880Y35637284D03*
X66045880Y38177284D03*
X58425880Y38177284D03*
X58425880Y35637284D03*
X58425880Y33097284D03*
X58425880Y30557284D03*
D16*
X74988375Y44745163D03*
X76008375Y44745163D03*
D17*
X78498375Y24755163D03*
X78498375Y23735163D03*
X69998375Y38495163D03*
X69998375Y37475163D03*
D14*
X68498375Y37735163D03*
X68498375Y38755163D03*
D16*
X67738375Y28495163D03*
X68758375Y28495163D03*
D12*
X83258375Y33995163D03*
X82238375Y33995163D03*
X83258375Y31995163D03*
X82238375Y31995163D03*
D16*
X82238375Y29745163D03*
X83258375Y29745163D03*
D11*
X64748375Y54770163D03*
D10*
X64748375Y52230163D03*
D22*
X81656234Y54252825D03*
X81656234Y49252825D03*
D23*
X76856234Y54252825D03*
D24*
X85256234Y49252825D03*
X80056234Y46152825D03*
X86156234Y54252825D03*
D25*
X74998375Y46015163D03*
X74998375Y46975163D03*
D13*
X65748375Y28245163D03*
X64788375Y28245163D03*
D25*
X69998375Y39995163D03*
X69998375Y40955163D03*
D13*
X69728375Y36245163D03*
X68768375Y36245163D03*
D26*
X76948375Y24245163D03*
X75048375Y24245163D03*
D27*
X67768375Y30495163D03*
X68728375Y30495163D03*
D15*
X82498375Y44745163D03*
X82498375Y43785163D03*
D16*
X28988375Y43395163D03*
X30008375Y43395163D03*
D11*
X88224775Y31715163D03*
D10*
X88224775Y29175163D03*
X88224775Y26635163D03*
X88224775Y24095163D03*
D28*
X28298375Y35645163D03*
X29698375Y35645163D03*
D29*
X42248375Y42345163D03*
X42248375Y40445163D03*
D13*
X22748375Y18895163D03*
X21788375Y18895163D03*
D27*
X25768375Y42395163D03*
X26728375Y42395163D03*
D11*
X12248375Y53475163D03*
D10*
X12248375Y50935163D03*
X12248375Y48395163D03*
D17*
X27498375Y9145163D03*
X27498375Y8125163D03*
X29998375Y9165163D03*
X29998375Y8145163D03*
D30*
X24648375Y15545163D03*
X26848375Y15545163D03*
X26848375Y17245163D03*
X24648375Y17245163D03*
D31*
X48173375Y46857663D03*
D32*
X48248375Y47395163D03*
D31*
X48173375Y47932663D03*
X46473375Y47932663D03*
D32*
X46398375Y47395163D03*
D31*
X46473375Y46857663D03*
D14*
X34248375Y5905163D03*
X34248375Y6925163D03*
D33*
X7748375Y10695163D03*
X7748375Y12595163D03*
D11*
X60998375Y48895163D03*
D10*
X58458375Y48895163D03*
D34*
X51898375Y39095163D03*
X51898375Y41395163D03*
D35*
X45598375Y41395163D03*
D34*
X51898375Y43695163D03*
D14*
X36498375Y5905163D03*
X36498375Y6925163D03*
D27*
X28268375Y32645163D03*
X29228375Y32645163D03*
D36*
X53585175Y47395163D03*
X51248375Y47395163D03*
D17*
X22748375Y9165163D03*
X22748375Y8145163D03*
D29*
X55248375Y37845163D03*
X55248375Y35945163D03*
D17*
X25248375Y9165163D03*
X25248375Y8145163D03*
D14*
X26248375Y5875163D03*
X26248375Y6895163D03*
D13*
X28628375Y13745163D03*
X27668375Y13745163D03*
D25*
X10248375Y10415163D03*
X10248375Y11375163D03*
D14*
X23748375Y5895163D03*
X23748375Y6915163D03*
D12*
X16498375Y25995163D03*
X15478375Y25995163D03*
D11*
X23918375Y3395163D03*
D10*
X26458375Y3395163D03*
X28998375Y3395163D03*
X31538375Y3395163D03*
X34078375Y3395163D03*
X36618375Y3395163D03*
X39158375Y3395163D03*
X41698375Y3395163D03*
D14*
X38998375Y5905163D03*
X38998375Y6925163D03*
D11*
X74138375Y4395163D03*
D10*
X71598375Y4395163D03*
X69058375Y4395163D03*
X66518375Y4395163D03*
X63978375Y4395163D03*
X61438375Y4395163D03*
X58898375Y4395163D03*
X56358375Y4395163D03*
D37*
X20848375Y30145163D03*
X20848375Y29745163D03*
X20848375Y29345163D03*
X20848375Y28945163D03*
X20848375Y28545163D03*
X20848375Y28145163D03*
X20848375Y27745163D03*
X20848375Y27345163D03*
X20848375Y26945163D03*
X20848375Y26545163D03*
X20848375Y26145163D03*
X20848375Y25745163D03*
X20848375Y25345163D03*
X20848375Y24945163D03*
X20848375Y24545163D03*
X20848375Y24145163D03*
X20848375Y23745163D03*
X20848375Y23345163D03*
X20848375Y22945163D03*
X20848375Y22545163D03*
D38*
X21998375Y21395163D03*
X22398375Y21395163D03*
X22798375Y21395163D03*
X23198375Y21395163D03*
X23598375Y21395163D03*
X23998375Y21395163D03*
X24398375Y21395163D03*
X24798375Y21395163D03*
X25198375Y21395163D03*
X25598375Y21395163D03*
X25998375Y21395163D03*
X26398375Y21395163D03*
X26798375Y21395163D03*
X27198375Y21395163D03*
X27598375Y21395163D03*
X27998375Y21395163D03*
X28398375Y21395163D03*
X28798375Y21395163D03*
X29198375Y21395163D03*
X29598375Y21395163D03*
D37*
X30748375Y22545163D03*
X30748375Y22945163D03*
X30748375Y23345163D03*
X30748375Y23745163D03*
X30748375Y24145163D03*
X30748375Y24545163D03*
X30748375Y24945163D03*
X30748375Y25345163D03*
X30748375Y25745163D03*
X30748375Y26145163D03*
X30748375Y26545163D03*
X30748375Y26945163D03*
X30748375Y27345163D03*
X30748375Y27745163D03*
X30748375Y28145163D03*
X30748375Y28545163D03*
X30748375Y28945163D03*
X30748375Y29345163D03*
X30748375Y29745163D03*
X30748375Y30145163D03*
D38*
X29598375Y31295163D03*
X29198375Y31295163D03*
X28798375Y31295163D03*
X28398375Y31295163D03*
X27998375Y31295163D03*
X27598375Y31295163D03*
X27198375Y31295163D03*
X26798375Y31295163D03*
X26398375Y31295163D03*
X25998375Y31295163D03*
X25598375Y31295163D03*
X25198375Y31295163D03*
X24798375Y31295163D03*
X24398375Y31295163D03*
X23998375Y31295163D03*
X23598375Y31295163D03*
X23198375Y31295163D03*
X22798375Y31295163D03*
X22398375Y31295163D03*
X21998375Y31295163D03*
D39*
X25798375Y26345163D03*
D12*
X85758375Y28395163D03*
X84738375Y28395163D03*
X16508375Y27645163D03*
X15488375Y27645163D03*
D14*
X28748375Y5875163D03*
X28748375Y6895163D03*
D40*
X18410875Y40800163D03*
X18410875Y39530163D03*
X18410875Y38260163D03*
X18410875Y36990163D03*
X25585875Y36990163D03*
X25585875Y38260163D03*
X25585875Y39530163D03*
X25585875Y40800163D03*
D14*
X31248375Y5875163D03*
X31248375Y6895163D03*
D11*
X21168375Y54395163D03*
D10*
X23708375Y54395163D03*
X26248375Y54395163D03*
X28788375Y54395163D03*
X31328375Y54395163D03*
D11*
X33168375Y15395163D03*
D10*
X35708375Y15395163D03*
X38248375Y15395163D03*
D14*
X41748375Y5895163D03*
X41748375Y6915163D03*
D41*
X52638375Y51290163D03*
X46858375Y51290163D03*
D42*
X52948375Y50170163D03*
X52148375Y50170163D03*
D43*
X50998375Y50170163D03*
X49998375Y50170163D03*
X49498375Y50170163D03*
X48498375Y50170163D03*
D42*
X47348375Y50170163D03*
X46548375Y50170163D03*
X46548375Y50170163D03*
X47348375Y50170163D03*
D43*
X47998375Y50170163D03*
X48998375Y50170163D03*
X50498375Y50170163D03*
X51498375Y50170163D03*
D42*
X52148375Y50170163D03*
X52948375Y50170163D03*
D44*
X54068375Y50770163D03*
D45*
X54068375Y54970163D03*
D44*
X45428375Y50770163D03*
D45*
X45428375Y54970163D03*
D17*
X28612923Y16042680D03*
X28612923Y15022680D03*
D27*
X28268375Y33895163D03*
X29228375Y33895163D03*
D11*
X3998375Y44595163D03*
D10*
X3998375Y42055163D03*
X3998375Y39515163D03*
X3998375Y36975163D03*
X3998375Y34435163D03*
X3998375Y31895163D03*
X3998375Y29355163D03*
X3998375Y26815163D03*
X3998375Y24275163D03*
X3998375Y21735163D03*
X3998375Y19195163D03*
X3998375Y16655163D03*
X3998375Y14115163D03*
X3998375Y11575163D03*
D16*
X82238375Y27995163D03*
X83258375Y27995163D03*
M02*
