M48
; DRILL file {KiCad 9.0.6} date 2025-11-14T16:52:13-0500
; FORMAT={-:-/ absolute / metric / decimal}
; #@! TF.CreationDate,2025-11-14T16:52:13-05:00
; #@! TF.GenerationSoftware,Kicad,Pcbnew,9.0.6
; #@! TF.FileFunction,Plated,1,4,PTH
FMAT,2
METRIC
; #@! TA.AperFunction,Plated,PTH,ViaDrill
T1C0.100
; #@! TA.AperFunction,Plated,PTH,ComponentDrill
T2C0.200
; #@! TA.AperFunction,Plated,PTH,ViaDrill
T3C0.300
; #@! TA.AperFunction,Plated,PTH,ViaDrill
T4C0.350
; #@! TA.AperFunction,Plated,PTH,ViaDrill
T5C0.400
; #@! TA.AperFunction,Plated,PTH,ViaDrill
T6C0.500
; #@! TA.AperFunction,Plated,PTH,ComponentDrill
T7C0.600
; #@! TA.AperFunction,Plated,PTH,ViaDrill
T8C0.750
; #@! TA.AperFunction,Plated,PTH,ComponentDrill
T9C0.800
; #@! TA.AperFunction,Plated,PTH,ComponentDrill
T10C1.000
; #@! TA.AperFunction,Plated,PTH,ComponentDrill
T11C1.100
%
G90
G05
T1
X23.248Y29.395
X23.248Y26.395
X23.748Y28.395
X23.748Y18.895
X24.248Y18.895
X24.748Y28.395
X25.248Y30.395
X25.248Y29.895
X25.248Y18.895
X25.748Y23.895
X25.892Y14.548
X26.248Y24.395
X26.417Y14.03
X27.659Y12.828
X28.3Y12.124
X28.849Y23.59
X28.95Y11.471
X29.748Y24.395
X30.248Y31.895
T2
X24.348Y27.795
X24.348Y26.345
X24.348Y24.895
X25.798Y27.795
X25.798Y26.345
X25.798Y24.895
X27.248Y27.795
X27.248Y26.345
X27.248Y24.895
T3
X5.748Y12.895
X5.748Y11.895
X6.748Y13.895
X8.748Y13.895
X9.748Y13.395
X10.248Y12.895
X11.748Y12.395
X12.248Y10.395
X16.248Y28.895
X16.998Y32.145
X17.013Y28.88
X17.248Y31.395
X17.748Y28.395
X18.3Y27.865
X18.818Y27.322
X19.369Y26.794
X21.248Y9.395
X21.248Y8.395
X21.748Y28.895
X21.748Y26.895
X21.748Y24.895
X21.748Y10.395
X22.248Y29.895
X22.248Y19.895
X22.748Y24.395
X23.126Y22.161
X23.248Y30.395
X23.248Y20.395
X23.748Y9.895
X24.248Y8.395
X24.723Y19.947
X24.748Y22.395
X26.248Y30.395
X26.248Y22.395
X26.248Y18.895
X26.248Y10.395
X26.248Y8.395
X26.498Y33.145
X26.944Y32.509
X27.248Y30.395
X27.748Y37.895
X27.748Y23.395
X27.748Y22.395
X28.248Y19.895
X28.301Y44.948
X28.748Y8.395
X29.248Y19.947
X29.748Y26.645
X29.748Y25.895
X29.748Y23.395
X29.748Y16.895
X29.748Y15.395
X30.248Y32.645
X30.248Y21.895
X30.3Y30.895
X30.748Y20.498
X31.248Y7.895
X31.498Y18.145
X31.748Y22.895
X31.748Y9.395
X32.248Y29.895
X32.748Y7.395
X33.248Y54.895
X33.248Y52.895
X33.248Y8.395
X33.498Y31.395
X34.248Y52.395
X34.748Y31.395
X35.248Y45.895
X35.248Y32.395
X35.248Y7.395
X35.748Y53.895
X35.748Y52.895
X37.748Y7.895
X40.248Y40.395
X40.748Y39.395
X40.748Y7.895
X41.748Y38.895
X42.748Y38.895
X43.748Y39.395
X46.748Y53.395
X47.748Y54.895
X48.248Y51.395
X49.248Y54.895
X49.748Y39.395
X49.748Y37.895
X50.748Y54.895
X50.748Y51.395
X50.748Y36.895
X52.248Y53.895
X52.248Y52.895
X52.248Y36.895
X53.248Y36.395
X53.248Y35.395
X53.248Y34.395
X53.248Y32.895
X53.248Y31.895
X53.248Y30.895
X53.748Y40.395
X53.748Y38.895
X54.498Y45.645
X54.748Y29.895
X55.248Y56.395
X55.248Y53.395
X55.748Y54.395
X55.748Y51.395
X55.998Y48.395
X55.998Y46.645
X56.748Y30.395
X57.248Y41.145
X58.748Y51.395
X59.373Y47.236
X59.498Y42.645
X59.998Y46.645
X59.998Y45.645
X60.498Y42.395
X60.748Y47.145
X60.748Y45.145
X61.248Y53.895
X61.748Y55.895
X61.748Y54.895
X63.58Y50.051
X64.498Y49.145
X64.669Y40.707
X65.381Y41.742
X65.475Y47.832
X65.748Y44.645
X65.852Y46.434
X66.248Y42.895
X67.748Y34.395
X67.748Y33.395
X68.248Y35.395
X70.748Y38.895
X70.748Y34.395
X70.748Y33.395
X72.248Y39.395
X72.748Y40.895
X74.248Y42.395
X74.998Y42.895
X78.248Y42.395
X78.248Y41.395
X78.248Y40.395
X79.248Y43.395
X80.748Y43.395
X84.748Y29.395
X85.248Y41.895
X85.248Y36.395
X85.248Y35.395
X85.248Y34.395
T4
X31.998Y35.645
T5
X16.498Y38.645
X16.498Y37.645
X16.748Y39.645
X24.748Y42.645
X27.248Y33.395
X29.498Y38.395
X29.748Y37.645
X29.998Y38.895
X29.998Y33.895
X31.748Y33.895
X31.748Y32.895
X69.956Y36.297
X77.206Y28.047
X79.956Y42.797
X83.206Y34.047
X86.956Y38.797
T6
X45.248Y44.895
X45.248Y37.895
X47.748Y41.395
X49.748Y40.895
T8
X53.998Y43.645
T9
X58.433Y38.205
X58.433Y35.665
X58.433Y33.125
X58.433Y30.585
X66.053Y38.205
X66.053Y35.665
X66.053Y33.125
X66.053Y30.585
X73.933Y38.205
X73.933Y35.665
X73.933Y33.125
X73.933Y30.585
X81.553Y38.205
X81.553Y35.665
X81.553Y33.125
X81.553Y30.585
T10
X3.998Y44.595
X3.998Y42.055
X3.998Y39.515
X3.998Y36.975
X3.998Y34.435
X3.998Y31.895
X3.998Y29.355
X3.998Y26.815
X3.998Y24.275
X3.998Y21.735
X3.998Y19.195
X3.998Y16.655
X3.998Y14.115
X3.998Y11.575
X8.248Y30.185
X8.248Y27.645
X12.248Y53.475
X12.248Y50.935
X12.248Y48.395
X12.498Y30.17
X12.498Y27.63
X21.168Y54.395
X23.708Y54.395
X23.918Y3.395
X26.248Y54.395
X26.458Y3.395
X28.788Y54.395
X28.998Y3.395
X31.328Y54.395
X31.538Y3.395
X33.168Y15.395
X34.078Y3.395
X35.708Y15.395
X36.618Y3.395
X38.248Y15.395
X39.158Y3.395
X41.698Y3.395
X56.358Y4.395
X58.458Y48.895
X58.898Y4.395
X60.998Y48.895
X61.438Y4.395
X63.978Y4.395
X64.748Y54.685
X64.748Y52.145
X66.518Y4.395
X69.058Y4.395
X71.598Y4.395
X74.138Y4.395
X88.225Y31.715
X88.225Y29.175
X88.225Y26.635
X88.225Y24.095
T11
X76.848Y54.245
X80.048Y46.145
X85.248Y49.245
X86.148Y54.245
T7
G00X45.428Y54.57
M15
G01X45.428Y55.37
M16
G05
G00X45.428Y50.22
M15
G01X45.428Y51.32
M16
G05
G00X54.068Y54.57
M15
G01X54.068Y55.37
M16
G05
G00X54.068Y50.22
M15
G01X54.068Y51.32
M16
G05
M30
