G04 #@! TF.GenerationSoftware,KiCad,Pcbnew,9.0.4*
G04 #@! TF.CreationDate,2025-11-10T14:00:38-05:00*
G04 #@! TF.ProjectId,Proton,50726f74-6f6e-42e6-9b69-6361645f7063,REV3*
G04 #@! TF.SameCoordinates,PX71ba2a9PY5a7fc3b*
G04 #@! TF.FileFunction,Copper,L2,Inr*
G04 #@! TF.FilePolarity,Positive*
%FSLAX46Y46*%
G04 Gerber Fmt 4.6, Leading zero omitted, Abs format (unit mm)*
G04 Created by KiCad (PCBNEW 9.0.4) date 2025-11-10 14:00:38*
%MOMM*%
%LPD*%
G01*
G04 APERTURE LIST*
G04 Aperture macros list*
%AMRoundRect*
0 Rectangle with rounded corners*
0 $1 Rounding radius*
0 $2 $3 $4 $5 $6 $7 $8 $9 X,Y pos of 4 corners*
0 Add a 4 corners polygon primitive as box body*
4,1,4,$2,$3,$4,$5,$6,$7,$8,$9,$2,$3,0*
0 Add four circle primitives for the rounded corners*
1,1,$1+$1,$2,$3*
1,1,$1+$1,$4,$5*
1,1,$1+$1,$6,$7*
1,1,$1+$1,$8,$9*
0 Add four rect primitives between the rounded corners*
20,1,$1+$1,$2,$3,$4,$5,0*
20,1,$1+$1,$4,$5,$6,$7,0*
20,1,$1+$1,$6,$7,$8,$9,0*
20,1,$1+$1,$8,$9,$2,$3,0*%
G04 Aperture macros list end*
G04 #@! TA.AperFunction,ComponentPad*
%ADD10R,1.700000X1.700000*%
G04 #@! TD*
G04 #@! TA.AperFunction,ComponentPad*
%ADD11C,1.700000*%
G04 #@! TD*
G04 #@! TA.AperFunction,ComponentPad*
%ADD12RoundRect,0.250000X0.550000X0.550000X-0.550000X0.550000X-0.550000X-0.550000X0.550000X-0.550000X0*%
G04 #@! TD*
G04 #@! TA.AperFunction,ComponentPad*
%ADD13C,1.600000*%
G04 #@! TD*
G04 #@! TA.AperFunction,HeatsinkPad*
%ADD14C,0.500000*%
G04 #@! TD*
G04 #@! TA.AperFunction,HeatsinkPad*
%ADD15O,1.000000X2.100000*%
G04 #@! TD*
G04 #@! TA.AperFunction,HeatsinkPad*
%ADD16O,1.000000X1.800000*%
G04 #@! TD*
G04 #@! TA.AperFunction,ComponentPad*
%ADD17R,1.650000X1.650000*%
G04 #@! TD*
G04 #@! TA.AperFunction,ComponentPad*
%ADD18C,1.650000*%
G04 #@! TD*
G04 #@! TA.AperFunction,ViaPad*
%ADD19C,0.600000*%
G04 #@! TD*
G04 #@! TA.AperFunction,ViaPad*
%ADD20C,0.500000*%
G04 #@! TD*
G04 #@! TA.AperFunction,ViaPad*
%ADD21C,0.300000*%
G04 #@! TD*
G04 #@! TA.AperFunction,ViaPad*
%ADD22C,1.000000*%
G04 #@! TD*
G04 #@! TA.AperFunction,ViaPad*
%ADD23C,1.500000*%
G04 #@! TD*
G04 #@! TA.AperFunction,Conductor*
%ADD24C,0.203200*%
G04 #@! TD*
G04 APERTURE END LIST*
D10*
X64748375Y54685163D03*
D11*
X64748375Y52145163D03*
D10*
X88224775Y31715163D03*
D11*
X88224775Y29175163D03*
X88224775Y26635163D03*
X88224775Y24095163D03*
D10*
X12248375Y53475163D03*
D11*
X12248375Y50935163D03*
X12248375Y48395163D03*
D12*
X81553375Y30585163D03*
D13*
X81553375Y33125163D03*
X81553375Y35665163D03*
X81553375Y38205163D03*
X73933375Y38205163D03*
X73933375Y35665163D03*
X73933375Y33125163D03*
X73933375Y30585163D03*
D10*
X8248375Y30185163D03*
D11*
X8248375Y27645163D03*
D10*
X60998375Y48895163D03*
D11*
X58458375Y48895163D03*
D10*
X23918375Y3395163D03*
D11*
X26458375Y3395163D03*
X28998375Y3395163D03*
X31538375Y3395163D03*
X34078375Y3395163D03*
X36618375Y3395163D03*
X39158375Y3395163D03*
X41698375Y3395163D03*
D10*
X74138375Y4395163D03*
D11*
X71598375Y4395163D03*
X69058375Y4395163D03*
X66518375Y4395163D03*
X63978375Y4395163D03*
X61438375Y4395163D03*
X58898375Y4395163D03*
X56358375Y4395163D03*
D14*
X24348375Y27795163D03*
X24348375Y26345163D03*
X24348375Y24895163D03*
X25798375Y27795163D03*
X25798375Y26345163D03*
X25798375Y24895163D03*
X27248375Y27795163D03*
X27248375Y26345163D03*
X27248375Y24895163D03*
D12*
X66053375Y30585163D03*
D13*
X66053375Y33125163D03*
X66053375Y35665163D03*
X66053375Y38205163D03*
X58433375Y38205163D03*
X58433375Y35665163D03*
X58433375Y33125163D03*
X58433375Y30585163D03*
D10*
X21168375Y54395163D03*
D11*
X23708375Y54395163D03*
X26248375Y54395163D03*
X28788375Y54395163D03*
X31328375Y54395163D03*
D10*
X33168375Y15395163D03*
D11*
X35708375Y15395163D03*
X38248375Y15395163D03*
D10*
X12498375Y30170163D03*
D11*
X12498375Y27630163D03*
D15*
X54068375Y50770163D03*
D16*
X54068375Y54970163D03*
D15*
X45428375Y50770163D03*
D16*
X45428375Y54970163D03*
D10*
X3998375Y44595163D03*
D11*
X3998375Y42055163D03*
X3998375Y39515163D03*
X3998375Y36975163D03*
X3998375Y34435163D03*
X3998375Y31895163D03*
X3998375Y29355163D03*
X3998375Y26815163D03*
X3998375Y24275163D03*
X3998375Y21735163D03*
X3998375Y19195163D03*
X3998375Y16655163D03*
X3998375Y14115163D03*
X3998375Y11575163D03*
D17*
X76848375Y54245163D03*
D18*
X85248375Y49245163D03*
X80048375Y46145163D03*
X86148375Y54245163D03*
D19*
X61748375Y54895163D03*
D20*
X29498375Y38395163D03*
D19*
X78248375Y40395163D03*
X60748375Y45145163D03*
D21*
X28299977Y12123986D03*
D19*
X79248375Y43395163D03*
X23248375Y20395163D03*
X53248375Y30895163D03*
X65748375Y44645163D03*
X29748375Y16895163D03*
X43748375Y39395163D03*
D20*
X29998375Y33895163D03*
D19*
X63579659Y50050634D03*
X61748375Y55895163D03*
X53248375Y36395163D03*
X67748375Y34395163D03*
D21*
X23748375Y18895163D03*
D19*
X29748375Y15395163D03*
X72748375Y40895163D03*
X54498375Y45645163D03*
D21*
X23248375Y26395163D03*
D19*
X55748375Y54395163D03*
X53748375Y38895163D03*
X42748375Y38895163D03*
X53248375Y31895163D03*
X55248375Y56395163D03*
X74248375Y42395163D03*
D20*
X16748375Y39645163D03*
D19*
X78248375Y42395163D03*
X41748375Y38895163D03*
X54748375Y29895163D03*
X56748375Y30395163D03*
X11748375Y12395163D03*
X77248375Y25895163D03*
X85248375Y35395163D03*
D21*
X25248375Y29895163D03*
X24748375Y28395163D03*
D19*
X52248375Y52895163D03*
X21748375Y10395163D03*
X49748375Y39395163D03*
X53248375Y32895163D03*
D21*
X26417187Y14029918D03*
D19*
X31748375Y9395163D03*
X77248375Y27395163D03*
X40248375Y40395163D03*
X74998375Y42895163D03*
X53748375Y40395163D03*
D21*
X25248375Y30395163D03*
D19*
X40748375Y39395163D03*
X5748375Y11895163D03*
X68248375Y35395163D03*
X30248375Y32645163D03*
X26248375Y10395163D03*
X64498375Y49145163D03*
X34748375Y31395163D03*
X9748375Y13395163D03*
D21*
X25748375Y23895163D03*
D19*
X50748375Y36895163D03*
X52248375Y36895163D03*
X47748375Y54895163D03*
X35748375Y52895163D03*
X50748375Y54895163D03*
X70748375Y33395163D03*
X35748375Y53895163D03*
X5748375Y12895163D03*
X64668684Y40706530D03*
X49248375Y54895163D03*
X66248375Y42895163D03*
X23748375Y9895163D03*
D21*
X24248375Y18895163D03*
D19*
X59998375Y46645163D03*
X65381256Y41741776D03*
X75748375Y24895163D03*
X80748375Y43395163D03*
X70748375Y34395163D03*
D20*
X29998375Y38895163D03*
X31748375Y32895163D03*
X16498375Y38645163D03*
D19*
X60498375Y42395163D03*
X57248375Y41145163D03*
D20*
X31748375Y33895163D03*
D19*
X65475370Y47832250D03*
X55998375Y46645163D03*
D21*
X26248375Y24395163D03*
D19*
X22748375Y24395163D03*
D20*
X29748375Y37645163D03*
D19*
X34248375Y52395163D03*
D20*
X16498375Y37645163D03*
D19*
X10248375Y12895163D03*
D21*
X28849154Y23589641D03*
D19*
X85248375Y36395163D03*
X33248375Y52895163D03*
X67748375Y33395163D03*
X55248375Y53395163D03*
D21*
X23748375Y28395163D03*
D19*
X22248375Y19895163D03*
X53248375Y35395163D03*
X12248375Y10395163D03*
X21248375Y9395163D03*
X52248375Y53895163D03*
X76748375Y28395163D03*
D21*
X25248375Y18895163D03*
D19*
X33248375Y8395163D03*
D21*
X25892078Y14548338D03*
D19*
X31248375Y7895163D03*
X55998375Y48395163D03*
X22248375Y29895163D03*
X60748375Y47145163D03*
X59498375Y42645163D03*
X61248375Y53895163D03*
D21*
X27659351Y12827578D03*
D19*
X6748375Y13895163D03*
D21*
X28950001Y11471461D03*
D19*
X46748375Y53395163D03*
X78248375Y41395163D03*
X72248375Y39395163D03*
X49748375Y37895163D03*
X75748375Y28895163D03*
X59998375Y45645163D03*
X70748375Y38895163D03*
X59372714Y47235778D03*
X35248375Y32395163D03*
X33248375Y54895163D03*
D21*
X23248375Y29395163D03*
D19*
X65851823Y46433995D03*
X53248375Y34395163D03*
X85248375Y34395163D03*
X31498375Y18145163D03*
X8748375Y13895163D03*
D21*
X29748375Y24395163D03*
D19*
X26248375Y18895163D03*
X27248375Y30395163D03*
D20*
X24748375Y42645163D03*
D19*
X21748375Y28895163D03*
X84748375Y29395163D03*
X23125994Y22161010D03*
D22*
X47748375Y41395163D03*
D19*
X58748375Y51395163D03*
X26248375Y30395163D03*
D22*
X45248375Y37895163D03*
D19*
X29748375Y25895163D03*
D22*
X49748375Y40895163D03*
D19*
X21748375Y24895163D03*
X30248375Y21895163D03*
X33498375Y31395163D03*
X24748375Y22395163D03*
X23248375Y30395163D03*
X32248375Y29895163D03*
D22*
X45248375Y44895163D03*
D23*
X53998375Y43645163D03*
D19*
X55748375Y51395163D03*
D20*
X27248375Y33395163D03*
D19*
X21748375Y26895163D03*
X29748375Y26645166D03*
X26248375Y22395163D03*
X30299975Y30895163D03*
X50748375Y51395163D03*
X48248375Y51395163D03*
X85248375Y41895163D03*
X29248375Y19946763D03*
X28248375Y19895163D03*
X24722575Y19946763D03*
X30748375Y20498363D03*
X27748375Y23395163D03*
X31748375Y22895163D03*
X29748375Y23395163D03*
X35248375Y45895163D03*
X27748375Y37895163D03*
X26498375Y33145163D03*
X26943607Y32509231D03*
X31998375Y35645163D03*
X19369482Y26794069D03*
X40748375Y7895163D03*
X18817882Y27322359D03*
X37748375Y7895163D03*
X35248375Y7395163D03*
X18299975Y27864831D03*
X32748375Y7395163D03*
X17748375Y28395163D03*
X28748375Y8395163D03*
X17013417Y28880124D03*
X26248375Y8395163D03*
X16248375Y28895163D03*
X24248375Y8395163D03*
X17248375Y31395163D03*
X21248375Y8395163D03*
X16998375Y32145163D03*
X28300975Y44947763D03*
X27748375Y22395163D03*
D21*
X30248375Y31895163D03*
D24*
X87768063Y30277763D02*
X88681487Y30277763D01*
X29248375Y19946763D02*
X77437063Y19946763D01*
X88681487Y30277763D02*
X89327375Y29631875D01*
X89327375Y25197763D02*
X88224775Y24095163D01*
X77437063Y19946763D02*
X87768063Y30277763D01*
X89327375Y29631875D02*
X89327375Y25197763D01*
X78444775Y19395163D02*
X88224775Y29175163D01*
X28248375Y19895163D02*
X28748375Y19395163D01*
X28748375Y19395163D02*
X78444775Y19395163D01*
X24722575Y19946763D02*
X24748375Y19920963D01*
X27602575Y19040963D02*
X80630575Y19040963D01*
X26722575Y19920963D02*
X27602575Y19040963D01*
X80630575Y19040963D02*
X88224775Y26635163D01*
X24748375Y19920963D02*
X26722575Y19920963D01*
X88224775Y31715163D02*
X77404775Y20895163D01*
X77404775Y20895163D02*
X31145175Y20895163D01*
X31145175Y20895163D02*
X30748375Y20498363D01*
X23708375Y33935163D02*
X23708375Y54395163D01*
X27800975Y23447763D02*
X27800975Y30842563D01*
X27082470Y31561068D02*
X26082470Y31561068D01*
X27748375Y23395163D02*
X27800975Y23447763D01*
X26082470Y31561068D02*
X23708375Y33935163D01*
X27800975Y30842563D02*
X27082470Y31561068D01*
X30998375Y32363668D02*
X30998375Y49645163D01*
X31748375Y22895163D02*
X31748375Y28613668D01*
X30998375Y49645163D02*
X26248375Y54395163D01*
X31748375Y28613668D02*
X31248375Y29113668D01*
X31248375Y29113668D02*
X31248375Y32113668D01*
X31248375Y32113668D02*
X30998375Y32363668D01*
X24810975Y53832563D02*
X29248375Y49395163D01*
X28655175Y24488363D02*
X29748375Y23395163D01*
X28655175Y44520468D02*
X28655175Y24488363D01*
X22270975Y55497763D02*
X24165087Y55497763D01*
X24165087Y55497763D02*
X24810975Y54851875D01*
X21168375Y54395163D02*
X22270975Y55497763D01*
X29248375Y45113668D02*
X28655175Y44520468D01*
X29248375Y49395163D02*
X29248375Y45113668D01*
X24810975Y54851875D02*
X24810975Y53832563D01*
X32541805Y11103561D02*
X35197603Y8447763D01*
X30039975Y11103563D02*
X32541805Y11103561D01*
X35197603Y8447763D02*
X40195775Y8447763D01*
X40195775Y8447763D02*
X40748375Y7895163D01*
X19369482Y26794069D02*
X19369482Y21774056D01*
X19369482Y21774056D02*
X30039975Y11103563D01*
X35529870Y7895163D02*
X37748375Y7895163D01*
X18817882Y20825656D02*
X28894175Y10749363D01*
X35196689Y7947763D02*
X35477270Y7947763D01*
X35477270Y7947763D02*
X35529870Y7895163D01*
X18817882Y27322359D02*
X18817882Y20825656D01*
X28894175Y10749363D02*
X32395090Y10749362D01*
X32395090Y10749362D02*
X35196689Y7947763D01*
X18248375Y27813231D02*
X18248375Y20395163D01*
X18299975Y27864831D02*
X18248375Y27813231D01*
X32248375Y10395163D02*
X35248375Y7395163D01*
X28248375Y10395163D02*
X32248375Y10395163D01*
X18248375Y20395163D02*
X28248375Y10395163D01*
X27748375Y9895163D02*
X17748375Y19895163D01*
X17748375Y19895163D02*
X17748375Y28395163D01*
X32748375Y7395163D02*
X30248375Y9895163D01*
X30248375Y9895163D02*
X27748375Y9895163D01*
X17013417Y18630121D02*
X27248375Y8395163D01*
X17013417Y28880124D02*
X17013417Y18630121D01*
X27248375Y8395163D02*
X28748375Y8395163D01*
X16248375Y18395163D02*
X26248375Y8395163D01*
X16248375Y28895163D02*
X16248375Y18395163D01*
X22748375Y10395163D02*
X22748375Y9895163D01*
X17248375Y31395163D02*
X15248375Y29395163D01*
X22748375Y9895163D02*
X24248375Y8395163D01*
X15248375Y29395163D02*
X15248375Y17895163D01*
X15248375Y17895163D02*
X22748375Y10395163D01*
X16998375Y32145163D02*
X16498375Y32145163D01*
X14748375Y30395163D02*
X14748375Y14895163D01*
X16498375Y32145163D02*
X14748375Y30395163D01*
X14748375Y14895163D02*
X21248375Y8395163D01*
X28300975Y22947763D02*
X27748375Y22395163D01*
X28300975Y44947763D02*
X28300975Y22947763D01*
M02*
